<?xml version="1.0" encoding="UTF-8"?>
<svg id="Layer_1" xmlns="http://www.w3.org/2000/svg" version="1.1" viewBox="0 0 1080 1080">
  <!-- Generator: Adobe Illustrator 29.3.0, SVG Export Plug-In . SVG Version: 2.1.0 Build 146)  -->
  <defs>
    <style>
      .st0 {
        fill: #ded7cb;
      }

      .st1 {
        font-family: Onest-SemiBold, Onest;
        font-size: 36.8px;
        font-weight: 600;
      }

      .st1, .st2 {
        fill: #fff;
      }

      .st3 {
        fill: #ec6a25;
      }

      .st4 {
        fill: #594a42;
      }
    </style>
  </defs>
  <rect class="st4" width="1080" height="1080"/>
  <g>
    <g>
      <g>
        <path class="st3" d="M607.8,427.5c-2.1-1.6-4.4-3-6.2-4.8-10.9-11-20.4-7.8-29.6,2.5-9,10-20.3,17.2-31.4,24.5-16.1,10.6-32.5,20.8-49.9,29.7,12-14.7,28.4-24.4,41.3-37.6,12.5-12.8,18.6-31.1,30.8-45-14.5,5.9-20.8,21.6-35.9,27.1,1.8-13.3,13.2-21.1,16.6-32.7,2.3-1,3.1-2.5,1.7-4.8-1.2.9-2.5,1.8-3.7,2.7-19.5,20.4-39.1,40.8-58.6,61.2-4.4-12.8,4.9-17.9,9.8-22.9,13.3-13.6,15.5-32.1,26-46.9-4.2-5.2-24.9,17.3-14.4-8.8,2.3-1,3.1-2.5,1.7-4.8-1.2.9-2.5,1.8-3.7,2.7-12.2,12.1-24.5,24.2-36.7,36.3-3.7,3.7-9.4,6.7-2.7,13.3,3.4,3.3-1.9,6-3.9,7-24.8,12.2-45.2,29.7-63.6,49.9-1.3,1.4-2.8,2.3-6.9,0,15.3-16.3,20.6-39.8,43.1-50.2,16.8-7.7,22.8-24.5,29.9-39.6,1.9-4.1,4.6-7.7,6.3-11.8,8.4-10.8,21-16.9,30.6-26.9-12.9-5.5-24.1-12.3-30.9-24.6-.9-1.5-3.1-5.2-4.6-2.4-7.3,13.5-14.9.4-22.3.7-5.6.2-12.3-4.7-15.6,4.3,5.3,2.9,12.5-1.8,15.7,3.9,8.6,15.4,22.2,27.7,27.4,45.2-7.5-1.5-13.5-6-18.3-11.5-6.7-7.7-9-5.3-12.9,2.7-6.9,14.2-16.1,26.9-33.1,36,2.1-7.8,3.5-12.7,4.9-17.8-7.7.5-11.3,8.4-18.7,8.5-.4-3.4-.9-6.9-1.3-10.7-15.1,7.7-24.4,22.4-40.8,27.8,21.6-28.4,43.5-56.4,53.3-92.1-5.4,1.5-31.6,20.5-32.9,23.5-.5,1.2-1,3.3-.6,3.7,15,11.5-1.5,12.6-5.9,16.4-9.3,8.1-17.9,17.1-29.7,22-3.5,1.4-7.7,4.7-9.2,0-1.2-3.9-6.7-8.8-.3-13.5,9.8-7.1,14.8-17.9,18.8-28.5,8.2-21.7,23.7-36,41.6-49.6,13.3-10,24.6-22.9,35.8-35.3,7.9-8.7,15.3-5.4,19.6,1.2,12.6,19.5,33.1,33.1,40.8,56.4,4,12,17.2,17.8,23.8,29.1,19.9-18.5,33.9-42.1,51.5-62.7,10.7-12.5,16.9-11.6,28.1.5,29.2,31.3,58.2,62.7,80.7,99.5,5.2,8.4,16.9,8.6,24,15.7,5.9,5.9,13.2,10.3,19.7,15.6,2.4-3.9,8.2-10.3,17.6-12.3,3.1-.6,6.7-1.7,8.7-3.9,14.7-16.5,27.5-12.6,42.6.8,21.6,19.3,43.9,37.7,63.6,59.1,6.1,6.6,13.3,12.6,23.9,14.7,16.3,3.3,28.9,14.6,40.2,27.5-18.6-11.5-40.4-12.1-60-20.1-19.5-7.9-26.5-28.7-45.2-41,.8,11.3,12.5,14.5,10,24.9-18.1-8.8-29.3-24.5-42.7-37.4-17.9-17.2-18.1-18-35.9-1.9-13.6,12.3-31,19.7-42.9,34.1-2.5,3-6,1.7-9.2,2.3-.6-18.2,20.3-23.1,23.8-39.4-10.8,3.3-16.6-13.9-28.6-6.6-3.8-6.6-8.9-1.1-13-1.8-8.5-1.4-12.6-10.4-18.7-15.9-.7-.6-1-2.4-.6-3.2,4.6-9.8,4.3-12.8-5.4-19-5.2-3.3-12.9-6.9-12.5-11.9,1.1-15.4-10-21.9-18.7-30.5-1.2-.9-2.5-1.8-3.7-2.7-1.5,2.3-.7,3.8,1.7,4.9.4,14.3,12.2,25.6,11.3,40.4-7.8-.4-11.2-6.5-16.1-10.5-4.8-3.9-10.1-7.2-16.2-11.5-2.4,11.3,1.3,21.7-6.5,31.3,23-5.4,35.3.6,41.5,20.6,4.5,14.5,12.6,23.6,27.3,27.8,10.3,2.9,19.6,7.8,23.5,19.2,1.7,4.9,5,9,11.2,8.6,9,11,23.1,15.3,32.5,26-37.7-12.5-69.1-36.7-102.6-56.8l.2.2ZM415.3,333.9c-1,.6-2.2.9-2.4,1.5-.5,1.6.6,2.2,2,1.8.7-.2,1.5-1,1.7-1.6.1-.4-.8-1.1-1.3-1.7ZM521.2,372.6c-.5.8-1.4,1.6-1.3,2.3.2,1.4,1.1,2.3,2.5.9.5-.5.8-1.6.6-2.3,0-.4-1.2-.6-1.8-.9ZM394.2,377.6c-.3-.7-.7-1.3-1-2-.6.4-1.8.8-1.7,1.1.2,1,.8,1.8,1.2,2.8.5-.6,1.1-1.2,1.6-1.8Z"/>
        <path class="st3" d="M380.4,506.1c-10.7-3.1-19.1-10.2-28.3-15.9-4.7-2.9-8.4-4.6-14.3.2-13.3,10.9-31.1,15-44.2,26.7-2.6,2.3-8,2.8-5.6,8.5l.3-.3c-3.8-1.2-7.7-2.4-4.7-7.7.7-1.2,1.8-2.1,2.8-3.1,19.3-17.6,43.3-28.3,62.6-44.7q-8.9-7.6-21.5,3.5c-13.7,12.1-29.3,21.3-46.5,28.7,9.9-13.5,25.5-22.4,29.6-40.2-2.6-2.5-4.7.2-7.3,2-27.3,18.1-54.7,36.2-82.2,54.1-3.4,2.2-7.4,3.2-11.2,4.8-.7-.7-1.4-1.4-2.1-2.1,25.5-18.3,51.1-36.3,76.2-55,7.1-5.3,14.5-11.1,17.4-21.6-17,3.7-22.2,22.5-40.9,28.1,10.3-17.2,20.9-32,22.3-50.3,2.3-1,3.1-2.5,1.7-4.8-1.2.9-2.5,1.8-3.7,2.7-12,10.2-24.5,19.8-34.8,31.8-1.6,1.8-10,5.4.6,7,3.3.5,2.6,3.7.7,5.3-20.2,16.8-38.6,36.3-63.2,47.2-.3.1-.8-.3-1.6-.7,11.7-18.3,37.4-25,41.2-49.9-5.4,1.3-26.8,14.9-30.3,18.4-12.7,12.7-25.5,25.2-38.4,37.6-.8.8-2.7.5-4,.7-.7-.7-1.4-1.4-2.1-2.1,11.3-18.3,27-33.5,36.3-53.1.6-1.2,1.8-2.7,2.9-2.9,29-5.2,41.3-32.8,63.3-47.3,15.2-10,27-24,39.8-36.7,9.8-9.8,17.1-9.2,24.2,3.2,4.4,7.5,8.6,15,14.1,21.9,7.3,9,12,18.5,12.5,31.1.5,12.5,20.8,4.8,23.6,18.7,3.7,18.3,17.2,29.4,31.2,40.5,7.3,5.8,16.5,10.3,23.3,22.2-23.5-8-38-25.7-61.8-34.9,7.3,13.2,18.7,17.1,24.3,26.2-.7.7-1.4,1.3-2.2,2ZM320.8,454.5c-.6-.5-1.2-1.3-1.9-1.4-.6,0-1.8.5-2,1-.3,1.1-.3,2.7,1.7,1.8.8-.3,1.4-1,2.1-1.5ZM358.8,475.4c-.7.3-1.3.7-2,1,.4.6.8,1.8,1.1,1.7,1-.2,1.8-.8,2.8-1.2-.6-.5-1.2-1.1-1.8-1.6Z"/>
        <path class="st3" d="M607.6,427.3c-1.4,11.6,6.8,18.3,14.4,23.7,8,5.7,14.3,12.8,21.1,19.5-.7.7-1.4,1.3-2.2,2-15.8-4.4-26.7-17.2-41.1-24.2-5.5-2.6-7.4-3.1-12.6.3-35.6,23.1-71.6,45.5-107.5,68.1-.5.3-1.7-.3-3.6-.7,2-8.4,9.5-10.3,15.5-12.7,11.3-4.7,20.5-10.9,27.6-21.6,4.7-7,12.1-13.3,19.8-16.9,16-7.5,30.3-17.3,43.1-29.1,7.6-7,16-9.2,25.8-8.2,0,0-.2-.2-.2-.2Z"/>
        <path class="st3" d="M758.6,466.8c-15.6-8.8-28.1.1-40.8,8.8,12.2-27.3,23.4-29.6,42.9-10.8-.7.7-1.4,1.3-2.2,2Z"/>
        <path class="st3" d="M740.3,424.9c-13.7,13.6-27.4,27.1-39.6,39.2,8.7-15,25.3-26,39.6-39.2Z"/>
        <path class="st3" d="M475.2,450.1c.4.5,1.4,1.4,1.3,1.6-.6.9-1.4,1.6-2.2,2.3-.3-.7-.9-1.6-.8-2.2.2-.7,1.1-1.1,1.7-1.7Z"/>
        <path class="st3" d="M760.8,464.8c.9,1.2,1.8,2.5,2.7,3.7-2.3,1.4-3.8.6-4.8-1.7.7-.7,1.4-1.3,2.2-2Z"/>
        <path class="st3" d="M643.1,470.4c.9,1.2,1.8,2.5,2.7,3.7-2.3,1.4-3.8.6-4.8-1.7.7-.7,1.4-1.3,2.2-2Z"/>
        <path class="st0" d="M601.7,332.3c-2.3-1-3.1-2.6-1.7-4.9,1.2.9,2.5,1.8,3.7,2.7-.7.7-1.4,1.4-2,2.1Z"/>
        <path class="st0" d="M415.3,333.9c.4.5,1.4,1.3,1.3,1.7-.2.7-1,1.4-1.7,1.6-1.4.4-2.5-.2-2-1.8.2-.6,1.4-.9,2.4-1.5Z"/>
        <path class="st0" d="M502.1,369.4c1.2-.9,2.5-1.8,3.7-2.7,1.4,2.3.6,3.8-1.7,4.8-.7-.7-1.3-1.4-2-2.2Z"/>
        <path class="st0" d="M521.2,372.6c.6.3,1.7.5,1.8.9.1.7-.1,1.8-.6,2.3-1.3,1.4-2.3.5-2.5-.9,0-.7.8-1.5,1.3-2.3Z"/>
        <path class="st0" d="M394.2,377.6c-.5.6-1.1,1.2-1.6,1.8-.4-.9-1-1.8-1.2-2.8,0-.2,1.1-.7,1.7-1.1.3.7.7,1.3,1,2Z"/>
        <path class="st0" d="M541.3,389c1.2-.9,2.5-1.8,3.7-2.7,1.4,2.3.6,3.8-1.7,4.8-.7-.7-1.3-1.4-2-2.2Z"/>
        <path class="st0" d="M320.8,454.5c-.7.5-1.3,1.1-2.1,1.5-2.1.9-2-.7-1.7-1.8.1-.5,1.3-1.1,2-1,.7,0,1.2.9,1.9,1.4Z"/>
        <path class="st0" d="M358.8,475.4c.6.5,1.2,1.1,1.8,1.6-.9.4-1.8,1-2.8,1.2-.2,0-.7-1.1-1.1-1.7.7-.3,1.3-.7,2-1Z"/>
        <path class="st0" d="M280.7,419.8c1.2-.9,2.5-1.8,3.7-2.7,1.4,2.3.6,3.8-1.7,4.8-.7-.7-1.3-1.4-2-2.2Z"/>
      </g>
      <g>
        <path class="st2" d="M166.6,526.8v9.8h-7v33h-10.3v-33h-7v-9.8h24.3Z"/>
        <path class="st2" d="M182.9,526.8v15.9h8.7v-15.9h10.4v42.8h-10.4v-17.8h-8.8v17.8h-10.2v-42.8h10.3Z"/>
        <path class="st2" d="M231.9,526.8v9.1h-10.3v7.9h8.9v8.9h-8.9v7.8h10.4v9.1h-20.6v-42.8h20.6Z"/>
      </g>
      <g>
        <path class="st2" d="M852.1,656.7v42.8h-10.4v-42.8h10.4Z"/>
        <path class="st2" d="M872.6,656.7l12.5,24.4h.1c0-.1-.3-4.3-.3-4.3v-20.1h10.5v42.8h-10.5l-12.3-24.1h-.1c0,.1.3,5.2.3,5.2v19h-10.5v-42.8h10.3Z"/>
        <path class="st2" d="M914.9,656.7l12.5,24.4h.1c0-.1-.3-4.3-.3-4.3v-20.1h10.5v42.8h-10.5l-12.3-24.1h-.1c0,.1.3,5.2.3,5.2v19h-10.5v-42.8h10.3Z"/>
      </g>
      <g>
        <path class="st2" d="M298,527.6v36h-30.2v31.1h26.2v35h-26.2v30.8h30.4v36h-60.4v-169h60.2Z"/>
        <path class="st2" d="M342.5,527.6l14.5,66.9c4.2,19.7,5.6,26.4,6,30.6l1.4,15h.4l2-15.6c.6-4.4,3.2-18.4,6.4-32.9l1-4.7,1-4.7,11.5-54.7h31.8l-39.4,169h-27.6l-40-169h31Z"/>
        <path class="st2" d="M495.2,527.6v36h-30.2v31.1h26.2v35h-26.2v30.8h30.4v36h-60.4v-169h60.2Z"/>
        <path class="st2" d="M554,527.6c28,0,45.5,19.7,45.5,51.8s-3.4,23.6-9.1,31.9c-2.6,3.9-4.4,5.7-9.1,9.1l23.7,76.2h-31.4l-23.5-77h-.4v77h-30.4v-169h34.6ZM549.7,600.5c12.7-.3,19.1-6.5,19.1-17.9s-5.2-21.8-19.1-22.3v40.2Z"/>
        <path class="st2" d="M681.7,527.6v36h-30.2v31.1h26.2v35h-26.2v30.8h30.4v36h-60.4v-169h60.2Z"/>
        <path class="st2" d="M705.5,654.1c.6.5.8.5,1.6,1.3,6.2,4.1,11.1,6.7,15.5,8.3,2.4.8,3.6.8,6.6,1,7.6-.8,12.1-6,12.1-14.5s-2.6-11.1-10.3-18.9c-1.4-1.6-1.6-1.6-2.4-2.6-11.9-12.7-13.5-14.5-19.1-23.3-5.6-8.8-9.1-21-9.1-32.9,0-29.3,15.7-49.5,38.4-49.5s17.9,2.9,24.9,7v37.8c-8.5-6-16.1-9.3-21.5-9.3s-11.9,4.9-11.9,13,4,13.5,13.9,23.1c1,1,1.2,1,1.8,1.8,7.8,8.3,14.3,16.6,17.9,22.5,5.2,9.3,8.2,20.2,8.2,31.6,0,29.3-17.7,50.5-42.1,50.5s-14.9-1.6-24.7-7.5v-39.4Z"/>
        <path class="st2" d="M855.8,527.6v38.6h-20.5v130.4h-30.2v-130.4h-20.3v-38.6h71Z"/>
      </g>
    </g>
    <text class="st1" transform="translate(231.3 768.7)"><tspan x="0" y="0">FINE NEPALESE &amp; INDIAN CUISINE</tspan></text>
  </g>
</svg>