<?xml version="1.0" encoding="UTF-8"?>
<svg id="Layer_1" xmlns="http://www.w3.org/2000/svg" xmlns:xlink="http://www.w3.org/1999/xlink" version="1.1" viewBox="0 0 1080 1080">
  <!-- Generator: Adobe Illustrator 29.3.0, SVG Export Plug-In . SVG Version: 2.1.0 Build 146)  -->
  <defs>
    <style>
      .st0 {
        fill: url(#linear-gradient2);
      }

      .st1 {
        fill: url(#linear-gradient1);
      }

      .st2 {
        fill: url(#linear-gradient9);
      }

      .st3 {
        fill: url(#linear-gradient3);
      }

      .st4 {
        fill: url(#linear-gradient6);
      }

      .st5 {
        fill: url(#linear-gradient8);
      }

      .st6 {
        fill: url(#linear-gradient7);
      }

      .st7 {
        fill: url(#linear-gradient5);
      }

      .st8 {
        fill: url(#linear-gradient4);
      }

      .st9 {
        fill: url(#linear-gradient13);
      }

      .st10 {
        fill: url(#linear-gradient12);
      }

      .st11 {
        fill: url(#linear-gradient11);
      }

      .st12 {
        fill: url(#linear-gradient10);
      }

      .st13 {
        fill: url(#linear-gradient14);
      }

      .st14, .st15 {
        fill: #001d1b;
      }

      .st16 {
        fill: url(#linear-gradient);
      }

      .st15 {
        stroke: #c0966a;
        stroke-miterlimit: 10;
        stroke-width: 2.9px;
      }

      .st17 {
        fill: #dfc34c;
      }
    </style>
    <linearGradient id="linear-gradient" x1="212.4" y1="598" x2="352" y2="598" gradientUnits="userSpaceOnUse">
      <stop offset=".2" stop-color="#dfc34c"/>
      <stop offset=".4" stop-color="#a57b00"/>
      <stop offset=".7" stop-color="#dfc34c"/>
      <stop offset="1" stop-color="#a57b00"/>
    </linearGradient>
    <linearGradient id="linear-gradient1" x1="676.1" y1="605.3" x2="876.4" y2="605.3" xlink:href="#linear-gradient"/>
    <linearGradient id="linear-gradient2" x1="676.3" y1="429.3" x2="676.3" y2="633.7" gradientUnits="userSpaceOnUse">
      <stop offset=".2" stop-color="#dfc34c"/>
      <stop offset=".5" stop-color="#a57b00"/>
      <stop offset=".8" stop-color="#dfc34c"/>
      <stop offset="1" stop-color="#a57b00"/>
    </linearGradient>
    <linearGradient id="linear-gradient3" x1="244.9" y1="429.3" x2="244.9" y2="633.7" xlink:href="#linear-gradient2"/>
    <linearGradient id="linear-gradient4" x1="324.6" y1="429.3" x2="324.6" y2="633.7" xlink:href="#linear-gradient2"/>
    <linearGradient id="linear-gradient5" x1="223.8" y1="429.3" x2="223.8" y2="633.7" xlink:href="#linear-gradient2"/>
    <linearGradient id="linear-gradient6" x1="856.3" y1="429.3" x2="856.3" y2="633.7" xlink:href="#linear-gradient2"/>
    <linearGradient id="linear-gradient7" x1="504.9" y1="429.3" x2="504.9" y2="633.7" xlink:href="#linear-gradient2"/>
    <linearGradient id="linear-gradient8" x1="610.4" y1="429.3" x2="610.4" y2="633.7" xlink:href="#linear-gradient2"/>
    <linearGradient id="linear-gradient9" x1="762.4" y1="429.3" x2="762.4" y2="633.7" xlink:href="#linear-gradient2"/>
    <linearGradient id="linear-gradient10" x1="486.6" y1="429.3" x2="486.6" y2="633.7" xlink:href="#linear-gradient2"/>
    <linearGradient id="linear-gradient11" x1="413" y1="429.3" x2="413" y2="633.7" xlink:href="#linear-gradient2"/>
    <linearGradient id="linear-gradient12" x1="692.1" y1="429.2" x2="692.1" y2="633.7" xlink:href="#linear-gradient2"/>
    <linearGradient id="linear-gradient13" x1="679.2" y1="429.3" x2="679.2" y2="633.7" xlink:href="#linear-gradient2"/>
    <linearGradient id="linear-gradient14" x1="652.6" y1="438.5" x2="707" y2="438.5" xlink:href="#linear-gradient2"/>
  </defs>
  <rect class="st14" width="1080" height="1080"/>
  <g>
    <rect class="st15" x="133.5" y="336.7" width="813.1" height="406.5"/>
    <g>
      <g>
        <path class="st17" d="M355.5,619.4l8.7-7.4,10.2-16.7,3.3,3.9-6.7,10.5,11.3-5,3.2,3.8-18,7.4-8.7,7.4-3.4-4Z"/>
        <path class="st17" d="M366.7,632.1l21.4-21.1,8.8,9-2.7,2.7-5-5.1-6.2,6.1,3.9,4-2.7,2.7-3.9-4-7.1,7,5,5.1-2.7,2.6-8.9-9Z"/>
        <path class="st17" d="M382.8,647.8l17.1-19.5-3.6-3.2,2.7-3,11.3,9.9-2.7,3-3.5-3.1-17.1,19.5-4.1-3.6Z"/>
        <path class="st17" d="M403.7,664.6l17.2-24.6,4.4,3.1-17.2,24.6-4.4-3.1Z"/>
        <path class="st17" d="M413.9,671.6l15.3-25.9,3.3,1.9-2.4,18.5,8.7-14.7,3.9,2.3-15.3,25.9-3.1-1.8,2.8-19.2-9.1,15.4-4-2.4Z"/>
        <path class="st17" d="M434,683.1l12.3-27.4,6.5,2.9c2.2,1,3.8,2.1,4.8,3.3,1,1.2,1.4,2.5,1.4,4,0,1.5-.5,3.2-1.4,5.2l-4.5,10c-.9,2-1.9,3.5-3,4.6-1.1,1.1-2.4,1.7-4,1.8-1.5,0-3.3-.3-5.5-1.3l-6.7-3ZM440.5,681.8l1.5.7c1.2.5,2.1.7,2.7.5.7-.2,1.2-.6,1.7-1.4s.9-1.7,1.5-2.8l4.7-10.5c.5-1.1.8-2,1-2.8.1-.7,0-1.4-.3-1.9-.4-.5-1.1-1.1-2.2-1.6l-1.5-.7-9.2,20.4Z"/>
        <path class="st17" d="M455.7,692.2l9.7-28.4,5.1,1.8-9.7,28.4-5.1-1.8Z"/>
        <path class="st17" d="M466.8,696l12.8-27.8,5.7,1.4-1.1,30.6-4.9-1.2.5-7-5.1-1.2-2.8,6.5-5-1.2ZM476,687.5l4,.9.9-12.7-4.9,11.8Z"/>
        <path class="st17" d="M491,701.2l3.2-29.9,3.8.4,5.5,17.8,1.8-17,4.5.5-3.2,29.9-3.6-.4-5.4-18.6-1.9,17.8-4.6-.5Z"/>
        <path class="st17" d="M525.8,703.1l-1.9-30,7.4-.5c1.3,0,2.5,0,3.6.1,1.1.2,2,.5,2.9,1.1.8.5,1.5,1.3,1.9,2.2.5,1,.8,2.2.9,3.7,0,1.2,0,2.3-.3,3.1-.3.9-.7,1.6-1.3,2.1-.6.5-1.4.9-2.3,1.2,1.2.1,2.2.5,3,1,.8.6,1.4,1.4,1.9,2.3.4,1,.7,2.2.8,3.6,0,1.4,0,2.7-.3,3.8-.3,1.1-.8,2.1-1.4,2.8-.7.8-1.5,1.4-2.5,1.8-1,.4-2.2.7-3.6.8l-8.6.6ZM530.1,685h1.9c1.1-.2,1.9-.4,2.5-.8.6-.4,1-.9,1.1-1.6.2-.7.3-1.5.2-2.5,0-1.1-.3-1.9-.7-2.4-.4-.6-1-.9-1.7-1.1-.7-.2-1.6-.2-2.8-.1h-1.1c0,0,.5,8.5.5,8.5ZM531,698.9h2.1c1.7-.2,2.8-.7,3.3-1.6.5-.8.8-2.1.6-3.8,0-1.2-.3-2.2-.6-2.9-.3-.7-.8-1.3-1.5-1.6-.7-.3-1.6-.5-2.6-.4h-1.9c0,.1.6,10.2.6,10.2Z"/>
        <path class="st17" d="M553.4,700.4l-2-11.3-9.2-17.3,5-.9,5.7,11.1,1.4-12.3,4.9-.9-2.7,19.3,2,11.3-5.1.9Z"/>
        <path class="st17" d="M582,693.6l-11.4-27.8,3.5-1.4,13.2,13.1-6.5-15.9,4.2-1.7,11.4,27.8-3.4,1.4-13.6-13.8,6.8,16.6-4.3,1.8Z"/>
        <path class="st17" d="M603.6,684.1l-11.4-28.4,4.9-3.2,21.5,21.8-4.2,2.8-4.8-5.1-4.4,2.9,2.8,6.5-4.3,2.8ZM603.6,671.6l3.4-2.2-8.6-9.4,5.2,11.7Z"/>
        <path class="st17" d="M625.5,668l-18.1-18.7-3.4,3.3-2.8-2.9,10.8-10.4,2.8,2.9-3.4,3.3,18.1,18.7-3.9,3.8Z"/>
        <path class="st17" d="M643.2,647.5c-1.2,1.9-2.5,3.1-3.8,3.7-1.4.6-2.8.7-4.3.3-1.5-.4-3.2-1.2-4.9-2.3l-17.1-10.9,2.9-4.5,17.7,11.3c.8.5,1.6.9,2.3,1.3.8.3,1.5.5,2.2.3.7-.1,1.3-.6,1.7-1.3.5-.8.7-1.5.5-2.2-.2-.6-.6-1.2-1.2-1.8-.6-.6-1.3-1.1-2.1-1.6l-17.7-11.3,2.9-4.5,17.1,10.9c1.8,1.1,3.2,2.3,4.2,3.5,1,1.2,1.5,2.5,1.6,4,0,1.5-.6,3.2-1.8,5Z"/>
        <path class="st17" d="M651.6,631.1l-28.7-8.9,2.1-6.9c.6-1.9,1.3-3.5,2.2-4.7.9-1.2,2-2,3.3-2.3,1.3-.4,2.9-.2,4.9.4,1.2.4,2.2.8,3,1.3.9.5,1.5,1.1,2,1.8.5.7.8,1.6.9,2.6l15.4.4-1.6,5.2-14.2-.6-.7,2.4,13.1,4.1-1.6,5.2ZM636.8,620.8l.5-1.6c.3-1,.4-1.9.3-2.6-.1-.7-.4-1.3-1-1.7-.6-.5-1.4-.8-2.4-1.2-1.4-.4-2.6-.5-3.5-.2-.9.3-1.6,1.2-2,2.7l-.6,1.9,8.7,2.7Z"/>
        <path class="st17" d="M657.9,605.3l-30-1.2.5-12.6,3.9.2-.3,7.1,8.6.4.2-5.6,3.8.2-.2,5.6,9.9.4.3-7.2,3.8.2-.5,12.7Z"/>
      </g>
      <path class="st16" d="M352,597.7h0c-.3-2.5-2.9-4.8-9.2-4.4-6.7.4-77,1.9-81.4,1.9s-3.6-1.4-4.7-3.1c-2.1-6-7.7-10.2-17.3-10.2s-27,7.2-27,16,14.5,16,27,16,15.2-4.2,17.3-10.2c1.1-1.7,2.5-3.1,4.7-3.1,4.4,0,74.7,1.5,81.4,1.9,6.3.4,8.9-1.8,9.2-4.4h0c0,0,0-.2,0-.2,0,0,0-.1,0-.2ZM346.1,599.9c-1,0-1.8-.8-1.8-1.8s.8-1.8,1.8-1.8,1.8.8,1.8,1.8-.8,1.8-1.8,1.8Z"/>
      <path class="st1" d="M869.3,585.9h-26.8c-3.2,0-7.3,1.1-9.2,4.9-1.9,3.8-3.8,11.1-9.5,11.1s-127.2-1.9-135.8-2.4c-8.2-.5-11.5,2.4-11.9,5.6h0c0,0,0,.2,0,.3,0,0,0,.2,0,.3h0c.3,3.3,3.7,6.1,11.9,5.6,8.7-.5,130.2-2.4,135.8-2.4s7.6,7.3,9.5,11.1c1.9,3.8,6,4.9,9.2,4.9h26.8c3,0,7,.8,7-4.6v-29.7c0-5.4-4.1-4.6-7-4.6ZM683.9,607.5c-1.3,0-2.4-1.1-2.4-2.4s1.1-2.4,2.4-2.4,2.4,1.1,2.4,2.4-1.1,2.4-2.4,2.4ZM865.5,617.2h-15.1c-1.3,0-2.4-.8-2.4-1.8s1.1-1.8,2.4-1.8h15.1c1.3,0,2.4.8,2.4,1.8s-1.1,1.8-2.4,1.8ZM865.5,610.5h-15.1c-1.3,0-2.4-.8-2.4-1.8s1.1-1.8,2.4-1.8h15.1c1.3,0,2.4.8,2.4,1.8s-1.1,1.8-2.4,1.8ZM865.5,603.8h-15.1c-1.3,0-2.4-.8-2.4-1.8s1.1-1.8,2.4-1.8h15.1c1.3,0,2.4.8,2.4,1.8s-1.1,1.8-2.4,1.8ZM865.5,597h-15.1c-1.3,0-2.4-.8-2.4-1.8s1.1-1.8,2.4-1.8h15.1c1.3,0,2.4.8,2.4,1.8s-1.1,1.8-2.4,1.8Z"/>
      <g>
        <path class="st0" d="M678.1,456.8c-18.7,0-33.9-12.1-33.9-39s2.2-23.7,8.3-37.2c0,0,48.9-3.4,51-3.6h-52.2c-6.8,12-11,27.9-11,42.4,0,28.5,16,41.2,35.8,41.2s37.8-12.3,35.9-41.2c0-.3,0-.5,0-.8-1.6,26.4-15.4,38.2-33.9,38.2Z"/>
        <g>
          <g>
            <path class="st3" d="M214.9,467.8c0-6.5-.9-11.2-2.8-14.3-1.8-3.1-5.5-4.7-11.1-4.7h-4v-3.8h78.8c11.2,0,16.8,5.1,16.8,15.2v14.3h-4c0-14.6-8.2-21.8-24.7-21.8h-31.4v50.3h44.6v7.6h-44.6l-17.8-42.7Z"/>
            <path class="st8" d="M347.2,566.6c-5.5,0-9.2-1.6-11.1-4.7-1.8-3.1-2.8-7.9-2.8-14.3v-40.6h0v-39.2c0-6.5-.5-11.3-1.6-14.4-1-3.2-2.8-5.4-5.2-6.6-2.4-1.2-6.1-1.8-11-1.8h-17.8v3.8h4c5.5,0,9.2,1.5,11.1,4.7,1.7,2.9,2.6,7.3,2.7,13.1h0v81c0,6.5.5,11.3,1.6,14.4,1,3.2,2.8,5.4,5.2,6.6,2.4,1.2,6.1,1.8,11,1.8h17.8v-3.8h-4Z"/>
            <path class="st7" d="M246.5,566.6c-5.5,0-9.2-1.6-11.1-4.7-1.8-3.1-2.8-7.9-2.8-14.3v-40.6h0v-39.2c0-6.5-.5-11.3-1.6-14.4-1.1-3.2-2.8-5.4-5.2-6.6-2.4-1.2-6.1-1.8-11-1.8h-17.8v3.8h4c5.5,0,9.2,1.5,11.1,4.7,1.7,2.9,2.6,7.3,2.7,13.1h0v81c0,6.5.5,11.3,1.6,14.4,1.1,3.2,2.8,5.4,5.2,6.6,2.4,1.2,6.1,1.8,11,1.8h17.8v-3.8h-4Z"/>
            <path class="st4" d="M879,566.6c-5.5,0-9.2-1.6-11.1-4.7-1.8-3.1-2.8-7.9-2.8-14.3v-40.6h0v-39.2c0-6.5-.5-11.3-1.6-14.4-1-3.2-2.8-5.4-5.2-6.6-2.4-1.2-6.1-1.8-11-1.8h-17.8v3.8h4c5.5,0,9.2,1.5,11.1,4.7,1.7,2.9,2.6,7.3,2.7,13.1h0v81c0,6.5.5,11.3,1.6,14.4,1.1,3.2,2.8,5.4,5.2,6.6,2.4,1.2,6.1,1.8,11,1.8h17.8v-3.8h-4Z"/>
            <path class="st6" d="M541.4,566.3c-6.2-3.4-11.1-9.9-14.8-19.7l-4.9-12.3h-55.3l-15.8,36.1h-8.9l55.3-125.4h5.9l43.5,101.6c3.3,7.3,6.4,12.4,9.3,15.1,2.9,2.7,7,4.3,12.4,4.8v3.8c-2.4.6-5,1-7.9,1-6.3,0-12.6-1.7-18.8-5ZM469.3,526.7h48.4l-23.7-55.1-24.7,55.1Z"/>
            <path class="st5" d="M673.4,464v75l-69.1-82.6c-3.3-3.8-7-6.7-11.3-8.6-4.2-1.9-9.4-2.8-15.4-2.8h-12.8v3.8h2c6.5,0,11,1.6,13.7,4.9,2.7,3.3,4,8,4,14.1v95.4c0,14.6-13.1,45.5-48.2,59.6,0,0,56.1-14.1,56.1-59.6v-92.5l84.9,101.6h4s0-92.6-.1-108.3c0-1.9,2-3.7,3.2-4.1,1.2-.4-2.8-.9-2.8-.9l-13.5.3,2.2.8s3.2,1.1,3.2,3.9Z"/>
            <path class="st2" d="M729.7,565.1c-10.2-6.1-18.2-14.3-23.9-24.8-5.7-10.5-8.6-21.9-8.6-34.5s2.5-23,7.5-32.8c5-9.8,12.1-17.6,21.4-23.3,9.3-5.7,20.1-8.5,32.3-8.5s21.1,1.4,29.3,4.3c8.2,2.9,14.3,6.5,18.1,10.9,2.1,2.5,3.5,5.9,4,10.1.6,4.2.9,9.4.9,15.6h-3.9c-2.5-11.1-7.2-19.5-14.2-25-7-5.5-16.4-8.3-28.3-8.3s-19.6,2.7-26.7,8.1c-7.1,5.4-12.4,12.4-15.7,21-3.4,8.6-5,17.9-5,27.9,0,21.4,4.3,36.9,13,46.4,8.7,9.6,20.1,14.3,34.4,14.3s12.4-.6,17.2-1.7c4.7-1.1,9.2-2.8,13.4-4.9v-33.1c0-4.3.7-8,2.2-11.2,1.4-3.2,4.6-5.8,9.4-7.9,4.8-2.1,11.8-3.1,21-3.1v3.8c-5.9,0-9.9,1.5-11.9,4.4-2,2.9-3,7.5-3,13.7v35.7c-7.1,4.2-14.6,7.2-22.3,9.1-7.8,1.9-16.5,2.8-26.1,2.8s-24.5-3-34.7-9.1Z"/>
            <path class="st12" d="M471.7,650c-62.6-22.4-105.1-77.2-116.3-112.6,34.3-1.7,81.5-23.6,78.1-53.9-3.4-30.3-44.4-25.3-57.9-14-17.4,14.6-19.7,48.7-19.7,52.7s-5.2-2-.6-31.9c0,0,3.4-35.4,39.9-44.4,36.5-9,64.6,15.2,55.9,51.8-8.8,37.1-63.2,47.6-85.1,47,11.2,23,77,100.6,171.1,91.6,67.4-6.4,86.5-59.5,73.9-89.9,17.4,25.8,7.7,65.5-18.5,86-27,21.1-76.1,33.7-120.8,17.7Z"/>
            <path class="st11" d="M344.3,454.6s2.7-10.6,20.6-10.6h90.4c16.3,0,21.4,0,24.2-5.9h2.8s-3.4,16.5-20.8,16.5h-96.1c-11.8,0-17,.2-19.5,7.5h-2.2s-.3-2.8.6-7.5Z"/>
          </g>
          <g>
            <path class="st10" d="M684,568v3.9c6.1.3,12,1.4,16.2,3.3-6.1-3.1-12.3-4.9-16.2-7.2Z"/>
            <path class="st9" d="M708.7,579.2s2,2.5-4.6,5c-6.6,2.5-26.6,5.5-40.9,2-14.3-3.4-12.9-6-3.5-10.7,3.5-1.8,8.5-2.9,14-3.4l-2.4-2.3c-1.8.8-4.9,1-9.4,2.5-12.1,4.1-12.5,4.7-13.1,8.5-.6,3.8,11.3,8.3,29.4,8.3s35.5-5.5,30.3-10.1Z"/>
          </g>
        </g>
      </g>
      <path class="st13" d="M706.3,426.7c-1.5,14.4-13.7,25.6-28.4,25.6s-26.9-11.2-28.4-25.6c0,0,11.9-3.9,26.8-.5,14.8,3.3,28,3.6,30.1.5Z"/>
    </g>
  </g>
</svg>