<?xml version="1.0" encoding="UTF-8"?>
<svg id="Layer_1" xmlns="http://www.w3.org/2000/svg" xmlns:xlink="http://www.w3.org/1999/xlink" version="1.1" viewBox="0 0 1080 1080">
  <!-- Generator: Adobe Illustrator 29.3.0, SVG Export Plug-In . SVG Version: 2.1.0 Build 146)  -->
  <defs>
    <style>
      .st0 {
        fill: none;
      }

      .st1 {
        fill: #403f3f;
      }

      .st2 {
        fill: #e35337;
      }

      .st3 {
        fill: url(#linear-gradient);
      }

      .st4 {
        fill: #4a833f;
      }

      .st5, .st6, .st7, .st8, .st9, .st10, .st11, .st12, .st13, .st14 {
        fill: #1d1d1b;
      }

      .st15 {
        fill: #0a9439;
      }

      .st15, .st16, .st17 {
        font-family: Bira-PERSONALUSEONLY, 'Bira PERSONAL USE ONLY';
      }

      .st15, .st17 {
        font-size: 164.9px;
      }

      .st18 {
        fill: #379e31;
      }

      .st19 {
        fill: #ffeecb;
      }

      .st20 {
        fill: #130080;
      }

      .st21 {
        fill: #d68121;
      }

      .st22 {
        fill: #fff;
      }

      .st23 {
        fill: #065eb8;
      }

      .st24 {
        fill: #c16a1c;
      }

      .st16 {
        font-size: 112.7px;
      }

      .st16, .st17 {
        fill: #f7a813;
      }

      .st25 {
        fill: #ca1a13;
      }

      .st26 {
        fill: #55964c;
      }

      .st27 {
        fill: #3aaa35;
      }

      .st28 {
        fill: #db1a16;
      }

      .st29 {
        clip-path: url(#clippath);
      }

      .st6 {
        font-size: 70.4px;
      }

      .st6, .st7, .st8, .st9, .st10, .st11, .st12, .st13, .st14 {
        font-family: GoudySansITCbyBT-BoldItalic, 'ITC Goudy Sans BT';
        font-style: italic;
        font-weight: 700;
      }

      .st30 {
        fill: #ececec;
      }

      .st7 {
        font-size: 70.4px;
      }

      .st8 {
        font-size: 70.4px;
      }

      .st9 {
        font-size: 70.4px;
      }

      .st10 {
        font-size: 70.4px;
      }

      .st11 {
        font-size: 70.4px;
      }

      .st12 {
        font-size: 70.4px;
      }

      .st13 {
        font-size: 70.4px;
      }

      .st14 {
        font-size: 70.4px;
      }
    </style>
    <clipPath id="clippath">
      <path class="st0" d="M156.5,540c0,211.8,171.7,383.5,383.5,383.5s383.5-171.7,383.5-383.5-171.7-383.5-383.5-383.5-383.5,171.7-383.5,383.5"/>
    </clipPath>
    <linearGradient id="linear-gradient" x1="-305.2" y1="840.6" x2="-299.2" y2="840.6" gradientTransform="translate(37548.9 103470.4) scale(122.4 -122.4)" gradientUnits="userSpaceOnUse">
      <stop offset="0" stop-color="#f39200"/>
      <stop offset=".2" stop-color="#f39400"/>
      <stop offset=".3" stop-color="#f49c01"/>
      <stop offset=".4" stop-color="#f5aa04"/>
      <stop offset=".5" stop-color="#f7be08"/>
      <stop offset=".6" stop-color="#fad80c"/>
      <stop offset=".6" stop-color="#fcea10"/>
      <stop offset=".6" stop-color="#fbe210"/>
      <stop offset=".7" stop-color="#f8ce12"/>
      <stop offset=".8" stop-color="#f4ac15"/>
      <stop offset=".8" stop-color="#ee7e19"/>
      <stop offset=".9" stop-color="#e84b1e"/>
      <stop offset="1" stop-color="#e84b1e"/>
    </linearGradient>
  </defs>
  <rect class="st19" width="1080" height="1080"/>
  <g>
    <path class="st22" d="M932,540c0,216.5-175.5,392-392,392s-392-175.5-392-392,175.5-392,392-392,392,175.5,392,392"/>
    <path class="st30" d="M327.1,227.5s0,0,0,0c0,0,0,0,0,0h0Z"/>
    <g class="st29">
      <rect class="st3" x="-2.1" y="-2.1" width="1084.2" height="1084.2" transform="translate(-223.4 560.5) rotate(-46.5)"/>
    </g>
    <path class="st28" d="M488.6,886.7c-3.5-.4-3.7-5.4-.3-6.1,16.8-3.8,36.2-13.5,47.1-21.5,12.9-9.4,20.2-25,25.6-38.1,3.4-8.3,8.6-27.4,12.1-35.7,4.8-11.6,21-25.8,38.2-10.2,11,9.9,4,33.5,0,42.7-11.3,25.9-33.2,55.1-62,63-26.6,7.3-46.9,7.5-60.6,5.9"/>
    <path class="st2" d="M548.4,859.7c11.3-9,21.3-22.5,27.8-38.2,1.8-4.4,3.9-11.1,6.2-18.2,2.1-6.7,4.2-13.6,5.9-17.5,4.5-9.9,8.3-11.4,8.3-11.4-8.7-.7-15.5,7.8-17.8,13.2-1.6,3.9-3.8,10.8-5.9,17.5-2.2,7.1-4.5,13.8-6.2,18.2-14.2,37.2-45.2,49.1-52.8,51,11.5-1.7,24.1-6.4,34.5-14.7"/>
    <path class="st25" d="M611.2,817.8c4-9.2,11.1-32.8,0-42.7-4.7-4.3-9.3-6.3-13.7-6.7,14.2,4.3,7.7,33.9-3.9,57-19.5,39-64.9,63.1-107.8,58.6.1,1.3,1.1,2.5,2.7,2.7,13.8,1.7,34,1.4,60.6-5.9,28.8-7.9,50.7-37.2,62-63.1"/>
    <path class="st27" d="M607.2,783s-1-3.5-3.7-5.1c-2.7-1.6-3.5-4.7-3.5-4.7.4,6-10.4,6.4-10.4,6.4,0,0,1.5-1.5,1.2-4.7-.3-3.2,1.1-4,1.1-4l-4.3.3c-4.3.3-6.9-2.1-6.9-2.1,0,0,2,.4,5.3-.7,5-1.7,8.1-3.3,14.6-2.8,5.7.4,13.3,5.2,15.8,14.2-.8-1.2-3.2-1.3-5.4-2.3-1.4-.6-3.1-2.5-3.1-2.5,0,0,1.5,3.1-.7,8.1"/>
    <path class="st18" d="M616.4,779.7c-2.4-8.2-9-13-14.5-13.9h0s-1.2-5.3,2.9-9.5c3-3,5.4-3.5,5.4-3.5,0,0,1.6-2.3-1.9-3.4-10.6,4-9.1,16.1-9.1,16.1,0,0,0,0,0,0,2.4,7.6-6.3,10.4-6.3,10.4,0,0-1.6-2.4-1.1-4.9,0,0-.3.2-.6.7-.3.6-.7,1.6-.5,3.3.3,3.2-1.2,4.7-1.2,4.7,0,0,10.9-.4,10.4-6.4,0,0,.8,3.1,3.5,4.7,2.7,1.6,3.7,5.1,3.7,5.1,2.2-4.9.7-8.1.7-8.1,0,0,1.7,1.9,3.1,2.5,2.2,1,4.7,1,5.4,2.3"/>
    <path class="st28" d="M618.1,886.7c3.5-.4,3.7-5.4.3-6.1-16.8-3.8-36.2-13.5-47.1-21.5-12.9-9.4-20.2-25-25.6-38.1-3.4-8.3-8.6-27.4-12.1-35.7-4.8-11.6-21-25.8-38.2-10.2-11,9.9-4,33.5,0,42.7,11.3,25.9,33.2,55.1,62,63,26.6,7.3,46.9,7.5,60.6,5.9"/>
    <path class="st2" d="M558.4,859.7c-11.3-9-21.3-22.5-27.8-38.2-1.8-4.4-3.9-11.1-6.2-18.2-2.1-6.7-4.2-13.6-5.9-17.5-4.5-9.9-8.3-11.4-8.3-11.4,8.7-.7,15.5,7.8,17.8,13.2,1.6,3.9,3.8,10.8,5.9,17.5,2.2,7.1,4.5,13.8,6.2,18.2,14.2,37.2,45.2,49.1,52.8,51-11.5-1.7-24.1-6.4-34.5-14.7"/>
    <path class="st25" d="M495.5,817.8c-4-9.2-11.1-32.8,0-42.7,4.7-4.3,9.3-6.3,13.7-6.7h0c-14.2,4.3-7.7,33.9,3.9,57,19.5,39,64.9,63.1,107.8,58.6-.2,1.3-1.1,2.5-2.7,2.7-13.8,1.7-34,1.4-60.6-5.9-28.8-7.9-50.7-37.2-62-63.1"/>
    <path class="st27" d="M499.5,783s1-3.5,3.7-5.1c2.7-1.6,3.5-4.7,3.5-4.7-.4,6,10.4,6.4,10.4,6.4,0,0-1.5-1.5-1.2-4.7.3-3.2-1.1-4-1.1-4l4.3.3c4.3.3,6.9-2.1,6.9-2.1,0,0-2,.4-5.3-.7-5-1.7-8.1-3.3-14.6-2.8-5.7.4-13.3,5.2-15.8,14.2.8-1.2,3.2-1.3,5.4-2.3,1.4-.6,3.1-2.5,3.1-2.5,0,0-1.5,3.1.7,8.1"/>
    <path class="st18" d="M490.3,779.7c2.4-8.2,9-13,14.5-13.9h0s1.2-5.3-2.9-9.5c-3-3-5.4-3.5-5.4-3.5,0,0-1.6-2.3,1.9-3.4,10.6,4,9.1,16.1,9.1,16.1,0,0,0,0,0,0-2.4,7.6,6.3,10.4,6.3,10.4,0,0,1.6-2.4,1.1-4.9,0,0,.3.2.6.7.3.6.7,1.6.5,3.3-.3,3.2,1.2,4.7,1.2,4.7,0,0-10.9-.4-10.4-6.4,0,0-.8,3.1-3.5,4.7-2.7,1.6-3.7,5.1-3.7,5.1-2.2-4.9-.7-8.1-.7-8.1,0,0-1.7,1.9-3.1,2.5-2.2,1-4.7,1-5.4,2.3"/>
    <path class="st1" d="M630.9,474.7c.2,0,.4,0,.6,0,1.6-.2,2.7-1.6,2.6-3.2l-24.3-217.3c-.2-1.6-1.6-2.7-3.2-2.6-1.6.2-2.7,1.6-2.6,3.2l24.3,217.3c.2,1.4,1.3,2.5,2.6,2.6"/>
    <path class="st22" d="M614.1,292.8c0,.2,0,.5,0,.7,0,0,0,0,0,0,0,.2,0,.5-.1.7,0,0,0,0,0,.1,0,.2-.2.4-.3.7,0,0,0,0,0,.1-.1.2-.2.4-.4.7,0,0,0,0,0,0-.2.2-.3.4-.5.7,0,0,0,0,0,0-.2.2-.4.4-.6.6,0,0,0,0,0,0-.2.2-.4.4-.6.6,0,0-.1.1-.2.2-.2.2-.4.4-.7.6,0,0,0,0,0,0-.3.2-.5.4-.8.6,0,0-.2.1-.3.2-.2.1-.4.3-.6.4-.1,0-.3.2-.4.3-.2.1-.4.2-.6.4-.2.1-.3.2-.5.3-.2.1-.4.2-.6.3-.2.1-.4.2-.6.3l-.6.3c-.2.1-.4.2-.6.3-.2,0-.4.2-.6.3-.2,0-.4.2-.6.3-.2.1-.5.2-.7.3-.1,0-.3.1-.5.2-.4.2-.7.3-1.1.4-.8.3-1.7.6-2.5.9-1.2.4-2.3.7-3.5,1.1,0,0-.1,0-.2,0-1,.3-2,.5-2.9.7-1.7.4-3.4.8-5.1,1.1-1.1.2-2.1.4-3.2.5-.2,0-.3,0-.5,0-1.1.2-2.3.3-3.4.5-.1,0-.3,0-.4,0-1.1.2-2.2.3-3.3.4-.2,0-.3,0-.5,0-1,.1-2,.2-3,.3-.1,0-.3,0-.4,0-1.1.1-2.3.2-3.3.3-2.8.3-5.5.5-8.3.7-.5,0-1,0-1.4.1-.4,0-.7,0-1.1,0-1.5.1-2.9.2-4.4.4-.4,0-.9,0-1.3.1-1.1.1-2.3.2-3.4.3,0,0-.2,0-.2,0,0,0-.2,0-.3,0-.7,0-1.4.1-2.1.2-.8,0-1.5.2-2.3.3-.4,0-.9.1-1.3.2,0,0-.2,0-.3,0h-.5c-.7.1-1.3.2-2,.3-.7,0-1.3.2-2,.3-.5,0-1,.2-1.5.2-.2,0-.4,0-.6,0-.8.1-1.7.3-2.5.4,0,0-.2,0-.3,0-.7.1-1.5.3-2.2.4-.5,0-1,.2-1.5.3-.8.2-1.6.3-2.4.5-.4,0-.8.2-1.2.3,0,0,0,0-.1,0-.2,0-.4.1-.7.2-.7.2-1.4.3-2.1.5-.2,0-.4.1-.6.2-.2,0-.5.1-.7.2-.3,0-.6.2-.9.3-.6.2-1.3.4-1.9.6,0,0,0,0-.1,0,0,0-.1,0-.2,0-.5.2-1,.3-1.6.5-.5.2-1,.3-1.5.5,0,0-.1,0-.2,0,0,0,0,0-.1,0-.6.2-1.3.4-1.9.6-.3,0-.6.2-.9.3-.2,0-.4.1-.6.2-.2,0-.4.1-.5.2-.7.3-1.4.5-2.2.8,0,0-.1,0-.2,0-.7.3-1.4.6-2.1.8-.1,0-.2,0-.3.1-.4.2-.8.4-1.3.5-.3.1-.7.3-1,.4,0,0-.2,0-.3.1-.6.3-1.1.5-1.6.8-.3.1-.6.3-.8.4,0,0-.1,0-.2,0-.9.4-1.8.9-2.7,1.3,0,0,0,0,0,0-.9.5-1.7.9-2.5,1.4,0,0-.1,0-.2.1-.2.1-.4.3-.7.4-.5.3-1,.6-1.5.9,0,0-.2.1-.3.2-.2.1-.4.3-.6.4-.4.3-.8.5-1.2.8-.1,0-.3.2-.4.2-.2.1-.4.3-.6.4-.3.2-.7.5-1,.7-.1,0-.3.2-.4.3-.2.1-.4.3-.6.4-.3.2-.6.4-.9.7-.1,0-.2.2-.3.3-.2.2-.4.3-.6.5-.2.2-.5.4-.7.6,0,0-.2.2-.3.2-.2.2-.5.4-.7.6-.2.2-.4.3-.6.5,0,0-.1.1-.2.2-.3.3-.6.6-.9.9,0,.1-.2.2-.3.3,0,0,0,0,0,0-.4.4-.8.8-1.2,1.2,0,0,0,0,0,0-.1.1-.2.2-.3.4-.2.3-.5.5-.7.8,0,0-.1.2-.2.2-.1.2-.2.3-.4.5-.1.2-.3.3-.4.5,0,.1-.2.3-.3.4-.1.2-.2.3-.3.5,0,.1-.1.2-.2.3-.2.3-.4.6-.6,1l3.5,30.7c.2-.3.4-.6.6-1,0-.1.1-.2.2-.3.1-.2.2-.3.3-.5,0-.1.2-.3.3-.4.1-.2.3-.3.4-.5.1-.2.2-.3.4-.5,0,0,.1-.2.2-.2.2-.3.4-.5.7-.8.1-.1.2-.2.3-.4,0,0,0,0,0,0,.4-.4.8-.8,1.2-1.3,0,0,0,0,0,0,.1-.1.2-.2.3-.3.3-.3.6-.6.9-.9,0,0,.1-.1.2-.2.2-.2.4-.4.6-.5.2-.2.4-.4.7-.6,0,0,.2-.2.3-.2.2-.2.5-.4.7-.6.2-.2.4-.3.6-.5.1,0,.2-.2.3-.3.3-.2.6-.4.9-.7.2-.1.4-.3.6-.4.1,0,.3-.2.4-.3.3-.2.7-.5,1-.7.2-.1.4-.3.6-.4.1,0,.3-.2.4-.2.4-.3.8-.5,1.2-.8.2-.1.4-.3.6-.4,0,0,.2-.1.3-.2.5-.3,1-.6,1.6-.9.2-.1.4-.3.7-.4,0,0,.1,0,.2-.1.8-.5,1.7-.9,2.5-1.4,0,0,0,0,0,0h0c.9-.5,1.8-.9,2.7-1.3,0,0,.1,0,.2,0,.3-.1.6-.3.8-.4.5-.3,1.1-.5,1.6-.8.1,0,.2,0,.3-.1.3-.2.7-.3,1-.4.4-.2.8-.4,1.3-.5.1,0,.2,0,.3-.1.7-.3,1.4-.6,2.1-.8h.2c.7-.4,1.4-.6,2.1-.9.2,0,.4-.1.5-.2.2,0,.4-.1.6-.2.3-.1.6-.2.9-.3.6-.2,1.3-.4,1.9-.6,0,0,0,0,.1,0,0,0,.1,0,.2,0,.5-.2,1-.3,1.5-.5.5-.2,1-.3,1.6-.5,0,0,.1,0,.2,0,0,0,0,0,.1,0,.6-.2,1.3-.4,1.9-.6.3,0,.6-.2,1-.3.2,0,.5-.1.7-.2.2,0,.4-.1.6-.2.7-.2,1.4-.3,2.1-.5.2,0,.4-.1.7-.2,0,0,0,0,.1,0,.4,0,.8-.2,1.2-.3.8-.2,1.6-.4,2.4-.5.5-.1,1-.2,1.5-.3.7-.2,1.5-.3,2.2-.4,0,0,.2,0,.3,0,.8-.2,1.7-.3,2.5-.4.2,0,.4,0,.5,0,.5,0,1-.2,1.5-.2.7-.1,1.3-.2,2-.3.7,0,1.3-.2,2-.3.2,0,.3,0,.5,0,0,0,.2,0,.3,0,.4,0,.9-.1,1.3-.2.8,0,1.5-.2,2.3-.3.7,0,1.4-.2,2.1-.2,0,0,.2,0,.3,0,0,0,.2,0,.2,0,1.1-.1,2.3-.2,3.4-.3.4,0,.9,0,1.3-.1,1.5-.1,2.9-.3,4.4-.4.4,0,.7,0,1.1,0,.5,0,1,0,1.4-.1,2.8-.2,5.6-.5,8.3-.7,1.1-.1,2.2-.2,3.3-.3.1,0,.3,0,.4,0,1,0,2-.2,3-.3.2,0,.3,0,.5,0,1.1-.1,2.2-.3,3.3-.4.1,0,.3,0,.4,0,1.1-.2,2.3-.3,3.4-.5.2,0,.3,0,.5,0,1.1-.2,2.1-.4,3.2-.6,1.7-.3,3.4-.7,5.1-1.1,1-.2,2-.5,2.9-.7,0,0,.2,0,.2,0,1.2-.3,2.4-.7,3.5-1.1.8-.3,1.7-.6,2.5-.9.4-.1.7-.3,1.1-.5.2,0,.3-.1.5-.2.2-.1.5-.2.7-.3.2,0,.4-.2.6-.3.2-.1.4-.2.6-.3.2-.1.4-.2.6-.3.2-.1.4-.2.6-.3.2-.1.4-.2.6-.3l.6-.3c.2,0,.3-.2.5-.3.2-.1.4-.2.6-.4.1,0,.3-.2.4-.3.2-.1.4-.3.6-.4,0,0,.2-.1.3-.2.3-.2.6-.4.8-.6,0,0,0,0,0,0,.2-.2.5-.4.7-.6,0,0,.1,0,.2-.2.2-.2.4-.4.7-.6,0,0,0,0,0,0,.2-.2.4-.4.6-.6,0,0,0,0,0,0,.2-.2.3-.4.5-.7,0,0,0,0,0,0,.1-.2.3-.4.4-.7,0,0,0,0,0-.1.1-.2.2-.4.3-.7,0,0,0,0,0-.1,0-.2.1-.4.1-.7,0,0,0,0,0-.1,0-.2,0-.5,0-.7"/>
    <path class="st21" d="M610.6,262.1c0,.2,0,.5,0,.7,0,0,0,0,0,0,0,.2,0,.5-.1.7,0,0,0,0,0,.1,0,.2-.2.4-.3.7,0,0,0,0,0,.1-.1.2-.2.4-.4.7,0,0,0,0,0,0-.2.2-.3.4-.5.7,0,0,0,0,0,0-.2.2-.4.4-.6.6h0c-.2.3-.4.5-.6.7,0,0-.1.1-.2.2-.2.2-.4.4-.7.6,0,0,0,0,0,0-.3.2-.5.4-.8.6,0,0-.2.1-.3.2-.2.1-.4.3-.6.4-.1,0-.3.2-.4.3-.2.1-.4.2-.6.4-.2.1-.3.2-.5.3-.2.1-.4.2-.6.3-.2.1-.4.2-.6.3l-.6.3c-.2.1-.4.2-.6.3-.2,0-.4.2-.6.3-.2,0-.4.2-.6.3-.2.1-.5.2-.7.3-.2,0-.3.1-.5.2-.4.2-.7.3-1.1.4-.8.3-1.7.6-2.5.9-1.2.4-2.3.7-3.5,1.1,0,0-.1,0-.2,0-1,.3-2,.5-2.9.7-1.7.4-3.4.8-5.1,1.1-1.1.2-2.1.4-3.2.5-.2,0-.3,0-.5,0-1.1.2-2.3.3-3.4.5-.1,0-.3,0-.4,0-1.1.2-2.2.3-3.3.4-.2,0-.3,0-.5,0-1,.1-2,.2-3,.3-.1,0-.3,0-.4,0-1.1.1-2.3.2-3.3.3-2.8.3-5.5.5-8.3.7-.5,0-1,0-1.4.1-.4,0-.7,0-1.1,0-1.5.1-2.9.2-4.4.4-.4,0-.9,0-1.3.1-1.1.1-2.3.2-3.4.3,0,0-.2,0-.2,0,0,0-.2,0-.3,0-.7,0-1.4.1-2.1.2-.8,0-1.5.2-2.3.3-.4,0-.9.1-1.3.2,0,0-.2,0-.3,0h-.5c-.7.1-1.3.2-2,.3-.7,0-1.3.2-2,.3-.5,0-1,.2-1.5.2-.2,0-.4,0-.6,0-.8.1-1.7.3-2.5.4-.1,0-.2,0-.3,0-.7.1-1.5.3-2.2.4-.5,0-1,.2-1.5.3-.8.2-1.6.3-2.4.5-.4,0-.8.2-1.2.3,0,0,0,0-.1,0-.2,0-.4.1-.7.2-.7.2-1.4.3-2.1.5-.2,0-.4.1-.6.2-.2,0-.5.1-.7.2-.3,0-.6.2-1,.3-.6.2-1.3.4-1.9.6,0,0,0,0-.1,0,0,0-.1,0-.2,0-.5.2-1,.3-1.5.5-.5.2-1,.3-1.5.5,0,0-.2,0-.2,0,0,0,0,0-.1,0-.6.2-1.3.4-1.9.6-.3,0-.6.2-.9.3-.2,0-.4.1-.6.2-.2,0-.4.1-.5.2-.7.3-1.4.5-2.2.8,0,0-.1,0-.2,0-.7.3-1.4.6-2.1.8-.1,0-.2,0-.3.1-.4.2-.8.4-1.3.5-.3.1-.7.3-1,.4,0,0-.2,0-.3.1-.6.3-1.1.5-1.6.8-.3.1-.6.3-.8.4,0,0-.1,0-.2,0-.9.4-1.8.9-2.7,1.3,0,0,0,0,0,0-.9.5-1.7.9-2.5,1.4,0,0-.1,0-.2.1-.2.1-.4.3-.7.4-.5.3-1,.6-1.5.9,0,0-.2.1-.3.2-.2.1-.4.3-.6.4-.4.3-.8.5-1.2.8-.1,0-.3.2-.4.2-.2.1-.4.3-.6.4-.3.2-.7.5-1,.7-.1,0-.3.2-.4.3-.2.1-.4.3-.6.4-.3.2-.6.4-.9.7-.1,0-.2.2-.3.3-.2.2-.4.3-.6.5-.2.2-.5.4-.7.6,0,0-.2.2-.3.2-.2.2-.5.4-.7.6-.2.2-.4.3-.6.5,0,0-.1.1-.2.2-.3.3-.6.6-.9.9,0,.1-.2.2-.3.3,0,0,0,0,0,0-.4.4-.8.8-1.2,1.2,0,0,0,0,0,0-.1.1-.2.2-.3.4-.2.3-.5.5-.7.8,0,0-.1.2-.2.2-.1.2-.2.3-.4.5-.1.2-.3.3-.4.5,0,.1-.2.3-.3.4-.1.2-.2.3-.3.5,0,.1-.1.2-.2.3-.2.3-.4.6-.6,1l3.5,30.7c.2-.3.4-.6.6-1s.1-.2.2-.3c.1-.2.2-.3.3-.5,0-.1.2-.3.3-.4.1-.2.3-.3.4-.5.1-.2.2-.3.4-.5,0,0,.1-.2.2-.2.2-.3.4-.5.7-.8.1-.1.2-.2.3-.4h0c.4-.5.8-.9,1.2-1.3,0,0,0,0,0,0,.1-.1.2-.2.3-.3.3-.3.6-.6.9-.9,0,0,.1-.1.2-.2.2-.2.4-.4.6-.5.2-.2.4-.4.7-.6,0,0,.2-.2.3-.2.2-.2.5-.4.7-.6.2-.2.4-.3.6-.5.1,0,.2-.2.3-.3.3-.2.6-.4.9-.7.2-.1.4-.3.6-.4.1,0,.3-.2.4-.3.3-.2.7-.5,1-.7.2-.1.4-.3.6-.4.1,0,.3-.2.4-.2.4-.3.8-.5,1.2-.8.2-.1.4-.3.6-.4,0,0,.2-.1.3-.2.5-.3,1-.6,1.6-.9.2-.1.4-.3.7-.4,0,0,.1,0,.2-.1.8-.5,1.7-.9,2.5-1.4h0s0,0,0,0c.9-.5,1.8-.9,2.7-1.3,0,0,.1,0,.2,0,.3-.1.6-.3.8-.4.5-.3,1.1-.5,1.6-.8.1,0,.2,0,.3-.1.3-.2.7-.3,1-.4.4-.2.8-.4,1.3-.5.1,0,.2,0,.3-.1.7-.3,1.4-.6,2.1-.8h.2c.7-.4,1.4-.6,2.1-.9.2,0,.4-.1.5-.2.2,0,.4-.1.6-.2.3-.1.6-.2.9-.3.6-.2,1.3-.4,1.9-.6,0,0,0,0,.1,0,0,0,.1,0,.2,0,.5-.2,1-.3,1.5-.5.5-.2,1-.3,1.6-.5,0,0,.1,0,.2,0,0,0,0,0,.1,0,.6-.2,1.3-.4,1.9-.6.3,0,.6-.2,1-.3.2,0,.5-.1.7-.2.2,0,.4-.1.6-.2.7-.2,1.4-.3,2.1-.5.2,0,.4-.1.7-.2,0,0,0,0,.1,0,.4,0,.8-.2,1.2-.3.8-.2,1.6-.4,2.4-.5.5-.1,1-.2,1.5-.3.7-.2,1.5-.3,2.2-.4,0,0,.2,0,.3,0,.8-.2,1.7-.3,2.5-.4.2,0,.4,0,.5,0,.5,0,1-.2,1.5-.2.7-.1,1.3-.2,2-.3.7,0,1.3-.2,2-.3.2,0,.3,0,.5,0,0,0,.2,0,.3,0l1.3-.2c.8,0,1.5-.2,2.3-.3.7,0,1.4-.2,2.1-.2,0,0,.2,0,.3,0,0,0,.2,0,.2,0,1.1-.1,2.3-.2,3.4-.3.4,0,.9,0,1.3-.1,1.5-.1,2.9-.3,4.4-.4.4,0,.7,0,1.1,0,.5,0,1,0,1.4-.1,2.8-.2,5.6-.5,8.3-.7,1.1-.1,2.2-.2,3.3-.3.1,0,.3,0,.4,0,1,0,2-.2,3-.3.2,0,.3,0,.5,0,1.1-.1,2.2-.3,3.3-.4.1,0,.3,0,.4,0,1.1-.2,2.3-.3,3.4-.5.2,0,.3,0,.5,0,1-.2,2.1-.4,3.2-.6,1.7-.3,3.4-.7,5.1-1.1,1-.2,2-.5,2.9-.7,0,0,.1,0,.2,0,1.2-.3,2.4-.7,3.5-1.1.8-.3,1.7-.6,2.5-.9.4-.1.7-.3,1.1-.5.2,0,.3-.1.5-.2.2-.1.5-.2.7-.3.2,0,.4-.2.6-.3.2-.1.4-.2.6-.3.2-.1.4-.2.6-.3.2-.1.4-.2.6-.3.2,0,.4-.2.6-.3.2-.1.4-.2.6-.3.2,0,.3-.2.5-.3.2-.1.4-.2.6-.4.1,0,.3-.2.4-.3.2-.1.4-.3.6-.4,0,0,.2-.1.3-.2.3-.2.6-.4.8-.6,0,0,0,0,0,0,.2-.2.5-.4.7-.6,0,0,.1,0,.2-.2.2-.2.4-.4.7-.6,0,0,0,0,0,0,.2-.2.4-.4.6-.6,0,0,0,0,0,0,.2-.2.3-.4.5-.7,0,0,0,0,0,0,.1-.2.3-.4.4-.7,0,0,0,0,0-.1.1-.2.2-.4.3-.7,0,0,0,0,0-.1,0-.2.1-.4.1-.7,0,0,0,0,0-.1,0-.2,0-.5,0-.7"/>
    <path class="st26" d="M621,354.2c0,.2,0,.5,0,.7,0,0,0,0,0,.1,0,.2,0,.4-.1.7h0c0,.3-.2.5-.3.8,0,0,0,0,0,.1-.1.2-.2.4-.4.7,0,0,0,0,0,0-.2.2-.3.4-.5.7,0,0,0,0,0,0-.2.2-.4.4-.6.6,0,0,0,0,0,0-.2.2-.4.4-.6.6,0,0-.1,0-.2.1-.2.2-.4.4-.7.6,0,0,0,0,0,0-.3.2-.5.4-.8.6,0,0-.2.1-.3.2-.2.1-.4.3-.6.4-.1,0-.3.2-.4.3-.2.1-.4.2-.6.4-.2,0-.3.2-.5.3-.2.1-.4.2-.6.3-.2.1-.4.2-.6.3-.2,0-.4.2-.6.3-.2.1-.4.2-.6.3l-.6.3c-.2,0-.4.2-.6.3-.2.1-.5.2-.7.3-.2,0-.3.1-.5.2-.4.2-.7.3-1.1.4-.8.3-1.7.6-2.5.9-1.2.4-2.3.7-3.5,1.1,0,0-.2,0-.2,0-1,.3-2,.5-3,.7-1.7.4-3.4.8-5.1,1.1-1.1.2-2.1.4-3.2.6-.2,0-.3,0-.5,0-1.1.2-2.3.3-3.4.5-.1,0-.3,0-.4,0-1.1.2-2.2.3-3.3.4-.2,0-.3,0-.5,0-1,.1-2,.2-3,.3-.1,0-.3,0-.4,0-1.1.1-2.3.2-3.3.3-2.8.3-5.5.5-8.3.7-.5,0-1,0-1.4.1-.4,0-.7,0-1.1,0-1.5.1-2.9.2-4.4.4-.4,0-.9,0-1.3.1-1.1.1-2.3.2-3.4.3,0,0-.2,0-.2,0,0,0-.2,0-.3,0-.7,0-1.4.1-2.1.2-.8,0-1.5.2-2.3.3-.4,0-.8.1-1.3.2h-.3c-.2,0-.3,0-.5,0-.6,0-1.3.2-2,.3-.7,0-1.3.2-2,.3-.5,0-1,.2-1.5.2-.2,0-.4,0-.5,0-.8.1-1.7.3-2.5.4h-.3c-.7.2-1.5.3-2.2.5-.5.1-1,.2-1.5.3-.8.2-1.6.3-2.4.5-.4,0-.8.2-1.2.3,0,0,0,0-.1,0-.2,0-.4.1-.7.2-.7.2-1.4.3-2.1.5-.2,0-.4.1-.6.2-.2,0-.5.1-.7.2-.3,0-.6.2-1,.3-.6.2-1.3.4-1.9.6,0,0,0,0-.1,0,0,0-.1,0-.2,0-.5.2-1,.3-1.5.5-.5.2-1,.3-1.5.5,0,0-.1,0-.2,0,0,0,0,0-.1,0-.6.2-1.3.4-1.9.6-.3,0-.6.2-.9.3l-.6.2c-.2,0-.4.1-.5.2-.7.3-1.4.5-2.2.8h-.2c-.7.4-1.4.6-2.1.9-.1,0-.2,0-.3.1-.4.2-.8.4-1.3.5-.3.2-.7.3-1,.4,0,0-.2,0-.3.1-.6.3-1.1.5-1.6.8-.3.1-.6.3-.8.4,0,0-.1,0-.2,0-.9.4-1.8.9-2.7,1.3h0c-.9.5-1.7.9-2.5,1.4,0,0-.1,0-.2,0-.2.1-.4.3-.7.4-.5.3-1,.6-1.5.9-.1,0-.2.1-.3.2-.2.1-.4.3-.6.4-.4.3-.8.5-1.2.8-.1,0-.3.2-.4.2-.2.1-.4.3-.6.4-.3.2-.7.5-1,.7-.1,0-.3.2-.4.3-.2.1-.4.3-.6.4-.3.2-.6.4-.9.7-.1,0-.2.2-.4.3-.2.2-.4.3-.6.5-.2.2-.5.4-.7.6,0,0-.2.2-.3.2-.2.2-.5.4-.7.6-.2.2-.4.3-.6.5,0,0-.1,0-.2.2-.3.3-.6.6-.9.9-.1.1-.2.2-.3.3,0,0,0,0,0,0-.4.4-.8.8-1.2,1.3,0,0,0,0,0,0-.1.1-.2.2-.3.4-.2.3-.5.5-.7.8,0,0-.1.2-.2.2-.1.2-.2.3-.4.5-.1.2-.3.3-.4.5,0,.1-.2.3-.3.4-.1.2-.2.3-.3.5,0,.1-.1.2-.2.3-.2.3-.4.6-.6,1l-3.5-30.7c.2-.3.4-.6.6-1,0-.1.1-.2.2-.3.1-.2.2-.3.3-.5,0-.1.2-.3.3-.4.1-.2.3-.3.4-.5.1-.2.2-.3.4-.5,0,0,.1-.2.2-.2.2-.3.4-.5.7-.8,0-.1.2-.2.3-.4,0,0,0,0,0,0,.4-.4.8-.8,1.2-1.3,0,0,0,0,0,0,0-.1.2-.2.3-.3.3-.3.6-.6.9-.9,0,0,.1-.1.2-.2.2-.2.4-.4.6-.5.2-.2.4-.4.7-.6,0,0,.2-.2.3-.2.2-.2.5-.4.7-.6.2-.2.4-.3.6-.5.1,0,.2-.2.4-.3.3-.2.6-.4.9-.7.2-.1.4-.3.6-.4.1,0,.3-.2.4-.3.3-.2.7-.5,1-.7.2-.1.4-.3.6-.4.1,0,.3-.2.4-.2.4-.3.8-.5,1.2-.8.2-.1.4-.3.6-.4.1,0,.2-.1.3-.2.5-.3,1-.6,1.5-.9.2-.1.4-.3.7-.4,0,0,.1,0,.2-.1.8-.5,1.7-.9,2.5-1.4,0,0,0,0,0,0,.9-.5,1.8-.9,2.7-1.3,0,0,.1,0,.2,0,.3-.1.6-.3.8-.4.5-.3,1.1-.5,1.6-.8,0,0,.2,0,.3-.1.3-.2.7-.3,1-.4.4-.2.8-.4,1.3-.5,0,0,.2,0,.3-.1.7-.3,1.4-.6,2.1-.9h.2c.7-.4,1.4-.6,2.1-.9l.5-.2c.2,0,.4-.1.6-.2.3-.1.6-.2.9-.3.6-.2,1.3-.4,1.9-.6,0,0,0,0,.1,0,0,0,.2,0,.2,0,.5-.2,1-.3,1.5-.5.5-.2,1-.3,1.6-.5,0,0,.1,0,.2,0h.1c.6-.2,1.3-.4,1.9-.6.3,0,.6-.2.9-.3.2,0,.5-.1.7-.2.2,0,.4-.1.6-.2.7-.2,1.4-.3,2.1-.5.2,0,.4-.1.7-.2,0,0,0,0,.1,0,.4,0,.8-.2,1.2-.3.8-.2,1.6-.4,2.4-.5.5-.1,1-.2,1.5-.3.7-.1,1.5-.3,2.2-.4h.3c.8-.2,1.7-.4,2.5-.5.2,0,.4,0,.6,0,.5,0,1-.2,1.5-.2.7-.1,1.3-.2,2-.3.6,0,1.3-.2,2-.3.2,0,.3,0,.5,0h.3c.4,0,.9-.1,1.3-.2.8,0,1.5-.2,2.3-.3.7,0,1.4-.2,2.1-.2.1,0,.2,0,.3,0,0,0,.2,0,.2,0,1.1-.1,2.3-.2,3.4-.3.4,0,.9,0,1.3-.1,1.5-.1,2.9-.3,4.4-.4.4,0,.7,0,1.1,0,.5,0,1,0,1.4-.1,2.8-.2,5.6-.5,8.3-.7,1.1,0,2.2-.2,3.3-.3.1,0,.3,0,.4,0,1-.1,2-.2,3-.3.2,0,.3,0,.5,0,1.1-.1,2.2-.3,3.3-.4.1,0,.3,0,.4,0,1.1-.2,2.2-.3,3.4-.5.2,0,.3,0,.5,0,1.1-.2,2.1-.4,3.2-.6,1.7-.3,3.4-.7,5.1-1.1,1-.2,2-.5,2.9-.7,0,0,.1,0,.2,0,1.2-.3,2.4-.7,3.5-1.1.9-.3,1.7-.6,2.5-.9.4-.1.7-.3,1.1-.4.2,0,.3-.1.5-.2.2-.1.5-.2.7-.3.2,0,.4-.2.6-.3.2,0,.4-.2.6-.3.2-.1.4-.2.6-.3s.4-.2.6-.3c.2-.1.4-.2.6-.3.2-.1.4-.2.6-.3.2,0,.3-.2.5-.3.2-.1.4-.2.6-.4.1,0,.3-.2.4-.3.2-.1.4-.3.6-.4,0,0,.2-.1.3-.2.3-.2.6-.4.8-.6,0,0,0,0,0,0,.2-.2.5-.4.7-.6,0,0,.1,0,.2-.1.2-.2.4-.4.6-.6,0,0,0,0,0,0,.2-.2.4-.4.6-.6,0,0,0,0,0,0,.2-.2.3-.5.5-.7,0,0,0,0,0,0,.1-.2.3-.4.4-.7,0,0,0,0,0-.1.1-.2.2-.4.3-.7,0,0,0,0,0-.1,0-.2.1-.4.1-.7,0,0,0,0,0-.1,0-.2,0-.5,0-.7l3.5,30.7Z"/>
    <path class="st4" d="M488.8,399c-.1.1-.2.2-.3.4-.2.3-.5.5-.7.8,0,0-.1.2-.2.2-.1.2-.2.3-.4.5-.1.2-.3.3-.4.5-.1.1-.2.3-.3.4-.1.2-.2.3-.3.5,0,.1-.1.2-.2.3-.2.3-.4.6-.6,1l-3.5-30.7c.2-.3.4-.6.6-1,0-.1.1-.2.2-.3.1-.2.2-.3.3-.5,0-.1.2-.3.3-.4.1-.2.3-.3.4-.5.1-.2.2-.3.4-.5,0,0,.1-.2.2-.2.2-.3.4-.5.7-.8.1-.1.2-.2.3-.4,0,0,0,0,0,0,.4-.4.8-.8,1.2-1.2,0,0,0,0,0,0,0-.1.2-.2.3-.3.3-.3.6-.6.9-.9,0,0,.1,0,.2-.1.2-.2.4-.4.6-.5.2-.2.4-.4.7-.6,0,0,.2-.2.3-.2.2-.2.5-.4.7-.6.2-.2.4-.3.6-.5.1,0,.2-.2.4-.3.3-.2.6-.4.9-.7.2-.1.4-.3.6-.4.1,0,.3-.2.4-.3.3-.2.7-.5,1-.7.2-.1.4-.3.6-.4.1,0,.3-.2.4-.2.4-.3.8-.5,1.2-.8.2-.1.4-.3.6-.4.1,0,.2-.1.3-.2.5-.3,1-.6,1.5-.9.2-.1.4-.3.7-.4,0,0,.1,0,.2-.1.8-.5,1.7-.9,2.5-1.4,0,0,0,0,0,0,.9-.5,1.8-.9,2.7-1.3,0,0,.1,0,.2,0,.3-.1.6-.3.8-.4.5-.3,1.1-.5,1.6-.8,0,0,.2,0,.3-.1.3-.2.7-.3,1-.4.4-.2.8-.4,1.3-.5.1,0,.2,0,.3-.1.7-.3,1.4-.6,2.1-.8h.2c.7-.4,1.4-.6,2.1-.9l.5-.2c.2,0,.4-.1.6-.2.3-.1.6-.2.9-.3.6-.2,1.3-.4,1.9-.6,0,0,0,0,.1,0,0,0,.2,0,.2,0,.5-.2,1-.3,1.5-.5.5-.2,1-.3,1.6-.5,0,0,.1,0,.2,0h.1c.6-.2,1.3-.4,1.9-.6.3,0,.6-.2,1-.3.2,0,.5-.1.7-.2.2,0,.4-.1.6-.2,0,0,.2,0,.3,0,1.7,8.2,4.9,16.1,9.6,23.1,1.3,1.9,2.6,3.6,4.1,5.4,0,0,0,0,0,0h-.3c-.7.2-1.5.3-2.2.5-.5.1-1,.2-1.5.3-.8.2-1.6.4-2.4.5-.4,0-.8.2-1.2.3,0,0,0,0-.1,0-.2,0-.4.1-.7.2-.7.2-1.4.3-2.1.5-.2,0-.4.1-.6.2-.2,0-.5.1-.7.2-.3,0-.6.2-.9.3-.6.2-1.3.4-1.9.6,0,0,0,0-.1,0,0,0-.1,0-.2,0-.5.2-1,.3-1.5.5-.5.2-1,.3-1.5.5,0,0-.1,0-.2,0,0,0,0,0-.1,0-.6.2-1.3.4-1.9.6-.3.1-.6.2-.9.3l-.6.2c-.2,0-.4.1-.5.2-.7.3-1.4.5-2.1.8h-.2c-.7.4-1.4.6-2.1.9-.1,0-.2,0-.3.1-.4.2-.8.4-1.3.5-.3.1-.7.3-1,.4,0,0-.2,0-.3.1-.6.2-1.1.5-1.6.8-.3.1-.6.3-.8.4,0,0-.1,0-.2,0-.9.4-1.8.9-2.7,1.3h0c-.9.5-1.7.9-2.5,1.4,0,0-.1,0-.2.1-.2.1-.4.3-.7.4-.5.3-1,.6-1.5.9-.1,0-.2.1-.3.2-.2.1-.4.3-.6.4-.4.3-.8.5-1.2.8-.1,0-.3.2-.4.2-.2.1-.4.3-.6.4-.3.2-.7.5-1,.7-.1,0-.3.2-.4.3-.2.1-.4.3-.6.4-.3.2-.6.4-.9.7-.1,0-.2.2-.4.3-.2.2-.4.3-.6.5-.2.2-.5.4-.7.6,0,0-.2.2-.3.2-.2.2-.5.4-.7.6-.2.2-.4.3-.6.5,0,0-.1.1-.2.2-.3.3-.6.6-.9.9-.1.1-.2.2-.3.3,0,0,0,0,0,0-.4.4-.8.8-1.2,1.2,0,0,0,0,0,0"/>
    <path class="st30" d="M479.3,340.9c.1-.2.2-.3.3-.5,0-.1.2-.3.3-.4.1-.2.3-.3.4-.5.1-.2.2-.3.4-.5,0,0,.1-.2.2-.2.2-.3.4-.5.7-.8.1-.1.2-.2.3-.4,0,0,0,0,0,0,.4-.4.8-.8,1.2-1.2,0,0,0,0,0,0,.1-.1.2-.2.3-.3.3-.3.6-.6.9-.9,0,0,.1-.1.2-.2.2-.2.4-.3.6-.5.2-.2.4-.4.7-.6,0,0,.2-.2.3-.2.2-.2.5-.4.7-.6.2-.2.4-.3.6-.5.1,0,.2-.2.3-.3.3-.2.6-.4.9-.7.2-.1.4-.3.6-.4.1,0,.3-.2.4-.3.3-.2.7-.5,1-.7.2-.1.4-.3.6-.4.1,0,.3-.2.4-.2.4-.3.8-.5,1.2-.8.2-.1.4-.3.6-.4,0,0,.2-.1.3-.2.5-.3,1-.6,1.5-.9.2-.1.4-.3.7-.4,0,0,.1,0,.2,0,.8-.5,1.7-.9,2.5-1.4t0,0c.9-.5,1.8-.9,2.7-1.3,0,0,.1,0,.2,0,.3-.1.6-.3.8-.4.5-.3,1.1-.5,1.6-.8,0,0,.2,0,.3-.1.3-.2.7-.3,1-.4.4-.2.8-.4,1.3-.5.1,0,.2,0,.3-.1.7-.3,1.4-.6,2.1-.9,0,0,.1,0,.2,0,.7-.3,1.4-.5,2.1-.8.2,0,.4-.1.5-.2.2,0,.4-.1.6-.2.3,0,.6-.2.8-.3.6-.2,1.3-.4,1.9-.6,0,0,0,0,.1,0,0,0,.1,0,.2,0,.5-.2,1-.3,1.5-.5.5-.2,1-.3,1.6-.5,0,0,.1,0,.2,0,0,0,0,0,.1,0,.6-.2,1.3-.4,1.9-.6.3,0,.6-.2.9-.3.2,0,.5-.1.7-.2.2,0,.4-.1.6-.2.7-.2,1.4-.4,2.1-.5.2,0,.4-.1.7-.2,0,0,0,0,.1,0,.4,0,.8-.2,1.2-.3.3,0,.6-.1.9-.2-3,10.3-3.4,21.3-1.2,31.8,0,0-.2,0-.3,0-.2,0-.4.1-.6.2-.2,0-.5.1-.7.2-.3,0-.6.2-1,.3-.6.2-1.3.4-1.9.6,0,0,0,0-.1,0,0,0-.1,0-.2,0-.5.2-1,.3-1.6.5-.5.2-1,.3-1.5.5,0,0-.1,0-.2,0,0,0,0,0-.1,0-.6.2-1.3.4-1.9.6-.3.1-.6.2-.9.3-.2,0-.4.1-.6.2-.2,0-.4.1-.5.2-.7.3-1.4.5-2.1.8h-.2c-.7.4-1.4.7-2.1.9,0,0-.2,0-.3.1-.4.2-.8.4-1.3.5-.3.2-.7.3-1,.4-.1,0-.2,0-.3.1-.6.3-1.1.5-1.6.8-.3.1-.6.3-.8.4,0,0-.1,0-.2,0-.9.4-1.8.9-2.7,1.3h0s0,0,0,0c-.9.5-1.7.9-2.5,1.4,0,0-.1,0-.2.1-.2.1-.4.3-.7.4-.5.3-1,.6-1.5.9-.1,0-.2.1-.3.2-.2.1-.4.3-.6.4-.4.3-.8.5-1.2.8-.1,0-.3.2-.4.2-.2.1-.4.3-.6.4-.3.2-.7.5-1,.7-.1,0-.3.2-.4.3-.2.1-.4.3-.6.4-.3.2-.6.4-.9.7-.1,0-.2.2-.4.3-.2.2-.4.3-.6.5-.2.2-.5.4-.7.6,0,0-.2.2-.3.2-.2.2-.5.4-.7.6-.2.2-.4.3-.6.5,0,0-.1.1-.2.2-.3.3-.6.6-.9.9-.1.1-.2.2-.3.3,0,0,0,0,0,0-.4.4-.8.8-1.2,1.3,0,0,0,0,0,0,0,.1-.2.2-.3.4-.2.3-.5.5-.7.8,0,0-.1.2-.2.2-.1.2-.2.3-.4.5-.1.2-.3.3-.4.5,0,.1-.2.3-.3.4-.1.2-.2.3-.3.5,0,.1-.1.2-.2.3-.2.3-.4.6-.6,1l-3.5-30.7c.2-.3.4-.6.6-1,0-.1.1-.2.2-.3"/>
    <path class="st24" d="M475.9,310.1c.1-.2.2-.3.3-.5,0-.1.2-.3.3-.4.1-.2.3-.3.4-.5.1-.2.2-.3.4-.5,0,0,.1-.2.2-.2.2-.3.4-.5.7-.8.1-.1.2-.2.3-.4,0,0,0,0,0,0,.4-.4.8-.8,1.2-1.2,0,0,0,0,0,0,.1-.1.2-.2.3-.3.3-.3.6-.6.9-.9,0,0,.1-.1.2-.2.2-.2.4-.3.6-.5.2-.2.4-.4.7-.6,0,0,.2-.2.3-.2.2-.2.5-.4.7-.6.2-.2.4-.3.6-.5.1,0,.2-.2.3-.3.3-.2.6-.4.9-.7.2-.1.4-.3.6-.4.1,0,.3-.2.4-.3.3-.2.7-.5,1-.7.2-.1.4-.3.6-.4.1,0,.3-.2.4-.2.4-.3.8-.5,1.2-.8.2-.1.4-.3.6-.4,0,0,.2-.1.3-.2.5-.3,1-.6,1.5-.9.2-.1.4-.3.7-.4,0,0,.1,0,.2,0,.8-.5,1.7-.9,2.5-1.4t0,0c.9-.5,1.8-.9,2.7-1.3,0,0,.1,0,.2,0,.3-.1.6-.3.8-.4.5-.3,1.1-.5,1.6-.8,0,0,.2,0,.3-.1.3-.2.7-.3,1-.4.4-.2.8-.4,1.3-.5.1,0,.2,0,.3-.1.7-.3,1.4-.6,2.1-.9,0,0,.1,0,.2,0,.7-.3,1.4-.5,2.1-.8.2,0,.4-.1.5-.2.2,0,.4-.1.6-.2.3,0,.6-.2.8-.3.6-.2,1.3-.4,1.9-.6,0,0,0,0,.1,0,0,0,.1,0,.2,0,.5-.2,1-.3,1.5-.5.5-.2,1-.3,1.5-.5,0,0,.2,0,.2,0s0,0,.1,0c.6-.2,1.3-.4,1.9-.6.3,0,.6-.2,1-.3.2,0,.5-.1.7-.2.2,0,.4-.1.6-.2.7-.2,1.4-.4,2.1-.5.2,0,.4-.1.7-.2,0,0,0,0,.1,0,.4,0,.8-.2,1.2-.3.8-.2,1.6-.4,2.4-.5.5-.1,1-.2,1.5-.3.7-.2,1.5-.3,2.2-.4.1,0,.2,0,.3,0,.8-.2,1.7-.3,2.5-.4.2,0,.4,0,.5,0,.5,0,1-.2,1.5-.2.7,0,1.3-.2,2-.3.7,0,1.3-.2,2-.3h.5c0,0,.2,0,.3,0,.3,0,.6,0,.9-.1-.4,2.4-1,4.8-1.8,7.1-2.8,8.4-7.2,16.1-9.9,24.5-.2.6-.3,1.2-.5,1.8-.3,0-.6.1-.9.2-.4,0-.8.2-1.2.3,0,0,0,0-.1,0-.2,0-.4.1-.7.2-.7.2-1.4.3-2.1.5-.2,0-.4.1-.6.2-.2,0-.5.1-.7.2-.3,0-.6.2-1,.3-.6.2-1.3.4-1.9.6,0,0,0,0-.1,0,0,0-.1,0-.2,0-.5.2-1,.3-1.6.5-.5.2-1,.3-1.5.5,0,0-.1,0-.2,0,0,0,0,0-.1,0-.6.2-1.3.4-1.9.6-.3.1-.6.2-.9.3-.2,0-.4.1-.6.2-.2,0-.4.1-.5.2-.7.3-1.4.5-2.1.8h-.2c-.7.4-1.4.7-2.1.9,0,0-.2,0-.3.1-.4.2-.8.4-1.3.5-.3.2-.7.3-1,.4,0,0-.2,0-.3.1-.6.3-1.1.5-1.6.8-.3.1-.6.3-.8.4,0,0-.1,0-.2,0-.9.4-1.8.9-2.7,1.3h0c-.9.5-1.7.9-2.5,1.4,0,0-.1,0-.2.1-.2.1-.4.3-.7.4-.5.3-1,.6-1.5.9-.1,0-.2.1-.3.2-.2.1-.4.3-.6.4-.4.3-.8.5-1.2.8-.1,0-.3.2-.4.2-.2.1-.4.3-.6.4-.3.2-.7.5-1,.7-.1,0-.3.2-.4.3-.2.1-.4.3-.6.4-.3.2-.6.4-.9.7-.1,0-.2.2-.4.3-.2.2-.4.3-.6.5-.2.2-.5.4-.7.6,0,0-.2.2-.3.2-.2.2-.5.4-.7.6-.2.2-.4.3-.6.5,0,0-.1.1-.2.2-.3.3-.6.6-.9.9-.1.1-.2.2-.3.3,0,0,0,0,0,0-.4.4-.8.8-1.2,1.3h0c0,.2-.2.3-.3.4-.2.3-.5.5-.7.8,0,0-.1.2-.2.2-.1.2-.2.3-.4.5-.1.2-.3.3-.4.5,0,.1-.2.3-.3.4-.1.2-.2.3-.3.5,0,.1-.1.2-.2.3-.2.3-.4.6-.6,1l-3.5-30.7c.2-.3.4-.6.6-1,0-.1.1-.2.2-.3"/>
    <path class="st1" d="M615.7,473c-.2,0-.4,0-.6-.1-1.5-.4-2.4-2.1-2-3.6l60.6-210.1c.4-1.5,2.1-2.4,3.6-2,1.5.5,2.4,2.1,2,3.6l-60.6,210.1c-.4,1.4-1.7,2.2-3,2.1"/>
    <path class="st5" d="M834.3,528c-1.5-3.7-4.2-6.6-7.7-8.1,1.2-3.3,1.4-6.9.5-10.4-.7-2.7-1.9-5.2-3.5-7.6-1.6-2.2-3.5-4.2-5.8-5.8-2.3-1.6-4.8-2.8-7.4-3.5-1.5-.4-3-.6-4.5-.6s-3.7.3-5.5.9c-2.4.8-4.4,2.2-6.1,4-.4-.4-.8-.7-1.3-1.1-2.4-1.9-4.9-3.2-7.6-4-1.8-.5-3.6-.8-5.3-.8s-3.3.2-5,.7c-3.7,1.1-6.8,3.4-8.9,6.6-1.9-1.6-3.9-2.9-6.1-3.9-2-.8-4-1.4-6-1.8,2.2-3.6,4.1-6.7,5.7-9.4,2.7-4.6,3.7-6.8,4.2-8.7,1.1-3.8.8-7.8-.7-11.8-1-2.6-2.5-5.2-4.4-7.5-1.8-2.3-3.9-4.3-6.3-6.1-2.4-1.7-4.8-3.1-7.2-4-2.4-.9-4.9-1.4-7.3-1.4s-1.8,0-2.7.2c-5.2.8-9.6,4.2-11.6,9-.4.8-1.1,2.3-2.1,4.4-1.2,2.5-2.7,5.5-4.4,9.1-1.8,3.7-3.7,7.8-5.6,12.3-2,4.6-4,9.4-6,14.2-2,5-3.9,10.2-5.6,15.4-1.7,5.4-3.1,10.7-4.2,15.7-1.1,5.3-1.7,10.4-1.9,15.2-.2,5.6.6,10.7,2.2,15.1,2,5.3,5.2,9.6,9.7,12.8,4.5,3.2,10.2,4.8,16.9,4.8s12-1.7,17.7-5.1c2.1-1.2,4.1-2.6,6.1-4.1-2.8,2.5-4.9,5.1-6.4,7.9-3.3,6.2-3.5,12.8-.5,18.6,2.6,5.1,7.2,8.8,13.3,10.8,2.7.9,5.4,1.3,8.2,1.3s5.5-.4,8.2-1.3c4.4-1.4,8.7-3.8,12.8-7,3.7-2.9,7.3-6.5,10.6-10.6,2.3-2.8,4.5-5.9,6.7-9,4.4-1.9,8.4-4,11.8-6.4,4.2-2.9,7.9-6.1,11-9.3,3.2-3.3,5.7-6.6,7.6-9.7,1.8-3,3.1-5.5,4.1-7.9,1.6-4.1,1.7-8.3.2-12.1"/>
    <path class="st5" d="M776.1,649.3s0,0,0,0c.5-1.4,1-2.8,1.3-4.3,1.5-5.9,1.5-11.6,0-16.8-1.8-6-5.5-10.8-11.1-14.4-5.2-3.3-11.8-4.9-20.2-4.9s-21.5,2.6-30.3,7.8c-8.4,5-15.4,11.3-20.7,19,0,.1-.2.3-.3.4-1.2-1.5-2.5-2.8-4.1-4-1.6-1.3-3.4-2.4-5.2-3.3-3-2.1-5.6-3.9-7.7-5.4-.2-.1-.4-.3-.6-.4,2.3-5.9,1.4-10.6.2-13.6-1.9-4.7-5.6-8.1-10.3-9.6-1.6-.5-3.3-.8-4.9-.8-2.9,0-5.8.8-8.7,2.3-4.3,2.3-7.5,6.3-9.2,11.3-1.1,2.9-1.8,5.6-2.2,8.2-2.5-2.7-5.4-5-8.8-6.7-3.9-2-8-3.1-12.1-3.2.3-.5.7-1.1,1-1.7,1.4-2.6,2.6-5.4,3.4-8.2,1-3.3,1.4-6.3,1.3-9.1-.2-5.8-2.9-9.5-5.1-11.5-2.6-2.4-6.1-3.8-9.7-3.8s-4.1.4-6.1,1.1c0,0-.2,0-.2,0-3.1,1.2-6.1,2.2-9,3.1-.2-1.3-.4-2.5-.8-3.8-1-3.4-2.5-6.7-4.5-9.8-1.9-2.9-4.2-5.6-6.8-7.9-2.2-2-4.6-3.7-7-5,1.1-1.5,2.4-3.1,3.7-4.9,1.1-1.4,2.3-2.9,3.4-4.4,0,1.6,0,3.1,0,4.6.4,6.1,2.3,11.2,5.7,15.2,2.8,3.3,8.2,7.3,17.7,7.3s13.3-1.9,19.5-5.5c5.2-3.1,10.1-6.8,14.4-11.1,4.2-4.2,7.9-8.6,11-13.2,3.2-4.7,5.3-8.7,6.9-12.6,1.8-5.1,2.2-9.5,1.1-13.6-1.4-5.3-4.8-9.3-9.6-11.1-1.7-.6-3.4-1-5.2-1,1.1-2.2,1.8-4.1,2.3-5.7,1.7-5.6,1-11.5-2-16.7-2.2-3.8-5.2-7.1-8.8-9.7-3.7-2.7-7.8-4.4-12.2-5.2-1.5-.3-3.1-.4-4.5-.4-3.7,0-7.2.9-10.4,2.7-2.4,1.4-5,3.4-7.9,6.2-.4.4-.8.8-1.2,1.2-2.4-2.7-5.4-5-8.7-6.7-4.5-2.4-9.2-3.6-14-3.6s-.8,0-1.1,0c-5.4.2-10.1,2.4-13.4,6-1.5-.9-3-1.6-4.8-2.2-8.4-2.7-16.6-4-24.3-4s-3.6,0-5.4.2c-9.1.8-17.5,3-25.1,6.5-5.9,2.8-11.3,6.4-16.1,10.6-.4-.9-.8-1.7-1.3-2.5,2-.3,3.9-.9,5.7-1.7,3.1-1.4,5.9-3.2,8.2-5.6,2.4-2.4,4.2-5.1,5.6-8.2,1.4-3.2,2.1-6.7,2.1-10.3,0-7.2-2.7-13.7-7.8-18.7-3.3-3.2-7.1-5.4-11.3-6.6.4-3.3,0-6.7-1.1-10.1-1.1-3.4-2.8-6.6-5-9.8-2.1-3-4.5-5.7-7.3-8.1-2.9-2.5-6-4.5-9.1-5.8-3-1.3-6.1-2-9.1-2s-2.1,0-3.1.2c-5.4.8-9.9,4.1-12.5,9-.8,1.5-2.4,4.3-4.9,9-2.5,4.6-5.4,10.3-8.7,17-3.3,6.7-7,14.1-10.8,22.1-2.4,5.1-4.8,10.3-7.1,15.7-2.7-.5-5.4-.7-8-.7s-3.5.1-5.2.3c-7.5.9-14.7,3.3-21.2,7.1-5.1,3-9.9,6.8-14.1,11.3-.4-1.1-.9-2.2-1.5-3.3-2.2-3.8-5.2-7.1-8.9-9.7-3.7-2.7-7.8-4.4-12.2-5.2-1.5-.3-3.1-.4-4.5-.4-3.7,0-7.2.9-10.4,2.7-2.4,1.4-5,3.4-7.9,6.2-.4.4-.8.8-1.2,1.2-2.4-2.7-5.4-5-8.7-6.7-1.9-1-3.8-1.7-5.7-2.3,1.3-2,2.4-3.8,3.4-5.4,2.7-4.4,4-7.2,4.6-9.5,1.2-4.5.9-9.1-.9-13.8-1.3-3.3-3.2-6.6-5.6-9.6-2.4-3-5.1-5.6-8.2-7.8-3.1-2.2-6.2-4-9.3-5.2-3-1.1-5.9-1.7-8.8-1.7s-2.1,0-3.1.2c-5.9.9-10.6,4.6-12.9,10.2-.3.7-1.3,2.9-4.3,8.9-2.4,4.8-5.4,10.8-8.7,17.9-3.4,7.1-7,14.9-10.8,23.3-3.9,8.6-7.6,17.3-11,26-3.5,8.8-6.6,17.5-9.3,26-2.8,8.8-4.6,16.7-5.6,23.7-.9,5.6,0,10.7,3,14.8,2.6,3.7,6,6.2,10.1,7.4,1.6.5,3.3.7,5,.7,2.7,0,5.4-.6,8-1.9,4.9-2.5,8.1-7.2,9-13.4,0-.5.4-2.4,2.4-6.7,1.8-3.9,4.2-8.3,7-13.2.8-1.4,1.7-2.9,2.5-4.3-1.5,6.4-2.6,12.3-3.4,17.5-.7,5.7.2,10.2,2.6,13.8,2.9,4.4,7.5,6.9,12.6,6.9h.7c3.8-.2,7.5-1.7,11-4.5,2.5-2,4.6-4.6,6.3-7.7,1.9-2.6,4.6-6.2,8-10.6,1.1-1.4,2.2-2.9,3.4-4.4,0,1.6,0,3.1,0,4.6.4,6.1,2.3,11.2,5.7,15.2,2.8,3.3,8.2,7.3,17.7,7.3s13.3-1.9,19.5-5.5c2.7-1.6,5.3-3.4,7.8-5.3.4.4.8.8,1.2,1.2,3,2.9,6.7,5.1,10.9,6.6-.5,1.1-1.2,2.4-1.9,3.8-2.5,5.1-5.5,11.3-9,18.6-3.5,7.4-7.3,15.6-11.2,24.4-4,8.9-7.8,18-11.3,27-3.6,9.1-6.8,18.1-9.5,26.7-2.8,8.9-4.7,17-5.7,23.9-.9,5.5,0,10.5,2.8,14.6,2.6,3.8,6.1,6.4,10.2,7.6,1.6.5,3.3.7,4.9.7,2.9,0,5.7-.7,8.3-2.1,3.2-1.7,7.3-5.2,8.8-12.5,0,0,.3-1.4,1.9-4.9,1.3-3,3-6.5,5.1-10.5l.9-1.7c5-7.2,10.2-14.4,15.5-21.3,4.1-5.3,8.1-10.4,12.2-15.3-1.3,3.6-2.4,7.3-3.5,10.9-2.6,8.9-4.1,17-4.5,24.2-.4,8.6,1.1,16,4.5,21.8,2.5,4.3,8.8,11.6,22.4,11.6s14.7-1.8,21.2-5.2c3.2-1.7,6.3-3.6,9.2-5.7.4.4.8.8,1.2,1.3,5.2,5,12,7.9,20.4,8.5.9,0,1.9.1,2.8.1,6.7,0,12.9-2,18.3-6.1,3.2,3.5,8.5,7,17.2,7s13.4-2,19.3-5.8c.5-.4,1.1-.8,1.6-1.1,4.3,4.1,9.9,6.4,16.9,6.9.8,0,1.6,0,2.4,0,6.3,0,12.2-1.8,17.6-5.3.4-.3.8-.6,1.2-.8,3.3,2.9,7.5,4.9,12.2,5.8,2,.4,4,.6,6,.6,3.2,0,6.4-.6,9.4-1.7,4.1-1.5,7.9-3.7,11.5-6.6,0,0,.2-.1.2-.2,1.4,1.7,2.9,3.1,4.8,4.3,3.7,2.5,8.1,3.8,13.1,3.8s13.4-2,19.3-5.8c4.8-3.2,9.2-7.1,12.9-11.6.9-1.1,1.8-2.3,2.7-3.5,0,.3.1.6.2.9,1.3,5.4,3.8,10,7.5,13.6,4.3,4.2,10.2,6.4,17.4,6.4s13.4-2,19.3-5.8c2.3-1.5,4.5-3.2,6.6-5.1.6.6,1.1,1.1,1.7,1.6,6.9,6,16,9.1,27.2,9.1s16.7-1.6,23.8-4.8c6.7-3,12.6-6.7,17.7-11.1,4.9-4.3,9.1-8.9,12.3-13.6,3.3-4.8,5.5-8.8,6.8-12.4,2-5.2,2.5-9.7,1.4-13.9-1.4-5.3-5-9.4-9.8-11.1M403.7,569.5c0-.1-.2-.2-.2-.4,2.2,1.2,4.7,2.1,7.8,2.6-1.4,1.1-2.9,2.4-4.5,3.8-.8-2.1-1.8-4.1-3-6M464.9,617.1c-5.1,2.4-9.7,5.4-14,8.9,1.2-1.8,2.3-3.5,3.4-5.2,3.3-5,6-9.3,8.2-12.9,2.8-4.7,4.4-7.8,5.2-10.9.9-3.7.8-7.6-.2-11.6-.8-3.1-2.2-6.2-4-9.1-1.1-1.8-2.4-3.6-3.9-5.3,3.7-1,7.2-2.5,10.5-4.7,1.5-1,3-2.1,4.4-3.3,5.1,4.7,11.8,7.4,19.8,8.1.9,0,1.9.1,2.8.1,6.7,0,12.8-2,18.3-6.1,3.2,3.5,8.5,7,17.1,7s9.4-1,13.7-2.8c.1,0,.2.2.3.2-.7,1.4-1.6,3-2.4,4.6-1.7,3.3-3.6,7.1-5.7,11.2-1.3,2.6-2.7,5.3-4,8.2-2.9.7-5.7,1.4-8.3,2.2-4.7,1.4-9.4,3.3-13.8,5.4-3.9,1.7-6.8,3.9-8.8,6.7-.6.9-1.2,1.8-1.7,2.7-2.2-.2-4.5-.3-6.6-.3s-3.6,0-5.4.2c-9.1.8-17.6,3-25.1,6.5"/>
    <text class="st17" transform="translate(222.8 562)"><tspan x="0" y="0">Indian </tspan></text>
    <text class="st16" transform="translate(706.7 562)"><tspan x="0" y="0">by </tspan></text>
    <text class="st15" transform="translate(320.5 706.3)"><tspan x="0" y="0">Nature</tspan></text>
    <text class="st12" transform="translate(397.5 249.1) rotate(-18.5)"><tspan x="0" y="0">R</tspan></text>
    <text class="st7" transform="translate(435.7 236.1) rotate(-13.3)"><tspan x="0" y="0">e</tspan></text>
    <text class="st13" transform="translate(464.4 229.8) rotate(-9.3)"><tspan x="0" y="0">s</tspan></text>
    <text class="st11" transform="translate(491 225) rotate(-5.9)"><tspan x="0" y="0">t</tspan></text>
    <text class="st6" transform="translate(511.6 222.6) rotate(-1.9)"><tspan x="0" y="0">u</tspan></text>
    <text class="st11" transform="translate(547 222) rotate(2.9)"><tspan x="0" y="0">a</tspan></text>
    <text class="st9" transform="translate(582.8 224) rotate(7.1)"><tspan x="0" y="0">r</tspan></text>
    <text class="st8" transform="translate(606.8 226.6) rotate(11.4)"><tspan x="0" y="0">a</tspan></text>
    <text class="st10" transform="translate(641.4 233.9) rotate(16.7)"><tspan x="0" y="0">n</tspan></text>
    <text class="st14" transform="translate(677 243.8) rotate(20.9)"><tspan x="0" y="0">t</tspan></text>
    <g>
      <path class="st20" d="M547.7,314.5c-6.9,0-12.5,5.6-12.5,12.5s5.6,12.5,12.5,12.5,12.5-5.6,12.5-12.5c0-6.9-5.6-12.5-12.5-12.5M547.7,315.7l-.3,6.3.3,3.6.3-3.6-.3-6.3c.3,0,.6,0,1,0,0,0,0,0,0,0,0,.3.2.5.5.5s.5-.2.5-.5c.3,0,.6.1.9.2l-1.9,6-.6,3.5,1.2-3.4,1.3-6.1c.3,0,.6.2.9.3,0,0,0,.1,0,.2,0,.3.2.5.5.5s.4-.1.5-.3c.3.1.6.3.8.4l-3.4,5.3-1.5,3.3,2.1-2.9,2.9-5.6c.3.1.5.3.8.5,0,0-.1.2-.1.3,0,.3.2.5.5.5s.3,0,.4-.2c.2.2.5.4.7.6l-4.7,4.2-2.3,2.8,2.8-2.3,4.2-4.7c.2.2.4.4.6.7-.1.1-.2.2-.2.4,0,.3.2.5.5.5s.2,0,.3-.1c.2.3.4.5.5.8l-5.6,2.9-2.9,2.1,3.3-1.5,5.3-3.4c.2.3.3.6.5.9-.2,0-.3.3-.3.5s.2.5.5.5.1,0,.2,0c.1.3.2.6.3.9l-6.1,1.3-3.4,1.2,3.5-.6,6-1.9c0,.3.1.6.2.9-.3,0-.4.2-.4.5s.2.5.5.5h0c0,.3,0,.6,0,.9l-6.3-.3-3.6.3,3.6.3,6.3-.3c0,.3,0,.6,0,.9h0c-.3,0-.5.2-.5.5s.2.5.4.5c0,.3-.1.6-.2.9l-2.1-.7-3.8-1.2-3.5-.6h0,0l3.4,1.2,6.1,1.3c0,.3-.2.6-.3.9,0,0,0,0,0,0h-.1c-.3,0-.5.2-.5.5s0,.1,0,.2h0c0,0,0,.1.1.2h0s0,0,0,0h0s0,0,0,0h0s0,0,0,0c-.1.3-.3.6-.4.8l-5.3-3.4h0l-3.3-1.5h0l1.7,1.2,1.2.9h0l5.6,2.9c-.2.3-.3.6-.5.8,0,0-.2,0-.3,0-.3,0-.5.2-.5.5s0,.3.2.4c-.2.2-.4.5-.6.7l-4.2-4.7-2.8-2.3,2.3,2.8,4.7,4.2c-.2.2-.4.4-.7.6,0,0-.2-.1-.3-.1-.3,0-.5.2-.5.5s0,.2,0,.2c-.3.2-.6.3-.8.5l-2.9-5.6-2.1-3h0l1.5,3.3,3.4,5.3c-.3.1-.5.3-.8.4,0-.2-.3-.3-.5-.3s-.5.2-.5.5,0,.1,0,.2c-.3.1-.6.2-.9.3l-1.3-6.2-1.2-3.3h0s.6,3.5.6,3.5l1.9,6c-.3,0-.6.2-.9.2,0-.2-.3-.4-.5-.4s-.5.2-.5.5h0c-.3,0-.6.1-.9.1l.3-6.3-.3-3.6-.3,3.6.3,6.3c-.3,0-.6,0-1,0h0c0-.3-.2-.6-.5-.6s-.5.2-.5.4c-.3,0-.6-.1-.9-.2l1.9-6,.6-3.5-1.2,3.3-1.3,6.2c-.3,0-.6-.2-.9-.3,0,0,0-.1,0-.2,0-.3-.2-.5-.5-.5s-.4.1-.5.3c-.3-.1-.6-.3-.8-.4l3.4-5.3,1.5-3.3-2.1,2.9-2.9,5.6c-.3-.2-.5-.3-.8-.5,0,0,0-.2,0-.3,0-.3-.2-.5-.5-.5s-.3,0-.4.2c-.2-.2-.5-.4-.7-.6l4.7-4.2,2.3-2.8h0l-2.8,2.3-4.2,4.7c-.2-.2-.4-.5-.6-.7.1,0,.2-.2.2-.4,0-.3-.2-.5-.5-.5s-.2,0-.3,0c-.2-.2-.3-.5-.5-.8l5.6-2.9,2.9-2-3.3,1.5-5.3,3.4c-.2-.3-.3-.5-.4-.8.2,0,.3-.2.3-.5s-.2-.5-.5-.5-.1,0-.2,0c-.1-.3-.2-.6-.3-.9l6.2-1.3,3.4-1.2-3.6.6-6,1.9c0-.3-.1-.6-.2-.9.3,0,.4-.2.4-.5s-.2-.5-.5-.5h0c0-.3,0-.6,0-.9l6.3.3,3.6-.3-3.6-.3-6.3.3c0-.3,0-.6,0-.9h0c.3,0,.5-.2.5-.5s-.2-.5-.5-.5c0-.3.1-.6.2-.9l6,1.9,3.6.6-3.4-1.2-6.2-1.3c0-.3.2-.6.3-.9,0,0,.1,0,.2,0,.3,0,.5-.2.5-.5s-.1-.4-.3-.5c.1-.3.3-.6.4-.9l5.3,3.4,3.3,1.5-2.9-2.1-5.6-2.9c.2-.3.3-.5.5-.8,0,0,.2.1.3.1.3,0,.5-.2.5-.5s0-.3-.2-.4c.2-.2.4-.4.6-.7l4.2,4.7,2.8,2.3-2.3-2.8-4.7-4.2c.2-.2.5-.4.7-.6,0,.1.2.2.4.2.3,0,.5-.2.5-.5s0-.2-.1-.3c.3-.1.5-.3.8-.5l2.9,5.6,2.1,2.9-1.5-3.3-3.4-5.3c.3-.2.5-.3.8-.4,0,.2.3.3.5.3s.5-.2.5-.5,0-.2,0-.2c.3-.1.6-.2.9-.3l1.3,6.1,1.2,3.4-.6-3.5-1.9-6c.3-.1.6-.1.9-.2,0,.2.2.4.5.4s.5-.2.5-.5h0c.3,0,.6,0,.9,0"/>
      <path class="st22" d="M547.7,325.1c1,0,1.9.8,1.9,1.9s-.8,1.9-1.9,1.9-1.9-.8-1.9-1.9.8-1.9,1.9-1.9"/>
      <path class="st20" d="M547.7,325.5c.8,0,1.4.6,1.4,1.4s-.6,1.5-1.4,1.5-1.5-.6-1.5-1.5.7-1.4,1.5-1.4"/>
    </g>
    <g>
      <path class="st23" d="M661,301c0,.2,0,.5,0,.7,0,0,0,0,0,0,0,.2,0,.5,0,.7,0,0,0,0,0,.1,0,.2,0,.5.1.7,0,0,0,0,0,.1,0,.2.2.5.3.7,0,0,0,0,0,.1.1.2.2.5.4.7,0,0,0,0,0,0,.1.2.3.5.4.7,0,0,0,0,0,.1.2.2.3.5.5.7,0,0,0,.1.1.2.2.2.4.4.6.7,0,0,0,0,0,0,.2.2.5.5.7.7,0,0,.2.2.2.2.2.2.3.3.5.5.1.1.2.2.3.3.2.2.3.3.5.4.1.1.3.2.4.4.2.1.3.3.5.4.2.1.3.3.5.4l.5.4c.2.1.4.3.5.4.2.1.4.3.6.4.2.1.4.2.5.4.2.1.4.3.6.4.1,0,.3.2.4.3.3.2.7.4,1,.6.8.5,1.6.9,2.4,1.3,1.1.6,2.2,1.1,3.3,1.6,0,0,.1,0,.2,0,.9.4,1.8.8,2.8,1.2,1.6.7,3.2,1.3,4.8,1.9,1,.4,2,.7,3,1.1.1,0,.3.1.4.2,1.1.4,2.2.7,3.3,1.1.1,0,.3,0,.4.1,1.1.3,2.2.7,3.2,1,.2,0,.3,0,.5.1,1,.3,2,.6,2.9.8.1,0,.3,0,.4.1,1.1.3,2.2.6,3.2.9,2.7.7,5.4,1.4,8.1,2.1.5.1.9.2,1.4.4.4,0,.7.2,1.1.3,1.4.4,2.8.7,4.3,1.1.4.1.8.2,1.3.3,1.1.3,2.2.6,3.3.9,0,0,.2,0,.2,0,0,0,.2,0,.3,0,.7.2,1.4.4,2.1.6.7.2,1.5.4,2.2.6.4.1.8.2,1.2.4,0,0,.2,0,.3,0h.5c.6.3,1.3.5,1.9.7.6.2,1.3.4,1.9.6.5.2,1,.3,1.5.5.2,0,.4.1.5.2.8.3,1.6.6,2.4.8,0,0,.2,0,.3.1.7.3,1.4.5,2.1.8.5.2,1,.4,1.4.6.8.3,1.5.6,2.2.9.4.2.8.3,1.1.5,0,0,0,0,.1,0,.2,0,.4.2.6.3.7.3,1.3.6,2,.9.2,0,.4.2.5.2.2.1.4.2.6.3.3.1.6.3.9.4.6.3,1.2.6,1.8.9,0,0,0,0,.1,0,0,0,.1,0,.2.1.5.2,1,.5,1.5.7.5.2.9.5,1.4.7,0,0,.1,0,.2.1,0,0,0,0,.1,0,.6.3,1.2.6,1.8.9.3.1.5.3.8.4.2.1.4.2.6.3.2,0,.3.2.5.3.7.4,1.3.8,2,1.2,0,0,.1,0,.2.1.7.4,1.3.8,1.9,1.2,0,0,.2.1.3.2.4.2.8.5,1.1.7.3.2.6.4,1,.6,0,0,.2.1.3.2.5.3,1,.7,1.5,1,.3.2.5.3.8.5,0,0,0,0,.2.1.8.6,1.6,1.2,2.4,1.8,0,0,0,0,0,0,.8.6,1.5,1.2,2.3,1.8,0,0,.1,0,.2.1.2.2.4.3.6.5.5.4.9.8,1.4,1.2,0,0,.2.2.3.2.2.2.4.3.6.5.4.3.7.7,1.1,1,.1,0,.2.2.3.3.2.2.3.3.5.5.3.3.6.6.9.9.1.1.2.2.3.3.2.2.3.3.5.5.3.3.5.5.8.8,0,.1.2.2.3.3.2.2.3.4.5.6.2.2.4.5.6.7,0,0,.2.2.2.3.2.2.4.5.6.7.2.2.3.4.5.6,0,0,0,.1.1.2.3.3.5.7.8,1,0,.1.2.2.3.4,0,0,0,0,0,0,.3.5.6.9.9,1.4,0,0,0,0,0,0,0,.1.2.3.2.4.2.3.4.6.5.9,0,0,0,.2.1.3,0,.2.2.4.3.5.1.2.2.4.3.6,0,.2.1.3.2.5,0,.2.2.4.2.5,0,.1.1.2.2.3.1.4.3.7.4,1.1l-8.5,29.7c-.1-.4-.3-.7-.4-1.1,0-.1-.1-.2-.2-.3,0-.2-.2-.4-.2-.5,0-.2-.1-.3-.2-.5,0-.2-.2-.4-.3-.6,0-.2-.2-.4-.3-.5,0,0,0-.2-.1-.3-.2-.3-.3-.6-.5-.9,0-.1-.2-.3-.2-.4,0,0,0,0,0,0-.3-.5-.6-.9-.9-1.4,0,0,0,0,0,0,0-.1-.2-.2-.3-.4-.2-.4-.5-.7-.8-1,0,0,0-.1-.1-.2-.2-.2-.3-.4-.5-.6-.2-.2-.4-.5-.6-.7,0,0-.2-.2-.2-.3-.2-.2-.4-.5-.6-.7-.2-.2-.3-.4-.5-.6,0-.1-.2-.2-.3-.3-.2-.3-.5-.5-.8-.8-.2-.2-.3-.3-.5-.5-.1-.1-.2-.2-.3-.3-.3-.3-.6-.6-.9-.9-.2-.2-.3-.3-.5-.5-.1-.1-.2-.2-.3-.3-.4-.3-.7-.7-1.1-1-.2-.2-.4-.3-.6-.5,0,0-.2-.2-.3-.2-.4-.4-.9-.8-1.4-1.2-.2-.2-.4-.3-.6-.5,0,0-.1,0-.2-.1-.7-.6-1.5-1.2-2.3-1.8,0,0,0,0,0,0h0c-.8-.6-1.6-1.2-2.4-1.8,0,0-.1,0-.2-.1-.3-.2-.5-.3-.8-.5-.5-.3-1-.7-1.5-1,0,0-.2-.1-.3-.2-.3-.2-.6-.4-1-.6-.4-.2-.8-.5-1.1-.7,0,0-.2-.1-.3-.2-.6-.4-1.3-.8-1.9-1.2h-.2c-.6-.5-1.3-.9-2-1.3-.2,0-.3-.2-.5-.3-.2-.1-.4-.2-.5-.3-.3-.1-.5-.3-.8-.4-.6-.3-1.2-.6-1.8-.9,0,0,0,0-.1,0,0,0-.1,0-.2-.1-.5-.2-.9-.5-1.4-.7-.5-.2-1-.5-1.5-.7,0,0-.1,0-.2-.1,0,0,0,0-.1,0-.6-.3-1.2-.6-1.8-.9-.3-.1-.6-.3-.9-.4-.2-.1-.4-.2-.6-.3-.2,0-.4-.2-.5-.2-.6-.3-1.3-.6-2-.9-.2,0-.4-.2-.6-.3,0,0,0,0-.1,0-.4-.2-.7-.3-1.1-.5-.7-.3-1.5-.6-2.3-.9-.5-.2-1-.4-1.4-.6-.7-.3-1.4-.5-2.1-.8,0,0-.2,0-.3-.1-.8-.3-1.6-.6-2.4-.8-.2,0-.4-.1-.5-.2-.5-.2-1-.3-1.5-.5-.6-.2-1.3-.4-1.9-.6-.6-.2-1.3-.4-1.9-.6-.2,0-.3,0-.5-.1,0,0-.2,0-.3,0-.4-.1-.8-.2-1.2-.4-.7-.2-1.5-.4-2.2-.6-.7-.2-1.4-.4-2.1-.6,0,0-.2,0-.3,0,0,0-.2,0-.2,0-1.1-.3-2.2-.6-3.3-.9-.4-.1-.8-.2-1.3-.3-1.4-.4-2.8-.7-4.3-1.1-.4,0-.7-.2-1.1-.3-.5-.1-.9-.2-1.4-.4-2.7-.7-5.4-1.4-8.1-2.1-1-.3-2.1-.6-3.2-.9-.1,0-.3,0-.4-.1-1-.3-1.9-.5-2.9-.8-.2,0-.3,0-.5-.1-1.1-.3-2.1-.6-3.2-1-.1,0-.3,0-.4-.1-1.1-.3-2.2-.7-3.3-1.1-.2,0-.3,0-.5-.2-1-.3-2-.7-3-1.1-1.6-.6-3.2-1.2-4.8-1.9-.9-.4-1.9-.8-2.8-1.2,0,0-.1,0-.2-.1-1.1-.5-2.2-1.1-3.3-1.6-.8-.4-1.6-.9-2.4-1.3-.3-.2-.7-.4-1-.6-.1,0-.3-.2-.4-.3-.2-.1-.4-.3-.6-.4-.2-.1-.4-.2-.5-.4-.2-.1-.4-.3-.6-.4-.2-.1-.4-.3-.6-.4-.2-.1-.4-.3-.5-.4-.2-.1-.3-.3-.5-.4-.2-.1-.3-.3-.5-.4-.1-.1-.3-.2-.4-.4-.2-.1-.3-.3-.5-.4-.1-.1-.2-.2-.3-.3-.2-.2-.4-.3-.5-.5,0,0-.2-.2-.2-.2-.3-.2-.5-.5-.7-.7,0,0,0,0,0,0-.2-.2-.4-.4-.6-.7,0,0,0-.1-.1-.2-.2-.2-.4-.5-.5-.7,0,0,0,0,0-.1-.2-.2-.3-.5-.4-.7,0,0,0,0,0,0-.1-.2-.3-.5-.4-.7,0,0,0,0,0-.1-.1-.2-.2-.5-.3-.7,0,0,0,0,0-.1,0-.2-.1-.5-.1-.7,0,0,0,0,0-.1,0-.2,0-.5,0-.7,0,0,0,0,0-.1,0-.2,0-.5,0-.7"/>
      <path class="st23" d="M669.5,271.3c0,.2,0,.5,0,.7,0,0,0,0,0,0,0,.2,0,.5,0,.7,0,0,0,0,0,.1,0,.2,0,.5.1.7,0,0,0,0,0,.1,0,.2.2.5.3.7,0,0,0,0,0,.1.1.2.2.5.4.7,0,0,0,0,0,0,.1.2.3.5.4.7h0c.2.3.3.6.5.8,0,0,0,.1.1.2.2.2.4.4.6.7,0,0,0,0,0,0,.2.2.5.5.7.7,0,0,.2.2.2.2.2.2.3.3.5.5.1.1.2.2.3.3.2.2.3.3.5.4.1.1.3.2.4.4.2.1.3.3.5.4.2.1.3.3.5.4l.5.4c.2.1.4.3.5.4.2.1.4.3.6.4.2.1.3.2.5.4.2.1.4.3.6.4.1,0,.3.2.4.3.3.2.7.4,1,.6.8.5,1.6.9,2.4,1.3,1.1.6,2.2,1.1,3.3,1.6,0,0,.1,0,.2,0,.9.4,1.8.8,2.8,1.2,1.6.7,3.2,1.3,4.8,1.9,1,.4,2,.7,3,1.1.1,0,.3.1.5.2,1.1.4,2.2.7,3.3,1.1.1,0,.3,0,.4.1,1.1.3,2.2.7,3.2,1,.2,0,.3,0,.5.1,1,.3,2,.6,2.9.8.1,0,.3,0,.4.1,1.1.3,2.2.6,3.2.9,2.7.7,5.4,1.4,8.1,2.1.5.1.9.2,1.4.4.4,0,.7.2,1.1.3,1.4.4,2.8.7,4.3,1.1.4.1.8.2,1.3.3,1.1.3,2.2.6,3.3.9,0,0,.2,0,.2,0,0,0,.2,0,.3,0,.7.2,1.4.4,2.1.6.7.2,1.5.4,2.2.6.4.1.8.2,1.2.4,0,0,.2,0,.3,0h.5c.6.3,1.3.5,1.9.7.6.2,1.3.4,1.9.6.5.2,1,.3,1.5.5.2,0,.4.1.5.2.8.3,1.6.6,2.4.8,0,0,.2,0,.3.1.7.3,1.4.5,2.1.8.5.2,1,.4,1.4.6.7.3,1.5.6,2.2.9.4.2.8.3,1.1.5,0,0,0,0,.1,0,.2,0,.4.2.6.3.7.3,1.3.6,2,.9.2,0,.4.2.5.2.2.1.4.2.6.3.3.1.6.3.9.4.6.3,1.2.6,1.8.9,0,0,0,0,.1,0,0,0,.1,0,.2.1.5.2,1,.5,1.4.7.5.2.9.5,1.4.7,0,0,.1,0,.2.1,0,0,0,0,.1,0,.6.3,1.2.6,1.8.9.3.1.5.3.8.4.2.1.4.2.6.3.2,0,.3.2.5.3.7.4,1.3.8,2,1.2,0,0,.1,0,.2.1.7.4,1.3.8,1.9,1.2,0,0,.2.1.3.2.4.2.8.5,1.1.7.3.2.6.4,1,.6,0,0,.2.1.3.2.5.3,1,.7,1.5,1,.3.2.5.3.8.5,0,0,.1,0,.2.1.8.6,1.6,1.2,2.4,1.8,0,0,0,0,0,0,.8.6,1.5,1.2,2.3,1.8,0,0,.1,0,.2.1.2.2.4.3.6.5.5.4.9.8,1.4,1.2,0,0,.2.2.3.2.2.2.4.3.6.5.4.3.7.7,1.1,1,.1,0,.2.2.3.3.2.2.3.3.5.5.3.3.6.6.9.9.1.1.2.2.3.3.2.2.3.3.5.5.3.3.5.5.8.8,0,.1.2.2.3.3.2.2.3.4.5.6.2.2.4.5.6.7,0,0,.2.2.2.3.2.2.4.5.6.7.2.2.3.4.5.6,0,0,0,.1.1.2.3.4.5.7.8,1,0,.1.2.2.3.4,0,0,0,0,0,0,.3.5.6.9.9,1.4,0,0,0,0,0,0,0,.1.2.3.2.4.2.3.4.6.5.9,0,0,0,.2.1.3,0,.2.2.4.3.5.1.2.2.4.3.6,0,.2.1.3.2.5,0,.2.2.4.2.5,0,.1.1.2.2.3.1.4.3.7.4,1.1l-8.5,29.7c-.1-.4-.3-.7-.4-1.1,0-.1-.1-.2-.2-.3,0-.2-.2-.4-.2-.5,0-.2-.1-.3-.2-.5,0-.2-.2-.4-.3-.6,0-.2-.2-.4-.3-.5,0,0,0-.2-.1-.3-.2-.3-.3-.6-.5-.9,0-.1-.2-.3-.2-.4h0c-.3-.6-.6-1-.9-1.5,0,0,0,0,0,0,0-.1-.2-.2-.3-.4-.2-.4-.5-.7-.8-1,0,0,0-.1-.1-.2-.2-.2-.3-.4-.5-.6-.2-.2-.4-.5-.6-.7,0,0-.2-.2-.2-.3-.2-.2-.4-.5-.6-.7-.2-.2-.3-.4-.5-.6,0-.1-.2-.2-.3-.3-.2-.3-.5-.5-.8-.8-.2-.2-.3-.3-.5-.5-.1-.1-.2-.2-.3-.3-.3-.3-.6-.6-.9-.9-.2-.2-.3-.3-.5-.5-.1-.1-.2-.2-.3-.3-.4-.3-.7-.7-1.1-1-.2-.2-.4-.3-.6-.5,0,0-.2-.2-.3-.2-.4-.4-.9-.8-1.4-1.2-.2-.2-.4-.3-.6-.5,0,0-.1,0-.2-.1-.7-.6-1.5-1.2-2.3-1.8h0s0,0,0,0c-.8-.6-1.6-1.2-2.4-1.8,0,0-.1,0-.2-.1-.3-.2-.5-.3-.8-.5-.5-.3-1-.7-1.5-1,0,0-.2-.1-.3-.2-.3-.2-.6-.4-1-.6-.4-.2-.8-.5-1.1-.7,0,0-.2-.1-.3-.2-.6-.4-1.3-.8-1.9-1.2h-.2c-.6-.5-1.3-.9-2-1.3-.2,0-.3-.2-.5-.3-.2-.1-.4-.2-.5-.3-.3-.1-.5-.3-.8-.4-.6-.3-1.2-.6-1.8-.9,0,0,0,0-.1,0,0,0-.1,0-.2-.1-.5-.2-.9-.5-1.4-.7-.5-.2-1-.5-1.5-.7,0,0-.1,0-.2-.1,0,0,0,0-.1,0-.6-.3-1.2-.6-1.8-.9-.3-.1-.6-.3-.9-.4-.2-.1-.4-.2-.6-.3-.2,0-.4-.2-.5-.2-.6-.3-1.3-.6-2-.9-.2,0-.4-.2-.6-.3,0,0,0,0-.1,0-.4-.2-.7-.3-1.1-.5-.7-.3-1.5-.6-2.3-.9-.5-.2-1-.4-1.4-.6-.7-.3-1.4-.5-2.1-.8,0,0-.2,0-.3-.1-.8-.3-1.6-.6-2.4-.8-.2,0-.4-.1-.5-.2-.5-.2-1-.3-1.5-.5-.6-.2-1.3-.4-1.9-.6-.6-.2-1.3-.4-1.9-.6-.2,0-.3,0-.5-.1,0,0-.2,0-.3,0l-1.2-.4c-.7-.2-1.5-.4-2.2-.6-.7-.2-1.4-.4-2.1-.6,0,0-.2,0-.3,0,0,0-.2,0-.2,0-1.1-.3-2.2-.6-3.3-.9-.4-.1-.8-.2-1.3-.3-1.4-.4-2.8-.7-4.3-1.1-.4,0-.7-.2-1.1-.3-.5-.1-.9-.2-1.4-.4-2.7-.7-5.4-1.4-8.1-2.1-1-.3-2.1-.6-3.2-.9-.1,0-.3,0-.4-.1-1-.3-1.9-.5-2.9-.8-.2,0-.3,0-.5-.1-1.1-.3-2.1-.6-3.2-1-.1,0-.3,0-.4-.1-1.1-.3-2.2-.7-3.3-1.1-.1,0-.3,0-.5-.2-1-.3-2-.7-3-1.1-1.6-.6-3.2-1.2-4.8-1.9-.9-.4-1.9-.8-2.8-1.2,0,0-.1,0-.2-.1-1.1-.5-2.2-1.1-3.3-1.6-.8-.4-1.6-.9-2.4-1.3-.3-.2-.7-.4-1-.6-.1,0-.3-.2-.4-.3-.2-.1-.4-.3-.6-.4-.2-.1-.4-.2-.5-.4-.2-.1-.4-.3-.6-.4-.2-.1-.4-.3-.6-.4-.2-.1-.3-.3-.5-.4-.2-.1-.3-.3-.5-.4-.2-.1-.3-.3-.5-.4-.1-.1-.3-.2-.4-.4-.2-.1-.3-.3-.5-.4-.1-.1-.2-.2-.3-.3-.2-.2-.4-.3-.5-.5,0,0-.2-.2-.2-.2-.2-.2-.5-.5-.7-.7,0,0,0,0,0,0-.2-.2-.4-.4-.6-.7,0,0,0-.1-.1-.2-.2-.2-.4-.5-.5-.7,0,0,0,0,0-.1-.2-.2-.3-.5-.4-.7,0,0,0,0,0,0-.1-.2-.3-.5-.4-.7,0,0,0,0,0-.1-.1-.2-.2-.5-.3-.7,0,0,0,0,0-.1,0-.2-.1-.5-.1-.7,0,0,0,0,0-.1,0-.2,0-.5,0-.7,0,0,0,0,0-.1,0-.2,0-.5,0-.7"/>
      <path class="st23" d="M644,360.4c0,.2,0,.5,0,.7,0,0,0,0,0,.1,0,.2,0,.5,0,.7h0c0,.3,0,.6.1.8,0,0,0,0,0,.1,0,.2.2.5.3.7,0,0,0,0,0,0,.1.2.2.5.4.7,0,0,0,0,0,0,.1.2.3.5.5.7,0,0,0,0,0,.1.2.2.3.5.5.7,0,0,0,.1.1.2.2.2.4.4.6.7,0,0,0,0,0,0,.2.2.5.5.7.7,0,0,.2.2.2.2.2.2.4.3.5.5.1.1.2.2.3.3.2.1.3.3.5.5.1.1.3.2.4.4.2.1.3.3.5.4.2.1.3.3.5.4.2.1.3.3.5.4.2.1.4.3.5.4l.6.4c.2.1.3.2.5.4.2.1.4.3.6.4.1,0,.3.2.4.3.3.2.7.4,1,.6.8.5,1.6.9,2.4,1.3,1.1.6,2.2,1.1,3.3,1.6,0,0,.1,0,.2.1.9.4,1.8.8,2.8,1.2,1.6.7,3.2,1.3,4.8,1.9,1,.4,2,.7,3,1.1.1,0,.3,0,.5.1,1.1.4,2.2.7,3.3,1.1.1,0,.3,0,.4.1,1.1.3,2.2.7,3.2,1,.2,0,.3,0,.5.1,1,.3,2,.6,2.9.8.1,0,.3,0,.4.1,1.1.3,2.2.6,3.2.9,2.7.7,5.4,1.4,8.1,2.1.5.1.9.2,1.4.4.4,0,.7.2,1.1.3,1.4.4,2.8.7,4.3,1.1.4.1.8.2,1.3.3,1.1.3,2.2.6,3.3.9,0,0,.2,0,.2,0,0,0,.2,0,.3,0,.7.2,1.4.4,2.1.6.7.2,1.5.4,2.2.6.4.1.8.2,1.2.4h.3c.2.1.3.2.5.2.6.2,1.3.4,1.9.6.6.2,1.3.4,1.9.6.5.2,1,.3,1.5.5.2,0,.3.1.5.2.8.3,1.6.5,2.4.8h.3c.7.4,1.4.6,2.1.9.5.2,1,.4,1.4.6.7.3,1.5.6,2.2.9.4.2.7.3,1.1.5,0,0,0,0,.1,0,.2,0,.4.2.6.3.7.3,1.3.6,2,.9.2,0,.4.2.5.2.2,0,.4.2.7.3.3.1.6.3.9.4.6.3,1.2.6,1.8.9,0,0,0,0,.1,0,0,0,.1,0,.2.1.5.2,1,.5,1.4.7.5.2.9.5,1.4.7,0,0,.1,0,.2.1,0,0,0,0,.1,0,.6.3,1.2.6,1.8.9.3.1.5.3.8.4l.6.3c.2,0,.3.2.5.3.7.4,1.3.8,2,1.2h.2c.7.5,1.3.9,1.9,1.3,0,0,.2.1.3.2.4.2.8.5,1.1.7.3.2.6.4,1,.6,0,0,.2.1.3.2.5.3,1,.7,1.5,1,.3.2.5.3.8.5,0,0,.1,0,.2.1.8.6,1.6,1.2,2.4,1.8h0c.8.6,1.5,1.2,2.3,1.8,0,0,.1,0,.2.1.2.2.4.3.6.5.5.4.9.8,1.4,1.2,0,0,.2.2.3.2.2.2.4.3.6.5.4.3.7.7,1.1,1,.1.1.2.2.3.3.2.2.3.3.5.5.3.3.6.6.9.9.1.1.2.2.3.3.2.2.3.3.5.5.2.3.5.5.7.8,0,.1.2.2.3.3.2.2.3.4.5.6.2.2.4.5.6.7,0,0,.2.2.2.3.2.2.4.5.6.7.2.2.3.4.5.6,0,0,0,.1.1.2.3.4.5.7.8,1.1,0,.1.2.2.3.3,0,0,0,0,0,0,.3.5.6.9.9,1.4,0,0,0,0,0,0,0,.1.2.3.2.4.2.3.4.6.5.9,0,0,0,.2.1.3,0,.2.2.4.3.5.1.2.2.4.3.6,0,.1.1.3.2.4,0,.2.2.4.2.5,0,.1.1.2.2.3.2.4.3.7.4,1.1l8.5-29.7c-.1-.4-.3-.7-.4-1,0-.1-.1-.2-.2-.4,0-.2-.2-.4-.2-.5,0-.2-.1-.3-.2-.4,0-.2-.2-.4-.3-.6,0-.2-.2-.4-.3-.5,0,0,0-.2-.1-.3-.2-.3-.3-.6-.5-.9,0-.1-.1-.3-.2-.4,0,0,0,0,0,0-.3-.5-.6-.9-.9-1.4,0,0,0,0,0,0,0-.1-.2-.2-.3-.4-.2-.3-.5-.7-.8-1,0,0,0-.1-.1-.2-.2-.2-.3-.4-.5-.6-.2-.2-.4-.5-.6-.7,0,0-.2-.2-.2-.3-.2-.2-.4-.5-.6-.7-.2-.2-.3-.4-.5-.6-.1-.1-.2-.2-.3-.3-.2-.3-.5-.5-.7-.8-.2-.2-.3-.3-.5-.5-.1-.1-.2-.2-.3-.3-.3-.3-.6-.6-.9-.9-.2-.2-.3-.3-.5-.5-.1-.1-.2-.2-.3-.3-.3-.3-.7-.7-1.1-1-.2-.2-.4-.3-.6-.5,0,0-.2-.2-.3-.2-.4-.4-.9-.8-1.4-1.2-.2-.2-.4-.3-.6-.5,0,0-.1,0-.2-.1-.7-.6-1.5-1.2-2.3-1.8,0,0,0,0,0,0-.8-.6-1.6-1.2-2.4-1.8,0,0,0,0-.2-.1-.3-.2-.5-.3-.8-.5-.5-.3-1-.7-1.5-1,0,0-.2-.1-.3-.2-.3-.2-.6-.4-1-.6-.4-.2-.8-.5-1.2-.7,0,0-.2-.1-.3-.2-.6-.4-1.3-.8-1.9-1.2h-.2c-.6-.5-1.3-.9-2-1.3l-.5-.3c-.2-.1-.4-.2-.5-.3-.3-.1-.5-.3-.8-.4-.6-.3-1.2-.6-1.8-.9,0,0,0,0-.1,0,0,0-.1,0-.2-.1-.5-.2-.9-.5-1.4-.7-.5-.2-1-.5-1.5-.7,0,0-.1,0-.2-.1h0c-.6-.3-1.2-.6-1.8-.9-.3-.1-.6-.3-.9-.4-.2,0-.4-.2-.7-.3-.2,0-.4-.2-.5-.2-.6-.3-1.3-.6-2-.9-.2,0-.4-.2-.6-.3,0,0,0,0-.1,0-.4-.2-.7-.3-1.1-.5-.7-.3-1.5-.6-2.2-.9-.5-.2-1-.4-1.4-.6-.7-.3-1.4-.5-2.1-.8h-.3c-.8-.4-1.6-.7-2.4-.9-.2,0-.4-.1-.5-.2-.5-.2-1-.3-1.5-.5-.6-.2-1.3-.4-1.9-.6-.6-.2-1.3-.4-1.9-.6-.2,0-.3,0-.5-.1h-.3c-.4-.2-.8-.3-1.2-.5-.7-.2-1.5-.4-2.2-.6-.7-.2-1.4-.4-2.1-.6,0,0-.2,0-.3,0,0,0-.2,0-.2,0-1.1-.3-2.2-.6-3.3-.9-.4-.1-.8-.2-1.3-.3-1.4-.4-2.8-.7-4.3-1.1-.4,0-.7-.2-1.1-.3-.5-.1-.9-.2-1.4-.4-2.7-.7-5.4-1.4-8.1-2.1-1-.3-2.1-.6-3.2-.9-.1,0-.3,0-.4-.1-1-.3-1.9-.5-2.9-.8-.2,0-.3,0-.5-.1-1.1-.3-2.1-.6-3.2-1-.1,0-.3,0-.4-.1-1.1-.3-2.2-.7-3.3-1.1-.2,0-.3,0-.5-.1-1-.3-2-.7-3-1.1-1.6-.6-3.2-1.2-4.8-1.9-.9-.4-1.9-.8-2.8-1.2,0,0-.1,0-.2,0-1.1-.5-2.2-1.1-3.3-1.6-.8-.4-1.6-.9-2.4-1.3-.3-.2-.7-.4-1-.6-.1,0-.3-.2-.4-.3-.2-.1-.4-.3-.6-.4-.2-.1-.4-.2-.5-.4-.2-.1-.4-.3-.6-.4-.2-.1-.4-.3-.6-.4s-.4-.3-.5-.4c-.2-.1-.3-.3-.5-.4-.2-.1-.3-.3-.5-.4-.2-.1-.3-.2-.4-.4-.2-.2-.4-.3-.5-.5-.1-.1-.2-.2-.3-.3-.2-.2-.4-.3-.5-.5,0,0-.2-.2-.2-.2-.2-.2-.5-.5-.7-.7,0,0,0,0,0,0-.2-.2-.4-.4-.6-.7,0,0,0-.1-.1-.2-.2-.2-.4-.5-.5-.7,0,0,0,0,0-.1-.2-.2-.3-.5-.4-.7,0,0,0,0,0,0-.1-.2-.3-.5-.4-.7,0,0,0,0,0-.1-.1-.2-.2-.5-.3-.7,0,0,0,0,0-.1,0-.2-.1-.5-.1-.7,0,0,0,0,0-.1,0-.2,0-.5,0-.7,0,0,0,0,0-.1,0-.2,0-.5,0-.7l-8.5,29.7Z"/>
      <path class="st22" d="M685.8,287c29.4,42.8,58.8,85.7,88.2,128.5l-4.6,16.1c-.7-1.6-1.7-3.6-3.2-5.9-2.2-3.4-4.4-5.6-6-7.3-1.6-1.6-3.7-3.6-6.3-5.7-29.5-42.3-58.9-84.6-88.4-126.9,1.3-4.6,2.6-9.2,3.9-13.8,0,.8.3,1.9.9,3.1.6,1.3,1.3,2.1,2.1,3,.2.3,1,1.1,3.1,2.7,1.9,1.5,3.4,2.5,3.8,2.7,1.6,1,3.9,2.3,6.7,3.6Z"/>
      <path class="st22" d="M794.9,342.4l-2.6,9.1-143.4,17.7s-4.2-2.9-5.1-7.9l1.4-5.3,147.2-18.7s2,3.4,2.5,5.2Z"/>
    </g>
  </g>
</svg>