<?xml version="1.0" encoding="UTF-8"?>
<svg id="Layer_1" xmlns="http://www.w3.org/2000/svg" version="1.1" viewBox="0 0 1080 1080">
  <!-- Generator: Adobe Illustrator 29.3.0, SVG Export Plug-In . SVG Version: 2.1.0 Build 146)  -->
  <defs>
    <style>
      .st0 {
        fill: #009ff3;
      }

      .st1 {
        fill: #fff;
      }
    </style>
  </defs>
  <rect width="1080" height="1080"/>
  <g>
    <path class="st0" d="M315.2,293.9c-79.5-5-127.4,84.3-130.6,153.5-2.4,51.9,29.5,101.3,21.6,151.6-.5,3-9.9,19.4-9.1,20h35.4c-2,2.5-2.5,9.1-5.3,10.1-6.5,2.2-30.1-2-34.6.7-1.8,1.1-7.4,14.6-8,17.7h46.2c.5,0,3.5-1.3,4.1-1.9,3.5-4,8.1-17.7,12.5-23.7,17.7-24.3,67.5-37.5,94.3-49.4,62-27.5,123-107.7,106.1-178.4-13.1-54.6-78.5-96.8-132.5-100.2ZM371,538c-38.3,31-91.8,34.6-129,68.2l-21.9-10.2c-1.1-3.6,1.1-7.1,1-10.6-.9-38.7-12.4-62.8-19.1-98.5-11.2-59.8,12.3-138.8,68-169.6,32.4-17.9,79.1-5.6,109.1,12.5,89.5,53.9,61.5,151.8-8.1,208.2Z"/>
    <path class="st0" d="M169.7,676.1h49l8-17.1c-1.6-1.5-39-1.7-44-1.2-8.1.8-9.9,11.8-13,18.3Z"/>
    <path class="st0" d="M160.5,696.4c-1.1.7-4.3-.3-6.7.7-4.1,1.8-7.2,8.6-4.2,12.7,2.6,3.6,31.5,16.9,37.7,19.9,1.2.6,2.1,2.2,3.1,2.6,11.7,4.9,17.7-11.5,6.8-17.1,1.1-1.8,3.4-2.1,4.5-3.8,4.1-6.5,6.3-18.6,11.4-25.3h-47.3c-4,0-3.9,9.3-5.3,10.1Z"/>
    <path class="st0" d="M484.6,312.9c-30.7,21.1-19.6,75.9,18.7,79.1,6.4.5,17.9-.3,23.3-4,1.8-1.3.8-1.1.2-2.4-2.2-5.3-20-8.8-26.5-12.3-33.2-18-18.2-64.4,21.7-57.1,8.8,1.6,15.3,8.9,23.9,10.9-11.3-22.4-41.3-28-61.5-14.1Z"/>
    <path class="st0" d="M419.7,535.4c-3.1,4.4-4.8,12.5,2.4,8.4,4.4-2.5,9.6-11.3,14.6-14.2,23.8-27.1,50.9-52.3,74.1-79.8,1.1-1.3,2.8-1.9,2.3-4l-18.3,14.2c-22.5,24.2-56.2,48.7-75.1,75.5Z"/>
    <path class="st0" d="M395,711.4h25.1c14.7,0,30.5-12.3,36-25.6,6.3-15.2,6.7-60.7.8-76.1-13.6-35.4-62.7-25.1-92.6-27.1-1,0-2.6.8-2.9,1.7v199.6c0,1.5,5,1.7,6.3,1.7h25.1c3.3,0,.6-8.7.5-10.8-.5-16.6-1.9-43.7,0-59.4.1-1.1.5-3.9,1.8-3.9ZM393.3,612.2c7.4.9,17.5-1.2,24.5,0,3.7.7,8.2,6.5,9.4,10,2.7,7.8,2.3,42.3-.2,50.5-1.5,5.1-8.4,11.3-13.7,11.3h-18.2c-.1,0-1.7-1.6-1.7-1.7v-70.1Z"/>
    <path class="st0" d="M541,583.7c-9.9-.5-26.3-2.9-35.4-1.2-1.3.3-2.3.4-2.6,1.9l-34.4,201.1h31.4l1.5-1.9c1-5.3,3.5-37,5.8-38.7h35.5c3,4.5,5,40.6,8.5,40.6h29.7c.3,0,2-1.5,1.3-2.4-12.2-65.2-23.3-130.7-34.3-196.2-1.7-6.5-2.5-3.1-6.8-3.3ZM510.8,717.1l10.4-74.6c2.2-4.9.4-13.1,4.4-16.7l12.6,91.2h-27.4Z"/>
    <path class="st0" d="M392.8,357.2c-30.2-26.6-81.4-47.1-119.3-26.2-62.9,34.7-83.9,154.9-29,204.7,82.6,74.9,242.9-95.1,148.3-178.6ZM368.8,378.1c4.8,0,8.7,3.9,8.7,8.7s-3.9,8.7-8.7,8.7-8.7-3.9-8.7-8.7,3.9-8.7,8.7-8.7ZM370.2,415.2c6,6.4-5,21.1-13.4,11.7-8.1-9.1,6.2-19.4,13.4-11.7ZM338.2,362.6c9.1-1.4,14,12.3,5.2,16.6-12.5,6.2-16.5-14.8-5.2-16.6ZM335.1,396.8c4.7,0,8.6,3.8,8.6,8.6s-3.8,8.6-8.6,8.6-8.6-3.8-8.6-8.6,3.8-8.6,8.6-8.6ZM328.5,434.1c0,4.8-3.9,8.7-8.7,8.7s-8.7-3.9-8.7-8.7,3.9-8.7,8.7-8.7,8.7,3.9,8.7,8.7ZM310.4,349.1c4.9,0,8.8,3.9,8.8,8.8s-3.9,8.8-8.8,8.8-8.8-3.9-8.8-8.8,3.9-8.8,8.8-8.8ZM301.4,385.1c2.4-1.7,9.8-1.6,11.8.4,5.3,5.3,1.1,17.2-8,15.5-7.2-1.3-9-12.2-3.8-15.9ZM298.5,421.2c0,4.7-3.8,8.6-8.6,8.6s-8.6-3.8-8.6-8.6,3.8-8.6,8.6-8.6,8.6,3.8,8.6,8.6ZM272.7,373c8-8,19.6,3.4,12.3,11.7-8.5,9.7-20.1-3.9-12.3-11.7ZM257.2,398c13.8-3,15,17.3,2.1,16.8-10.2-.4-9.9-15.1-2.1-16.8ZM240.4,436.5c0-4.8,3.9-8.6,8.6-8.6s8.6,3.9,8.6,8.6-3.9,8.6-8.6,8.6-8.6-3.9-8.6-8.6ZM261.3,486.8c-4.8,0-8.6-3.9-8.6-8.6s3.9-8.6,8.6-8.6,8.6,3.9,8.6,8.6-3.9,8.6-8.6,8.6ZM276.6,459c-16-.9-4-27,6.9-15.3,4.3,4.6,1.1,15.8-6.9,15.3ZM292.1,500.2c-16.8,3.8-12.8-23.3,2.7-15.3,4.9,2.6,3.7,13.8-2.7,15.3ZM296.4,463.4c0-4.8,3.9-8.6,8.6-8.6s8.6,3.9,8.6,8.6-3.9,8.6-8.6,8.6-8.6-3.9-8.6-8.6ZM317.1,514.5c-4.8,0-8.6-3.9-8.6-8.6s3.9-8.6,8.6-8.6,8.6,3.9,8.6,8.6-3.9,8.6-8.6,8.6ZM333,486.2c-4.8,0-8.6-3.9-8.6-8.6s3.9-8.6,8.6-8.6,8.6,3.9,8.6,8.6-3.9,8.6-8.6,8.6ZM340.1,449.1c0-4.8,3.9-8.7,8.7-8.7s8.7,3.9,8.7,8.7-3.9,8.7-8.7,8.7-8.7-3.9-8.7-8.7ZM365.5,497.7c-11.8,11.9-22-18.2-2.5-14.4,6.6,1.3,6.6,10.2,2.5,14.4ZM376.8,471.8c-4.8,0-8.7-3.9-8.7-8.7s3.9-8.7,8.7-8.7,8.7,3.9,8.7,8.7-3.9,8.7-8.7,8.7ZM390.9,441.6c-4.7,0-8.6-3.8-8.6-8.6s3.8-8.6,8.6-8.6,8.6,3.8,8.6,8.6-3.8,8.6-8.6,8.6Z"/>
    <path class="st0" d="M514.7,325.9c-9.6-.3-19.9,5.1-21,15.4-2.4,22.2,17.1,24.3,33.5,30.4l10.4,10.1c11.9-11.6,18.9-27.6,14.2-44.3-15.1,2.9-22.6-11.1-37-11.6Z"/>
    <rect class="st1" x="594" y="367" width="29.4" height="181.3"/>
    <path class="st0" d="M608.2,582.5c-1.3.2-3.5.3-3.9,1.8v199.6c0,1.2,2.8,1.6,3.9,1.8,10.3,1.2,29.1.5,40,0,38.2-1.9,57.5-13.7,59.9-54.1,1.7-27.6,1.8-68.4,0-95.8-1.4-20.3-8.6-39.8-28.9-47.5-14.8-5.7-55-7.4-71-5.6ZM637.3,612.2h22.2c.8,0,7.4,3,8.6,3.9,5.7,4.3,6.4,13.8,6.8,20.5,1.8,27.2,1.9,68.7,0,95.9-.6,8.5-1.8,17.6-10.2,21.7-1.4.7-7.6,2.8-8.6,2.8h-18.8v-144.8Z"/>
    <path class="st0" d="M881.4,754.2v-171.6h-34.2v201.9h84.4v-27.4h-49.6c-2.7-1.7-.6-2.4-.6-2.9Z"/>
    <path class="st1" d="M675.6,548.3h27.9v-153.4c0-3.5,24.6-1.1,28.5-.6v-27.4h-87.8v27.4c2.8-.4,5.6-1.1,8.5-1.1,3,0,21.2-.9,21.2,1.7v151.7c0,.1,1.6,1.7,1.7,1.7Z"/>
    <path class="st1" d="M755.4,367c-2.6,0-8.3,45.5-10.8,50.2h24l16-50.2h-29.1Z"/>
    <path class="st1" d="M795.9,495.9v22.2c0,18.7,21.6,32.1,38.4,33.5,35.3,2.9,52.2-20.4,49.3-53.9-3.7-41.7-53.5-54.7-57.7-83.7-2-13.8.9-26.1,17.4-24.2,13.1,1.5,12.4,16.1,11.9,26.3h27.4v-16.5c0-42-68.5-49.8-82.4-11.7-8.3,22.6-1.8,46,13.4,63.6,12.2,14.2,39.2,29.2,41.5,48.6,1.1,9.4-.1,22.6-11.2,25-19.6,4.3-23.2-13.9-21.7-29.2h-26.2Z"/>
    <path class="st0" d="M735.4,785.5h86.7v-28.5h-53.6v-58.2h44.5v-29.7c-1.2-.4-2.5,1.1-2.9,1.1h-39.9c-.1,0-1.7-1.6-1.7-1.7v-56.5h52.5v-29.7h-85.5v203Z"/>
  </g>
</svg>