<?xml version="1.0" encoding="UTF-8"?>
<svg id="Layer_1" xmlns="http://www.w3.org/2000/svg" xmlns:xlink="http://www.w3.org/1999/xlink" version="1.1" viewBox="0 0 1080 1080">
  <!-- Generator: Adobe Illustrator 29.3.0, SVG Export Plug-In . SVG Version: 2.1.0 Build 146)  -->
  <defs>
    <style>
      .st0 {
        fill: #ef4900;
      }

      .st1, .st2 {
        fill: none;
      }

      .st3 {
        fill: url(#linear-gradient2);
      }

      .st4 {
        fill: url(#linear-gradient1);
      }

      .st5 {
        fill: url(#linear-gradient9);
      }

      .st6 {
        fill: url(#linear-gradient3);
      }

      .st7 {
        fill: url(#linear-gradient6);
      }

      .st8 {
        fill: url(#linear-gradient8);
      }

      .st9 {
        fill: url(#linear-gradient7);
      }

      .st10 {
        fill: url(#linear-gradient5);
      }

      .st11 {
        fill: url(#linear-gradient4);
      }

      .st2 {
        stroke: #f7ad36;
        stroke-miterlimit: 10;
        stroke-width: 2.4px;
      }

      .st12 {
        fill: url(#linear-gradient18);
      }

      .st13 {
        fill: url(#linear-gradient13);
      }

      .st14 {
        fill: url(#linear-gradient12);
      }

      .st15 {
        fill: url(#linear-gradient15);
      }

      .st16 {
        fill: url(#linear-gradient16);
      }

      .st17 {
        fill: url(#linear-gradient11);
      }

      .st18 {
        fill: url(#linear-gradient10);
      }

      .st19 {
        fill: url(#linear-gradient17);
      }

      .st20 {
        fill: url(#linear-gradient14);
      }

      .st21 {
        fill: url(#linear-gradient19);
      }

      .st22 {
        fill: url(#linear-gradient20);
      }

      .st23 {
        fill: url(#linear-gradient);
      }

      .st24 {
        fill: #fa4000;
      }

      .st25 {
        fill: #f39104;
      }

      .st26 {
        fill: #ffef00;
      }

      .st27 {
        fill: #ffe6ca;
      }

      .st28 {
        clip-path: url(#clippath);
      }
    </style>
    <clipPath id="clippath">
      <path class="st1" d="M292.3,506.2c158.5-29.5,317-59,475.5-88.5-13.2-21.3-39.1-56.5-83.2-84.5-14.3-9.1-96.7-59.5-198.8-35.1-135.4,32.3-183.2,166.8-186.2,175.6"/>
    </clipPath>
    <linearGradient id="linear-gradient" x1="439.2" y1="332" x2="439.2" y2="322.5" gradientUnits="userSpaceOnUse">
      <stop offset="0" stop-color="#f39104"/>
      <stop offset="1" stop-color="#ef4900"/>
    </linearGradient>
    <linearGradient id="linear-gradient1" x1="486.2" x2="486.2" xlink:href="#linear-gradient"/>
    <linearGradient id="linear-gradient2" x1="627.6" x2="627.6" xlink:href="#linear-gradient"/>
    <linearGradient id="linear-gradient3" x1="424.9" y1="350.9" x2="424.9" y2="341.4" xlink:href="#linear-gradient"/>
    <linearGradient id="linear-gradient4" x1="496.5" y1="350.9" x2="496.5" y2="341.4" xlink:href="#linear-gradient"/>
    <linearGradient id="linear-gradient5" x1="652.3" y1="350.9" x2="652.3" y2="341.4" xlink:href="#linear-gradient"/>
    <linearGradient id="linear-gradient6" x1="414" y1="369.8" x2="414" y2="360.2" xlink:href="#linear-gradient"/>
    <linearGradient id="linear-gradient7" x1="671.1" y1="369.8" x2="671.1" y2="360.2" xlink:href="#linear-gradient"/>
    <linearGradient id="linear-gradient8" x1="403.9" y1="388.6" x2="403.9" y2="379.1" xlink:href="#linear-gradient"/>
    <linearGradient id="linear-gradient9" x1="684.5" y1="388.6" x2="684.5" y2="379.1" xlink:href="#linear-gradient"/>
    <linearGradient id="linear-gradient10" x1="392.4" y1="407.5" x2="392.4" y2="398" xlink:href="#linear-gradient"/>
    <linearGradient id="linear-gradient11" x1="694" y1="407.5" x2="694" y2="398" xlink:href="#linear-gradient"/>
    <linearGradient id="linear-gradient12" x1="382.3" y1="426.4" x2="382.3" y2="416.9" xlink:href="#linear-gradient"/>
    <linearGradient id="linear-gradient13" x1="699.6" y1="426.4" x2="699.6" y2="416.9" xlink:href="#linear-gradient"/>
    <linearGradient id="linear-gradient14" x1="376.2" y1="445.3" x2="376.2" y2="435.8" xlink:href="#linear-gradient"/>
    <linearGradient id="linear-gradient15" x1="698.2" y1="445.3" x2="698.2" y2="435.8" xlink:href="#linear-gradient"/>
    <linearGradient id="linear-gradient16" x1="374.2" y1="464.2" x2="374.2" y2="454.7" xlink:href="#linear-gradient"/>
    <linearGradient id="linear-gradient17" x1="692.8" y1="464.2" x2="692.8" y2="454.7" xlink:href="#linear-gradient"/>
    <linearGradient id="linear-gradient18" x1="374.9" y1="483.1" x2="374.9" y2="473.6" xlink:href="#linear-gradient"/>
    <linearGradient id="linear-gradient19" x1="368.7" y1="502" x2="368.7" y2="492.5" xlink:href="#linear-gradient"/>
    <linearGradient id="linear-gradient20" x1="654" y1="483.1" x2="654" y2="473.6" xlink:href="#linear-gradient"/>
  </defs>
  <rect width="1080" height="1080"/>
  <g>
    <path class="st25" d="M567.6,322.5c1.3,3.2,2.4,6.4,3.3,9.5h-46.7c-.5-3.2-1.1-6.4-1.7-9.5h45.2Z"/>
    <path class="st25" d="M573.3,341.4c.7,3.3,1.2,6.5,1.6,9.5h-49.3c0-3.1,0-6.3-.3-9.5h48Z"/>
    <path class="st25" d="M760.2,341.4v9.5h-32.6c-3.5-3.3-7-6.4-10.7-9.5h43.3Z"/>
    <path class="st25" d="M476.6,360.2c3.3,3.5,5.6,6.6,7.2,9.5h-9.3c.3-3.6.4-6.8.4-9.5h1.8Z"/>
    <path class="st25" d="M575.6,360.2c.2,3.6.2,6.8.1,9.5h-52.8c.8-3.2,1.4-6.3,1.8-9.4,0,0,0,0,0-.1h50.8Z"/>
    <path class="st25" d="M599.1,360.2c2.9,2.8,5.5,6,7.9,9.5h-7.2c-.4-3.6-.9-6.8-1.5-9.5h.8Z"/>
    <path class="st25" d="M760.2,360.2v9.5h-14.4c-2.8-3.2-5.7-6.4-8.8-9.5h23.1Z"/>
    <path class="st25" d="M487,379.1c.4,3.6,0,6.7-.4,9.5h-15.8c.4-1.3.8-2.7,1.2-4.2.5-1.8.9-3.6,1.2-5.3h13.8Z"/>
    <path class="st25" d="M520,379.1h55c-.5,3.3-1.1,6.5-1.8,9.5h-57.5c1.6-3,3.1-6.2,4.3-9.5Z"/>
    <path class="st25" d="M612.4,379.1c1.5,3,2.7,6.2,3.8,9.5h-16.5c.4-3.2.5-6.4.6-9.5h12.2Z"/>
    <path class="st25" d="M322.4,398c-2.1,3.1-4.1,6.3-6,9.5h-26.7v-9.5h32.7Z"/>
    <path class="st25" d="M509.1,398h61.5c-1.1,3.5-2.1,6.6-2.9,9.5h-105.5c1.7-2.9,3.4-6,5-9.5h20c.2.4.4.8.6,1.1,7.5,7.8,15.1,5.7,21.4-1.1Z"/>
    <path class="st25" d="M618.5,398c.6,3.1.9,6.3,1,9.5h-25.2c1.5-3,2.6-6.2,3.5-9.5h20.6Z"/>
    <path class="st25" d="M310.9,416.9c-1.7,3.1-3.4,6.3-5,9.5h-16.3v-9.5h21.3Z"/>
    <path class="st25" d="M587.4,416.9h31.9c-.3,3.2-.9,6.3-1.6,9.5h-163.9c.4-1.7.9-3.3,1.4-4.8.6-1.6,1.2-3.2,1.9-4.7h108.6c-.1,2.5.4,4.3,1.9,5.6,5,4,16-2.8,16.5-3.1,1.2-.7,2.3-1.6,3.3-2.5Z"/>
    <path class="st25" d="M301.5,435.8c-1.4,3.1-2.8,6.3-4.1,9.5h-7.8v-9.5h11.8Z"/>
    <path class="st25" d="M452.5,435.8h162c-1.3,3.2-3,6.4-4.9,9.5h-156.7c-.4-3.4-.6-6.6-.4-9.5Z"/>
    <path class="st25" d="M293.8,454.7c-1.1,3.1-2.2,6.3-3.2,9.5h-.9v-9.5h4.2Z"/>
    <path class="st25" d="M454.8,454.7h118.6c-18.1,3.2-36.3,6.3-54.4,9.5h-61.2c-1.2-3.3-2.2-6.5-3-9.5Z"/>
    <path class="st25" d="M461.7,473.6h3.6c-1.1.2-2.2.4-3.3.6,0-.2-.2-.4-.3-.6Z"/>
    <path class="st0" d="M515,257.2c-.5-.8-2-3-3.7-5.7-4.5.5-8.9,1.1-13.4,1.9,0,9.5,5.4,18.8,7.4,22.2,1.5,2.8,3.3,6.2,5,10.2,9.1-1.2,18.3-2,27.6-2.2-7.2-6.6-14.9-14.1-22.9-26.3ZM756,336.5c-.2-.2-.3-.3-.5-.5-3.2-3.2-6.5-6.3-9.8-9.4-54.8-49.9-125.2-77.1-199.7-77.1s-5,0-7.6,0c5.8,7.8,11.5,13,17.5,18.5,5.2,4.7,10.8,9.9,16.4,16.7,42.6,4.2,83,18.6,118.3,41.9,4.5,3,8.9,6.1,13.3,9.4,3.9,3,7.8,6,11.6,9.2,3.6,3,7.1,6.1,10.5,9.4,2,1.9,4,3.8,6,5.8,1.1,1.1,2.2,2.3,3.3,3.4,3,3.1,5.8,6.2,8.6,9.4,2.7,3,5.2,6.1,7.8,9.3,2.2,2.7,4.3,5.5,6.4,8.3,6.8,9.3,13,18.9,18.5,28.9l35-6.2c-14.1-28.1-32.8-54.1-55.7-77ZM786.1,654.3c-12.9,28.8-31.1,55.2-54.1,78.2-49.7,49.7-115.8,77.1-186.1,77.1s-136.4-27.4-186.1-77.1c-.6-.6-1.3-1.3-1.9-1.9l-39.4,7c5.5,6.5,11.3,12.8,17.3,18.9,56.1,56.1,130.7,87,210.1,87s153.9-30.9,210-87c31.4-31.4,54.9-68.6,69.5-109.2l-39.4,7ZM484.7,287l-.3-.5c-2.7-4.8-8.7-15.5-9.9-28.5-47.5,11.7-91.5,35-128.4,68.6-3.3,3-6.6,6.2-9.8,9.4-.2.1-.3.3-.5.5-2.9,2.9-5.7,5.8-8.4,8.8-2.8,3.1-5.6,6.2-8.3,9.4-2.6,3-5.1,6.1-7.6,9.3-2.4,3.1-4.8,6.2-7,9.4-2.2,3-4.3,6.1-6.4,9.3-1.3,2-2.6,4-3.9,6-23.8,37.7-38.6,80.2-43.5,124.9l35-6.2c2.1-13.9,5.2-27.6,9.5-40.8,1-3.1,2.1-6.3,3.2-9.4,1.1-3.1,2.3-6.2,3.5-9.2,1.3-3.1,2.6-6.3,4-9.4,1.4-3.1,2.9-6.2,4.4-9.2,1.6-3.2,3.2-6.3,4.9-9.4,1.7-3.1,3.5-6.2,5.4-9.3,1.9-3.2,3.9-6.3,5.9-9.4,2.1-3.1,4.2-6.2,6.5-9.3,2.3-3.2,4.7-6.3,7.2-9.4,2.5-3.1,5.1-6.2,7.7-9.3,2.8-3.2,5.7-6.3,8.6-9.4,1.1-1.2,2.2-2.3,3.3-3.4,2-2,4-3.9,6-5.8,3.4-3.2,6.9-6.4,10.5-9.4,3.8-3.2,7.7-6.3,11.6-9.2,4.3-3.3,8.8-6.4,13.3-9.4,15.4-10.2,31.7-18.6,48.8-25.3,0,0,0,0,.1,0,11.7-4.6,23.8-8.3,36.2-11.2-.6-1.1-1.1-2.2-1.6-3.1Z"/>
    <path class="st26" d="M619.3,416.9c-.3,3.2-.9,6.3-1.6,9.5-.8,3.1-1.8,6.3-3.1,9.4-1.3,3.2-3,6.4-4.9,9.5-.7,1.2-1.5,2.3-2.3,3.4-11.3,2-22.6,4-34,5.9-18.1,3.2-36.3,6.3-54.4,9.5-17.9,3.1-35.8,6.3-53.7,9.4-1.1.2-2.2.4-3.3.6,0-.2-.2-.4-.3-.6-1.5-3.3-2.8-6.4-3.9-9.4-1.2-3.3-2.2-6.5-3-9.5-.8-3.3-1.4-6.4-1.8-9.4-.4-3.4-.6-6.6-.4-9.5.1-3.5.6-6.6,1.2-9.4.4-1.7.9-3.3,1.4-4.8.6-1.6,1.2-3.2,1.9-4.7,1.5-3.2,3.2-6.2,5.1-9.4,1.7-2.9,3.4-6,5-9.5,1.3-2.8,2.5-5.8,3.6-9.4.4-1.3.8-2.7,1.2-4.2.5-1.8.9-3.6,1.2-5.3.6-3.3,1.1-6.5,1.3-9.4.3-3.6.4-6.8.4-9.5,0-.6,0-1.3,0-1.8.6.6,1.2,1.2,1.8,1.8,3.3,3.5,5.6,6.6,7.2,9.5,1.9,3.5,2.8,6.6,3.2,9.4.4,3.6,0,6.7-.4,9.5-.5,3.4-.8,6.4.6,9.4.2.4.4.8.6,1.1,7.5,7.8,15.1,5.7,21.4-1.1,2.4-2.6,4.6-5.8,6.5-9.4,1.6-3,3.1-6.2,4.3-9.5,1.2-3.1,2.2-6.2,3-9.4.8-3.2,1.4-6.3,1.8-9.4,0,0,0,0,0-.1.4-3.1.6-6.2.7-9.4,0-3.1,0-6.3-.3-9.5-.2-3.1-.6-6.3-1-9.4-.5-3.2-1.1-6.4-1.7-9.5-3-13.9-7.7-26.9-12.1-36.7-1.8-4-3.5-7.4-5-10.2-1.9-3.5-7.4-12.7-7.4-22.2s.2-3.3.5-4.9c.5-2.2,3.1-11.9,3.1-11.9,0,0,5.7,8.8,9.7,15,1.8,2.7,3.2,5,3.7,5.7,8,12.3,15.7,19.7,22.9,26.3,8.4,7.7,16.1,14.3,23.2,26.1,2.6,4.2,4.7,8.6,6.4,12.9,1.3,3.2,2.4,6.4,3.3,9.5.9,3.2,1.7,6.3,2.3,9.4.7,3.3,1.2,6.5,1.6,9.5.4,3.3.7,6.5.8,9.4.2,3.6.2,6.8.1,9.5-.1,5.2-.6,8.4-.6,8.9,0,.2,0,.4,0,.5-.5,3.3-1.1,6.5-1.8,9.5-.8,3.3-1.7,6.4-2.6,9.4-1.1,3.5-2.1,6.6-2.9,9.5-1.1,3.7-1.9,6.8-2,9.4-.1,2.5.4,4.3,1.9,5.6,5,4,16-2.8,16.5-3.1,1.2-.7,2.3-1.6,3.3-2.5,2.9-2.6,5.2-5.8,7-9.4,1.5-3,2.6-6.2,3.5-9.5.8-3.1,1.4-6.2,1.7-9.4.4-3.2.5-6.4.6-9.5,0-3.3-.1-6.4-.4-9.4-.4-3.6-.9-6.8-1.5-9.5,0-.3-.2-.6-.2-1,.3.3.7.6,1,1,2.9,2.8,5.5,6,7.9,9.5,2,2.9,3.8,6.1,5.4,9.4,1.5,3,2.7,6.2,3.8,9.5,1,3,1.8,6.2,2.3,9.4.6,3.1.9,6.3,1,9.5.1,3.1,0,6.2-.3,9.4Z"/>
    <path class="st24" d="M619.3,416.9c-.3,3.2-.9,6.3-1.6,9.5-.8,3.1-1.8,6.3-3.1,9.4-1.3,3.2-3,6.4-4.9,9.5-.7,1.2-1.5,2.3-2.3,3.4-11.3,2-22.6,4-34,5.9-18.1,3.2-36.3,6.3-54.4,9.5-17.9,3.1-35.8,6.3-53.7,9.4-1.1.2-2.2.4-3.3.6,0-.2-.2-.4-.3-.6-1.5-3.3-2.8-6.4-3.9-9.4-1.2-3.3-2.2-6.5-3-9.5-.8-3.3-1.4-6.4-1.8-9.4-.4-3.4-.6-6.6-.4-9.5.1-3.5.6-6.6,1.2-9.4.4-1.7.9-3.3,1.4-4.8.6-1.6,1.2-3.2,1.9-4.7,1.5-3.2,3.2-6.2,5.1-9.4,1.7-2.9,3.4-6,5-9.5,1.3-2.8,2.5-5.8,3.6-9.4.4-1.3.8-2.7,1.2-4.2.5-1.8.9-3.6,1.2-5.3.6-3.3,1.1-6.5,1.3-9.4.3-3.6.4-6.8.4-9.5,0-.6,0-1.3,0-1.8.6.6,1.2,1.2,1.8,1.8,3.3,3.5,5.6,6.6,7.2,9.5,1.9,3.5,2.8,6.6,3.2,9.4.4,3.6,0,6.7-.4,9.5-.5,3.4-.8,6.4.6,9.4.2.4.4.8.6,1.1,7.5,7.8,15.1,5.7,21.4-1.1,2.4-2.6,4.6-5.8,6.5-9.4,1.6-3,3.1-6.2,4.3-9.5,1.2-3.1,2.2-6.2,3-9.4.8-3.2,1.4-6.3,1.8-9.4,0,0,0,0,0-.1.4-3.1.6-6.2.7-9.4,0-3.1,0-6.3-.3-9.5-.2-3.1-.6-6.3-1-9.4-.5-3.2-1.1-6.4-1.7-9.5-3-13.9-7.7-26.9-12.1-36.7-1.8-4-3.5-7.4-5-10.2-1.9-3.5-7.4-12.7-7.4-22.2s.2-3.3.5-4.9c.5-2.2,3.1-11.9,3.1-11.9,0,0,5.7,8.8,9.7,15,1.8,2.7,3.2,5,3.7,5.7,8,12.3,15.7,19.7,22.9,26.3,8.4,7.7,16.1,14.3,23.2,26.1,2.6,4.2,4.7,8.6,6.4,12.9,1.3,3.2,2.4,6.4,3.3,9.5.9,3.2,1.7,6.3,2.3,9.4.7,3.3,1.2,6.5,1.6,9.5.4,3.3.7,6.5.8,9.4.2,3.6.2,6.8.1,9.5-.1,5.2-.6,8.4-.6,8.9,0,.2,0,.4,0,.5-.5,3.3-1.1,6.5-1.8,9.5-.8,3.3-1.7,6.4-2.6,9.4-1.1,3.5-2.1,6.6-2.9,9.5-1.1,3.7-1.9,6.8-2,9.4-.1,2.5.4,4.3,1.9,5.6,5,4,16-2.8,16.5-3.1,1.2-.7,2.3-1.6,3.3-2.5,2.9-2.6,5.2-5.8,7-9.4,1.5-3,2.6-6.2,3.5-9.5.8-3.1,1.4-6.2,1.7-9.4.4-3.2.5-6.4.6-9.5,0-3.3-.1-6.4-.4-9.4-.4-3.6-.9-6.8-1.5-9.5,0-.3-.2-.6-.2-1,.3.3.7.6,1,1,2.9,2.8,5.5,6,7.9,9.5,2,2.9,3.8,6.1,5.4,9.4,1.5,3,2.7,6.2,3.8,9.5,1,3,1.8,6.2,2.3,9.4.6,3.1.9,6.3,1,9.5.1,3.1,0,6.2-.3,9.4Z"/>
    <g class="st28">
      <g>
        <path class="st23" d="M450.5,332h-22.5c6.3-3.5,12.7-6.6,19.3-9.5h2.9l.3,9.5Z"/>
        <path class="st4" d="M498.3,322.5c.8,3.1,1.5,6.3,2,9.5h-18.7l-9.6-9.5h26.3Z"/>
        <path class="st3" d="M662,332h-58.6l-10.1-9.5h49.4c6.6,2.9,13,6,19.3,9.5Z"/>
        <path class="st6" d="M451,350.9h-52.2c4.4-3.3,8.9-6.5,13.5-9.5h38.4l.3,9.5Z"/>
        <path class="st11" d="M501.6,341.4c.3,3.2.4,6.4.3,9.5h-2.5c-2.2-3-4.9-6-8.1-9.2l-.3-.3h10.6Z"/>
        <path class="st10" d="M691.1,350.9h-68.9c-2.5-3.1-5.2-6.1-8.1-8.7l-.8-.8h64.2c4.6,3,9.1,6.2,13.5,9.5Z"/>
        <path class="st7" d="M451.3,360.2c0,3.2-.1,6.4-.5,9.5h-74.1c3.4-3.3,6.9-6.5,10.5-9.5h64.2Z"/>
        <path class="st9" d="M713.3,369.8h-79.2c-1.6-3.3-3.3-6.5-5.2-9.5h73.9c3.6,3,7.1,6.2,10.5,9.5Z"/>
        <path class="st8" d="M449,379.1c-1,3.7-2.2,6.7-3.4,9.5h-86.6c2.7-3.2,5.6-6.4,8.5-9.5h81.6Z"/>
        <path class="st5" d="M731.1,388.6h-90.4c-.8-3.2-1.7-6.4-2.8-9.5h84.7c2.9,3.1,5.7,6.3,8.5,9.5Z"/>
        <path class="st18" d="M440.5,398c-1.6,2.9-3.4,6-5,9.5h-91c2.2-3.2,4.5-6.4,6.9-9.5h89.1Z"/>
        <path class="st17" d="M745.6,407.5h-102.3c0-3.2-.4-6.4-.8-9.5h96.2c2.4,3.1,4.7,6.3,6.9,9.5Z"/>
        <path class="st14" d="M431.9,416.9c-.9,3.1-1.6,6.3-2.1,9.5h-97.2c1.8-3.2,3.7-6.4,5.6-9.5h93.7Z"/>
        <path class="st13" d="M757.4,426.4h-115.5c.6-3.2,1-6.3,1.2-9.5h108.7c2,3.1,3.8,6.3,5.6,9.5Z"/>
        <path class="st20" d="M429.3,445.3h-106.3c1.4-3.2,3-6.4,4.5-9.5h101.4c0,3.1,0,6.3.3,9.5Z"/>
        <path class="st15" d="M760.2,435.8v9.5h-124.1c1.4-3.2,2.5-6.3,3.5-9.5h120.7Z"/>
        <path class="st16" d="M433,464.2h-117.6c1.1-3.2,2.3-6.4,3.6-9.5h111.6c.6,3.1,1.4,6.3,2.3,9.5Z"/>
        <path class="st19" d="M760.2,454.7v9.5h-135l1.3-1.9c1.8-2.5,3.4-5,4.8-7.6h128.8Z"/>
        <path class="st12" d="M440.2,483.1h-130.5c.8-3.2,1.8-6.4,2.7-9.5h123.8c1.2,3.1,2.5,6.3,4,9.5Z"/>
        <path class="st21" d="M434,502h-130.5c.8-3.2,1.8-6.4,2.7-9.5h123.8c1.2,3.1,2.5,6.3,4,9.5Z"/>
        <polygon class="st22" points="760.2 473.6 760.2 483.1 547.7 483.1 602 473.6 760.2 473.6"/>
      </g>
    </g>
    <path class="st24" d="M661.7,726.7s-12.4-13.7-25.2-11.9c0,0,6.2-20.8,14.4-20.8v7.5h18.6s31.8-26.1,52.4-26.1,21.2,10.8,21.2,10.8v9.5h-10.3l-.2-5.1s-4-9.3-17.7-1.1-42.4,26.5-42.4,26.5h-7.3l-3.3,10.6Z"/>
    <path class="st24" d="M619.1,725.6s-1.5-24.5,12.1-28.5v-8.9c-8-1.7-19.8-3.2-33.1,0-17.4,4.1-24.3,13.1-37.3,21.9-37.2,25-85,21.9-106.4,20.5-8.3-.5-36.9-3-36.8-3,0,0,0,12.5,0,14.6.6,15,30.2,31.8,58.1,41.3,11,3.8,27.1,10.4,50.6,10.4,77.9,0,119.3-30.2,119.3-30.2v-33.8l-26.5-4.3ZM617.6,769.2c-19.2,8.7-39.5,14.1-60.5,16.1-6.2.6-12.3.9-18.5.9-15.4,0-30.8-1.9-45.8-5.6-5.4-1.3-8.6-6.7-7.3-12.1,1.3-5.4,6.7-8.6,12.1-7.3,18.9,4.6,38.3,6.1,57.6,4.2,18.8-1.8,37-6.7,54.2-14.4,5-2.3,11,0,13.2,5,2.3,5,0,11-5,13.2Z"/>
    <line class="st2" x1="301.9" y1="715.9" x2="264.9" y2="722.5"/>
    <g>
      <path class="st27" d="M294.8,530.4l-34.9,6v9.9l-31.5,84.9-31.9-68.4v-10.2l-47.7,2.7,13.2,13.2-.2,164.1-9.4,9.4,44.4-7.1-6.5-5.9v-113.9c13.7,26.1,27.4,52.1,41.1,78.2,12.6-28.2,25.2-56.3,37.7-84.5l.2,104.2-8,10.1,45.6-6.6-9.5-9.5-.3-166.9,9.9-9.9h-12.4Z"/>
      <path class="st27" d="M423.5,540.3s-3-25.5-44.1-25.5-50.5,38-50.5,38l.6,151.1-6.7,6.7,44.6-6.5-10.1-10.1c0-14,0-28,0-42.1,12.8-1.7,25.7-3.3,38.5-5v46.7l-7.2,7.2,45.2-5.7-10.2-10.2v-144.6ZM395.3,618.6c-11.6,1.6-23.3,3.2-34.9,4.9v-61.4s1.4-16.6,17.8-16.6,17.1,10.6,17.1,10.6v62.5Z"/>
      <polygon class="st27" points="558.7 492.9 568.5 483 520.8 489.8 530.3 499.2 530.3 597.5 487.2 511.5 487.2 499.2 441.9 502.1 451.9 512.2 451.9 682.2 445.9 688.1 490.2 681.7 483.5 675 483.5 570.8 523.8 659.6 523.8 675.7 568.8 669.8 558.7 659.6 558.7 492.9"/>
      <polygon class="st27" points="696 467.7 705.9 457.8 658.2 464.6 667.6 474.1 667.6 572.3 624.5 486.3 624.5 474.1 579.2 477 589.2 487 589.2 657 583.3 662.9 627.6 656.6 620.9 649.9 620.9 545.6 661.2 634.4 661.2 650.5 706.2 644.6 696 634.4 696 467.7"/>
      <polygon class="st27" points="757.7 458.7 764.3 448.5 719 454.7 726 461.7 726 635 719.7 641.3 766.9 633.9 757.7 624.7 757.7 458.7"/>
      <path class="st27" d="M798.6,439.1s-16,0-16,16.7,10.3,17.7,10.3,17.7c0,19.3-9.7,25.8-9.7,25.8,0,0,34-13.3,34-37.4s-18.5-22.8-18.5-22.8Z"/>
      <path class="st27" d="M931.2,469.1v-16.1c-7.4-13.5-20.4-23.5-35.8-27.1-4-.9-8.2-1.4-12.4-1.4s-11,.8-16.1,2.4c-14.7,4.5-26.8,15-33.5,28.6v48.1c1.6,3.3,3.5,6.4,5.7,9.3.6.8,1.2,1.6,1.9,2.4,3,3.4,6.3,6.5,10,9.2,0,0,0,0,0,0l15.8,5.2,15,4.9,3.7,1.2,9.8,3.2h0c.1,0,.2,0,.3.2.1,0,.3.1.4.2,1,1.1,1.6,2.6,1.6,4.2v20.3c0,7.9-6.4,14.3-14.3,14.3s-14.3-6.4-14.3-14.3v-11.7l-35.8,17v16.1c7.4,13.5,20.4,23.5,35.8,27.1,4,.9,8.2,1.4,12.4,1.4s11-.8,16.1-2.4c14.7-4.5,26.8-15,33.5-28.6v-48.1c-1.6-3.3-3.5-6.4-5.7-9.3-.6-.8-1.2-1.6-1.9-2.4-3-3.4-6.3-6.5-10-9.2,0,0,0,0,0,0l-15.8-5.2-15-4.9-3.7-1.2-9.8-3.2c-.1,0-.3,0-.4-.2-.1,0-.2-.1-.3-.2h0s0,0,0,0c-1-1.1-1.6-2.6-1.6-4.2v-20.3c0-7.9,6.4-14.3,14.3-14.3s14.3,6.4,14.3,14.3v11.7l35.8-17Z"/>
    </g>
  </g>
</svg>