<?xml version="1.0" encoding="UTF-8"?>
<svg id="Layer_2" data-name="Layer 2" xmlns="http://www.w3.org/2000/svg" xmlns:xlink="http://www.w3.org/1999/xlink" viewBox="0 0 782.43 607.1">
  <defs>
    <style>
      .cls-1 {
        fill: #ef4900;
      }

      .cls-2, .cls-3 {
        fill: none;
      }

      .cls-3 {
        stroke: #f7ad36;
        stroke-miterlimit: 10;
        stroke-width: 2.35px;
      }

      .cls-4 {
        fill: url(#linear-gradient-8);
      }

      .cls-5 {
        fill: url(#linear-gradient-7);
      }

      .cls-6 {
        fill: url(#linear-gradient-5);
      }

      .cls-7 {
        fill: url(#linear-gradient-6);
      }

      .cls-8 {
        fill: url(#linear-gradient-9);
      }

      .cls-9 {
        fill: url(#linear-gradient-4);
      }

      .cls-10 {
        fill: url(#linear-gradient-3);
      }

      .cls-11 {
        fill: url(#linear-gradient-2);
      }

      .cls-12 {
        fill: url(#linear-gradient);
      }

      .cls-13 {
        fill: #fa4000;
      }

      .cls-14 {
        fill: url(#linear-gradient-10);
      }

      .cls-15 {
        fill: url(#linear-gradient-11);
      }

      .cls-16 {
        fill: url(#linear-gradient-12);
      }

      .cls-17 {
        fill: url(#linear-gradient-13);
      }

      .cls-18 {
        fill: url(#linear-gradient-19);
      }

      .cls-19 {
        fill: url(#linear-gradient-14);
      }

      .cls-20 {
        fill: url(#linear-gradient-21);
      }

      .cls-21 {
        fill: url(#linear-gradient-20);
      }

      .cls-22 {
        fill: url(#linear-gradient-15);
      }

      .cls-23 {
        fill: url(#linear-gradient-16);
      }

      .cls-24 {
        fill: url(#linear-gradient-17);
      }

      .cls-25 {
        fill: url(#linear-gradient-18);
      }

      .cls-26 {
        fill: #f39104;
      }

      .cls-27 {
        fill: #ffef00;
      }

      .cls-28 {
        fill: #ffe6ca;
      }

      .cls-29 {
        clip-path: url(#clippath);
      }
    </style>
    <clipPath id="clippath">
      <path class="cls-2" d="M143.54,269.75c158.51-29.49,317.02-58.99,475.53-88.48-13.23-21.29-39.05-56.49-83.18-84.5-14.3-9.08-96.74-59.45-198.83-35.13-135.37,32.25-183.25,166.76-186.24,175.63"/>
    </clipPath>
    <linearGradient id="linear-gradient" x1="290.45" y1="95.52" x2="290.45" y2="86.01" gradientUnits="userSpaceOnUse">
      <stop offset="0" stop-color="#f39104"/>
      <stop offset="1" stop-color="#ef4900"/>
    </linearGradient>
    <linearGradient id="linear-gradient-2" x1="337.39" x2="337.39" xlink:href="#linear-gradient"/>
    <linearGradient id="linear-gradient-3" x1="478.82" x2="478.82" xlink:href="#linear-gradient"/>
    <linearGradient id="linear-gradient-4" x1="276.15" y1="114.41" x2="276.15" y2="104.9" xlink:href="#linear-gradient"/>
    <linearGradient id="linear-gradient-5" x1="347.73" y1="114.41" x2="347.73" y2="104.9" xlink:href="#linear-gradient"/>
    <linearGradient id="linear-gradient-6" x1="503.47" y1="114.41" x2="503.47" y2="104.9" xlink:href="#linear-gradient"/>
    <linearGradient id="linear-gradient-7" x1="265.19" y1="133.3" x2="265.19" y2="123.79" xlink:href="#linear-gradient"/>
    <linearGradient id="linear-gradient-8" x1="522.33" y1="133.3" x2="522.33" y2="123.79" xlink:href="#linear-gradient"/>
    <linearGradient id="linear-gradient-9" x1="255.16" y1="152.19" x2="255.16" y2="142.68" xlink:href="#linear-gradient"/>
    <linearGradient id="linear-gradient-10" x1="535.72" y1="152.19" x2="535.72" y2="142.68" xlink:href="#linear-gradient"/>
    <linearGradient id="linear-gradient-11" x1="243.65" y1="171.08" x2="243.65" y2="161.57" xlink:href="#linear-gradient"/>
    <linearGradient id="linear-gradient-12" x1="545.23" y1="171.08" x2="545.23" y2="161.57" xlink:href="#linear-gradient"/>
    <linearGradient id="linear-gradient-13" x1="233.49" y1="189.97" x2="233.49" y2="180.46" xlink:href="#linear-gradient"/>
    <linearGradient id="linear-gradient-14" x1="550.81" y1="189.97" x2="550.81" y2="180.46" xlink:href="#linear-gradient"/>
    <linearGradient id="linear-gradient-15" x1="227.4" y1="208.86" x2="227.4" y2="199.35" xlink:href="#linear-gradient"/>
    <linearGradient id="linear-gradient-16" x1="549.39" y1="208.86" x2="549.39" y2="199.35" xlink:href="#linear-gradient"/>
    <linearGradient id="linear-gradient-17" x1="225.45" y1="227.75" x2="225.45" y2="218.24" xlink:href="#linear-gradient"/>
    <linearGradient id="linear-gradient-18" x1="543.97" y1="227.75" x2="543.97" y2="218.24" xlink:href="#linear-gradient"/>
    <linearGradient id="linear-gradient-19" x1="226.13" y1="246.63" x2="226.13" y2="237.13" xlink:href="#linear-gradient"/>
    <linearGradient id="linear-gradient-20" x1="219.94" y1="265.59" x2="219.94" y2="256.1" xlink:href="#linear-gradient"/>
    <linearGradient id="linear-gradient-21" x1="505.17" y1="246.63" x2="505.17" y2="237.13" xlink:href="#linear-gradient"/>
  </defs>
  <g id="Layer_1-2" data-name="Layer 1">
    <g>
      <path class="cls-26" d="M418.82,86.01c1.31,3.19,2.4,6.37,3.33,9.51h-46.75c-.47-3.2-1.06-6.38-1.74-9.51h45.16Z"/>
      <path class="cls-26" d="M424.48,104.9c.67,3.3,1.18,6.47,1.55,9.51h-49.33c.07-3.14-.04-6.32-.27-9.51h48.04Z"/>
      <path class="cls-26" d="M611.45,104.9v9.51h-32.63c-3.48-3.28-7.04-6.45-10.66-9.51h43.29Z"/>
      <path class="cls-26" d="M327.83,123.79c3.27,3.48,5.58,6.63,7.17,9.51h-9.3c.32-3.59.39-6.79.36-9.51h1.77Z"/>
      <path class="cls-26" d="M426.84,123.79c.18,3.6.18,6.81.12,9.51h-52.79c.82-3.18,1.45-6.34,1.85-9.37.01-.05.01-.09.02-.14h50.8Z"/>
      <path class="cls-26" d="M450.29,123.79c2.87,2.82,5.54,6.01,7.93,9.51h-7.19c-.35-3.6-.87-6.84-1.49-9.51h.75Z"/>
      <path class="cls-26" d="M611.45,123.79v9.51h-14.36c-2.82-3.24-5.74-6.4-8.76-9.51h23.12Z"/>
      <path class="cls-26" d="M338.19,142.68c.44,3.57-.02,6.67-.42,9.51h-15.79c.41-1.32.81-2.72,1.19-4.18.47-1.82.87-3.6,1.21-5.33h13.82Z"/>
      <path class="cls-26" d="M371.2,142.68h55.05c-.48,3.31-1.13,6.48-1.85,9.51h-57.53c1.62-2.95,3.07-6.18,4.33-9.51Z"/>
      <path class="cls-26" d="M463.66,142.68c1.46,3.04,2.73,6.21,3.78,9.51h-16.55c.36-3.2.54-6.4.55-9.51h12.22Z"/>
      <path class="cls-26" d="M173.63,161.57c-2.08,3.13-4.1,6.3-6.03,9.51h-26.71v-9.51h32.73Z"/>
      <path class="cls-26" d="M360.35,161.57h61.48c-1.06,3.47-2.1,6.65-2.94,9.51h-105.55c1.67-2.91,3.38-5.97,5-9.51h20c.16.38.38.76.61,1.14,7.51,7.84,15.06,5.72,21.4-1.14Z"/>
      <path class="cls-26" d="M469.76,161.57c.56,3.12.92,6.3,1.04,9.51h-25.15c1.49-2.95,2.65-6.17,3.52-9.51h20.6Z"/>
      <path class="cls-26" d="M162.16,180.46c-1.73,3.13-3.4,6.31-4.99,9.51h-16.28v-9.51h21.27Z"/>
      <path class="cls-26" d="M438.59,180.46h31.93c-.32,3.17-.86,6.34-1.65,9.51h-163.91c.4-1.74.88-3.34,1.4-4.84.58-1.64,1.22-3.18,1.92-4.67h108.61c-.13,2.46.4,4.34,1.92,5.56,4.97,3.99,15.98-2.77,16.51-3.1,1.17-.74,2.26-1.55,3.27-2.46Z"/>
      <path class="cls-26" d="M152.71,199.35c-1.42,3.14-2.78,6.32-4.06,9.51h-7.76v-9.51h11.82Z"/>
      <path class="cls-26" d="M303.74,199.35h162.02c-1.34,3.21-2.97,6.39-4.91,9.51h-156.66c-.44-3.42-.55-6.59-.45-9.51Z"/>
      <path class="cls-26" d="M145.06,218.24c-1.14,3.14-2.21,6.32-3.24,9.51h-.93v-9.51h4.17Z"/>
      <path class="cls-26" d="M305.99,218.24h118.64c-18.14,3.17-36.29,6.34-54.42,9.51h-61.2c-1.25-3.34-2.24-6.51-3.01-9.51Z"/>
      <path class="cls-26" d="M312.94,237.13h3.57c-1.09.19-2.2.39-3.3.58-.09-.19-.18-.39-.27-.58Z"/>
      <path class="cls-1" d="M366.23,20.71c-.49-.75-1.95-2.99-3.73-5.72-4.48.52-8.93,1.13-13.37,1.86,0,9.52,5.44,18.76,7.38,22.24,1.54,2.77,3.27,6.21,5.05,10.19,9.1-1.22,18.31-1.98,27.61-2.25-7.23-6.65-14.91-14.08-22.94-26.33ZM607.22,100.01c-.15-.16-.32-.33-.48-.47-3.21-3.21-6.5-6.34-9.84-9.38-54.78-49.87-125.16-77.15-199.72-77.15-2.52,0-5.04.04-7.56.09,5.84,7.81,11.53,13.02,17.5,18.47,5.19,4.74,10.84,9.91,16.42,16.65,42.57,4.2,82.95,18.57,118.28,41.93,4.52,2.98,8.94,6.1,13.28,9.38,3.93,2.95,7.81,6.04,11.59,9.24,3.58,3.02,7.07,6.14,10.51,9.38,2.05,1.91,4.05,3.85,6.04,5.84,1.12,1.12,2.25,2.26,3.34,3.41,2.97,3.06,5.85,6.18,8.63,9.37,2.67,3.02,5.25,6.12,7.76,9.25,2.2,2.73,4.33,5.52,6.4,8.33,6.81,9.25,12.98,18.89,18.49,28.87l35.05-6.25c-14.11-28.12-32.8-54.08-55.69-76.97ZM637.33,417.89c-12.92,28.78-31.12,55.25-54.09,78.22-49.7,49.69-115.78,77.06-186.06,77.06s-136.36-27.36-186.06-77.06c-.64-.64-1.27-1.27-1.89-1.92l-39.42,7.03c5.47,6.5,11.25,12.79,17.32,18.87,56.11,56.12,130.7,87.01,210.05,87.01s153.93-30.9,210.04-87.01c31.41-31.41,54.93-68.63,69.53-109.22l-39.42,7.03ZM335.94,50.53l-.26-.46c-2.7-4.8-8.65-15.45-9.87-28.48-47.54,11.66-91.48,35-128.36,68.57-3.33,3.04-6.61,6.17-9.83,9.38-.16.14-.33.31-.49.47-2.87,2.88-5.68,5.8-8.43,8.77-2.84,3.08-5.61,6.21-8.29,9.38-2.59,3.04-5.11,6.12-7.56,9.25-2.41,3.08-4.75,6.2-7.05,9.37-2.19,3.04-4.32,6.13-6.4,9.25-1.3,2.02-2.61,4.03-3.91,6.05-23.75,37.67-38.63,80.16-43.54,124.87l34.99-6.24c2.07-13.91,5.24-27.55,9.46-40.83,1.01-3.14,2.06-6.27,3.19-9.38,1.12-3.11,2.3-6.18,3.54-9.24,1.26-3.14,2.6-6.28,4-9.38,1.4-3.11,2.86-6.19,4.39-9.24,1.58-3.17,3.22-6.3,4.92-9.38,1.72-3.12,3.51-6.19,5.37-9.25,1.91-3.17,3.88-6.29,5.94-9.37,2.08-3.12,4.23-6.2,6.46-9.25,2.31-3.18,4.68-6.3,7.16-9.37,2.51-3.13,5.08-6.23,7.74-9.25,2.79-3.19,5.66-6.31,8.64-9.37,1.08-1.15,2.21-2.3,3.34-3.41,1.98-1.99,3.99-3.93,6.03-5.84,3.44-3.24,6.94-6.36,10.51-9.38,3.79-3.2,7.66-6.28,11.59-9.24,4.34-3.28,8.77-6.4,13.28-9.38,15.38-10.17,31.73-18.64,48.8-25.29.04-.02.07-.05.11-.05,11.73-4.59,23.82-8.32,36.17-11.16-.57-1.13-1.12-2.18-1.65-3.13Z"/>
      <path class="cls-27" d="M470.52,180.46c-.32,3.17-.86,6.34-1.65,9.51-.79,3.14-1.82,6.28-3.12,9.38-1.34,3.21-2.97,6.39-4.91,9.51-.71,1.17-1.47,2.31-2.27,3.45-11.32,1.98-22.63,3.95-33.96,5.93-18.14,3.17-36.29,6.34-54.42,9.51-17.9,3.13-35.79,6.26-53.69,9.38-1.09.19-2.2.39-3.3.58-.09-.19-.18-.39-.27-.58-1.53-3.27-2.85-6.39-3.94-9.38-1.25-3.34-2.24-6.51-3.01-9.51-.85-3.33-1.44-6.45-1.8-9.38-.44-3.42-.55-6.59-.45-9.51.13-3.47.58-6.59,1.22-9.38.4-1.74.88-3.34,1.4-4.84.58-1.64,1.22-3.18,1.92-4.67,1.51-3.22,3.25-6.2,5.06-9.38,1.67-2.91,3.38-5.97,5-9.51,1.29-2.78,2.52-5.85,3.63-9.38.41-1.32.81-2.72,1.19-4.18.47-1.82.87-3.6,1.21-5.33.65-3.33,1.07-6.49,1.33-9.38.32-3.59.39-6.79.36-9.51,0-.65-.02-1.26-.04-1.85.64.62,1.24,1.25,1.8,1.85,3.27,3.48,5.58,6.63,7.17,9.51,1.93,3.48,2.84,6.58,3.19,9.38.44,3.57-.02,6.67-.42,9.51-.47,3.38-.84,6.39.58,9.38.16.38.38.76.61,1.14,7.51,7.84,15.06,5.72,21.4-1.14,2.38-2.55,4.57-5.78,6.52-9.38,1.62-2.95,3.07-6.18,4.33-9.51,1.17-3.07,2.17-6.24,2.97-9.38.82-3.18,1.45-6.34,1.85-9.37.01-.05.01-.09.02-.14.4-3.07.62-6.2.67-9.38.07-3.14-.04-6.32-.27-9.51-.22-3.13-.58-6.26-1.04-9.38-.47-3.2-1.06-6.38-1.74-9.51-2.98-13.88-7.7-26.89-12.1-36.72-1.78-3.98-3.51-7.43-5.05-10.19-1.94-3.48-7.38-12.72-7.38-22.24,0-1.65.16-3.3.53-4.92.51-2.24,3.1-11.93,3.1-11.93,0,0,5.71,8.78,9.75,14.99,1.78,2.73,3.24,4.97,3.73,5.72,8.03,12.25,15.71,19.68,22.94,26.33,8.37,7.69,16.15,14.32,23.23,26.08,2.55,4.24,4.67,8.57,6.41,12.89,1.31,3.19,2.4,6.37,3.33,9.51.94,3.19,1.72,6.33,2.33,9.38.67,3.3,1.18,6.47,1.55,9.51.41,3.33.66,6.49.8,9.38.18,3.6.18,6.81.12,9.51-.14,5.17-.56,8.42-.62,8.86-.02.18-.05.35-.08.52-.48,3.31-1.13,6.48-1.85,9.51-.8,3.32-1.69,6.45-2.57,9.38-1.06,3.47-2.1,6.65-2.94,9.51-1.11,3.7-1.89,6.85-2,9.38-.13,2.46.4,4.34,1.92,5.56,4.97,3.99,15.98-2.77,16.51-3.1,1.17-.74,2.26-1.55,3.27-2.46,2.92-2.58,5.24-5.78,7.05-9.38,1.49-2.95,2.65-6.17,3.52-9.51.8-3.06,1.37-6.21,1.73-9.38.36-3.2.54-6.4.55-9.51.02-3.28-.14-6.45-.41-9.38-.35-3.6-.87-6.84-1.49-9.51-.08-.33-.15-.65-.24-.95.33.32.66.62.99.95,2.87,2.82,5.54,6.01,7.93,9.51,2.02,2.93,3.84,6.07,5.44,9.38,1.46,3.04,2.73,6.21,3.78,9.51.98,3.04,1.77,6.18,2.32,9.38.56,3.12.92,6.3,1.04,9.51.13,3.1.05,6.24-.27,9.38Z"/>
      <path class="cls-13" d="M470.52,180.46c-.32,3.17-.86,6.34-1.65,9.51-.79,3.14-1.82,6.28-3.12,9.38-1.34,3.21-2.97,6.39-4.91,9.51-.71,1.17-1.47,2.31-2.27,3.45-11.32,1.98-22.63,3.95-33.96,5.93-18.14,3.17-36.29,6.34-54.42,9.51-17.9,3.13-35.79,6.26-53.69,9.38-1.09.19-2.2.39-3.3.58-.09-.19-.18-.39-.27-.58-1.53-3.27-2.85-6.39-3.94-9.38-1.25-3.34-2.24-6.51-3.01-9.51-.85-3.33-1.44-6.45-1.8-9.38-.44-3.42-.55-6.59-.45-9.51.13-3.47.58-6.59,1.22-9.38.4-1.74.88-3.34,1.4-4.84.58-1.64,1.22-3.18,1.92-4.67,1.51-3.22,3.25-6.2,5.06-9.38,1.67-2.91,3.38-5.97,5-9.51,1.29-2.78,2.52-5.85,3.63-9.38.41-1.32.81-2.72,1.19-4.18.47-1.82.87-3.6,1.21-5.33.65-3.33,1.07-6.49,1.33-9.38.32-3.59.39-6.79.36-9.51,0-.65-.02-1.26-.04-1.85.64.62,1.24,1.25,1.8,1.85,3.27,3.48,5.58,6.63,7.17,9.51,1.93,3.48,2.84,6.58,3.19,9.38.44,3.57-.02,6.67-.42,9.51-.47,3.38-.84,6.39.58,9.38.16.38.38.76.61,1.14,7.51,7.84,15.06,5.72,21.4-1.14,2.38-2.55,4.57-5.78,6.52-9.38,1.62-2.95,3.07-6.18,4.33-9.51,1.17-3.07,2.17-6.24,2.97-9.38.82-3.18,1.45-6.34,1.85-9.37.01-.05.01-.09.02-.14.4-3.07.62-6.2.67-9.38.07-3.14-.04-6.32-.27-9.51-.22-3.13-.58-6.26-1.04-9.38-.47-3.2-1.06-6.38-1.74-9.51-2.98-13.88-7.7-26.89-12.1-36.72-1.78-3.98-3.51-7.43-5.05-10.19-1.94-3.48-7.38-12.72-7.38-22.24,0-1.65.16-3.3.53-4.92.51-2.24,3.1-11.93,3.1-11.93,0,0,5.71,8.78,9.75,14.99,1.78,2.73,3.24,4.97,3.73,5.72,8.03,12.25,15.71,19.68,22.94,26.33,8.37,7.69,16.15,14.32,23.23,26.08,2.55,4.24,4.67,8.57,6.41,12.89,1.31,3.19,2.4,6.37,3.33,9.51.94,3.19,1.72,6.33,2.33,9.38.67,3.3,1.18,6.47,1.55,9.51.41,3.33.66,6.49.8,9.38.18,3.6.18,6.81.12,9.51-.14,5.17-.56,8.42-.62,8.86-.02.18-.05.35-.08.52-.48,3.31-1.13,6.48-1.85,9.51-.8,3.32-1.69,6.45-2.57,9.38-1.06,3.47-2.1,6.65-2.94,9.51-1.11,3.7-1.89,6.85-2,9.38-.13,2.46.4,4.34,1.92,5.56,4.97,3.99,15.98-2.77,16.51-3.1,1.17-.74,2.26-1.55,3.27-2.46,2.92-2.58,5.24-5.78,7.05-9.38,1.49-2.95,2.65-6.17,3.52-9.51.8-3.06,1.37-6.21,1.73-9.38.36-3.2.54-6.4.55-9.51.02-3.28-.14-6.45-.41-9.38-.35-3.6-.87-6.84-1.49-9.51-.08-.33-.15-.65-.24-.95.33.32.66.62.99.95,2.87,2.82,5.54,6.01,7.93,9.51,2.02,2.93,3.84,6.07,5.44,9.38,1.46,3.04,2.73,6.21,3.78,9.51.98,3.04,1.77,6.18,2.32,9.38.56,3.12.92,6.3,1.04,9.51.13,3.1.05,6.24-.27,9.38Z"/>
      <g class="cls-29">
        <g>
          <path class="cls-12" d="M301.69,95.52h-22.48c6.3-3.46,12.75-6.64,19.31-9.51h2.88l.28,9.51Z"/>
          <path class="cls-11" d="M349.51,86.01c.8,3.13,1.49,6.32,2.05,9.51h-18.75l-9.59-9.51h26.29Z"/>
          <path class="cls-10" d="M513.19,95.52h-58.6l-10.15-9.51h49.44c6.57,2.87,13.01,6.05,19.3,9.51Z"/>
          <path class="cls-9" d="M302.26,114.41h-52.21c4.4-3.33,8.91-6.5,13.51-9.51h38.42l.28,9.51Z"/>
          <path class="cls-6" d="M352.83,104.9c.31,3.22.42,6.41.34,9.51h-2.5c-2.25-2.98-4.92-6.04-8.07-9.17l-.34-.34h10.57Z"/>
          <path class="cls-7" d="M542.35,114.41h-68.86c-2.53-3.14-5.24-6.07-8.09-8.74l-.81-.77h64.25c4.6,3.01,9.11,6.18,13.51,9.51Z"/>
          <path class="cls-5" d="M302.51,123.79c.05,3.21-.12,6.39-.51,9.51h-74.15c3.41-3.28,6.92-6.46,10.5-9.51h64.16Z"/>
          <path class="cls-4" d="M564.54,133.3h-79.24c-1.57-3.3-3.28-6.47-5.17-9.51h73.91c3.58,3.05,7.09,6.23,10.5,9.51Z"/>
          <path class="cls-8" d="M300.21,142.68c-.99,3.7-2.15,6.73-3.45,9.51h-86.65c2.73-3.24,5.56-6.4,8.47-9.51h81.62Z"/>
          <path class="cls-14" d="M582.29,152.19h-90.35c-.77-3.24-1.71-6.41-2.79-9.51h84.67c2.92,3.11,5.74,6.27,8.47,9.51Z"/>
          <path class="cls-15" d="M291.67,161.57c-1.65,2.87-3.38,5.98-4.99,9.51h-91.05c2.22-3.21,4.53-6.39,6.92-9.51h89.12Z"/>
          <path class="cls-16" d="M596.76,171.08h-102.3c-.09-3.2-.35-6.38-.78-9.51h96.16c2.39,3.12,4.7,6.3,6.92,9.51Z"/>
          <path class="cls-17" d="M283.15,180.46c-.93,3.11-1.65,6.27-2.14,9.51h-97.18c1.81-3.21,3.68-6.38,5.65-9.51h93.67Z"/>
          <path class="cls-19" d="M608.57,189.97h-115.52c.58-3.18.99-6.34,1.21-9.51h108.66c1.97,3.13,3.84,6.3,5.65,9.51Z"/>
          <path class="cls-22" d="M280.53,208.86h-106.26c1.45-3.2,2.97-6.38,4.54-9.51h101.38c-.08,3.12.04,6.28.33,9.51Z"/>
          <path class="cls-23" d="M611.45,199.35v9.51h-124.12c1.35-3.15,2.51-6.32,3.46-9.51h120.66Z"/>
          <path class="cls-24" d="M284.22,227.75h-117.55c1.13-3.2,2.33-6.37,3.59-9.51h111.62c.61,3.12,1.39,6.3,2.34,9.51Z"/>
          <path class="cls-25" d="M611.45,218.24v9.51h-134.96l1.34-1.91c1.77-2.51,3.37-5.05,4.84-7.6h128.78Z"/>
          <path class="cls-18" d="M291.4,246.63h-130.55c.85-3.19,1.75-6.36,2.72-9.5h123.8c1.19,3.13,2.53,6.3,4.03,9.5Z"/>
          <path class="cls-21" d="M285.22,265.59h-130.55c.85-3.19,1.75-6.36,2.72-9.5h123.8c1.19,3.13,2.53,6.3,4.03,9.5Z"/>
          <polygon class="cls-20" points="611.45 237.13 611.45 246.63 398.89 246.63 453.23 237.13 611.45 237.13"/>
        </g>
      </g>
      <path class="cls-13" d="M512.93,490.23s-12.37-13.7-25.19-11.93c0,0,6.19-20.77,14.36-20.77v7.51h18.56s31.81-26.07,52.36-26.07,21.15,10.83,21.15,10.83v9.49h-10.33l-.22-5.08s-3.98-9.28-17.67-1.1-42.42,26.51-42.42,26.51h-7.29l-3.31,10.6Z"/>
      <path class="cls-13" d="M470.29,489.12s-1.49-24.52,12.1-28.5v-8.95c-7.95-1.72-19.8-3.17-33.08,0-17.4,4.15-24.34,13.13-37.34,21.87-37.19,25.02-85.03,21.93-106.37,20.55-8.32-.54-36.87-2.99-36.78-2.98,0,0-.08,12.47,0,14.58.59,14.97,30.24,31.83,58.09,41.32,11.05,3.76,27.06,10.38,50.61,10.38,77.87,0,119.3-30.16,119.3-30.16v-33.8l-26.51-4.31ZM468.77,532.71c-19.19,8.65-39.54,14.06-60.48,16.08-6.16.59-12.32.89-18.46.89-15.41,0-30.76-1.86-45.82-5.57-5.37-1.32-8.64-6.74-7.32-12.11,1.32-5.36,6.74-8.64,12.1-7.32,18.88,4.64,38.25,6.06,57.59,4.19,18.76-1.81,36.98-6.65,54.18-14.41,5.04-2.27,10.96-.03,13.23,5.01,2.27,5.04.03,10.96-5.01,13.23Z"/>
      <line class="cls-3" x1="153.06" y1="479.42" x2="116.14" y2="486"/>
      <g>
        <path class="cls-28" d="M145.97,293.94l-34.91,5.96v9.94l-31.48,84.94-31.92-68.38v-10.16l-47.66,2.71,13.2,13.2-.22,164.14-9.39,9.39,44.41-7.07-6.52-5.85v-113.89c13.71,26.07,27.43,52.15,41.14,78.22,12.58-28.17,25.15-56.35,37.73-84.52l.22,104.16-7.95,10.05,45.62-6.63-9.5-9.5-.28-166.85,9.89-9.89h-12.37Z"/>
        <path class="cls-28" d="M274.69,303.88s-3.01-25.52-44.1-25.52-50.51,38.03-50.51,38.03l.58,151.11-6.71,6.71,44.6-6.52-10.05-10.05c-.02-14.02-.04-28.04-.06-42.06,12.83-1.67,25.67-3.33,38.5-5v46.73l-7.18,7.18,45.16-5.73-10.23-10.23v-144.65ZM246.49,382.2c-11.64,1.62-23.27,3.24-34.91,4.86v-61.42s1.45-16.57,17.85-16.57,17.06,10.6,17.06,10.6v62.52Z"/>
        <polygon class="cls-28" points="409.89 256.41 419.75 246.55 372.03 253.34 381.48 262.79 381.48 361.04 338.4 275.05 338.4 262.79 293.08 265.69 303.1 275.71 303.1 445.71 297.14 451.68 341.46 445.3 334.75 438.59 334.75 334.37 375.02 423.18 375.02 439.25 420.04 433.33 409.89 423.18 409.89 256.41"/>
        <polygon class="cls-28" points="547.25 231.22 557.11 221.36 509.39 228.16 518.84 237.6 518.84 335.86 475.76 249.86 475.76 237.6 430.44 240.5 440.46 250.53 440.46 420.53 434.5 426.49 478.82 420.11 472.11 413.4 472.11 309.18 512.37 397.99 512.37 414.06 557.4 408.14 547.25 397.99 547.25 231.22"/>
        <polygon class="cls-28" points="608.92 222.25 615.54 212.09 570.25 218.27 577.21 225.23 577.21 398.54 570.92 404.84 618.08 397.44 608.92 388.27 608.92 222.25"/>
        <path class="cls-28" d="M649.81,202.64s-16.04.06-16.04,16.73,10.27,17.67,10.27,17.67c0,19.33-9.72,25.85-9.72,25.85,0,0,34.02-13.26,34.02-37.45s-18.53-22.81-18.53-22.81Z"/>
        <path class="cls-28" d="M782.43,232.69v-16.14c-7.44-13.49-20.37-23.53-35.79-27.08-4-.93-8.17-1.41-12.44-1.41-5.59,0-10.98.84-16.07,2.38-14.72,4.48-26.82,14.97-33.46,28.61v48.11c1.6,3.3,3.53,6.41,5.74,9.31.61.8,1.25,1.59,1.9,2.35,2.95,3.45,6.32,6.53,10.02,9.17.01,0,.02.01.02.01l15.78,5.2,14.98,4.92,3.7,1.22,9.83,3.24h0c.11.04.23.09.35.15.14.07.26.14.37.21,1,1.13,1.61,2.6,1.61,4.23v20.27c0,7.87-6.38,14.25-14.25,14.25s-14.25-6.38-14.25-14.25v-11.69l-35.79,17.03v16.14c7.44,13.49,20.37,23.53,35.79,27.08,4,.93,8.17,1.41,12.44,1.41,5.59,0,10.98-.84,16.07-2.38,14.72-4.48,26.82-14.97,33.46-28.61v-48.11c-1.6-3.3-3.53-6.41-5.74-9.31-.61-.8-1.25-1.59-1.9-2.35-2.95-3.45-6.32-6.53-10.02-9.17-.01,0-.02-.01-.02-.01l-15.78-5.2-14.98-4.92-3.7-1.22-9.83-3.24c-.12-.03-.25-.08-.4-.16-.13-.07-.23-.14-.32-.2h0s0,0,0,0c-1-1.13-1.61-2.6-1.61-4.23v-20.27c0-7.87,6.38-14.25,14.25-14.25s14.25,6.38,14.25,14.25v11.69l35.79-17.03Z"/>
      </g>
    </g>
  </g>
</svg>