<?xml version="1.0" encoding="UTF-8"?>
<svg id="Layer_1" xmlns="http://www.w3.org/2000/svg" version="1.1" viewBox="0 0 1080 1080">
  <!-- Generator: Adobe Illustrator 29.3.0, SVG Export Plug-In . SVG Version: 2.1.0 Build 146)  -->
  <defs>
    <style>
      .st0 {
        fill: #ffd7b5;
      }

      .st1 {
        fill: #fff;
      }

      .st2 {
        fill: #001d1d;
      }
    </style>
  </defs>
  <rect class="st2" x="0" width="1080" height="1080"/>
  <g>
    <g>
      <g>
        <path class="st1" d="M376.4,492.2v-1.8l2.5-.7c2.3-.6,3.8-1.6,4.7-3,.9-1.4,1.4-3.3,1.5-5.7v-56c0-2.6-.4-4.6-1.3-5.8-.8-1.3-2.4-2.1-4.8-2.6l-2.7-.7v-1.8l30.6-10.4,1.8,1.8,1.4,12.2c3.9-3.9,8.4-7.3,13.5-10,5.1-2.7,10.3-4.1,15.8-4.1s10.3,1.2,13.8,3.5c3.5,2.3,6.1,5.9,7.9,10.8,4.7-4.4,9.7-7.9,15.1-10.5,5.4-2.6,10.7-3.8,15.8-3.8,8.5,0,14.7,2,18.7,6.1,4,4.1,6,10.4,6,19.1v52.4c0,4.7,2.1,7.6,6.4,8.8l2,.5v1.8h-41.3v-1.8l1.8-.5c2.3-.7,3.8-1.8,4.7-3.2.9-1.4,1.3-3.3,1.3-5.7v-54.7c0-5-.9-8.4-2.7-10.3-1.8-1.8-4.7-2.8-8.6-2.8s-6.1.7-9,2.1c-2.9,1.4-6,3.4-9.2,6.2.6,1.9,1,4,1.2,6.3.2,2.3.3,4.7.3,7.2v46.3c.1,4.7,2.3,7.6,6.4,8.8l1.6.5v1.8h-41.5v-1.8l2.5-.7c2.3-.7,3.8-1.8,4.7-3.1.9-1.4,1.3-3.2,1.3-5.6v-54.6c0-4.8-.9-8.2-2.6-10.2-1.7-2-4.7-3-8.9-3s-5.5.7-8.2,2.1c-2.7,1.4-5.6,3.4-8.6,6v59.9c0,4.7,2.1,7.6,6.3,8.8l1.6.5v1.8h-42Z"/>
        <path class="st1" d="M557.2,494.9c-6.9,0-12.7-2-17.4-5.9-4.7-3.9-7.1-9.6-7.1-17s2.9-10.8,8.6-15.5c5.7-4.7,14.7-8.3,27-10.6,1.9-.4,4.1-.7,6.4-1.2,2.4-.4,4.9-.9,7.5-1.3v-14.1c0-8.1-1-13.8-3-17.1-2-3.3-5-4.9-9.2-4.9s-5.1.9-6.8,2.8c-1.7,1.8-2.7,5-3.2,9.6l-.4,2c-.2,5.1-1.5,8.9-3.8,11.3-2.3,2.4-5.1,3.6-8.4,3.6s-5.7-1-7.7-2.9c-2-1.9-3-4.5-3-7.7,0-4.9,1.7-9,5.1-12.3,3.4-3.3,7.9-5.8,13.5-7.5,5.6-1.7,11.7-2.5,18.2-2.5,10.6,0,18.8,2.6,24.6,7.8,5.8,5.2,8.7,13.6,8.7,25.3v39.5c0,5.4,2.5,8,7.5,8h3.9l1.6,1.4c-2.3,2.9-4.7,5.1-7.4,6.6-2.7,1.5-6.5,2.3-11.4,2.3s-9.4-1.2-12.4-3.7c-3-2.4-5-5.7-6-9.7-3.6,3.8-7.2,7.1-11,9.7-3.8,2.7-8.6,4-14.6,4ZM568.2,484c2.4,0,4.6-.6,6.7-1.7,2.1-1.1,4.6-2.9,7.4-5.3v-30c-1.2.2-2.4.5-3.6.7-1.2.2-2.6.5-4.1.7-5.5,1.4-9.9,3.8-13.1,7.2-3.3,3.4-4.9,8-4.9,13.7s1.1,8.6,3.4,11c2.3,2.4,5,3.7,8.2,3.7Z"/>
        <path class="st1" d="M654.7,494.9c-5.8,0-11.1-.7-15.7-2.1-4.7-1.4-8.9-3.1-12.9-5.1l.2-21.3h1.8l6.1,10.7c2.6,4.8,5.5,8.3,8.7,10.6,3.2,2.3,7.2,3.5,12.1,3.5s10.3-1.3,13.9-3.8c3.5-2.6,5.3-6,5.3-10.3s-1.3-7.2-3.8-9.7-7.2-4.8-14-6.8l-7.5-2.3c-7.3-2.1-13-5.5-17.2-10-4.2-4.5-6.3-10.1-6.3-16.6s3.1-14.5,9.3-20c6.2-5.5,15.1-8.2,26.7-8.2s9,.5,13.1,1.5c4.1,1,8.1,2.5,11.9,4.6l-1.1,19.3h-1.8l-6.3-11.1c-2.3-3.9-4.5-6.7-6.7-8.3-2.2-1.6-5.5-2.4-9.9-2.4s-7.9,1.1-11.4,3.4c-3.6,2.3-5.4,5.5-5.4,9.7s1.5,7.3,4.6,9.7c3,2.4,7.5,4.6,13.5,6.6l8,2.3c8.6,2.6,14.7,6.2,18.4,10.8,3.7,4.6,5.5,10.1,5.5,16.5s-3.4,15.7-10.3,20.9c-6.9,5.2-16.5,7.9-28.9,7.9Z"/>
        <path class="st1" d="M726.8,494.9c-6.9,0-12.7-2-17.4-5.9-4.7-3.9-7.1-9.6-7.1-17s2.9-10.8,8.6-15.5c5.7-4.7,14.7-8.3,27-10.6,1.9-.4,4.1-.7,6.4-1.2,2.4-.4,4.9-.9,7.5-1.3v-14.1c0-8.1-1-13.8-3-17.1-2-3.3-5-4.9-9.2-4.9s-5.1.9-6.8,2.8c-1.7,1.8-2.7,5-3.2,9.6l-.4,2c-.2,5.1-1.5,8.9-3.8,11.3-2.3,2.4-5.1,3.6-8.4,3.6s-5.7-1-7.7-2.9c-2-1.9-3-4.5-3-7.7,0-4.9,1.7-9,5.1-12.3,3.4-3.3,7.9-5.8,13.5-7.5,5.6-1.7,11.7-2.5,18.2-2.5,10.6,0,18.8,2.6,24.6,7.8,5.8,5.2,8.7,13.6,8.7,25.3v39.5c0,5.4,2.5,8,7.5,8h3.9l1.6,1.4c-2.3,2.9-4.7,5.1-7.4,6.6-2.7,1.5-6.5,2.3-11.4,2.3s-9.4-1.2-12.4-3.7c-3-2.4-5-5.7-6-9.7-3.6,3.8-7.2,7.1-11,9.7-3.8,2.7-8.6,4-14.6,4ZM737.7,484c2.4,0,4.6-.6,6.7-1.7,2.1-1.1,4.6-2.9,7.4-5.3v-30c-1.2.2-2.4.5-3.6.7-1.2.2-2.6.5-4.1.7-5.5,1.4-9.9,3.8-13.1,7.2-3.3,3.4-4.9,8-4.9,13.7s1.1,8.6,3.4,11c2.3,2.4,5,3.7,8.2,3.7Z"/>
        <path class="st1" d="M793.9,492.2v-1.8l2.1-.7c4.3-1.4,6.4-4.4,6.4-8.9v-95.7c0-2.4-.5-4.2-1.4-5.5-1-1.3-2.6-2.2-5-2.8l-2.3-.5v-1.8l32.7-7.7,2.1,1.6-.7,25v61.2c0,4.4,0,8.8,0,13.1,0,4.4,0,8.7,0,13s.5,4.3,1.4,5.8c1,1.5,2.6,2.6,4.8,3.3l2.3.5v1.8h-42.7Z"/>
        <path class="st1" d="M868.8,494.9c-6.9,0-12.7-2-17.4-5.9-4.7-3.9-7.1-9.6-7.1-17s2.9-10.8,8.6-15.5c5.7-4.7,14.7-8.3,27-10.6,1.9-.4,4.1-.7,6.4-1.2,2.4-.4,4.9-.9,7.5-1.3v-14.1c0-8.1-1-13.8-3-17.1-2-3.3-5-4.9-9.2-4.9s-5.1.9-6.8,2.8c-1.7,1.8-2.7,5-3.2,9.6l-.4,2c-.2,5.1-1.5,8.9-3.8,11.3-2.3,2.4-5.1,3.6-8.4,3.6s-5.7-1-7.7-2.9c-2-1.9-3-4.5-3-7.7,0-4.9,1.7-9,5.1-12.3,3.4-3.3,7.9-5.8,13.5-7.5,5.6-1.7,11.7-2.5,18.2-2.5,10.6,0,18.8,2.6,24.6,7.8,5.8,5.2,8.7,13.6,8.7,25.3v39.5c0,5.4,2.5,8,7.5,8h3.9l1.6,1.4c-2.3,2.9-4.7,5.1-7.4,6.6-2.7,1.5-6.5,2.3-11.4,2.3s-9.4-1.2-12.4-3.7c-3-2.4-5-5.7-6-9.7-3.6,3.8-7.2,7.1-11,9.7-3.8,2.7-8.6,4-14.6,4ZM879.7,484c2.4,0,4.6-.6,6.7-1.7,2.1-1.1,4.6-2.9,7.4-5.3v-30c-1.2.2-2.4.5-3.6.7-1.2.2-2.6.5-4.1.7-5.5,1.4-9.9,3.8-13.1,7.2-3.3,3.4-4.9,8-4.9,13.7s1.1,8.6,3.4,11c2.3,2.4,5,3.7,8.2,3.7Z"/>
        <path class="st1" d="M376.4,632.3v-1.8l2.5-.7c2.3-.6,3.8-1.6,4.7-3,.9-1.4,1.4-3.3,1.5-5.7v-56c0-2.6-.4-4.6-1.3-5.8-.8-1.3-2.4-2.1-4.8-2.6l-2.7-.7v-1.8l30.6-10.4,1.8,1.8,1.4,12.2c3.9-3.9,8.4-7.3,13.5-10,5.1-2.7,10.3-4.1,15.8-4.1s10.3,1.2,13.8,3.5c3.5,2.3,6.1,5.9,7.9,10.8,4.7-4.4,9.7-7.9,15.1-10.5,5.4-2.6,10.7-3.8,15.8-3.8,8.5,0,14.7,2,18.7,6.1,4,4.1,6,10.4,6,19.1v52.4c0,4.7,2.1,7.6,6.4,8.8l2,.5v1.8h-41.3v-1.8l1.8-.5c2.3-.7,3.8-1.8,4.7-3.2.9-1.4,1.3-3.3,1.3-5.7v-54.7c0-5-.9-8.4-2.7-10.3-1.8-1.8-4.7-2.8-8.6-2.8s-6.1.7-9,2.1c-2.9,1.4-6,3.4-9.2,6.2.6,1.9,1,4,1.2,6.3.2,2.3.3,4.7.3,7.2v46.3c.1,4.7,2.3,7.6,6.4,8.8l1.6.5v1.8h-41.5v-1.8l2.5-.7c2.3-.7,3.8-1.8,4.7-3.1.9-1.4,1.3-3.2,1.3-5.6v-54.6c0-4.8-.9-8.2-2.6-10.2-1.7-2-4.7-3-8.9-3s-5.5.7-8.2,2.1c-2.7,1.4-5.6,3.4-8.6,6v59.9c0,4.7,2.1,7.6,6.3,8.8l1.6.5v1.8h-42Z"/>
        <path class="st1" d="M577.5,635c-9.1,0-16.9-1.9-23.6-5.6-6.7-3.8-11.8-9.1-15.5-16-3.6-6.9-5.5-15-5.5-24.3s1.9-17.3,5.8-24.1c3.9-6.8,9.2-12,15.9-15.7,6.7-3.7,14.3-5.5,22.8-5.5s16,1.8,22.7,5.5c6.7,3.6,12,8.9,15.8,15.7,3.9,6.8,5.8,14.9,5.8,24.3s-1.8,17.6-5.5,24.4c-3.6,6.9-8.8,12.2-15.4,15.9s-14.5,5.6-23.5,5.6ZM577.5,631.4c4.2,0,7.5-1.2,10-3.6,2.5-2.4,4.3-6.6,5.5-12.7,1.1-6.1,1.7-14.7,1.7-25.8s-.6-19.9-1.7-25.9c-1.1-6.1-3-10.3-5.5-12.7-2.5-2.4-5.8-3.6-10-3.6s-7.5,1.2-10.1,3.6c-2.6,2.4-4.4,6.6-5.5,12.7-1.1,6.1-1.7,14.7-1.7,25.9s.6,19.7,1.7,25.8c1.1,6.1,3,10.3,5.5,12.7,2.6,2.4,5.9,3.6,10.1,3.6Z"/>
        <path class="st1" d="M668.7,632.9l-31.7-76c-1.7-4.1-4.5-6.7-8.6-8l-2.5-.7v-1.8h46.3v1.8l-3.2.7c-4.7,1.2-6.1,4.3-4.3,9.3l18.8,49.9,17.5-49.5c1-2.4,1.2-4.4.7-5.9-.5-1.5-1.9-2.7-4.3-3.4l-4.5-1.1v-1.8h25.9v1.8l-5.2,1.3c-2.3.6-4,1.5-5.3,2.7-1.3,1.2-2.3,3-3.1,5.4l-26.3,75.5h-10.4Z"/>
        <path class="st1" d="M763.7,543.6c7.7,0,14.4,1.6,19.9,4.7,5.5,3.2,9.7,7.5,12.6,12.9,2.9,5.4,4.4,11.6,4.4,18.5s0,2.7-.2,4c-.1,1.4-.4,2.6-.7,3.7h-53.3c.1,12.9,2.4,22.2,6.9,27.8,4.5,5.7,11.1,8.5,19.9,8.5s10.8-1,14.5-2.9c3.7-1.9,7.2-4.7,10.4-8.4l1.8,1.6c-3.7,6.6-8.6,11.7-14.8,15.4-6.1,3.7-13.5,5.5-22.1,5.5s-16-1.8-22.5-5.5c-6.6-3.6-11.7-8.9-15.4-15.7-3.7-6.8-5.5-14.9-5.5-24.3s2.1-18.1,6.4-25c4.3-6.9,9.8-12.1,16.5-15.7,6.7-3.6,13.8-5.4,21.2-5.4ZM763.1,547.2c-3.5,0-6.4,1-8.9,3.1-2.4,2.1-4.4,5.8-5.7,11.1-1.4,5.3-2.1,12.8-2.2,22.4h30.6c1.2-13,.7-22.4-1.4-28.1-2.1-5.7-6.3-8.6-12.3-8.6Z"/>
        <path class="st1" d="M840.4,635c-5.8,0-11.1-.7-15.7-2.1-4.7-1.4-8.9-3.1-12.9-5.1l.2-21.3h1.8l6.1,10.7c2.6,4.8,5.5,8.3,8.7,10.6,3.2,2.3,7.2,3.5,12.1,3.5s10.3-1.3,13.9-3.8c3.5-2.6,5.3-6,5.3-10.3s-1.3-7.2-3.8-9.7-7.2-4.8-14-6.8l-7.5-2.3c-7.3-2.1-13-5.5-17.2-10-4.2-4.5-6.3-10.1-6.3-16.6s3.1-14.5,9.3-20c6.2-5.5,15.1-8.2,26.7-8.2s9,.5,13.1,1.5c4.1,1,8.1,2.5,11.9,4.6l-1.1,19.3h-1.8l-6.3-11.1c-2.3-3.9-4.5-6.7-6.7-8.3-2.2-1.6-5.5-2.4-9.9-2.4s-7.9,1.1-11.4,3.4c-3.6,2.3-5.4,5.5-5.4,9.7s1.5,7.3,4.6,9.7c3,2.4,7.5,4.6,13.5,6.6l8,2.3c8.6,2.6,14.7,6.2,18.4,10.8,3.7,4.6,5.5,10.1,5.5,16.5s-3.4,15.7-10.3,20.9c-6.9,5.2-16.5,7.9-28.9,7.9Z"/>
        <path class="st1" d="M908.2,635c-4.3,0-7.9-1.5-10.9-4.5-3-3-4.5-6.6-4.5-10.7s1.5-7.8,4.5-10.9c3-3.1,6.6-4.7,10.9-4.7s7.9,1.6,10.9,4.7c3,3.1,4.5,6.7,4.5,10.9s-1.5,7.8-4.5,10.7c-3,3-6.6,4.5-10.9,4.5Z"/>
      </g>
      <g>
        <path class="st1" d="M380.4,706.4v-33.7h13.8c1.6,0,3,.1,4.3.4,1.3.3,2.5.7,3.4,1.4,1,.7,1.7,1.6,2.3,2.7.5,1.1.8,2.5.8,4.1s-.3,2.9-1,4.2c-.7,1.3-1.7,2.2-3.1,2.8,1.8.5,3.3,1.4,4.2,2.7,1,1.3,1.5,3.1,1.5,5.3s-.4,3.5-1.1,4.8c-.7,1.3-1.7,2.3-3,3.1-1.3.8-2.7,1.3-4.4,1.6-1.7.3-3.4.5-5.3.5h-12.5ZM386.4,686.8h6.3c1,0,1.9,0,2.7-.3.8-.2,1.5-.5,2-.9.6-.4,1-.9,1.3-1.5.3-.6.5-1.3.5-2.2s-.3-1.9-.8-2.5c-.5-.6-1.2-.9-2.1-1.1-.9-.2-1.8-.3-2.9-.3h-7v8.7ZM386.4,700.9h7.1c.9,0,1.8,0,2.6-.2.9-.1,1.6-.3,2.3-.7.7-.3,1.2-.8,1.6-1.4.4-.6.6-1.4.6-2.4s-.2-1.6-.5-2.2c-.3-.6-.8-1-1.3-1.4-.6-.3-1.2-.6-2-.7-.8-.1-1.6-.2-2.4-.2h-8.1v9.1Z"/>
        <path class="st1" d="M435.1,706.4v-12.6l-12.3-21.1h6.9l8.5,15.4,8.5-15.4h6.8l-12.3,21v12.6h-6Z"/>
        <path class="st1" d="M499.3,706.4v-33.7h6v28.2h17.5v5.4h-23.5Z"/>
        <path class="st1" d="M555.3,706.7c-3.2,0-5.8-.6-7.9-1.9-2.1-1.3-3.6-3-4.6-5.3s-1.5-5-1.5-8.1v-18.8h6v18.9c0,1.7.2,3.3.7,4.8.5,1.5,1.3,2.7,2.5,3.5,1.2.9,2.8,1.3,4.8,1.3s3.7-.5,4.8-1.4c1.1-.9,1.9-2.1,2.4-3.5s.7-3,.7-4.8v-18.9h6v18.8c0,3.1-.5,5.8-1.5,8-1,2.3-2.5,4.1-4.5,5.3-2,1.3-4.7,1.9-8,1.9Z"/>
        <path class="st1" d="M590.8,706.4v-33.7h6.4l16.2,24.5v-24.5h6v33.7h-6.2l-16.4-24.4v24.4h-6Z"/>
        <path class="st1" d="M637.6,706.4l12.9-33.7h7.1l12.9,33.7h-6.4l-2.2-6.2h-15.5l-2.3,6.2h-6.4ZM648.1,694.7h11.7l-5.8-16-5.9,16Z"/>
        <path class="st1" d="M728.7,706.7c-2.3,0-4.4-.3-6.4-1-2-.7-3.6-1.8-5-3.3-1.3-1.5-2.2-3.5-2.6-5.9h6c.4,1.2,1,2.2,1.8,2.9.8.7,1.8,1.2,3,1.5,1.1.3,2.3.4,3.5.4s2-.1,3-.4c.9-.3,1.7-.7,2.3-1.4.6-.6.9-1.5.9-2.5s-.2-1.4-.5-1.9-.8-.9-1.4-1.2-1.3-.6-2.1-.8c-.8-.3-1.7-.5-2.6-.7s-1.8-.4-2.7-.6c-.9-.2-1.7-.5-2.5-.9-1-.3-2-.8-2.9-1.2-.9-.5-1.7-1-2.4-1.7s-1.2-1.5-1.6-2.5c-.4-1-.6-2.2-.6-3.5s.3-2.9.8-4c.5-1.1,1.2-2.1,2.1-2.8.9-.7,1.9-1.3,3-1.7,1.1-.4,2.2-.7,3.4-.9,1.2-.2,2.3-.3,3.4-.3,2.1,0,4,.3,5.7,1,1.7.7,3.2,1.8,4.3,3.2,1.1,1.5,1.7,3.3,1.9,5.6h-5.8c-.1-1.1-.5-1.9-1.1-2.6-.6-.7-1.4-1.1-2.4-1.4-1-.3-2-.5-3.1-.5s-1.5,0-2.3.2c-.7.1-1.4.3-2,.7-.6.3-1.1.7-1.4,1.3s-.5,1.2-.5,2,.2,1.3.5,1.8c.3.5.8,1,1.5,1.3.6.3,1.4.7,2.2,1,1.1.4,2.3.8,3.6,1,1.3.2,2.6.5,3.7.9,1.1.3,2.2.7,3.2,1.2,1,.5,1.8,1,2.5,1.7.7.7,1.2,1.4,1.6,2.4.4.9.6,2.1.6,3.4,0,1.9-.3,3.5-1,4.8-.7,1.3-1.6,2.4-2.8,3.2-1.2.8-2.5,1.4-4,1.8-1.5.4-3.1.5-4.7.5Z"/>
        <path class="st1" d="M761.8,706.4v-33.7h6v14.4h15.7v-14.4h5.9v33.7h-5.9v-13.9h-15.7v13.9h-6Z"/>
        <path class="st1" d="M811.1,706.4v-33.7h13.3c1.7,0,3.3.2,4.9.5s2.9.9,4,1.7c1.2.8,2.1,1.9,2.8,3.3.7,1.4,1,3.1,1,5.2s-.3,3.2-.9,4.5-1.4,2.4-2.5,3.3c-1.1.9-2.3,1.6-3.8,2l7.4,13.1h-6.7l-6.6-12.1h-6.9v12.1h-6ZM817.1,688.9h6.5c1.1,0,2.1,0,3-.3.9-.2,1.7-.5,2.4-.9.7-.4,1.2-1,1.6-1.7.4-.7.6-1.6.6-2.7,0-1.3-.3-2.4-.8-3.1-.6-.8-1.4-1.3-2.4-1.6-1-.3-2.3-.5-3.7-.5h-7.1v10.8Z"/>
        <path class="st1" d="M857.7,706.4v-33.7h23.8v5.4h-17.8v8.9h15.5v5.3h-15.5v8.6h17.8v5.4h-23.8Z"/>
        <path class="st1" d="M901.5,706.4v-33.7h23.8v5.4h-17.8v8.9h15.5v5.3h-15.5v8.6h17.8v5.4h-23.8Z"/>
      </g>
    </g>
    <g>
      <path class="st0" d="M221.1,324.3c13.9-3,27.8-5.9,41.7-8.9,44.4,29.4,61.4,85.9,41.6,132.4-21.6,50.9-82,77.7-137.2,58.2,0,0,5.8-40.6,28.7-63.5,18.8-2.2,28.5-2.4,28.9-.6,0,.3,0,.6-.5,1-9.1,4.3-18.2,8.6-27.3,12.8l-1.7,32.6s94.5-.6,94.5-110.5c-1.1-26.2-9-37.9-17.3-43.6-18-12.4-51.4-5.1-51.8-9.1,0-.3.2-.6.3-.8Z"/>
      <circle class="st0" cx="244.5" cy="413.2" r="25.8"/>
      <path class="st0" d="M215.8,633.1c0,3.5.1,6.9.4,10.3-1.5-.7-3-1.5-4.5-2.3-.1-2.6-.2-5.3-.2-8,0-9,.4-17.3,1.2-24.9,1.4,1.2,2.7,2.3,4.1,3.4-.6,6.6-.9,13.8-.9,21.4Z"/>
      <path class="st0" d="M212.7,608.3c-.8,7.6-1.2,15.9-1.2,24.9s0,5.4.2,8c-4.7-2.4-9.5-5.1-14.6-8l-48.6-7.7,54.2-27.1c3.3,3.6,6.7,7,10.1,10Z"/>
      <path class="st0" d="M267.9,660.9c-.8-11.5-1.2-24.3-1-38.5.3-17.5,1.5-36.9,4.2-58.3-12.8-3.9-23.4-12.8-29.5-24.4-6.3,7.5-21.1,29.3-24.9,72-.6,6.6-.9,13.8-.9,21.4s.1,6.9.4,10.3c4.4,63.9,48.8,95.8,48.8,95.8l-2.2,22.7,25.4,2.8-6.6-30.9s-10.3-24.8-13.6-72.8Z"/>
      <path class="st0" d="M285.5,566.2c-.6,0-1.2,0-1.9,0,0,8.3-1,18.8-4.5,30.3-2.2,7.3-4.4,14.5-7.7,20-.5,17,0,31.9.9,44.8,69.9,4.1,43-100,41.8-104.3-8.1,5.8-18,9.2-28.7,9.2Z"/>
    </g>
  </g>
</svg>