<?xml version="1.0" encoding="UTF-8"?>
<svg id="Layer_1" xmlns="http://www.w3.org/2000/svg" version="1.1" viewBox="0 0 1080 1080">
  <!-- Generator: Adobe Illustrator 29.3.0, SVG Export Plug-In . SVG Version: 2.1.0 Build 146)  -->
  <defs>
    <style>
      .st0 {
        fill: #754d24;
      }

      .st1 {
        fill: #5f4130;
      }

      .st2 {
        fill: #fcf9f7;
      }

      .st3 {
        fill: #6b4f3c;
      }

      .st4 {
        fill: #fad981;
      }

      .st5 {
        fill: #f7ecc9;
      }

      .st6 {
        fill: #fdfbf4;
      }

      .st7 {
        fill: #69bc45;
      }

      .st8 {
        fill: #411114;
      }

      .st9 {
        fill: #fff;
      }

      .st10 {
        fill: #e0e8f2;
      }

      .st11 {
        fill: #fffcf6;
      }

      .st12 {
        fill: #603916;
      }

      .st13 {
        fill: #fcfaf6;
      }

      .st14 {
        fill: #fdfbf3;
      }

      .st15 {
        fill: #fbf9f7;
      }

      .st16 {
        fill: #f9d97e;
      }
    </style>
  </defs>
  <rect width="1080" height="1080"/>
  <g>
    <path class="st9" d="M869.5,570.6c-1.7,0-3.4-.5-4.9-1.6l-9.2-6.7c-.2-.1-.4-.1-.5,0l-9.2,6.7c-3,2.2-6.9,2.2-9.9,0-3-2.2-4.2-5.9-3.1-9.4l3.5-10.8c0-.2,0-.4-.2-.5l-9.2-6.7c-3-2.2-4.2-5.9-3.1-9.4,1.1-3.5,4.3-5.8,8-5.8h11.3c.2,0,.4-.1.4-.3l3.5-10.8c1.1-3.5,4.3-5.8,8-5.8s6.9,2.3,8,5.8l3.5,10.8c0,.2.2.3.4.3h11.3c3.7,0,6.9,2.3,8,5.8,1.1,3.5,0,7.2-3.1,9.4l-9.2,6.7c-.2.1-.2.3-.2.5l3.5,10.8c1.1,3.5,0,7.2-3.1,9.4-1.5,1.1-3.2,1.6-4.9,1.6ZM855.1,554.2c1.7,0,3.5.5,4.9,1.6l9.2,6.7c.1,0,.3.2.5,0,.3-.2.2-.4.2-.5l-3.5-10.8c-1.1-3.5,0-7.3,3.1-9.4l9.2-6.7c.1,0,.3-.2.2-.5,0-.3-.3-.3-.4-.3h-11.3c-3.7,0-6.9-2.3-8-5.8l-3.5-10.8c0-.1,0-.3-.4-.3s-.4.2-.4.3l-3.5,10.8c-1.1,3.5-4.3,5.8-8,5.8h-11.3c-.1,0-.3,0-.4.3,0,.3,0,.4.2.5l9.2,6.7c3,2.2,4.2,5.9,3.1,9.4l-3.5,10.8c0,.1,0,.3.2.5.3.2.4,0,.5,0l9.2-6.7c1.5-1.1,3.2-1.6,4.9-1.6Z"/>
    <path class="st9" d="M245.5,569c-1.7,0-3.4-.5-4.9-1.6l-9.2-6.7c-.2-.1-.4-.1-.5,0l-9.2,6.7c-3,2.2-6.9,2.2-9.9,0-3-2.2-4.2-5.9-3.1-9.4l3.5-10.8c0-.2,0-.4-.2-.5l-9.2-6.7c-3-2.2-4.2-5.9-3.1-9.4,1.1-3.5,4.3-5.8,8-5.8h11.3c.2,0,.4-.1.4-.3l3.5-10.8c1.1-3.5,4.3-5.8,8-5.8s6.9,2.3,8,5.8l3.5,10.8c0,.2.2.3.4.3h11.3c3.7,0,6.9,2.3,8,5.8,1.1,3.5,0,7.2-3.1,9.4l-9.2,6.7c-.2.1-.2.3-.2.5l3.5,10.8c1.1,3.5,0,7.2-3.1,9.4-1.5,1.1-3.2,1.6-4.9,1.6ZM231.1,552.6c1.7,0,3.5.5,4.9,1.6l9.2,6.7c.1,0,.3.2.5,0,.3-.2.2-.4.2-.5l-3.5-10.8c-1.1-3.5,0-7.3,3.1-9.4l9.2-6.7c.1,0,.3-.2.2-.5,0-.3-.3-.3-.4-.3h-11.3c-3.7,0-6.9-2.3-8-5.8l-3.5-10.8c0-.1,0-.3-.4-.3s-.4.2-.4.3l-3.5,10.8c-1.1,3.5-4.3,5.8-8,5.8h-11.3c-.1,0-.3,0-.4.3,0,.3,0,.4.2.5l9.2,6.7c3,2.2,4.2,5.9,3.1,9.4l-3.5,10.8c0,.1,0,.3.2.5.3.2.4,0,.5,0l9.2-6.7c1.5-1.1,3.2-1.6,4.9-1.6Z"/>
    <path class="st8" d="M633.5,675.9c0-.4,0-.7,0-1.1,0,.4,0,.7,0,1.1Z"/>
    <path class="st8" d="M470.8,517.6c-.3-.2-.6-.3-.9-.5h0c-.6-.3-1.2-.7-1.8-1-1.3.8-2.6,1.6-3.9,2.5h0c-.9.6-1.8,1.2-2.8,1.7,2.9,1.7,6,3.4,9.1,4.9,2.5-1.3,5.1-2.6,7.6-3.9-2.4-1.2-4.9-2.4-7.3-3.7ZM451.1,504.4c0,.1,0,.2.1.4.4.8,1,1.1,1.6,1.1-.6-.5-1.2-1-1.7-1.5ZM436.3,516.9s0,0,0,0c-.2.1-.3.2-.5.3,0,0,0,0,0,0,.2.3.5.6.7.9,0-.4-.2-.8-.3-1.3ZM431.7,495.8l.4.2h0c-.1,0-.3-.1-.4-.2Z"/>
    <path class="st5" d="M633.5,675.8s0,0,0,0c0,0,0-.2,0-.2,0-.2,0-.4,0-.6,0-.8,0-1.6,0-2.4,0-.6,0-1.1,0-1.7,0-.6,0-1.2,0-1.9,0-.3,0-.7,0-1,0,0,0,0,0-.1,0-.2,0-.4,0-.6h0c0-.2,0-.4,0-.6,0-.3,0-.6,0-.9,0-.5,0-.9,0-1.4,0,0,0,0,0,0,0-.2,0-.5,0-.7,0-.5,0-.9-.1-1.4,0-.9-.2-1.9-.3-2.8,0-.2,0-.4,0-.5,0-.5-.1-.9-.2-1.4,0-.4,0-.8-.2-1.1,0,0,0,0,0-.1,0-.3,0-.5-.1-.7,0-.7-.2-1.3-.3-2,0-.4-.1-.7-.2-1.1,0-.5-.2-.9-.3-1.4,0-.5-.2-1.1-.3-1.6-.1-.5-.2-1.1-.3-1.6h0c-.2-1.1-.5-2.1-.7-3.1-.1-.5-.3-1-.4-1.6h0c-.1-.5-.3-1-.4-1.5-.1-.4-.2-.8-.4-1.3,0-.2-.1-.4-.2-.6-.1-.5-.3-1-.4-1.5,0-.1,0-.2-.1-.4-.1-.4-.3-.9-.4-1.3-.4-1.3-.9-2.6-1.3-3.9,0-.2-.1-.4-.2-.6-.2-.5-.3-.9-.5-1.4-.1-.4-.3-.8-.4-1.1,0,0,0,0,0-.1-.2-.5-.4-.9-.6-1.4-.6-1.5-1.2-2.9-1.9-4.3-.2-.5-.5-1.1-.8-1.6,0,0,0,0,0,0-.1-.3-.3-.6-.4-.9,0-.2-.2-.4-.3-.6-.1-.2-.2-.4-.3-.7,0,0,0-.2-.1-.2-.1-.2-.2-.4-.3-.6-.1-.2-.2-.5-.4-.7,0-.2-.2-.4-.3-.6,0-.2-.2-.4-.3-.6-.1-.2-.2-.4-.4-.7-.7-1.4-1.5-2.7-2.3-4-.3-.4-.5-.8-.8-1.3-.3-.5-.6-.9-.8-1.3-.2-.3-.4-.7-.6-1-.2-.3-.3-.5-.5-.8-.4-.6-.8-1.2-1.2-1.7-.2-.3-.4-.5-.6-.8-.2-.3-.5-.7-.7-1-.2-.4-.5-.7-.8-1.1-.8-1.1-1.6-2.1-2.4-3.1-.2-.3-.4-.6-.7-.8-.4-.5-.7-.9-1.1-1.4-.3-.4-.7-.8-1-1.3-1-1.3-2.1-2.5-3.2-3.7-.7-.8-1.5-1.6-2.2-2.4-.4-.4-.8-.8-1.1-1.2-.4-.4-.8-.8-1.2-1.2-.4-.4-.8-.8-1.2-1.2-1.6-1.6-3.2-3.1-4.9-4.7-.5-.5-1.1-1-1.6-1.5-.5-.5-1-1-1.5-1.5-.2-.2-.4-.4-.6-.6-.2-.2-.3-.4-.5-.5-.2-.2-.3-.4-.5-.6-.2-.2-.3-.4-.5-.6-.2-.3-.4-.5-.6-.8-.4-.5-.8-1.1-1.2-1.6-.2-.3-.4-.6-.6-.9-.2-.3-.4-.6-.6-.9-.1-.2-.3-.4-.4-.6,0-.1-.1-.2-.2-.4-.2-.4-.5-.8-.7-1.2,0-.2-.2-.3-.3-.5-.1-.2-.2-.4-.3-.6,0-.1-.1-.2-.2-.3-.5-1-1-2.1-1.5-3.1,0-.2-.2-.5-.3-.7,0-.2-.2-.5-.3-.7,0-.2-.2-.5-.3-.7-.1-.4-.3-.8-.4-1.2-.1-.4-.3-.8-.4-1.2-.3-.8-.5-1.6-.7-2.4-.2-.7-.3-1.3-.5-2-.2-.7-.3-1.3-.5-2,0-.3-.1-.7-.2-1,0,1,0,2,0,3-.5,8.2-.8,10.5-1.4,12.7-.2.8-.4,1.6-.7,2.5,0,.3-.2.5-.3.8-.2.6-.4,1.2-.7,1.8-.1.3-.3.6-.4.9-1.3,2.9-3,5.6-5.5,8.2,9.8-23.5,6.6-43.4-15.4-60.4,3,16.9,2,23.6-5.3,36.8,0,.2-.2.4-.3.7,0,.1-.1.3-.2.4,0,.1-.1.3-.2.4,0,.1-.1.2-.2.4,0,.1-.1.2-.2.4,0,.2-.2.3-.3.5-.1.2-.2.4-.4.6,0,.1-.1.2-.2.3,0,.1-.2.2-.2.3,0,.1-.2.2-.2.3,0,.1-.2.2-.2.3,0,.1-.2.2-.3.3-.1.2-.3.3-.4.5-.1.2-.3.3-.4.5-.4.4-.8.8-1.2,1.2,0,0-.1.1-.2.2-.5.4-1,.7-1.5,1.1-.1,0-.3.2-.4.2-.2.1-.5.3-.8.4-.1,0-.2.1-.3.2-.1,0-.2.1-.3.2-.2,0-.3.1-.5.2,0,0-.2,0-.3.1,0,0-.1,0-.2,0-.1,0-.2,0-.4.1-.2,0-.3.1-.5.2-.2,0-.4.1-.6.2,3-4,6-8.1,9-12.1,0,0,0,0,0,0,0,0,0,0,0,0t0,0c2.7-7.5,5.3-14.9,3-23.7-14.4,23.6-16.7,25.5-43.4,38.8-8.2,4.1-16.8,7.5-23.6,14,.4,2,.9,4,1.3,6,.3,1.3.6,2.6.9,3.9.5,2.1,1.1,4.3,1.7,6.4.3.9.5,1.8.8,2.8,2,6.9,4.5,13.7,7.5,20.3.3.6.6,1.2.9,1.8.3.6.6,1.2.9,1.8.3.6.6,1.2.9,1.8.3.6.6,1.2.9,1.8.6,1.2,1.3,2.4,2,3.5.5.9,1,1.7,1.6,2.6.4.6.7,1.1,1.1,1.7,1.1,1.7,2.3,3.4,3.6,5.1,1.4,1.8,2.8,3.6,4.2,5.4,1.1,1.3,2.1,2.6,3.2,3.8.7.8,1.5,1.7,2.2,2.5.4.4.7.8,1.1,1.2,1.1,1.2,2.3,2.4,3.4,3.5,9.6,9.6,20.3,17.4,32.2,23.1,1,.5,1.9.9,2.9,1.4.5.2,1,.4,1.4.6.5.2,1,.4,1.5.6,1,.4,2,.8,3,1.2.5.2,1,.4,1.5.6.6.2,1.3.5,1.9.7.6.2,1.1.4,1.7.6,2.4.8,4.9,1.6,7.4,2.2.6.2,1.3.3,1.9.5.6.2,1.3.3,1.9.5.6.1,1.3.3,1.9.4.7.1,1.3.3,2,.4.6.1,1.3.3,2,.4.7.1,1.3.2,2,.3.7.1,1.3.2,2,.3,1.3.2,2.7.4,4,.6.7,0,1.4.2,2,.2,2,.2,4.1.5,6.1.7,2,.3,4.1.5,6.1.8,2.4.3,4.9.6,7.3.9h0l3.8-2.7c.3-.2.6-.5.9-.7l2.7-2.3c.5-.5,1-.9,1.5-1.4,1.2-1.2,2.4-2.4,3.5-3.7.4-.5.9-1,1.3-1.6,3-3.7,5.5-7.9,7.5-12.4,0,0,0,0,0,0h0ZM622.6,656.5c0,.2,0,.3,0,.5,0,0,0,.2,0,.2,0,0,0,.1,0,.2,0,0,0,.1,0,.2,0,0,0,0,0,0,0,.2,0,.3,0,.5h0c0,.2,0,.3-.1.5,0,0,0,.2,0,.2,0,.2-.1.3-.2.5,0,0,0,.2-.1.2,0,.1-.1.3-.2.4,0,0,0,.1-.1.2s0,.1-.2.2c0,0-.1.1-.2.2-.2.3-.5.5-.8.7,0,0-.2,0-.3.1-.2.1-.5.2-.8.3,0,0,0,0-.1,0,0,0-.1,0-.2,0,0,0-.2,0-.3,0,0,0,0,0-.1,0-.2,0-.5,0-.7,0-.4,0-.7,0-1,0,0,0-.1,0-.2,0,0,0-.2,0-.2,0,0,0,0,0-.1,0-.2,0-.3,0-.5,0,0,0-.2,0-.3,0,0,0-.2,0-.3,0h0c-.1,0-.2,0-.3-.1-.2,0-.4-.2-.6-.3,0,0,0,0,0,0,0,0-.2-.1-.3-.2,0,0-.2-.1-.2-.2,0,0-.2-.1-.2-.2,0,0-.2-.2-.3-.3,0,0,0,0,0,0,0,0-.1-.2-.2-.2,0,0,0,0,0-.1,0,0-.1-.2-.2-.3,0,0-.1-.2-.2-.3,0,0-.1-.2-.2-.3,0-.1-.1-.3-.2-.4,0-.1,0-.2-.1-.3,0,0,0,0,0,0,0-.1,0-.2-.1-.4,0-.1,0-.2,0-.3,0-.2-.1-.5-.2-.7,0,0,0,0,0,0,0,0,0-.2,0-.3,0-.2,0-.4,0-.6,0-.4,0-.8,0-1.2,0-.5,0-1,0-1.5,0-.2,0-.4,0-.6,0-.3,0-.6,0-.9,0-1.4,0-2.8,0-4.2,0-.3,0-.5,0-.8h0c0-.5,0-1.1-.1-1.6,0-.8-.2-1.6-.3-2.4,0-.4-.1-.7-.2-1.1,0,0,0-.2,0-.2,0-.2,0-.4-.1-.7,0-.4-.1-.8-.2-1.2,0-.2,0-.3,0-.5,0-.3-.1-.6-.2-.9-.2-.7-.3-1.4-.5-2.1,0-.2-.1-.5-.2-.7,0-.2-.1-.5-.2-.7,0-.1,0-.3-.1-.4,0-.2-.1-.4-.2-.6,0-.3-.2-.5-.2-.8-.2-.8-.5-1.5-.8-2.2-.1-.3-.2-.6-.3-.9-.1-.3-.2-.6-.3-.8-.2-.4-.3-.8-.5-1.3-.1-.3-.2-.6-.4-.9,0-.2-.1-.3-.2-.5,0-.2-.2-.4-.3-.6-.2-.4-.3-.7-.5-1.1,0,0,0,0,0,0-.2-.3-.3-.6-.5-1-.4-.8-.8-1.7-1.2-2.5-.2-.4-.4-.8-.6-1.2-.2-.3-.3-.6-.5-.9,0,0,0,0,0,0-.2-.3-.3-.6-.5-.9-.2-.3-.4-.6-.6-1-.2-.3-.3-.6-.5-.8,0,0,0,0,0-.1-.2-.3-.4-.6-.6-.9-.4-.7-.9-1.4-1.3-2.1-.2-.4-.5-.8-.7-1.2-1.5-2.3-3.1-4.6-4.7-6.9-2.4-3.4-7.4-7.8-3-11.4.2-.1.3-.2.5-.4.2-.1.3-.2.4-.3.4-.3.9-.5,1.3-.6.1,0,.2,0,.3,0,0,0,.1,0,.2,0,0,0,.1,0,.2,0,.3,0,.6,0,.9,0,.1,0,.3,0,.4,0,0,0,0,0,.1,0,0,0,0,0,0,0,0,0,0,0,0,0,0,0,0,0,0,0,0,0,.1,0,.2,0,.1,0,.3,0,.4.2,0,0,.1,0,.2,0,0,0,.1,0,.2.1,0,0,0,0,.1,0,.1,0,.2.1.3.2.1,0,.2.1.3.2,0,0,.1,0,.2.1.1,0,.2.2.3.3.1,0,.2.2.3.3,0,0,.2.2.3.3.2.2.4.4.6.6,0,.1.2.2.3.3,0,.1.2.2.3.3,0,0,0,0,0,0,0,.1.2.2.2.3.2.2.3.5.5.7.1.1.2.3.3.4.1.2.3.4.4.6,0,0,.1.2.2.3.2.2.3.5.5.7.2.2.3.4.5.6.8,1,1.6,1.9,2.3,2.9.2.3.5.7.7,1,.3.4.6.8.9,1.3.6.8,1.2,1.7,1.7,2.5.1.2.2.4.4.5.2.3.4.6.6.9.1.2.2.3.3.5,0,0,0,.1.1.2.2.3.4.6.6,1,.3.5.6.9.8,1.4.2.4.5.8.7,1.2.3.5.6,1.1.9,1.6.1.2.2.4.3.6.6,1.1,1.2,2.3,1.7,3.5.2.4.4.8.6,1.2,0,.2.2.4.3.6.2.5.4,1,.7,1.5.2.4.3.8.5,1.2.4.9.7,1.7,1,2.6.2.4.3.8.4,1.2,0,0,0,0,0,.2.1.4.3.8.4,1.2.1.4.2.7.4,1.1,0,.3.2.6.3.9.1.4.2.7.3,1.1,0,.2.1.4.2.6,0,.3.2.6.2.9,0,.3.2.6.3,1,0,.4.2.7.3,1.1,0,.3.2.7.2,1,0,.1,0,.3.1.4,0,.1,0,.3,0,.4,0,0,0,.1,0,.2,0,.4.2.7.2,1.1,0,.4.1.7.2,1.1h0c.2,1.1.4,2.2.6,3.3,0,.4.1.7.2,1.1,0,0,0,0,0,0,0,.3,0,.5.1.8,0,0,0,.1,0,.2,0,.4.1.8.2,1.3,0,.4,0,.8.1,1.1.1,1,.2,2,.3,3,0,.3,0,.7,0,1,0,.3,0,.7,0,1,0,.2,0,.5,0,.7,0,.4,0,.8,0,1.2,0,.4,0,.8,0,1.2,0,.2,0,.4,0,.7,0,0,0,.2,0,.3,0,.1,0,.2,0,.3,0,.2,0,.5,0,.8Z"/>
    <path class="st5" d="M428.3,478.5c-16.4,11.6-21.9,26.4-20.2,44.2.1.4.3.8.4,1.1.2.6.4,1.1.7,1.7.4,1,.8,2.1,1.2,3.2.1.3.3.7.4,1,.3.8.7,1.7,1,2.6.4-.3.8-.6,1.3-.9,7.3-4.7,14.8-9.3,22.7-14.2-8.7-11.2-10.2-24-7.4-38.6ZM438.5,498.9c-.9-1.5-1.7-3-2.5-4.6-1-2.1-1.9-4.4-2.7-6.8-.9,3-1.2,5.8-1.2,8.5h0c0,7.7,2.7,14.2,4.2,20.9,0,0,0,0,0,0l1.1-.7,8.9-7.3c-2.9-2.9-5.5-6.2-7.7-9.9ZM461.4,520.3c-12.6,8-25.3,15.9-37.9,23.9-1.5,1-3.8,1.8-2.5,4.2,1.6,2.9,3.5.7,5.1-.2,14.8-7.7,29.5-15.3,44.3-23-3.1-1.6-6.1-3.2-9.1-4.9ZM498.6,541h0s0,0,0,0c-3-2.7-6.3-4.9-9.8-6.8-2.5,1.3-5,2.6-7.5,3.9-.1,0-.2.1-.3.2l-38.5,20.1s0,0,0,0c-3.7,1.9-7.5,3.9-11.2,5.9-2.5,1.3-5.1,2.1-7.8,2.1-4.6,0-9-1.7-12.4-4.6,0,0-.2-.2-.3-.2-.8-.7-1.5-1.5-2.2-2.2-1.5-1.8-2.7-3.9-3.4-6.2-.8-2.4-1.1-4.9-.9-7.3.4-3.3,1.7-6.2,2.8-8.2,1-1.7,1.9-2.8,2.2-3.2-.4-.6-.8-1.2-1.1-1.8l-.3-.5-.4-.9c-.1-.3-.2-.6-.3-.9,0-.2-.2-.5-.2-.7h0c0-.1-1-4.5-1-4.5-.7-2.4-1.4-4.7-2.1-7.1h0c-.4.4-.7.9-1.1,1.3-3.3,3.8-6.5,7.6-9.8,11.4-1.5,1.7-2.9,3.4-4.4,5.1-2.9,3.4-5.8,6.8-8.7,10.2-1.4,1.7-2.9,3.4-4.3,5.1-1.4,1.7-2.8,3.4-4.2,5.2-.7.9-1.4,1.7-2.1,2.6-14.6,18.4-18.8,40.6-21.2,63.3,0,.2,0,.4-.1.6,0,.2-.1.4-.2.6,0,.2-.1.4-.2.6-.1.3-.3.6-.4.9,0,.2-.2.4-.3.6,0,0,0,.2-.1.3,0,.2-.2.4-.3.6,0,.2-.2.4-.3.6h0c4,11.5,11.9,19.9,21.4,27h0c1.3,0,2.5,0,3.8.1.4,0,.9,0,1.3,0s1.1,0,1.7,0c.5,0,1,0,1.5,0,.6,0,1.1,0,1.7,0,.3,0,.5,0,.8,0,.4,0,.7,0,1,0,0,0,.2,0,.3,0,.2,0,.4,0,.6,0,.1,0,.2,0,.3,0,.4,0,.7,0,1.1,0,.4,0,.8,0,1.3-.1.4,0,.7,0,1.1-.1.3,0,.6,0,.9,0,1-.1,2-.2,3.1-.4.4,0,.8-.1,1.3-.2,1.6-.2,3.3-.5,4.9-.8.5-.1,1.1-.2,1.6-.3.3,0,.6-.1.9-.2.5-.1,1.1-.2,1.6-.3.3,0,.7-.2,1-.2.2,0,.4,0,.6-.1.1,0,.2,0,.3,0,.4,0,.8-.2,1.2-.3.5-.1,1-.2,1.5-.4h.1c.5-.2,1-.3,1.5-.4.8-.2,1.6-.4,2.4-.7.8-.2,1.6-.5,2.4-.7.4-.1.9-.3,1.3-.4.4-.1.8-.3,1.3-.4.4-.1.8-.3,1.3-.4.4-.1.8-.3,1.3-.4.4-.1.8-.3,1.3-.4,1.4-.5,2.7-1,4.1-1.5.7-.3,1.4-.5,2-.8.7-.3,1.4-.5,2-.8.4-.2.9-.3,1.3-.5.6-.2,1.2-.5,1.8-.7.3-.1.6-.2.8-.3,1.2-.5,2.4-1,3.6-1.5.6-.3,1.2-.5,1.8-.8.5-.2,1-.4,1.5-.7.9-.4,1.8-.8,2.7-1.2,2.7-1.2,5.5-2.5,8.2-3.8h0c6.3-27.6,20.9-49,46.5-62.1,0-.3.2-.6.2-.9.2-.6.3-1.2.5-1.8.8-2.8,1.8-5.7,2.6-8.5.1-.4.3-.8.4-1.2.1-.4.3-.9.4-1.3,0,0,0-.2,0-.2,0,0,0-.1,0-.2,0-.2.1-.4.2-.6,0-.3.1-.5.2-.8,0-.3.2-.6.3-1,0-.3.2-.6.2-.9.2-.6.3-1.3.4-1.9,0-.1,0-.3,0-.4,0-.2,0-.4.1-.6,0-.3,0-.5.1-.8,0,0,0,0,0-.1,0-.2,0-.5.1-.7,0,0,0-.1,0-.2,0-.3,0-.5.1-.8,0-.2,0-.3,0-.5,0-.2,0-.4,0-.6,0,0,0-.2,0-.3,0-.2,0-.4,0-.6,0,0,0,0,0,0,0-.3,0-.6,0-.9,0,0,0,0,0,0,0-.3,0-.5,0-.8,0-.2,0-.3,0-.5,0-.1,0-.3,0-.4,0,0,0-.1,0-.2,0,0,0,0,0,0,0-.3,0-.6,0-.9,0-.7,0-1.4,0-2.1ZM392.2,551.5c0,0,0,.1,0,.2,0,0,0,0,0,.1,0,.2-.1.5-.2.7,0,.1,0,.2-.2.3,0,0,0,.1,0,.2,0,.1-.1.3-.2.4,0,0,0,.1-.1.2,0,0-.1.2-.2.3-.3.4-.6.8-.9,1.2,0,.1-.2.2-.3.3,0,.1-.2.2-.3.3,0,.1-.2.2-.3.3-.2.2-.3.4-.5.6-.2.3-.5.6-.7.9-.3.4-.7.9-1,1.3-.5.8-1.1,1.5-1.6,2.3-.7,1-1.4,2-2.1,3-.4.5-.7,1.1-1,1.6-.2.4-.4.7-.7,1.1-.2.4-.5.8-.7,1.2-.3.5-.6,1-.9,1.6-.3.5-.6,1.1-.9,1.6-.1.3-.3.5-.4.8-.3.5-.6,1.1-.9,1.6-.2.4-.4.8-.6,1.2-.2.4-.4.8-.6,1.2-.2.4-.4.8-.6,1.2-.2.4-.4.8-.6,1.2-.2.5-.5,1.1-.7,1.6-.2.5-.5,1.1-.7,1.6-.1.3-.2.6-.3.8-.2.6-.4,1.1-.7,1.7-.1.3-.2.6-.3.8-.1.3-.2.6-.3,1-.1.3-.2.7-.4,1,0,.3-.2.6-.3.9-.1.3-.2.6-.3,1-.1.4-.3.9-.4,1.3-.1.4-.2.7-.3,1.1,0,.2,0,.3-.1.5,0,.3-.2.7-.3,1-.1.4-.2.9-.3,1.3,0,.2-.1.4-.2.6-.1.4-.2.9-.3,1.3,0,0,0,.2,0,.3,0,.4-.2.8-.2,1.1,0,0,0,0,0,.1,0,.4-.2.9-.3,1.3,0,0,0,0,0,0,0,.4-.2.9-.2,1.4,0,.1,0,.3,0,.4,0,.1,0,.3,0,.4,0,.3,0,.5-.1.8,0,.5-.2,1.1-.2,1.6,0,.3,0,.5-.1.8,0,.3,0,.5,0,.8,0,.5-.1,1.1-.2,1.6,0,1.1-.2,2.2-.2,3.3,0,.4,0,.8-.1,1.1,0,0,0,.2,0,.3,0,.2,0,.4-.1.5,0,.2-.1.3-.2.5,0,.1,0,.2-.1.4,0,.1-.1.2-.2.3,0,.1-.2.3-.3.4,0,.1-.2.3-.3.4-.2.3-.4.5-.7.7,0,0-.1,0-.2.1,0,0-.1,0-.2.1-.2.1-.4.2-.7.3,0,0-.1,0-.2,0,0,0-.2,0-.2,0,0,0,0,0-.1,0,0,0,0,0,0,0,0,0-.1,0-.2,0-.1,0-.2,0-.3,0,0,0-.1,0-.2,0,0,0,0,0,0,0,0,0-.1,0-.2,0-.3,0-.6,0-.9,0-.3,0-.6,0-.8-.2,0,0,0,0-.1,0,0,0,0,0,0,0,0,0,0,0-.1,0-.2,0-.4-.2-.6-.3,0,0,0,0-.1,0,0,0-.1-.1-.2-.2,0,0,0,0,0,0,0,0,0,0,0,0-.1,0-.2-.2-.3-.3,0,0,0-.1-.1-.2,0-.1-.1-.3-.2-.4,0,0,0-.1,0-.2,0,0,0-.1,0-.2,0,0,0,0,0-.2,0,0,0-.1,0-.2,0,0,0-.1,0-.2,0,0,0-.1,0-.2,0-.2,0-.3,0-.5,0-.2,0-.3,0-.5,0-.1,0-.3,0-.4,0,0,0,0,0-.1,0-.2,0-.3,0-.5,0-.2,0-.4,0-.6,0-.2,0-.4,0-.6,0-2.2,0-4.4,0-6.6,1.1-19.8,8.6-36.9,21.7-51.7,2.6-2.9,6.1-5.4,9.6-2.9.4.3.7.6,1,.9,0,0,0,0,.1.1.3.3.5.7.6,1,0,0,0,.1,0,.2,0,.2,0,.3,0,.5,0,0,0,0,0,0,0,0,0,.1,0,.2s0,.1,0,.2Z"/>
    <path class="st5" d="M739.7,626.9c0,0,0-.2-.2-.2,0,0,0,0,0,0,0-.1-.2-.3-.2-.4,0-.2-.2-.3-.3-.5,0-.2-.2-.3-.3-.5h0c-.2-.4-.3-.7-.4-1.1-.2-.5-.4-1.1-.5-1.6,0-.1,0-.3-.1-.4-.3-1.2-.5-2.3-.6-3.5,0-.4,0-.8,0-1.1,0-.4,0-.8,0-1.1,0-.3,0-.7,0-1,0-2.2,0-4.4-.2-6.5,0-.4,0-.8-.1-1.1,0-.2,0-.5,0-.7-.2-1.7-.5-3.4-.8-5,0-.3-.1-.7-.2-1,0-.3-.1-.6-.2-.9,0-.3-.1-.6-.2-.8,0,0,0-.2,0-.3,0-.4-.2-.7-.2-1.1-.5-2.2-1.1-4.3-1.7-6.4-.4-1.2-.8-2.4-1.2-3.6-.1-.4-.3-.8-.4-1.2-.2-.4-.3-.9-.5-1.3,0,0,0-.2-.1-.3-.1-.3-.2-.6-.3-.9-.4-1.1-.9-2.2-1.3-3.2-.2-.5-.4-1-.7-1.6h0c-.2-.4-.3-.7-.5-1.1-.2-.4-.3-.7-.5-1.1-.2-.3-.3-.6-.5-1-.4-.7-.7-1.5-1.1-2.2-.2-.3-.3-.6-.5-.9-1.1-2.1-2.3-4.2-3.5-6.2-.2-.3-.4-.7-.6-1-.2-.3-.4-.7-.6-1-.3-.4-.6-.9-.8-1.3-.4-.5-.7-1.1-1.1-1.6-.3-.5-.7-1-1.1-1.5,0,0,0-.1-.2-.2-.4-.5-.8-1.1-1.2-1.6-.3-.5-.7-.9-1-1.4-.1-.2-.2-.3-.3-.5-.4-.5-.7-.9-1.1-1.4-.9-1.1-1.7-2.2-2.6-3.3-.4-.4-.7-.9-1.1-1.3-.8-.9-1.5-1.8-2.3-2.7-.2-.2-.3-.4-.5-.6-.7-.8-1.4-1.6-2.2-2.4-.3-.4-.7-.7-1-1.1-.5-.5-1-1.1-1.5-1.6-.4-.5-.9-.9-1.3-1.4-.9-.9-1.8-1.9-2.7-2.8,0,0,0,0,0,0-.9-1-1.8-1.9-2.7-2.9-.4-.5-.9-1-1.3-1.5-.4-.5-.9-1-1.3-1.5-.4-.5-.8-1-1.3-1.5,0,0,0,0,0,0-.4-.4-.7-.9-1.1-1.3-1.5-1.9-2.9-3.8-4.2-5.8-.3-.4-.5-.8-.8-1.2-.3-.4-.5-.8-.8-1.3-.2-.3-.3-.6-.5-.8-.2-.4-.4-.7-.6-1.1-.2-.4-.4-.7-.6-1.1-.2-.4-.4-.7-.6-1.1-.2-.4-.4-.7-.6-1.1h0c-.7,3.1-1.5,6.1-2.2,9.2-.1.4-.3.9-.4,1.3-.1.4-.3.9-.4,1.3-.8,2.4-1.6,4.9-2.5,7.3,0,.1-.1.3-.2.4,0,0,0,0,0,.1,0,0,0,.2,0,.2-.2.4-.3.9-.6,1.2,0,0-.1.1-.2.2-.1.1-.2.3-.4.4,0,0-.2.1-.2.2-.2.1-.5.2-.7.3-.1,0-.2,0-.4,0,0,0-.2,0-.2,0,0,0,0,0-.1,0s0,0-.1,0c-.2,0-.5,0-.7,0,.3-5.7,3.3-10.4,5.1-15.5h0c1.5-18-3.7-33-20.4-44,2.8,14.3,2.2,26.6-7.5,36.9,2.9-8.4,5.6-16.8,3-26.6-11.8,21.4-17.1,26.3-39.5,37.1-5.6,2.7-11.2,5.6-16.6,8.6-1.7.9-5.4,2-3.7,4.3,6.6,8.7,3.9,21.1,14,29,22.7,17.8,37.2,41.4,42.6,70.2.7.3,1.3.6,2,.9.5.2,1,.4,1.5.7.2,0,.3.1.5.2.5.2.9.4,1.4.6.5.2,1.1.5,1.6.7,1,.4,2,.8,3,1.2.5.2,1,.4,1.5.6.4.2.8.3,1.2.5.4.2.8.3,1.2.5,0,0,0,0,.1,0,.5.2,1,.4,1.5.6.5.2,1,.4,1.5.6,1.3.5,2.7,1,4,1.4.4.1.7.2,1.1.4.6.2,1.1.4,1.7.5.4.1.9.3,1.3.4,2,.6,4.1,1.2,6.1,1.7.7.2,1.4.4,2,.5.4.1.9.2,1.3.3.4.1.9.2,1.3.3.2,0,.4,0,.6.1.5.1.9.2,1.4.3,1.1.2,2.2.5,3.4.7.6.1,1.1.2,1.7.3.5,0,1,.2,1.5.3.7.1,1.4.2,2.1.3.5,0,1.1.2,1.6.2.4,0,.9.1,1.3.2.4,0,.9.1,1.3.2.4,0,.9,0,1.3.2.7,0,1.4.1,2.1.2.5,0,.9,0,1.4.1.5,0,1,0,1.5.1.4,0,.9,0,1.3,0,0,0,.2,0,.2,0,.5,0,.9,0,1.4,0,1,0,2,0,3,.1,2.1,0,4.1,0,6.2,0,.3-.2.6-.5.9-.7.6-.5,1.2-.9,1.7-1.4.9-.7,1.7-1.4,2.5-2.1l4-3.7c.3-.3.5-.5.8-.8,1-1,2-2.1,2.9-3.2.9-1.1,1.8-2.2,2.6-3.4.6-.9,1.2-1.8,1.8-2.7,1.7-2.8,3.1-5.8,4.2-9,0-.1-.2-.2-.2-.3ZM726.8,608.2c0,.5,0,1,0,1.5,0,.2,0,.5,0,.7,0,.2,0,.4,0,.7,0,0,0,.2,0,.3,0,.1,0,.2,0,.3,0,.1,0,.3-.1.4,0,0,0,.1,0,.2,0,.1,0,.3-.1.4,0,.1-.1.3-.2.4-.3.7-.8,1.3-1.4,1.7-.1,0-.3.2-.4.2-.1,0-.3.1-.4.2h0c0,0-.1,0-.2,0,0,0-.2,0-.2,0,0,0-.2,0-.2,0-.2,0-.3,0-.5.1-.2,0-.4,0-.6,0-.4,0-.7,0-1,0,0,0-.2,0-.3,0,0,0-.2,0-.3,0,0,0-.2,0-.2,0,0,0,0,0-.1,0,0,0,0,0-.1,0,0,0,0,0-.1,0,0,0-.1,0-.2,0,0,0,0,0,0,0,0,0-.1,0-.2-.1,0,0,0,0,0,0,0,0-.1,0-.2-.1,0,0-.1-.1-.2-.2,0,0,0-.1-.1-.2,0-.2-.2-.3-.3-.5,0,0,0-.1,0-.2,0,0,0-.2,0-.3,0,0,0,0,0,0,0,0,0-.2,0-.3,0,0,0-.2,0-.3,0-.3,0-.6-.1-.9,0-.2,0-.4,0-.6,0-.2,0-.4,0-.6,0,0,0-.2,0-.2,0-.2,0-.3,0-.5,0,0,0,0,0-.1,0-.5,0-1,0-1.5,0-.5,0-1-.1-1.5,0-.6-.1-1.2-.2-1.8,0-.6-.1-1.2-.2-1.8,0-.6-.2-1.2-.3-1.8-.1-.8-.3-1.7-.4-2.5,0-.4-.2-.8-.2-1.2,0-.4-.2-.8-.3-1.2,0-.3-.1-.6-.2-.8-.1-.5-.2-.9-.3-1.4-.1-.6-.3-1.2-.5-1.7-.2-.8-.4-1.6-.7-2.4-.1-.4-.2-.8-.4-1.2-.1-.5-.3-.9-.4-1.4-.1-.3-.2-.6-.3-.9,0,0,0,0,0-.1-.1-.4-.2-.7-.4-1.1-.1-.4-.3-.8-.4-1.2-.1-.4-.3-.8-.4-1.1-.3-.8-.6-1.5-.9-2.3,0-.2-.2-.4-.3-.6,0,0,0,0,0,0-.1-.3-.3-.6-.4-.9,0-.1-.1-.2-.2-.4-.2-.5-.4-1-.7-1.4,0,0,0,0,0,0-.2-.4-.4-.8-.6-1.2,0,0,0,0,0-.1,0-.2-.2-.4-.3-.6,0,0,0,0,0,0-.2-.4-.4-.8-.6-1.2-.2-.5-.5-.9-.7-1.4,0-.2-.2-.3-.2-.5-.8-1.4-1.5-2.8-2.4-4.3-.3-.5-.6-1-.9-1.5-.2-.3-.4-.6-.6-.9-.3-.5-.6-1-1-1.5-.4-.6-.7-1.1-1.1-1.7-.2-.4-.5-.7-.7-1.1-.1-.2-.2-.3-.3-.5-.2-.3-.4-.6-.6-1-.6-.9-1.3-1.9-1.9-2.8-.4-.6-1-1.3-1.6-2,0-.1-.2-.2-.3-.4-.1-.2-.3-.4-.4-.6,0,0,0-.1-.1-.2,0,0,0-.1-.1-.2,0,0,0-.1-.1-.2,0-.2-.2-.3-.3-.5,0-.1-.1-.3-.2-.4,0,0,0-.2,0-.2,0,0,0,0,0,0,0,0,0,0,0-.1,0,0,0,0,0,0,0,0,0-.2,0-.3,0,0,0,0,0,0,0,0,0-.1,0-.2,0,0,0,0,0,0,0,0,0,0,0,0,0-1,.3-2,1.5-2.9.3-.2.6-.4.9-.6,0,0,.1,0,.2,0,0,0,0,0,0,0,0,0,.2,0,.2,0,.3-.1.5-.2.8-.2,0,0,.2,0,.3,0,0,0,.1,0,.2,0,0,0,.1,0,.2,0,.3,0,.5,0,.8,0,.2,0,.4,0,.6,0,0,0,.2,0,.3,0,0,0,.2,0,.3,0,.1,0,.3,0,.4.1.1,0,.3.1.4.2.2.1.4.2.6.4.1,0,.2.1.3.2.2.1.3.2.5.3,0,0,.1,0,.2.1.1,0,.2.2.3.2,0,0,.1.1.2.2.1.1.3.2.4.3.3.3.6.6.9.9.1.1.2.3.4.4,0,0,.2.2.3.3,0,0,0,0,0,0,.2.2.4.5.6.7.4.5.8.9,1.2,1.4.4.5.8.9,1.1,1.4.4.5.7.9,1.1,1.4.4.5.7,1,1.1,1.4.4.5.7,1,1,1.5.3.4.5.7.8,1.1.1.2.3.4.4.6.1.2.2.4.4.6.3.5.6,1,1,1.5.3.5.6,1,.9,1.5.2.3.4.7.6,1,.1.2.3.5.4.7.3.4.5.9.7,1.3.1.3.3.5.4.8.3.5.5,1,.8,1.5.1.3.3.5.4.8.3.5.5,1,.8,1.6.2.4.4.8.5,1.2.1.3.3.6.4.9.2.4.3.7.5,1.1.1.3.2.5.3.8.1.3.2.5.3.8.2.5.4,1.1.6,1.6.3.8.6,1.6.9,2.5.2.6.4,1.1.5,1.7.3,1.1.7,2.2,1,3.4.2.6.3,1.1.4,1.7,0,.2.1.4.2.6,0,.2,0,.4.1.6,0,.4.2.9.3,1.3,0,.5.2.9.3,1.4,0,.1,0,.3,0,.4,0,.3,0,.5.1.8,0,.2,0,.3,0,.5,0,.4.1.8.2,1.3h0c0,.5.1,1,.2,1.4,0,.4,0,.7.1,1.1,0,.4,0,.7.1,1.1,0,.8.2,1.5.2,2.3,0,.2,0,.5,0,.8,0,.5,0,1,.1,1.5,0,.8,0,1.6,0,2.4,0,1,0,2.1,0,3.1Z"/>
    <path class="st7" d="M604.7,699.8c-4.1-.5-8.2-1.1-12.2-1.5-10.9-1.2-21.1-3.6-30.6-7.1-2-.8-4-1.5-5.9-2.4-.5-.2-1-.4-1.4-.6-1-.4-1.9-.9-2.9-1.4-11.9-5.8-22.6-13.5-32.2-23.1-1.2-1.2-2.3-2.3-3.4-3.5-.4-.4-.8-.8-1.1-1.2-.7-.8-1.5-1.6-2.2-2.5-1.1-1.3-2.2-2.5-3.2-3.8-1.4-1.7-2.8-3.5-4.2-5.4-1.2-1.7-2.4-3.4-3.6-5.1-.4-.6-.7-1.1-1.1-1.7-.5-.9-1.1-1.7-1.6-2.6-.7-1.2-1.4-2.3-2-3.5-.3-.6-.6-1.2-.9-1.8-.3-.6-.6-1.2-.9-1.8-.3-.6-.6-1.2-.9-1.8-.3-.6-.6-1.2-.9-1.8-3-6.6-5.4-13.4-7.5-20.3-.3-.9-.5-1.8-.8-2.8-.6-2.1-1.2-4.3-1.7-6.4-.3-1.3-.6-2.6-.9-3.9-.5-2-.9-4-1.3-6-31.9,23.4-37.1,72.8-11.1,104.5,33.6,40.9,103,45.1,142,8.6-2.4-.3-4.9-.6-7.3-.9Z"/>
    <path class="st7" d="M411.6,651.6c.2,0,.3,0,.5-.1-.4.1-.8.2-1.1.4.2,0,.5-.2.7-.2Z"/>
    <path class="st7" d="M450.6,671.7c-4.9-12.1-4.9-24.9-5.2-37.8-24.8,11.6-49.9,21.7-78,20.4,1.1.2,2.2.4,3.4.6-.8-.1-1.5-.2-2.2-.4-.4-.1-.7-.2-1.1-.2,22.2,19.2,48.2,26.9,77.1,25.9,5.9-.2,9-1.4,6.1-8.5ZM379.1,655.9c0,0-.2,0-.3,0-.3,0-.7,0-1,0-.5,0-1.1-.1-1.6-.1-.7-.1-1.4-.2-2.2-.3,1.6.2,3.2.4,4.7.5.4,0,.9,0,1.3.1-.4,0-.7,0-1,0ZM383.3,656.1c-.4,0-.8,0-1.2,0h-.7c-.3,0-.7,0-1,0,.5,0,1.1,0,1.6,0,.7,0,1.4,0,2,0h-.8ZM391.9,655.8c-.7,0-1.4,0-2,.1.7,0,1.4,0,2.2-.2,0,0-.1,0-.1,0ZM405.6,653.4c-.2,0-.5.1-.8.2.8-.2,1.6-.4,2.4-.7-.5.2-1.1.4-1.6.5ZM411,651.8c.2,0,.5-.2.7-.2.2,0,.3,0,.5-.1-.4.1-.8.2-1.1.4Z"/>
    <path class="st7" d="M411.6,651.6c.2,0,.3,0,.5-.1-.4.1-.8.2-1.1.4.2,0,.5-.2.7-.2Z"/>
    <path class="st15" d="M413,483.9c-6.7,10.5-8.8,22.2-9.2,34.2h0s0,0,0,0c-.3,0-.6.2-.8.3-.1,0-.2,0-.3.1-.1,0-.2,0-.3.1,0,0-.2,0-.3.1,0,0,0,0,0,0-.2,0-.4.2-.6.3-.2.1-.4.2-.6.3-.2.1-.4.2-.6.3,0,0,0,0,0,0-.4.2-.7.5-1.1.7-.2.1-.4.3-.6.4-.4.3-.7.5-1.1.8,0,0-.2.2-.3.2-.4.4-.9.7-1.3,1.1-.2.2-.5.4-.7.7-.2.2-.5.5-.7.7-.2.2-.4.5-.7.7-.3.3-.5.6-.8.9-.3.4-.6.8-.9,1.1-.2.2-.3.4-.5.6-.2.2-.3.4-.5.6-.2.2-.3.4-.5.6-1.2,1.6-2.4,3.3-3.6,4.9-.3.4-.5.7-.8,1.1-.4.5-.8,1-1.2,1.5-.3.3-.5.6-.8.9-.2.2-.3.4-.5.6-.2.2-.4.5-.7.7,0,0,0,0,0,0-.2.2-.4.4-.6.6-.2.2-.5.5-.7.7-1.4,1.4-2.8,2.8-4.1,4.2-.2.2-.3.4-.5.6-.7.8-1.4,1.6-2.1,2.3-.2.3-.4.5-.7.8-.4.4-.7.9-1.1,1.3,0,0,0,0-.1.1-.3.3-.6.7-.9,1,0,.1-.2.2-.3.3-.2.3-.4.5-.6.8-.2.2-.4.4-.5.7-.3.4-.6.8-.9,1.1-.6.8-1.2,1.5-1.8,2.3-.3.5-.7.9-1,1.4,0,0,0,0,0,.1-.3.4-.6.9-.9,1.3,0,0,0,0,0,0-.2.2-.3.4-.5.6-.5.7-1,1.5-1.5,2.2-.3.4-.5.8-.8,1.2-.8,1.2-1.6,2.5-2.3,3.8-.5.8-.9,1.6-1.4,2.5-.2.3-.4.7-.6,1-.2.3-.3.6-.4.8-.2.3-.3.6-.5.9-.2.3-.3.6-.5.9-.4.8-.8,1.7-1.2,2.5-.8,1.7-1.5,3.4-2.2,5.2-.4.9-.7,1.7-1,2.6-.2.5-.4,1-.6,1.5-.1.3-.2.7-.4,1,0,.2-.1.3-.2.5-.2.7-.5,1.4-.7,2,0,.3-.2.6-.3.9-.2.6-.3,1.1-.5,1.7,0,0,0,0,0,0,0,.2-.1.5-.2.7,0,.3-.2.7-.3,1-.2.9-.5,1.8-.7,2.8-.5,1.8-.9,3.7-1.2,5.6-.2.9-.3,1.9-.5,2.8,0,.4-.1.9-.2,1.3,0,.3,0,.6-.1.9,0,.4-.1.8-.2,1.2,0,0,0,0,0,.2,0,.4,0,.8-.1,1.1,0,.8-.2,1.6-.3,2.4,0,.3,0,.6,0,.9,0,.5,0,1-.1,1.4,0,.4,0,.8,0,1.2,0,.8,0,1.5-.1,2.3,0,.5,0,.9,0,1.4,0,.7,0,1.5,0,2.2,0,.3,0,.6,0,1,0,2,0,4.1,0,6.1-9.8-22.8-6.3-44.6,5.3-65.5,7.9-14.3,19-26.2,31.9-36.2,3.5-2.7,7-5.1,7.1-10.4.4-15.4,10.4-24,22.6-31.2Z"/>
    <path class="st15" d="M369.2,559c11.1-14,23-27.2,34.6-40.8-10.8,3.9-14.7,14.8-22.2,22.1-24.3,23.6-36.7,52.7-35.6,87,.6-1.6,1.7-3.2,1.9-4.9,2.4-22.7,6.6-44.9,21.2-63.3Z"/>
    <path class="st2" d="M745.3,601.6c0,8.9-.7,17.7-5.4,25.6,0-.5,0-1.1,0-1.6,0-.2,0-.5,0-.7,0-5.4.6-10.8,0-16.3,0-.6-.1-1.1-.2-1.7,0,0,0-.1,0-.2,0-.6-.2-1.2-.2-1.7,0,0,0,0,0-.1,0-.6-.2-1.1-.3-1.7,0,0,0-.1,0-.2,0-.5-.2-1.1-.3-1.6-.1-.6-.2-1.2-.3-1.7-.1-.5-.2-1.1-.3-1.6-.1-.5-.2-.9-.3-1.3,0-.3-.1-.5-.2-.7-.2-.9-.5-1.9-.7-2.8,0-.2-.1-.4-.2-.6-.1-.5-.3-1-.4-1.5-.1-.5-.3-1-.5-1.5,0,0,0,0,0-.1-.1-.4-.3-.9-.4-1.3-.2-.7-.5-1.3-.7-2-.2-.5-.3-.9-.5-1.4-.1-.4-.3-.7-.4-1.1-.2-.4-.3-.8-.5-1.2-.5-1.3-1.1-2.7-1.7-4-.2-.5-.5-1-.7-1.6-.2-.5-.5-1-.8-1.5-.1-.3-.3-.5-.4-.8-.5-1-1.1-2.1-1.6-3.1-.1-.2-.2-.4-.4-.7-.4-.7-.8-1.5-1.3-2.2-.4-.7-.9-1.5-1.3-2.2-.1-.2-.3-.5-.4-.7-.3-.5-.6-1-.9-1.4-.3-.5-.6-1-.9-1.4-.3-.5-.6-1-.9-1.4-.2-.2-.3-.5-.5-.7-.3-.5-.6-.9-1-1.4-.5-.7-1-1.4-1.5-2.1-.3-.5-.7-.9-1-1.4-.3-.4-.6-.8-.9-1.2,0-.1-.2-.2-.2-.3-.6-.9-1.3-1.7-1.9-2.5-.4-.5-.7-.9-1.1-1.3-.4-.4-.7-.9-1.1-1.3-.4-.4-.7-.9-1.1-1.3-.7-.9-1.5-1.8-2.2-2.6-.4-.4-.7-.9-1.1-1.3-.4-.4-.7-.9-1.1-1.3-.4-.4-.8-.9-1.1-1.3-.4-.4-.8-.9-1.1-1.3-3.1-3.4-6.2-6.8-9.4-10.2-.8-.8-1.6-1.7-2.4-2.5-3.6-3.8-7.2-7.5-10.8-11.3h0c-1-11.3-2.9-22.3-9.6-32,12,6.3,21.4,14.8,22.6,28.7.6,7,4.4,10.2,8.9,14.1,23.2,19.7,41.2,42.3,41.1,74.8Z"/>
    <path class="st2" d="M739.8,625.7c0,.5,0,1.1,0,1.6,0-.1-.2-.2-.2-.3,0,0,0-.2-.2-.2,0,0,0,0,0,0,0-.1-.2-.3-.2-.4,0-.2-.2-.3-.3-.5,0-.2-.2-.3-.3-.5h0c-.2-.4-.3-.7-.4-1.1-.2-.5-.4-1.1-.5-1.6,0-.1,0-.3-.1-.4-.3-1.2-.5-2.3-.6-3.5,0-.4,0-.8,0-1.1,0-.4,0-.8,0-1.1,0-.3,0-.7,0-1,0-2.2,0-4.4-.2-6.5,0-.4,0-.8-.1-1.1,0-.2,0-.5,0-.7-.2-1.7-.5-3.4-.8-5,0-.3-.1-.7-.2-1,0-.3-.1-.6-.2-.9,0-.3-.1-.6-.2-.8,0,0,0-.2,0-.3,0-.4-.2-.7-.2-1.1-.5-2.2-1.1-4.3-1.7-6.4-.4-1.2-.8-2.4-1.2-3.6-.1-.4-.3-.8-.4-1.2-.2-.4-.3-.9-.5-1.3,0,0,0-.2-.1-.3-.1-.3-.2-.6-.3-.9-.4-1.1-.9-2.2-1.3-3.2-.2-.5-.4-1-.7-1.6h0c-.2-.4-.3-.7-.5-1.1-.2-.4-.3-.7-.5-1.1-.2-.3-.3-.6-.5-1-.4-.7-.7-1.5-1.1-2.2-.2-.3-.3-.6-.5-.9-1.1-2.1-2.3-4.2-3.5-6.2-.2-.3-.4-.7-.6-1-.2-.3-.4-.7-.6-1-.3-.4-.6-.9-.8-1.3-.4-.5-.7-1.1-1.1-1.6-.3-.5-.7-1-1.1-1.5,0,0,0-.1-.2-.2-.4-.5-.8-1.1-1.2-1.6-.3-.5-.7-.9-1-1.4-.1-.2-.2-.3-.3-.5-.4-.5-.7-.9-1.1-1.4-.9-1.1-1.7-2.2-2.6-3.3-.4-.4-.7-.9-1.1-1.3-.8-.9-1.5-1.8-2.3-2.7-.2-.2-.3-.4-.5-.6-.7-.8-1.4-1.6-2.2-2.4-.3-.4-.7-.7-1-1.1-.5-.5-1-1.1-1.5-1.6-.4-.5-.9-.9-1.3-1.4-.9-.9-1.8-1.9-2.7-2.8,0,0,0,0,0,0-.9-1-1.8-1.9-2.7-2.9-.4-.5-.9-1-1.3-1.5-.4-.5-.9-1-1.3-1.5-.4-.5-.8-1-1.3-1.5,0,0,0,0,0,0-.4-.4-.7-.9-1.1-1.3-1.5-1.9-2.9-3.8-4.2-5.8-.3-.4-.5-.8-.8-1.2-.3-.4-.5-.8-.8-1.3-.2-.3-.3-.6-.5-.8-.2-.4-.4-.7-.6-1.1-.2-.4-.4-.7-.6-1.1-.4-.7-.8-1.5-1.2-2.2h0c3.6,3.8,7.2,7.6,10.8,11.3.8.8,1.6,1.7,2.4,2.5,3.2,3.4,6.3,6.8,9.4,10.2.4.4.8.9,1.1,1.3.4.4.8.9,1.1,1.3.4.4.8.9,1.1,1.3.4.4.7.9,1.1,1.3.7.9,1.5,1.8,2.2,2.6.4.4.7.9,1.1,1.3s.7.9,1.1,1.3c.4.4.7.9,1.1,1.3.7.8,1.3,1.7,1.9,2.5,0,.1.2.2.2.3.3.4.6.8.9,1.2.3.5.7.9,1,1.4.5.7,1,1.4,1.5,2.1.3.5.6.9,1,1.4.2.2.3.5.5.7.3.5.6.9.9,1.4.3.5.6,1,.9,1.4.3.5.6,1,.9,1.4.1.2.3.5.4.7.4.7.9,1.5,1.3,2.2.4.7.9,1.5,1.3,2.2.1.2.2.4.4.7.6,1,1.1,2.1,1.6,3.1.1.3.3.5.4.8.3.5.5,1,.8,1.5.2.5.5,1,.7,1.6.6,1.3,1.2,2.6,1.7,4,.2.4.3.8.5,1.2.1.4.3.7.4,1.1.2.5.4.9.5,1.4.2.7.5,1.3.7,2,.1.4.3.9.4,1.3,0,0,0,0,0,.1.2.5.3,1,.5,1.5.1.5.3,1,.4,1.5,0,.2.1.4.2.6.3.9.5,1.9.7,2.8,0,.2.1.5.2.7.1.4.2.9.3,1.3.1.5.2,1,.3,1.6.1.6.2,1.2.3,1.7,0,.5.2,1.1.3,1.6,0,0,0,.1,0,.2,0,.6.2,1.1.3,1.7,0,0,0,0,0,.1,0,.6.2,1.2.2,1.7,0,0,0,.1,0,.2,0,.6.1,1.1.2,1.7.6,5.5,0,10.9,0,16.3,0,.2,0,.5,0,.7Z"/>
    <path class="st13" d="M640.3,649.6c-.2,9.2-1.8,18.2-6.9,26.3,0-.4,0-.7,0-1.1,0-.2,0-.3,0-.5,0-.6.2-1.3.3-1.9,0-.2,0-.3.1-.5,0-.2,0-.3.1-.5.1-.4.2-.8.3-1.2,0-.2,0-.3.2-.5.2-.5.3-1,.5-1.5,0-.2.1-.4.2-.6,0-.2.1-.4.2-.7,0-.1,0-.2,0-.3,0-.1,0-.3,0-.4,0-.1,0-.3,0-.4,0-.1,0-.3,0-.4,0-.1,0-.3,0-.4,0,0,0-.2,0-.3,0-.1,0-.3,0-.4,0,0,0-.1,0-.2,0-.3,0-.7,0-1-1.8-24.6-11-46-25.8-65.5-.2-.2-.3-.4-.5-.7-.3-.4-.7-.9-1-1.3-.4-.4-.7-.9-1.1-1.3-.7-.8-1.5-1.7-2.2-2.5-.6-.6-1.1-1.2-1.7-1.8-.4-.4-.8-.8-1.2-1.2-1-1-1.9-2-2.9-3-.8-.8-1.6-1.6-2.4-2.4-.6-.6-1.2-1.2-1.7-1.8-.4-.4-.8-.8-1.2-1.2-.3-.3-.6-.6-.9-.9-.2-.2-.3-.4-.5-.6-1-1.1-2.1-2.3-3.1-3.5-.3-.3-.5-.6-.8-1-.1-.2-.3-.3-.4-.5-.1-.2-.3-.3-.4-.5-.3-.4-.7-.9-1-1.3-.3-.4-.7-.9-1-1.3-.3-.5-.6-.9-.9-1.4-.4-.5-.7-1.1-1-1.6-.1-.2-.2-.4-.3-.6-.2-.4-.4-.7-.7-1.1-.1-.2-.2-.4-.3-.6-.1-.2-.2-.4-.3-.6-.3-.7-.7-1.3-1-2-.1-.2-.2-.5-.3-.7,0-.2-.2-.4-.3-.6-.3-.6-.5-1.3-.8-2,0-.3-.2-.5-.3-.8h0c0-.2-.2-.5-.2-.7,0-.3-.2-.6-.3-.9,0-.2-.1-.4-.2-.6,0,0,0,0,0-.1,0-.2,0-.4-.1-.5,0-.2,0-.4-.1-.5,0-.3-.1-.5-.2-.8,0,0,0,0,0,0,0,0,0,0,0,0,0,0,0,0,0,0,0,0,0,0,0,0,0,0,0,0,0,0,0,0,0,0,0,0,0,0-.1,0-.2,0,0,0-.1,0-.2,0,0,0,0,0-.1,0,0,0-.1,0-.2,0,0,0-.2,0-.3,0,0,0,0,0-.2,0s-.1,0-.2,0c-.1,0-.2,0-.4,0-1.3-8.6-4.6-16.5-8.4-24.4,11.6,6.6,21.1,14.8,21.8,29.1.3,6.5,4.3,9.5,8.6,13.1,24.1,20.3,42.3,44,41.6,77.6Z"/>
    <path class="st13" d="M591.8,582.3c27.2,24.7,41.8,55.4,41.6,92.5.2-3.9,2.6-7.4,2.3-11.7-1.8-24.6-11-46-25.8-65.5-10.7-14.1-27.2-24-31.2-42.9-.1-.5-1.2-.6-2-.5,2.1,10.9,6.5,20.2,15.1,28.1Z"/>
    <path class="st7" d="M642.3,680.1c7.1-14,7.8-27.9,7.4-41.9,21.8,10.3,44.5,16.7,68.8,16.1-21.6,18.4-46.5,26.6-76.2,25.8Z"/>
    <path class="st1" d="M409.2,530.8c-.2-.3-.4-.7-.5-1.2,0,.1,0,.2.1.3,0,.2.1.3.2.5,0,.1.1.3.1.4Z"/>
    <path class="st1" d="M406.8,529.6c-.4-1.4-.7-2.9-1-4.3l1,4.3Z"/>
    <path class="st1" d="M409.2,530.8c-.2-.3-.4-.7-.5-1.2.1.4.3.8.5,1.2Z"/>
    <path class="st3" d="M544.6,562.7s0,0,0,0c0,.1,0,.1,0,0Z"/>
    <path class="st11" d="M622.6,654.4c-.8-22.1-8-39.9-20.6-55.4-2.6-3.2-5.8-9.9-11.1-5.6-4.4,3.6.6,8.1,3,11.4,10.3,14.6,18.8,29.7,18,48.5-.2,3.8.7,9.1,6.1,8.6,5.5-.5,4.6-5.7,4.7-7.6Z"/>
    <path class="st14" d="M390.4,548.4c-3.6-2.5-7,0-9.6,2.9-13.1,14.8-20.6,31.9-21.7,51.7,0,2.2,0,4.4,0,6.6,0,2.5-.3,5.7,3.2,6,3.6.3,5.3-2.3,5.5-5.6,1.1-20.1,9.1-37.5,21.1-53.3,1.9-2.5,5.5-5.5,1.4-8.3Z"/>
    <path class="st6" d="M705.3,551.4c-2.5-2.9-6.1-5.6-9.5-3-3.6,2.8.2,6,1.9,8.4,11.5,16.1,19.6,33.4,20.4,53.6.1,2.6.2,5.5,3.9,5.3,3-.2,4.5-2.4,4.7-5.2.2-2.5,0-5.1,0-7.7-1.1-19.6-8.6-36.6-21.5-51.4Z"/>
    <path class="st9" d="M900.8,387.6c-19.7-46.6-48-88.5-83.9-124.5-36-36-77.8-64.2-124.5-83.9-48.3-20.4-99.6-30.8-152.4-30.8s-104.1,10.4-152.4,30.8c-46.6,19.7-88.5,48-124.5,83.9-36,36-64.2,77.8-83.9,124.5-20.4,48.3-30.8,99.6-30.8,152.4s10.4,104.1,30.8,152.4c19.7,46.6,48,88.5,83.9,124.5,36,36,77.8,64.2,124.5,83.9,48.3,20.4,99.6,30.8,152.4,30.8s104.1-10.4,152.4-30.8c46.6-19.7,88.5-48,124.5-83.9,36-36,64.2-77.8,83.9-124.5,20.4-48.3,30.8-99.6,30.8-152.4s-10.4-104.1-30.8-152.4ZM540,921.2c-210.2,0-381.2-171-381.2-381.2s171-381.2,381.2-381.2,381.2,171,381.2,381.2-171,381.2-381.2,381.2Z"/>
    <path class="st9" d="M777.5,440.2c-12.9-30.5-31.4-57.9-54.9-81.5-23.5-23.5-50.9-42-81.5-54.9-31.6-13.4-65.2-20.1-99.8-20.1s-68.2,6.8-99.8,20.1c-30.5,12.9-57.9,31.4-81.5,54.9-23.5,23.5-42,50.9-54.9,81.5-13.4,31.6-20.1,65.2-20.1,99.8s6.8,68.2,20.1,99.8c12.9,30.5,31.4,57.9,54.9,81.5,23.5,23.5,50.9,42,81.5,54.9,31.6,13.4,65.2,20.1,99.8,20.1s68.2-6.8,99.8-20.1c30.5-12.9,57.9-31.4,81.5-54.9,23.5-23.5,42-50.9,54.9-81.5,13.4-31.6,20.1-65.2,20.1-99.8s-6.8-68.2-20.1-99.8ZM541.4,785.9c-135.6,0-245.9-110.3-245.9-245.9s110.3-245.9,245.9-245.9,245.9,110.3,245.9,245.9-110.3,245.9-245.9,245.9Z"/>
    <path class="st8" d="M437.4,516.2l-1.1.7-.5.3s0,0,0,0c.2-.1.3-.2.5-.3.4-.2.7-.5,1.1-.7Z"/>
    <path class="st9" d="M747.7,568.7c-7.3-16.9-17.9-31.5-31.7-43.4-6.9-5.9-12.5-11.8-13.5-21.5-.7-6.7-5.1-12.1-10-16.8-11.8-11.3-27.2-14.1-42-18.4-4.3-1.3-4.9,1.9-4.2,5.3,3.3,15.8-5,26.1-16.5,34.7-12.2,9.1-26.6,14.2-39.6,22-3.1,1.9-4.7.3-6.7-1.3-10.3-7.6-22.5-10.6-34.6-14-6.7-1.9-8.9-.7-7.6,6.4,2.2,12.7-4,21.9-13,29.9-3.9,3.5-6.2,3.5-9.5-1-6.2-8.4-14-14.8-22.7-20.1,59.2-30.9,118.4-61.8,177.6-92.8,12.2-6.4,17.9-17.1,16.3-30.3-1.6-12.8-11.2-23.6-23.9-26.3-3.4-.7-4.6-2.3-5.4-5.5-5-20.3-29.2-28.8-45.4-16-24.4,19.1-49.5,37.4-74.3,56-33.3,25-66.5,50-99.8,75-1.1-2.9-1.8-6-1.9-9.4-.4-13.4-.4-13.4-13.4-9.7-4.2,1.2-8.5,2.4-12.7,3.9-16.6,6.3-28.8,16.6-31.2,35.3-.6,5.1-3.9,7.6-7.3,10.4-15.4,13.1-27.9,28.3-36,47-15.6,35.9-6.9,70.8,23.9,94.9,22.9,17.8,49,27.4,78.1,25.8,12-.7,19.1,2.2,27,11.8,39.2,47.1,120,45.2,162.7-3.5,5.6-6.3,10.7-9.4,17.3-7.9,28.4-.1,57-10.5,77.8-27.8,28.9-24,37-58,22.1-92.7ZM671.2,403.9h0c4.8,6.6,1.9,15.8-5.6,19.7-48.8,25.2-97.3,50.7-146,76.1-13.8,7.2-27.7,14.4-41.5,21.6-2.5,1.3-5,2.6-7.6,3.9-14.8,7.7-29.5,15.3-44.3,23-1.7.9-3.5,3.1-5.1.2-1.4-2.4,1-3.3,2.5-4.2,12.6-8,25.3-15.9,37.9-23.9.9-.6,1.8-1.2,2.8-1.7h0c1.3-.8,2.6-1.6,3.9-2.5,52-32.9,104.1-65.8,156.1-98.7,9.5-6,19-12,28.5-18.1,7.5-4.7,13.8-3.2,18.5,4.5ZM453.7,501.6c57.1-43,114.1-85.9,171.2-128.9,4.1-3.1,8.4-4,12.9-1.5,4.2,2.3,7.1,5.6,7.1,10.4s0,1.3-.2,2c0,2.7-2.5,3-4,4-30.3,19.3-60.7,38.4-91.1,57.6-6.8,4.3-13.7,8.5-20.6,12.8h0c-24.5,15.5-48.9,31.1-73.4,46.6-.8.5-1.9,1.3-2.8,1.3-.6,0-1.2-.3-1.6-1.1,0-.1-.1-.3-.1-.4-.4-1.4,1.6-2,2.6-2.7ZM428.3,478.5c-2.7,14.6-1.2,27.4,7.4,38.6.2-.1.3-.2.5-.3-1.5-6.6-4.2-13.2-4.2-20.8l-.4-.2c.1,0,.3.1.4.1,0-2.7.4-5.5,1.2-8.5.8,2.4,1.7,4.7,2.7,6.8.8,1.6,1.6,3.1,2.5,4.6,2.2,3.7,4.8,7,7.7,9.9l-8.9,7.3-1.1.7c0,.4.2.8.3,1.3-.3-.3-.5-.6-.7-.9,0,0,0,0,0,0-7.9,4.9-15.4,9.5-22.7,14.2-.4.3-.9.6-1.3.9-.3-.9-.7-1.7-1-2.6-.1-.3-.3-.7-.4-1-.4-1.1-.8-2.1-1.2-3.2-.2-.6-.4-1.1-.7-1.7-.1-.4-.3-.8-.4-1.1-1.6-17.8,3.8-32.5,20.2-44.2ZM409.2,530.8c-.2-.3-.4-.7-.5-1.2,0,.1,0,.2.1.3,0,.2.1.3.2.5,0,.1.1.3.1.4ZM444.5,680.2c-28.9,1-54.9-6.7-77.1-25.9-9.5-7.1-17.5-15.5-21.4-27h0c-9.8-22.8-6.3-44.6,5.3-65.5,7.9-14.3,19-26.2,31.9-36.2,3.5-2.7,7-5.1,7.1-10.4.4-15.4,10.4-24,22.6-31.2-6.7,10.5-8.8,22.2-9.2,34.2.7,2.4,1.4,4.7,2.1,7.1l1,4.3h0c0,.4.2.6.2.9.1.3.2.6.3.9l.4.9.3.5c.3.6.7,1.2,1.1,1.8-.3.3-1.2,1.5-2.2,3.2-1.2,2-2.4,4.9-2.8,8.2-.2,2.4.1,4.8.9,7.3.7,2.3,1.9,4.4,3.4,6.2.6.7,1.4,1.5,2.2,2.2,0,0,.2.2.3.2,3.4,2.9,7.8,4.6,12.4,4.6,2.8,0,5.3-.8,7.8-2.1,3.7-2,7.5-3.9,11.2-5.9,0,0,0,0,0,0l38.5-20.1c.1,0,.2-.1.3-.2,2.5-1.3,5-2.6,7.5-3.9,3.5,1.9,6.8,4.1,9.8,6.8h0c21.5,16,21.4,17.6-1.7,28.7-1.6.8-3.3,1.4-5,2-25.6,13.2-40.2,34.5-46.5,62.1.3,12.8.3,25.7,5.2,37.8,2.9,7.1-.3,8.3-6.1,8.5ZM640.3,649.6c-.2,9.2-1.8,18.2-6.9,26.3-2,4.6-4.5,8.7-7.5,12.4-.4.5-.9,1.1-1.3,1.6-1.1,1.3-2.3,2.5-3.5,3.7-.5.5-1,.9-1.5,1.4l-2.7,2.3c-.3.2-.6.5-.9.7l-3.8,2.7h0c-39,36.5-108.3,32.4-142-8.6-26-31.7-20.8-81.1,11.1-104.5,6.8-6.5,15.4-10,23.6-14,26.7-13.3,29-15.2,43.4-38.8,2.4,8.7-.3,16.2-3,23.7t0,0c.7.7,1.3,1.4,1.9,2.1,7.2-13.3,8.3-20,5.3-36.8,22,16.9,25.2,36.9,15.4,60.4,2.5-2.6,4.3-5.4,5.5-8.2.1-.3.3-.6.4-.9.2-.6.5-1.2.7-1.8,0-.3.2-.5.3-.8.2-.8.5-1.6.7-2.5.5-2.2.8-4.5,1.4-12.7,0-1,0-2,0-3-1.3-8.6-4.6-16.5-8.4-24.4,11.6,6.6,21.1,14.8,21.8,29.1.3,6.5,4.3,9.5,8.6,13.1,24.1,20.3,42.3,44,41.6,77.6ZM739.9,627.2c-1.1,3.3-2.5,6.2-4.2,9-.6.9-1.2,1.8-1.8,2.7-.8,1.2-1.7,2.3-2.6,3.4-.9,1.1-1.9,2.2-2.9,3.2-.3.3-.5.5-.8.8l-4,3.7c-.8.7-1.7,1.4-2.5,2.1-.6.5-1.1.9-1.7,1.4-.3.2-.6.5-.9.7-21.6,18.3-46.5,26.6-76.2,25.8,7-14.1,7.8-27.9,7.4-42-5.4-28.7-19.9-52.4-42.6-70.2-10.2-8-7.4-20.3-14-29-1.7-2.3,2-3.3,3.7-4.3,5.5-3,11-5.9,16.6-8.6,22.5-10.9,27.7-15.7,39.5-37.1,2.6,9.8-.2,18.2-3,26.6,9.7-10.3,10.2-22.6,7.5-36.9,16.7,11,21.9,26,20.4,44,.7.9,1.5,1.7,2.2,2.6.7-3.1,1.5-6.1,2.2-9.2h0c-1-11.3-2.9-22.3-9.6-32,12,6.3,21.4,14.8,22.6,28.7.6,7,4.4,10.2,8.9,14.1,23.2,19.7,41.2,42.3,41.1,74.8,0,8.9-.7,17.7-5.4,25.6Z"/>
    <path class="st10" d="M442.4,558.4c-.4.3-17.6,15.6-31.4,3.4,3.4,2.9,7.8,4.6,12.4,4.6,2.8,0,5.3-.8,7.8-2.1,3.7-2,7.5-3.9,11.2-5.9Z"/>
    <path class="st16" d="M670.7,408.8c0,.3-.2.5-.3.8h0c-.1.3-.2.5-.3.8,0,.1-.1.2-.2.4-.1.2-.3.5-.4.7-.4.7-.9,1.3-1.5,1.9-.2.2-.4.3-.6.5-.8.6-1.7,1.1-2.8,1.4-7.6,1.8-13.5,6.8-20.2,10.2-21.4,10.8-42.4,22.3-63.8,33.1-21.3,10.7-41.9,22.8-63.4,33.1-14.7,7-28.6,15.5-43.2,22.7-.2,0-.3.2-.5.3,0,0-.1,0-.2,0,0,0-.2,0-.2.1,0,0-.2,0-.2.1-.1,0-.2.1-.3.2-.2.1-.3.2-.5.4-.7.5-1.4,1.1-2.2,1.7h0c-.1,0-.2.2-.3.2,0,0-.2.1-.3.2-.1,0-.3.2-.5.3-.1,0-.2.1-.3.2-.1,0-.3.1-.4.2-.2,0-.4.2-.6.3,0,0-.1,0-.2,0,0,0-.1,0-.2,0-.2,0-.3,0-.5.1,0,0-.2,0-.3,0-.1,0-.2,0-.3,0-.1,0-.2,0-.3,0-.5,0-.9,0-1.5-.2,1.3-.8,2.6-1.6,3.9-2.5,52-32.9,104.1-65.8,156.1-98.7,9.5-6,19-12,28.5-18.1,7.5-4.7,13.8-3.2,18.5,4.5h0s0,0,0,0h0c.2,1.6,0,3.3-.5,4.9Z"/>
    <path class="st0" d="M671.2,403.9c0,.2.1.3.2.5,0-.2-.1-.3-.2-.5.2,1.6,0,3.3-.5,4.9,0,.3-.2.5-.3.8h0c-.1.3-.2.5-.3.8,0,.1-.1.2-.2.4-.1.2-.3.5-.4.7-.4.7-.9,1.3-1.5,1.9-.2.2-.4.3-.6.5-.8.6-1.7,1.1-2.8,1.4-7.6,1.8-13.5,6.8-20.2,10.2-21.4,10.8-42.4,22.3-63.8,33.1-21.3,10.7-41.9,22.8-63.4,33.1-14.7,7-28.6,15.5-43.2,22.7-.1,0-.2.1-.3.2,0,0-.1,0-.2,0,0,0-.1,0-.2,0,0,0-.2,0-.2.1,0,0,0,0,0,0,0,0,0,0-.1,0-.1,0-.2.1-.3.2-.2.1-.3.2-.5.4-.7.5-1.4,1.1-2.2,1.7h0c-.1,0-.2.2-.3.2,0,0-.2.1-.3.2-.1,0-.3.2-.5.3-.1,0-.2.1-.3.2-.1,0-.3.1-.4.2-.2,0-.4.2-.6.3,0,0-.1,0-.2,0,0,0-.1,0-.2,0-.2,0-.3,0-.5.1,0,0-.2,0-.3,0-.1,0-.2,0-.3,0-.1,0-.2,0-.3,0-.5,0-.9,0-1.4-.2h0c-.9.6-1.8,1.2-2.8,1.7-12.6,8-25.3,15.9-37.9,23.9-1.5,1-3.8,1.8-2.5,4.2,1.6,2.9,3.5.7,5.1-.2,14.8-7.7,29.5-15.3,44.3-23,2.5-1.3,5.1-2.6,7.6-3.9,13.8-7.2,27.7-14.4,41.5-21.6,48.7-25.4,97.3-50.9,146-76.1,7.6-3.9,10.4-13.1,5.6-19.7Z"/>
    <path class="st12" d="M644.9,381.6c0,.6,0,1.3-.2,2l-6-5.1-.7-.3h0l-3.4-.6c-.4,0-.8,0-1.2,0-.4,0-.8.1-1.2.2,0,0,0,0,0,0,0,0-.2,0-.3,0,0,0,0,0,0,0-.1,0-.3,0-.4,0,0,0-.2,0-.2,0-.1,0-.2,0-.4.1,0,0-.2,0-.3,0-.1,0-.2,0-.4.1t0,0s0,0,0,0c0,0-.2,0-.3.1-.1,0-.2,0-.3.1,0,0,0,0,0,0,0,0,0,0,0,0-.1,0-.2.1-.4.2-.1,0-.2.1-.4.2-.3.1-.5.2-.8.4,0,0-.2,0-.3.1,0,0,0,0,0,0,0,0,0,0-.1,0,0,0,0,0,0,0,0,0,0,0,0,0,0,0,0,0-.1,0-.3.2-.5.3-.8.5-.2,0-.3.2-.5.3-.2.1-.4.2-.5.4-.1,0-.3.2-.4.3,0,0-.1,0-.2.1,0,0-.1,0-.2.1-.3.2-.6.5-.9.7-.3.2-.6.5-.9.7-.3.2-.6.5-.9.7-.2.1-.4.3-.6.4-.2.2-.4.3-.6.5-.4.3-.8.6-1.2,1-.3.3-.7.5-1,.8-.4.3-.8.7-1.2,1-.8.7-1.6,1.3-2.4,2-3.2,2.6-6.4,5.2-9.8,7.6-1.6,1.1-3.2,2.2-4.7,3.3-1.6,1.1-3.1,2.2-4.7,3.4-1.5,1.1-3.1,2.3-4.6,3.5-1.5,1.2-3.1,2.3-4.6,3.5-3.2,2.5-6.5,5-9.7,7.5-.9.7-1.8,1.4-2.7,2-.9.7-1.8,1.4-2.7,2-1.1.8-2.2,1.7-3.3,2.5-4.5,3.4-10.4,5.2-13.7,9.2-.5.6-1,1.1-1.5,1.6-.3.3-.5.5-.8.8-.2.2-.4.4-.6.6-.1.1-.3.3-.5.4,0,0-.2.2-.3.2-.1.1-.3.2-.4.4-1,.9-2.1,1.8-3.2,2.6-1.1.9-2.3,1.7-3.5,2.6-1.3.9-2.7,1.8-4,2.7-.4.3-.9.6-1.3.9-.7.5-1.4,1-2.1,1.5-.3.2-.7.5-1,.7-.3.2-.5.4-.8.6-.3.2-.5.4-.8.6-.1,0-.3.2-.4.3,0,0,0,0,0,0,0,0,0,0,0,0-.2.1-.3.3-.5.4-.3.3-.7.5-1,.8-.2.1-.3.3-.5.4-.2.1-.3.3-.5.4-.2.1-.3.3-.5.4-.3.3-.6.6-1,.9-.2.1-.3.3-.5.4-.5.4-.9.9-1.4,1.4-.1.1-.3.3-.5.4,0,0-.1,0-.2.1,0,0,0,0-.1,0,0,0,0,0-.1,0,0,0,0,0-.1.1s0,0,0,0c0,0,0,0,0,.1,0,0,0,0,0,0,0,0,0,0,0,.1,0,0,0,0,0,0,0,0,0,.2,0,.2,0,0,0,0,0,.1,0,0,0,0,0,.1,0,0,0,0,0,0,0,0,0,0,0,0,0,0,0,0,0,0,0,0,.1.1.2.2,0,0,0,0,.1,0,0,0,.1,0,.2,0,0,0,0,0,0,0,0,0,.1,0,.2,0,.5,0,1,.1,1.5.2-24.5,15.5-48.9,31.1-73.4,46.6-.8.5-1.9,1.3-2.8,1.3-.6,0-1.2-.3-1.6-1.1,0-.1-.1-.3-.1-.4-.4-1.4,1.6-2,2.6-2.7,57.1-43,114.1-85.9,171.2-128.9,4.1-3.1,8.4-4,12.9-1.5,4.2,2.3,7.1,5.6,7.1,10.4Z"/>
    <path class="st4" d="M644.8,383.6c0,2.7-2.5,3-4,4-30.3,19.3-60.7,38.4-91.1,57.6-6.8,4.3-13.7,8.5-20.6,12.8,0,0,0-.2,0-.3,0,0,0-.2,0-.3,0,0,0-.2,0-.3,0-.1,0-.2,0-.3,0-.2.1-.3.2-.5,0,0,0-.2.1-.2,0,0,0,0,0,0,0,0,0-.2.2-.3,0,0,0-.1,0-.2,0,0,0,0,0-.1,0,0,.1-.2.2-.3.2-.2.3-.4.5-.6,0,0,.2-.2.3-.3,0,0,0,0,0,0,0,0,.2-.2.3-.3.3-.3.7-.6,1-.8.2-.2.5-.4.7-.5.2-.2.5-.3.7-.5,3.8-2.9,7.5-5.9,11.2-8.8.6-.4,1.1-.9,1.7-1.3.6-.5,1.2-1,1.9-1.4,1-.8,2-1.5,3-2.3,0,0,0,0,0,0,2-1.5,4-3,6-4.4,1-.7,2-1.4,3-2.1,1-.7,2-1.4,2.9-2.1,3.7-2.7,7.3-5.4,10.9-8.1.7-.5,1.5-1.1,2.2-1.6,1.5-1.1,2.9-2.2,4.4-3.2.9-.6,1.7-1.3,2.6-1.9,1.7-1.3,3.5-2.5,5.3-3.8t0,0c1.8-1.3,3.5-2.5,5.3-3.8,1.8-1.3,3.5-2.5,5.3-3.8,1.3-1,2.6-1.9,3.9-2.9.8-.6,1.5-1.1,2.3-1.7.1,0,.2-.2.3-.2.6-.5,1.3-1,1.9-1.5.8-.6,1.5-1.2,2.2-1.7.7-.6,1.5-1.2,2.2-1.8,1.3-1,2.5-2,3.8-3.1.3-.3.6-.5.9-.8.9-.8,1.9-1.6,2.8-2.4.4-.3.8-.7,1.2-1,.4-.4.8-.7,1.3-1.1,7.4-6.6,14.6-8.2,22.7-1.8Z"/>
    <path class="st4" d="M624.8,381.7c-6.6,4.9-12.6,10.6-19.4,15.3-12.7,8.7-24.6,18.5-36.9,27.7-4.5,3.4-10.4,5.2-13.7,9.2-7.7,9-19,13.3-27,21.7-.5.6-1.8.8-1.1,1.8.4.5,1.5.4,2.3.6.2-2.9,2.8-4.3,4.5-5.6,7.9-6.1,15.7-12.5,23.8-18.2,7.9-5.6,15.6-11.5,23.4-17.2,14-10.2,28.4-20,41.3-31.5,7.4-6.6,14.6-8.2,22.7-1.8h0c-5.3-7.1-12.2-7.7-19.9-2Z"/>
    <path class="st9" d="M294.6,329.9c-.1.1-.2.2-.3.4.5.7.9,1.2,1,1.6,3.2,4.2,6.4,8.4,9.7,12.6,3.3,4.2,6.6,8.4,9.9,12.5.2.4.5.8.8,1.3.6.7,1.3,1.5,1.9,2.2.2.4.5.8.8,1.3,1.5,1.9,2,3.7,1.5,5.7-.5,1.9-1.2,3.4-1.9,4.5-.8,1.1-1.7,2.1-2.9,3.1-2.4,1.9-4.6,2.9-6.7,3-2.1,0-3.6,0-4.7-.4-1.2-.4-2.2-1.1-3-2-8.5-9-16.7-18.1-24.7-27-8.1-8.9-15.8-18.1-23.2-27.4-.8-1-1.6-2-2.3-3-.7-1-1.2-2.2-1.3-3.8-.3-3.7,1.3-7.4,4.8-11,.4-.4.8-.8,1.2-1.2,4.9-4.5,9.5-6.3,13.8-5.8,1.5.1,2.9.4,4.2.8,1.3.4,2.5.8,3.7,1.2,6.6,2.2,13,4.5,19.3,6.9,6.3,2.4,12.5,5,18.7,7.5.2.1.4.2.7.3.3,0,.6.2,1.1.3,0-.5,0-1.2,0-2-2.2-15.2-2.4-31.1-.5-47.2.3-1.5.6-2.9,1-4.2.4-1.4,1.1-2.8,2.1-4.4,1.3-2.5,3.4-4.7,6.3-6.5,1.6-1,3.5-1.8,5.8-2.5,2.8-.9,5.4-1.3,7.7-1.3,2.3,0,4,.7,5.3,2,.6.4,1.1.9,1.5,1.4.4.5.9,1.2,1.4,2.1.5.9,1,1.9,1.6,3.1,4.4,8,9.1,15.8,14,23.6,1.4,2.3,2.8,4.2,4.1,5.9,1.3,1.7,2.6,3.1,3.7,4.4.7.8,1.4,1.6,2.2,2.4,1.4,1.4,2.9,2.6,4.5,3.7,1.6,1.1,3.4,2,5.5,2.7,1.2.5,2.1,1.2,2.9,2,.6.7,1.1,1.8,1.5,3.3.4,1.5-.2,3.2-1.8,5.1-.8,1.2-1.9,2.2-3.3,3-.9.6-2.3,1.2-4.3,1.8-1.9.6-4.1.6-6.6,0-2.8-.7-5.4-1.5-7.7-2.7-2.3-1.1-4.4-2.4-6.3-3.8-2.1-1.4-4.1-2.8-5.9-4.4-.9-.8-2.1-2.1-3.7-3.8-1.6-1.7-3.6-3.9-6-6.5-.3-.5-.7-1-1-1.4-.4-.4-.8-.9-1.2-1.3,0,0-.2,0-.5.2,0,.4,0,1,0,1.9-.2,7.3,0,14.6.7,21.7.3,3.2,0,6.4-.7,9.9-.3,2-1,3.7-1.9,5.3-.7,1.3-1.7,2.6-2.9,3.7-.9.9-2.4,1.9-4.4,3.2-2,1.3-4.7,2-8.1,2.2-1.9.2-3.7.1-5.5-.1-1.7-.3-3.4-.7-4.9-1.2-5.1-1.6-10.2-3.2-15.3-4.8-.2-.1-.7-.2-1.4-.3Z"/>
    <path class="st9" d="M436,270.2c-.6-.6-1.1-1.2-1.5-2-.4-.7-.8-1.4-1.3-2-.9-2.2-1.6-4.5-2-6.8-.4-2.4-.6-4.7-.6-7.1-.1-6.7.6-13.3,2.3-19.9,1.7-6.6,4.5-13.3,8.6-20,1.2-2.3,2.9-4.5,4.8-6.7,2-2.2,4.4-4.3,7.2-6.1,4.5-3.1,9.6-5.2,15.1-6.2.4,0,.6-.1.8-.1,3-.5,5.9-.5,8.6.1.8.2,1.6.4,2.5.3,5.3,0,9.8.7,13.6,2.2,3.8,1.5,7,3.5,9.7,6,2.1,2.1,3.6,4.2,4.6,6.5.9,2.3,1.5,4.6,1.7,7,.4,4.1,0,8.1-1,11.9-1.1,3.9-2.7,7.7-4.9,11.6-2.9,5.2-6.3,10.1-10.2,14.8-3.9,4.6-8.4,9-13.5,13.2-4.3,3.7-8.9,6.7-14.2,8.8-1.5.5-2.9,1-4.3,1.4-1.3.3-2.9.6-4.9,1-2,.3-4.5.2-7.4-.2-3.1-.5-5.8-1.4-8-2.7-2.2-1.3-4.1-2.9-5.7-4.9ZM455,259.7c.1.3.3.7.5.9.2.3.4.6.5,1.1.7-.2,1.1-.3,1.2-.4,1-.5,2-1,2.9-1.5.9-.4,1.7-1,2.4-1.6,2-1.3,3.7-2.7,5.2-4.2,1.5-1.5,2.9-3.1,4.3-4.6,3-3.4,5.6-6.9,7.8-10.5,2.2-3.6,3.8-7.4,4.8-11.3.8-3.1,1-6.1.4-9-.2-1-.5-1.9-.8-2.9-.7-1.9-1.9-3.5-3.5-4.8-1-.8-2.5-1-4.3-.7-.2,0-.3,0-.5,0-.3.1-.8.3-1.5.4-.7.1-1.5.2-2.5.3-.2,0-.3,0-.5,0-1,.2-1.7.5-2.1.9-.7.8-1.3,1.5-1.8,2.1-.5.6-1.1,1.3-1.5,2.1-7.9,12-11.5,24.5-11.6,37,0,1.1,0,2.2.3,3.3.2,1.1.4,2.2.6,3.4Z"/>
    <path class="st9" d="M606.7,235.8c-.2,0-.3,0-.5,0-.5.6-.9,1.1-1.3,1.4-3.3,4-6.6,7.9-9.9,11.9-3.3,4-6.6,7.9-9.8,11.9-.3.3-.7.7-1.1,1.1-.6.7-1.1,1.5-1.7,2.2-.3.3-.7.7-1,1.1-1.5,1.8-3.2,2.9-5.3,3.2-2.1.3-3.8.5-5.1.3-1.3-.1-2.6-.4-3.9-.9-2.5-1-4.1-2.2-4.8-3.7-.6-1.4-.9-2.6-.8-3.5.1-1,.5-1.9,1.1-2.9,6.6-9.3,13.2-18.5,19.7-27.6,6.5-9.2,13.2-18.3,20.1-27.3.7-1,1.5-1.9,2.2-2.8.7-.9,1.8-1.8,3.3-2.5,3.5-1.8,7.6-2.2,12.2-1.3.5.1,1.1.2,1.6.3,5.9,1.5,9.3,3.9,10.2,7.1.4,1.1.6,2.2.6,3.3,0,1.1,0,2.1,0,3.1,0,5.6-.2,11.1-.6,16.6-.4,5.5-.9,11-1.5,16.4,0,.2-.1.4-.1.6,0,.2,0,.5,0,.9.6-.2,1.3-.5,2.1-.9,15.2-8,31.6-15,49.3-20.9,1.6-.5,3.3-.8,4.8-1.2,1.6-.3,3.4-.5,5.5-.4,3.2-.2,6.3.3,9.4,1.6,1.7.7,3.4,1.7,5.1,3.1,2.2,1.7,3.7,3.3,4.6,5,.9,1.7,1,3.3.2,4.7-.2.6-.5,1.2-.9,1.7-.4.5-.9,1.2-1.7,2-.7.8-1.7,1.6-2.7,2.6-6.7,6.8-13.4,13.6-20,20.5-1.9,2-3.5,3.8-4.9,5.5-1.3,1.7-2.5,3.2-3.4,4.5-.6.9-1.2,1.7-1.8,2.6-.9,1.6-1.7,3.2-2.3,4.8-.6,1.6-.9,3.3-.8,5.2-.1,1.1-.5,2.1-1.1,2.9-.6.8-1.6,1.6-3.1,2.5-1.5.9-3.7,1.1-6.5.8-1.7-.1-3.2-.5-4.7-1.1-1-.4-2.2-1.2-3.6-2.3-1.4-1.1-2.2-2.7-2.4-4.8-.3-2.3-.3-4.5.1-6.6.4-2.1,1-4.1,1.8-6.1.7-2.1,1.6-4.1,2.6-6.1.5-1,1.4-2.4,2.7-4.3,1.3-1.9,2.9-4.2,4.8-7,.4-.4.8-.9,1.1-1.3.3-.5.6-.9.9-1.4,0,0,0-.2-.4-.3-.4.1-1.1.4-2.1.9-8,3-15.6,6.2-23,9.7-3.3,1.6-6.9,2.8-10.7,3.6-2.2.6-4.3.9-6.2.8-1.7,0-3.3-.2-4.9-.6-1.2-.3-2.8-.9-4.8-1.8-2-.9-3.6-2.5-4.9-4.8-.8-1.3-1.3-2.6-1.6-3.9-.3-1.3-.4-2.6-.3-3.9.1-4.2.1-8.5.1-12.8,0-.2,0-.6-.2-1.1Z"/>
    <path class="st9" d="M726,314c.4-.7,1-1.3,1.7-1.9.7-.6,1.3-1.2,1.8-1.8,2.1-1.6,4.5-3,7-4.3,2.6-1.3,5.2-2.4,8.1-3.3,7.7-2.8,15.8-4.9,24.3-6.2,8.5-1.3,17.7-1.8,27.6-1.1,3.3.1,6.7.5,10.3,1.3,3.6.8,7.3,2,10.9,3.6,6,2.5,11.2,6.1,15.2,10.5.3.3.5.5.6.6,2.2,2.4,3.6,5,4.3,7.5.1.8.4,1.6.9,2.3,2.8,4.6,4.2,9,4.3,12.9.1,3.9-.7,7.6-2.5,11-1.5,2.7-3.4,4.8-5.7,6.5-2.3,1.6-5,3-7.8,4-4.9,1.8-9.9,2.9-15.2,3.2-5.3.4-10.8.2-16.6-.3-7.8-.7-15.4-2-22.8-3.7-7.4-1.7-14.8-3.9-22.1-6.7-6.5-2.2-12.1-4.9-17-8.3-1.3-1-2.5-2-3.6-3-1-.9-2.1-2.1-3.3-3.5-1.3-1.5-2.3-3.4-3-5.9-.8-2.6-1-5-.4-7.3.5-2.2,1.6-4.3,3.2-6.4ZM746.9,324.9c-.3.2-.6.5-.9.7-.2.3-.6.5-1,.8.5.5.9.7,1.1.8,1.1.6,2.1,1.2,3.1,1.7.9.5,1.9,1,3,1.3,2.4,1.1,4.9,2,7.4,2.6,2.5.7,5,1.3,7.5,1.8,5.5,1.2,11,2.1,16.4,2.6,5.4.5,10.7.5,16,0,4.2-.4,7.9-1.4,11.1-3,1.1-.5,2.1-1.1,3.1-1.8,1.9-1.3,3.3-2.9,4-4.8.4-1.2,0-2.5-1.3-4-.1-.1-.2-.3-.4-.4-.3-.2-.7-.6-1.2-1.1-.5-.5-1-1.2-1.6-2.1-.1-.1-.2-.3-.4-.4-.7-.8-1.4-1.3-2.2-1.5-1.3-.3-2.4-.5-3.4-.7-1-.2-2.1-.4-3.3-.5-18.3-2.1-34.8-.1-49.6,4.6-1.4.4-2.6.9-3.8,1.5-1.1.6-2.4,1.2-3.7,1.7Z"/>
    <path class="st9" d="M434,830.7c-.2.3-.4.5-.6.8,4.7,3.9,9.5,7.5,14.5,10.7.2,0,.3-.2.4-.4,0,0,.1-.2.2-.3,0-.1.2-.2.4-.3,1.8-2.3,3.5-4.6,5.3-7,1.8-2.3,3.5-4.6,5.2-6.9.8-.8,1.5-1.7,2.2-2.6.7-.9,1.5-1.7,2.5-2.4,1.1-.9,2.3-1.4,3.7-1.4,1.4,0,2.6.3,3.8.9,0,0,.2.1.3.2,1.2.7,2.2,1.7,2.8,2.9.6,1.3.8,2.6.6,4,0,.4-.2.8-.4,1.2-.2.4-.4.8-.6,1.2-.3.4-.6.8-.9,1.2-.6.8-1.1,1.6-1.7,2.4-.3.4-.6.7-.9,1.2-3,4.9-6,9.8-9,14.6-.1.2-.2.4-.3.6,2.4,1.7,3.9,3.5,4.4,5.5.3,1.4.2,2.6-.3,3.7,0,0,0,.2-.1.3-1,1.4-2.5,2.1-4.5,2.2-1.7.2-3.8-.2-6.1-1.5-.2.2-.5.5-.7.9-1,1.3-1.9,2.7-2.8,4-.9,1.3-1.8,2.6-2.8,3.9-.2.4-.6.9-1.2,1.4-1.2,1-2.8,1.5-4.7,1.2-1.9-.2-3.7-.8-5.4-1.9-.4-.3-.8-.5-1.2-.9-2-1.4-3.3-3-3.9-4.8-.6-1.8-.5-3.2.3-4.3,0-.1.1-.2.2-.3.6-.7,1.2-1.4,1.7-2,.5-.7,1.1-1.3,1.8-1.8.6-.7,1.2-1.5,1.8-2.2.6-.7,1.2-1.5,1.9-2.3.1-.2.2-.3.3-.5-.2-.2-1.2-.9-2.7-2.1-1.6-1.2-3-2.3-4.4-3.4-1.4-1.1-2.5-1.9-3.3-2.6-.9-.7-2-1.5-3.2-2.5-1.3-1-2.1-1.6-2.6-1.9,0,0,0,.1-.1.2-.1,0-.3.2-.4.2,0,0,0,.1-.1.2-1.2,1-2.4,2.1-3.8,3.1-2.5,2-5.1,3.9-7.7,5.8-1.2,1-2.5,2-3.9,3-1.3,1.1-3,1.4-5.2.7-2.1-.7-4.1-1.9-5.9-3.7-.3-.3-.6-.6-.8-.8-1.8-2.1-2.8-4.2-3-6.2-.2-2,.2-3.4,1.3-4.4.2-.2.3-.3.5-.5,2.3-1.4,4.6-2.8,6.8-4.3,2.3-1.5,4.6-2.9,7-4.4.2,0,.4-.2.5-.3.3-.2.6-.4.9-.6.2,0,.4-.2.5-.3-.3-.7-.6-1.1-.8-1.4-1-1.8-1.4-3.4-1.3-4.8,0-1.4.6-2.5,1.4-3.2.2-.1.3-.3.5-.4,1.2-.8,2.6-1,4.2-.7,1.6.3,3.1,1.1,4.6,2.3.9.8,1.5,1.1,1.6,1.1.1,0,.5-.3,1.3-.7,2.1-1.5,4.1-3,6.1-4.5,1.3-1,2.7-2.1,4-3.1,1.9-1.5,3.9-3.1,6-4.6,1.7-1.3,3.3-1.7,5-1.1,1.7.5,3,1.1,3.8,1.9.7.6,1.3,1.3,1.8,2.2.7,1.3,1.1,2.6,1,3.9,0,1.3-.5,2.3-1.2,3.2-.1.2-.3.4-.4.5-4.6,4.5-9.3,8.9-14.1,13.2Z"/>
    <path class="st9" d="M506.8,875.1c0-.5,0-.9,0-1.3,0-.2.1-.5.3-1,.1-.4.3-1,.4-1.7.9-4.3,2.2-8.5,3.7-12.5,1.5-4,3.5-7.9,5.9-11.8.7-1.4,1.8-2.8,3.1-4.1.6-.8,1.4-1.5,2.4-2,1.3-.8,2.6-1.1,4.1-.9.2,0,.7,0,1.5.2.9.1,1.8.7,3,1.8,1.1,1.1,1.7,2,1.8,2.8,0,.8,0,1.3,0,1.4,0,1.3-.6,2.4-1.6,3.4-.9.9-1.6,1.9-2,2.9-.8,1.6-1.5,3.2-2,4.8-.5,1.6-1.1,3.2-1.7,4.9-.7,2.5-1.2,4.7-1.6,6.6-.4,1.9-.6,3.6-.7,5,0,1.1-.1,2.3-.1,3.5,0,1.4.2,2.8.5,4.2.2,1.4.7,2.7,1.3,4,1,1.9,2.3,3.5,3.9,4.8,1.3,1.1,2.3,1.7,3,1.7.7,0,1.1,0,1.2,0,1.1,0,2.5-.3,4.1-1.1,1.1-.5,2.2-1.1,3-1.7.9-.6,1.7-1.3,2.5-2,1.5-1.5,2.8-3,3.9-4.5,1.1-1.5,2-3.2,2.9-4.9,4.1-8,6.2-16.6,6.7-25.4,0-1.1,0-2.2.1-3.3,0-1.1,0-2.3,0-3.4,0-1.4.5-2.6,1.5-3.6,1-1.1,2.3-1.8,3.8-2.2.2,0,.5,0,.6-.1,1.2-.2,2.4,0,3.7.4,1.3.4,2.4,1.2,3.1,2.4.2.3.3.6.5.9.1.2.2.5.3.7,0,.1,0,.3,0,.6.7,6,.7,12.1.1,18.2-.6,6.1-2.1,12.2-4.7,18.3-1.1,2.4-2.4,4.8-3.9,7.1-1.5,2.3-3.4,4.5-5.7,6.7-1.5,1.4-3.2,2.7-5.2,3.9-1.9,1.2-4.1,2.3-6.5,3.2-3.6,1.2-7.3,1.8-11.1,1.7-1,0-2.9-.2-5.7-.6-2.8-.4-6.1-1.8-9.7-4.3-2.6-1.8-4.6-3.7-6.1-5.7-1.5-2-2.7-4.2-3.4-6.5-.7-1.9-1.1-3.8-1.2-5.7-.1-1.9,0-3.8,0-5.7Z"/>
    <path class="st9" d="M650.7,829.8c0,.3-.2.7-.5,1.4,3.1-.9,5.9-1.4,8.3-1.4,3.8,0,6.8,1,8.9,3,1.4,1.4,2.4,3.4,2.9,6,.4,2.3.3,4.8-.4,7.5-.6,2.6-1.6,5.4-3,8.3-5.5,10.6-14.5,20.1-26.2,26.9-1,.6-1.7,1.2-2.2,1.9-1.2,1.7-2.8,3.1-4.6,4-1.3.7-2.6,1.1-4.1,1.3-3.7.8-6.2.2-7.4-1.9-.6-1-1.2-2.1-1.6-3.1-.5-1-.9-2.1-1.2-3.1-2.4-7.4-3.9-15.1-5-22.8-1.1-7.7-1.7-15.6-2.2-23.7-.2-1.9-.3-3.7-.4-5.6,0-1.8,0-3.7-.1-5.6-.1-1.9.2-3.2,1-4.2.8-.9,1.5-1.6,2.1-2.1.9-.6,1.8-1,2.9-1.3.3-.1.6-.3.8-.4.3-.2.5-.4.7-.6,1.1-1.4,2.2-2.6,3.2-3.6,1-1,2-1.9,2.8-2.6.6-.5,1.3-1,2-1.5,2-1.4,4-2.7,6.2-3.7,2.1-1,4.4-1.7,6.7-2,4.1-.5,7.4.2,10,2.5.7.6,1.3,1.3,1.9,2.1,1.1,1.5,1.8,3.2,2.2,5,.4,1.9.5,3.9.3,6.1,0,2.1-.4,4.3-1.1,6.5-.7,2.2-1.5,4.4-2.6,6.7ZM630.7,855.5c1.3,5.3,2.9,10.4,4.9,15.2.3-.2.6-.3.7-.4.2,0,.3-.1.4-.2.2-.1.3-.2.4-.4,4.7-3.1,8.6-6.7,11.8-10.7.9-1.2,1.7-2.4,2.5-3.6.7-1.2,1.4-2.5,1.8-3.8.9-2,1.1-3.7.8-5-.1-.5-.3-.9-.6-1.3-.6-.7-1.5-1-2.7-.8-1.5.3-3.1.7-4.6,1.4-2.3,1-4.6,2.3-7.2,3.9-1.2.6-2.3,1.3-3.5,2.1-.3.2-.8.6-1.6,1.1-.8.5-1.9,1.4-3.3,2.5ZM627.6,840.6c0,.2,0,.4.1.5.1.2.1.4,0,.7.4-.3.7-.5.7-.6,2.2-2.3,4.1-4.8,5.9-7.4,1.7-2.6,3.2-5.3,4.3-8,.5-1.3.9-2.6,1.3-3.9.3-1.3.5-2.6.5-3.9,0-1.3-.3-2.2-.6-2.9,0-.2-.2-.4-.3-.6-.4-.4-1-.6-1.9-.4-1.1.2-2.2.7-3.2,1.5-.7.5-1.3,1-1.9,1.5-2.8,2.4-4.9,5.2-6.3,8.5-.3.6-.4,1-.3,1.3,0,.8,0,1.6.2,2.4.1.8.2,1.6.4,2.4.2,1.4.4,2.9.6,4.3.3,1.5.4,2.9.6,4.5Z"/>
  </g>
</svg>