<?xml version="1.0" encoding="UTF-8"?>
<svg id="Layer_1" xmlns="http://www.w3.org/2000/svg" version="1.1" viewBox="0 0 1080 1080">
  <!-- Generator: Adobe Illustrator 29.3.0, SVG Export Plug-In . SVG Version: 2.1.0 Build 146)  -->
  <defs>
    <style>
      .st0 {
        fill: #939598;
        font-family: Helvetica-Bold, Helvetica;
        font-size: 24.2px;
        font-weight: 700;
      }

      .st1 {
        fill: #fff;
      }

      .st2 {
        fill: #ffd500;
      }
    </style>
  </defs>
  <rect class="st1" width="1080" height="1080"/>
  <g>
    <g>
      <path d="M656,498.7c4.1-26.5-9.5-42.3-35.7-43.8-14.3-.8-29.3.7-43.7,0-.6,0-1.7.2-1.9.8v103.8h21.6v-33.4h16.4c.3,0,1.1.6,1.4.9l20.7,32.5h24l-23.2-36.9c9-4.1,18.8-13.7,20.4-23.8ZM635.1,492.4c-.3,5.6-3.6,11.2-9.2,12.9-.6.2-4.1.9-4.5.9h-25.1v-30.2c6.7-.6,14.5-1,21.3-.6,11.1.7,18.2,4.8,17.5,17Z"/>
      <path d="M396.4,454.1c-29.5,0-53.3,23.9-53.3,53.3s23.9,53.3,53.3,53.3,53.3-23.9,53.3-53.3-23.9-53.3-53.3-53.3ZM394.4,540.6c-36.2-2.2-37.6-62.8-1.5-66.1,43.9-4.1,44.4,68.8,1.5,66.1Z"/>
      <path class="st2" d="M311.1,597c30.1-38.7,3.1-90-44.4-92.5-12.1-.6-26.1-.3-38.3,0-.8,0-3.5,1-3.5-.2v-25.6c-4.6-2.7-9.6-5.2-15.1-5.4v70.6h15.1v-23.5c0-.4,1.3-1,1.9-.8,25.8,1.6,53.4-6.7,72.3,15.7,14.6,17.3,11.7,43.8-5.4,58.2-23.6,19.8-60.5,7.9-67.1-22.1h-15.1c1.8,20.3,19.6,38.8,38.7,44.6,2,.6,8.4,2.3,10.1,2.3h56.3c-1.1-2.9-11-13.8-10.8-15.8,0-.4,4.6-4.4,5.4-5.5Z"/>
      <path d="M219.7,453.3c-45.8-11.7-85.3,34.3-66.5,77.8,9.5,21.9,29.7,33.2,53,34.3,13.4.6,27.3-.5,40.7,0v25.6c4.5,2.9,9.7,5.3,15.1,5.7v-70.6h-15.1v23.7h-46.1c-16,0-32.5-17.1-35.9-32-9.7-42.8,45.3-69.4,72.8-35.6,4,4.9,6.1,10.6,8.4,16.4h14.8c-2.6-21.5-20.5-39.9-41.3-45.2Z"/>
      <path d="M466.9,454.9v68.1c.6,44.7,67.9,52.7,82.2,12.7.8-2.2,3-10.3,3-12.1v-68.7h-21v65.5c0,.9-1.8,7.2-2.3,8.5-5,12.5-22.8,15-32.9,7.3-4.5-3.4-7.9-12.5-7.9-18v-63.3h-21Z"/>
      <path d="M917.8,471.4c-24-27.1-66.5-22.8-83.9,9-24.2,44.2,18,97.1,65.7,76.5,1.4-.6,8-4.4,8.5-4.4,2.3,0,8.1,7.6,10.3,9.1.7.1,4.1-3.5,4.8-4.3,2.9-3.2,5.4-6.8,8.4-10,0-1.5-7.9-7.8-9-9.7,3.2-7,6.9-13.9,7.8-21.7,1.8-17.2-1.1-31.6-12.6-44.6ZM909,510.2c0,1.5-1.6,11-2.2,11.6-.4.3-1.4-.2-1.9-.5-2.2-1.4-6-6.3-8.3-8.4-.8-.8-6.2-5.7-6.7-5.6l-13.2,15.8,15.6,14.9c-25.6,10.6-47.3-12.1-42.4-37.8,7.4-38.6,60.9-32.5,59.2,10.1Z"/>
      <path d="M725.4,454.9l-1.2.8,1.2,103.8h20.2v-42h40.4v42h20.5v-103.2c0,0,1-1.2-.3-1.3-.4,0-1.7.5-2.7.6-4.7,0-9.4.1-14.1,0-.8,0-3.5-1-3.5.2v40.4c0,.4-1.3,1-1.9.8h-37.2c-.5,0-1.4-.5-1.4-.8v-40.7l-20.2-.6Z"/>
    </g>
    <text class="st0" transform="translate(340.6 616.9)"><tspan x="0" y="0">OFFICE SPACE</tspan></text>
    <text class="st0" transform="translate(540.3 616.9)"><tspan x="0" y="0">COWORKING</tspan></text>
    <text class="st0" transform="translate(722.8 616.9)"><tspan x="0" y="0">MEETING ROOMS</tspan></text>
  </g>
</svg>