<?xml version="1.0" encoding="UTF-8"?>
<svg id="Layer_1" xmlns="http://www.w3.org/2000/svg" version="1.1" viewBox="0 0 1080 1080">
  <!-- Generator: Adobe Illustrator 29.3.0, SVG Export Plug-In . SVG Version: 2.1.0 Build 146)  -->
  <defs>
    <style>
      .st0 {
        fill: #4b008d;
      }

      .st1 {
        fill: #f6eeff;
      }
    </style>
  </defs>
  <rect class="st1" width="1080" height="1080"/>
  <g>
    <path class="st0" d="M208.7,434.8c137.3-190.9,197,185.7,32.8,210.4-26.6,12.2-20.6,38.3-27.8,58.5-3.2,43.3-57.2,39.3-56.6-.2-3.1-115.2-17.2-230.2-1.3-337,52.2-27.1,43.6,30.7,52.9,68.3ZM293.8,519.5c-13-242.3-112,56.9-58.8,75.1,37.9-7.5,47.5-39.1,58.8-75.1Z"/>
    <path class="st0" d="M799.6,434.8c137.3-190.9,197,185.7,32.8,210.4-26.6,12.2-20.6,38.3-27.8,58.5-3.2,43.3-57.2,39.3-56.6-.2-3.1-115.2-17.2-230.2-1.3-337,52.2-27.1,43.6,30.7,52.9,68.3ZM884.7,519.5c-13-242.3-112,56.9-58.8,75.1,37.9-7.5,47.5-39.1,58.8-75.1Z"/>
    <path class="st0" d="M538.7,510.3c5.5,63.6-2.6,120.4-21.5,176.1-9.7,28.6-29.2,42.9-57.2,47.4-28,4.5-43.8-12.4-61.2-32-32.8-36.8-26.5-82.5-33.2-124.8-9.1-57.3-10.1-115.2,2-172.6,3.6-17.2,6.2-36.7,30.6-35.2,28.5,1.8,25.2,24.2,25.7,43.2,1.9,70-6.9,140.6,11,209.8,3.9,15.1,4.6,35.3,23.8,36.6,23.1,1.6,19.9-22.1,22-35.4,10.5-67.4,18.6-135.2,27.6-202.8,1.3-9.9-.6-23.9,14.1-23.5,12.4.3,16.2,12.6,16.4,23.3.6,31.6.2,63.2.2,89.9Z"/>
    <path class="st0" d="M730.1,720.1c-37.3,17.7-76.3,16.7-115.7,10.2-40.8-69.5-38.2-147.7-39.5-223.4-.6-35.7,6.6-72.7,7.4-109.4.5-22.1-1.1-52.6,29.2-52.1,28.7.5,22.8,30.3,23.3,50.2,1.9,73.3-1.5,146.7,9.9,219.9,6.1,39.1,9.5,73.7,60.3,75.3,16.3.5,22.9,14.2,25.2,29.3Z"/>
  </g>
</svg>