<?xml version="1.0" encoding="UTF-8"?>
<svg id="Layer_1" xmlns="http://www.w3.org/2000/svg" version="1.1" viewBox="0 0 1080 1080">
  <!-- Generator: Adobe Illustrator 29.3.0, SVG Export Plug-In . SVG Version: 2.1.0 Build 146)  -->
  <defs>
    <style>
      .st0 {
        fill: #1dbcff;
      }

      .st1 {
        fill: #00315e;
      }
    </style>
  </defs>
  <rect class="st1" x="0" width="1080" height="1080"/>
  <path class="st0" d="M703.9,252.3c-92.8,54-185.6,108.1-278.4,162.1-16.5,23.1-32.9,46.1-49.4,69.2v344.1c56.7-32.2,113.3-64.3,170-96.5l131.3,90.1-46.3-141.2,72.8-43.8V252.3ZM474.3,538.1c22.4-29.2,44.7-58.5,67.1-87.7,25.9,11.7,51.8,23.3,77.6,35,.7,34.3,1.4,68.5,2.1,102.8-11.5,6.7-22.9,13.4-34.4,20.1-8-3.6-16.8-5.7-26.1-5.7-33.2,0-60.4,25.5-63.1,58-7.8,4.6-15.5,9.1-23.3,13.7v-136.1Z"/>
</svg>