<?xml version="1.0" encoding="UTF-8"?>
<svg id="Layer_1" xmlns="http://www.w3.org/2000/svg" version="1.1" viewBox="0 0 1080 1080">
  <!-- Generator: Adobe Illustrator 29.3.0, SVG Export Plug-In . SVG Version: 2.1.0 Build 146)  -->
  <defs>
    <style>
      .st0 {
        fill: #fff;
      }

      .st1 {
        fill: #002d2e;
      }

      .st2 {
        fill: #00f767;
      }
    </style>
  </defs>
  <rect class="st1" width="1080" height="1080"/>
  <g>
    <g>
      <path class="st2" d="M181.7,619.3c-7.5,0-14.2-1.3-20.2-3.9-6-2.6-11-6.5-14.9-11.5l11.9-10.2c3.4,4,7.1,6.8,11.1,8.6,4,1.8,8.6,2.6,13.7,2.6s3.9-.3,5.7-.8c1.8-.5,3.3-1.3,4.6-2.3,1.3-1,2.3-2.2,3-3.7.7-1.4,1-3,1-4.7,0-2.9-1.1-5.3-3.2-7.1-1.1-.8-2.9-1.7-5.4-2.6-2.4-1-5.6-2-9.4-3-6.6-1.7-11.9-3.6-16.1-5.8-4.2-2.1-7.4-4.6-9.7-7.3-1.7-2.1-2.9-4.5-3.7-7-.8-2.5-1.2-5.3-1.2-8.4s.8-7.2,2.5-10.3c1.6-3.1,3.9-5.8,6.8-8.2,2.9-2.3,6.3-4.1,10.2-5.3,3.9-1.2,8.1-1.9,12.5-1.9s8.3.6,12.5,1.7c4.1,1.1,8,2.8,11.5,4.9,3.5,2.2,6.5,4.7,8.8,7.6l-10,11c-2.2-2.1-4.5-4-7-5.7-2.5-1.6-5.1-2.9-7.7-3.8-2.6-.9-5-1.4-7.1-1.4s-4.5.2-6.5.7c-1.9.5-3.5,1.1-4.8,2-1.3.9-2.3,2-3,3.4-.7,1.4-1,2.9-1,4.6.1,1.5.5,2.9,1.1,4.2.6,1.3,1.5,2.4,2.6,3.3,1.2.9,3.1,1.9,5.6,2.9,2.5,1,5.7,2,9.5,2.9,5.7,1.5,10.3,3.1,14,4.8,3.7,1.8,6.6,3.8,8.7,6,2.3,2.2,3.8,4.6,4.8,7.5.9,2.8,1.4,6,1.4,9.5,0,5.1-1.4,9.7-4.3,13.7-2.9,4-6.8,7.2-11.6,9.4-4.9,2.3-10.3,3.4-16.3,3.4Z"/>
      <path class="st2" d="M259.1,619.3c-7.4,0-14.1-2-20.1-6.1-6.1-4.1-10.9-9.6-14.5-16.6-3.6-7-5.4-14.9-5.4-23.8s1.8-16.9,5.5-23.9c3.7-7,8.7-12.4,14.9-16.4,6.3-4,13.3-5.9,21.1-5.9s8.9.7,12.7,2c3.8,1.4,7.2,3.3,10.1,5.7,2.9,2.4,5.3,5.2,7.1,8.4,1.9,3.2,3,6.6,3.5,10.2l-3.9-1.4v-23.1h17.7v89.2h-17.7v-21.2l4.1-1.2c-.7,3.1-2.1,6-4.2,8.9-2.1,2.9-4.8,5.5-8,7.7-3.2,2.3-6.8,4.1-10.7,5.4-3.9,1.4-8,2-12.3,2ZM263.7,603.1c5.3,0,10-1.3,14.1-3.9,4.1-2.6,7.3-6.2,9.6-10.8,2.3-4.6,3.5-9.8,3.5-15.7s-1.2-10.9-3.5-15.5c-2.3-4.5-5.5-8.1-9.6-10.7-4.1-2.6-8.8-3.9-14.1-3.9s-9.8,1.3-13.8,3.9c-4,2.6-7.2,6.2-9.5,10.7-2.3,4.5-3.5,9.7-3.5,15.5s1.2,11.1,3.5,15.7c2.3,4.6,5.5,8.2,9.5,10.8,4,2.6,8.6,3.9,13.8,3.9Z"/>
      <path class="st2" d="M324.2,617.6v-125.7h17.5v125.7h-17.5Z"/>
      <path class="st2" d="M390.6,619.3c-7.4,0-14.1-2-20.1-6.1-6.1-4.1-10.9-9.6-14.5-16.6-3.6-7-5.4-14.9-5.4-23.8s1.8-16.9,5.5-23.9c3.7-7,8.7-12.4,14.9-16.4,6.3-4,13.3-5.9,21.1-5.9s8.9.7,12.7,2c3.8,1.4,7.2,3.3,10.1,5.7,2.9,2.4,5.3,5.2,7.1,8.4,1.9,3.2,3,6.6,3.5,10.2l-3.9-1.4v-23.1h17.7v89.2h-17.7v-21.2l4.1-1.2c-.7,3.1-2.1,6-4.2,8.9-2.1,2.9-4.8,5.5-8,7.7-3.2,2.3-6.8,4.1-10.7,5.4-3.9,1.4-8,2-12.3,2ZM395.1,603.1c5.3,0,10-1.3,14.1-3.9,4.1-2.6,7.3-6.2,9.6-10.8,2.3-4.6,3.5-9.8,3.5-15.7s-1.2-10.9-3.5-15.5c-2.3-4.5-5.5-8.1-9.6-10.7-4.1-2.6-8.8-3.9-14.1-3.9s-9.8,1.3-13.8,3.9c-4,2.6-7.2,6.2-9.5,10.7-2.3,4.5-3.5,9.7-3.5,15.5s1.2,11.1,3.5,15.7c2.3,4.6,5.5,8.2,9.5,10.8,4,2.6,8.6,3.9,13.8,3.9Z"/>
      <path class="st2" d="M492.5,619.3c-8.2,0-15.4-2-21.8-6-6.4-4-11.5-9.5-15.2-16.5-3.7-7-5.6-14.9-5.6-23.9s1.8-16.9,5.5-23.9c3.7-7,8.7-12.5,15-16.5,6.3-4,13.5-6,21.6-6s8.7.7,12.8,2.1c4.1,1.4,7.8,3.3,11.1,5.8,3.3,2.4,5.9,5.1,7.7,8,1.9,2.9,2.8,5.8,2.8,8.7l-5.1.3v-59.6h17.5v125.7h-17.5v-21.2h3.4c0,2.7-.9,5.4-2.7,8.1-1.8,2.7-4.2,5.1-7.2,7.4-3,2.3-6.5,4.1-10.4,5.4-3.9,1.4-7.9,2-12,2ZM494.8,604.2c5.3,0,10-1.4,14.1-4.1,4.1-2.7,7.3-6.4,9.6-11.1,2.3-4.7,3.5-10,3.5-16s-1.2-11.3-3.5-16c-2.3-4.7-5.5-8.4-9.6-11.1-4.1-2.7-8.8-4.1-14.1-4.1s-10,1.4-14.1,4.1c-4.1,2.7-7.3,6.4-9.6,11.1-2.3,4.7-3.5,10-3.5,16s1.2,11.4,3.5,16c2.3,4.7,5.5,8.4,9.6,11.1,4.1,2.7,8.8,4.1,14.1,4.1Z"/>
      <path class="st2" d="M631.4,619.3c-8.3,0-15.7-2-22.2-6.1-6.5-4.1-11.7-9.6-15.5-16.6-3.8-7-5.7-14.9-5.7-23.6s1.9-16.6,5.7-23.6c3.8-7,8.9-12.6,15.5-16.6,6.5-4.1,13.9-6.1,22.2-6.1s15.1,1.6,21.7,4.8c6.5,3.2,11.5,7.6,14.9,13.2l-9.7,11.9c-1.8-2.6-4.1-5-7-7.1-2.8-2.1-5.8-3.8-9-5.1-3.2-1.2-6.2-1.9-9.2-1.9-5.4,0-10.3,1.3-14.5,4-4.2,2.7-7.6,6.3-10.1,11-2.5,4.6-3.7,9.9-3.7,15.6s1.3,11,3.9,15.5c2.6,4.6,6.1,8.2,10.4,11,4.3,2.7,9.1,4.1,14.3,4.1s6-.5,8.9-1.5c2.9-1,5.7-2.5,8.4-4.6,2.7-2,5.3-4.5,7.6-7.5l9.7,11.9c-3.6,5.1-8.8,9.3-15.5,12.6-6.7,3.3-13.7,4.9-21,4.9Z"/>
      <path class="st2" d="M676.2,617.6v-125.7h17.5v125.7h-17.5Z"/>
      <path class="st2" d="M740.4,619.3c-6.3,0-11.9-1.5-16.6-4.4-4.7-2.9-8.3-7.1-10.9-12.4-2.5-5.3-3.8-11.7-3.8-19v-55h17.5v50.3c0,5.2.8,9.7,2.5,13.5,1.6,3.8,4,6.7,7.1,8.7,3.1,2,6.9,3.1,11.3,3.1s6.3-.5,9-1.6c2.7-1.1,5.1-2.6,7-4.5,2-1.9,3.5-4.2,4.7-7,1.1-2.7,1.7-5.7,1.7-8.8v-53.7h17.5v89.2h-17.5v-18.7l3.1-2c-1.4,4.2-3.7,8-6.9,11.4-3.2,3.4-7,6.1-11.5,8.1-4.4,2-9.2,3-14.3,3Z"/>
      <path class="st2" d="M850.3,619.3c-3.9,0-7.7-.6-11.5-1.9-3.8-1.2-7.2-2.9-10.4-5-3.1-2.1-5.7-4.4-7.8-7-2.1-2.5-3.5-5.1-4.2-7.7l4.4-2.4v21.7h-17.5v-125.2h17.5v56.9l-2.7-1.5c.6-2.6,1.8-5.1,3.7-7.6,1.9-2.4,4.4-4.6,7.4-6.6,3-2,6.3-3.6,9.8-4.8,3.5-1.2,7.1-1.8,10.7-1.8,8,0,15.2,2,21.4,5.9,6.2,4,11.2,9.4,14.8,16.4,3.6,7,5.4,14.9,5.4,23.9s-1.8,16.9-5.3,23.9c-3.6,7-8.5,12.5-14.7,16.6-6.2,4-13.2,6-21.1,6ZM847.4,603.3c5.2,0,9.9-1.3,13.9-4,4.1-2.7,7.3-6.3,9.7-10.9,2.4-4.6,3.6-9.8,3.6-15.7s-1.2-11-3.5-15.5c-2.3-4.6-5.5-8.2-9.6-10.8-4.1-2.6-8.8-3.9-14.1-3.9s-10,1.3-14.1,3.9c-4.1,2.6-7.3,6.2-9.7,10.8-2.4,4.6-3.6,9.8-3.6,15.5s1.2,11.1,3.6,15.7c2.4,4.6,5.6,8.2,9.7,10.9,4.1,2.7,8.8,4,14.1,4Z"/>
    </g>
    <circle class="st0" cx="919" cy="604.8" r="14.5"/>
    <g id="eb2A6C.tif">
      <path class="st2" d="M762.8,482.4c.4,0,.3.8.2,1-2.1,10-9.9,21.5-17.4,28.3-.8.7-2.7,1.4-.6,2.1,7.2,2.2,16.8-.6,21.5-6.4,9.7-11.8,7.5-29.4,1.8-42.5-.4-.9-1.3-3.2-1.8-3.7s-.4-.5-.8-.3-3.8,5.2-4.5,6.1c-4.5,5.1-8.5,7-14,10.5-10.2,6.5-15.4,17.1-10.2,28.9,1.1,2.5,4,4.7.9,7.1s-2.3.8-2.8,1.5c-.8,1.3-.7,3.6,1.3,3.5s2.8-3.1,4-4.3c1.5-1.5,3.6-2.8,5.3-4.2,8-7.2,13.5-17.4,16.9-27.5Z"/>
    </g>
  </g>
</svg>