<?xml version="1.0" encoding="UTF-8"?>
<svg id="Layer_1" xmlns="http://www.w3.org/2000/svg" xmlns:xlink="http://www.w3.org/1999/xlink" version="1.1" viewBox="0 0 1080 1080">
  <!-- Generator: Adobe Illustrator 29.3.0, SVG Export Plug-In . SVG Version: 2.1.0 Build 146)  -->
  <defs>
    <style>
      .st0 {
        fill: none;
      }

      .st1 {
        fill: url(#linear-gradient2);
      }

      .st2 {
        fill: url(#linear-gradient1);
      }

      .st3 {
        fill: url(#linear-gradient9);
      }

      .st4 {
        fill: url(#linear-gradient3);
      }

      .st5 {
        fill: url(#linear-gradient6);
      }

      .st6 {
        fill: url(#linear-gradient8);
      }

      .st7 {
        fill: url(#linear-gradient7);
      }

      .st8 {
        fill: url(#linear-gradient5);
      }

      .st9 {
        fill: url(#linear-gradient4);
      }

      .st10 {
        fill: url(#linear-gradient11);
      }

      .st11 {
        fill: url(#linear-gradient10);
      }

      .st12 {
        fill: #248332;
      }

      .st13 {
        fill: #1a1818;
      }

      .st14 {
        fill: url(#linear-gradient);
      }

      .st15 {
        clip-path: url(#clippath-11);
      }

      .st16 {
        clip-path: url(#clippath-10);
      }

      .st17 {
        clip-path: url(#clippath-13);
      }

      .st18 {
        clip-path: url(#clippath-14);
      }

      .st19 {
        clip-path: url(#clippath-12);
      }

      .st20 {
        clip-path: url(#clippath-1);
      }

      .st21 {
        clip-path: url(#clippath-3);
      }

      .st22 {
        clip-path: url(#clippath-4);
      }

      .st23 {
        clip-path: url(#clippath-2);
      }

      .st24 {
        clip-path: url(#clippath-7);
      }

      .st25 {
        clip-path: url(#clippath-6);
      }

      .st26 {
        clip-path: url(#clippath-9);
      }

      .st27 {
        clip-path: url(#clippath-8);
      }

      .st28 {
        clip-path: url(#clippath-5);
      }

      .st29 {
        fill: #fff;
      }

      .st30 {
        fill: #fff0d6;
      }

      .st31 {
        fill: #9c6d1e;
      }

      .st32 {
        clip-path: url(#clippath);
      }
    </style>
    <clipPath id="clippath">
      <rect class="st0" x="148.4" y="148.4" width="783.2" height="783.2"/>
    </clipPath>
    <clipPath id="clippath-1">
      <rect class="st0" x="175.6" y="258.8" width="728.8" height="562.5"/>
    </clipPath>
    <linearGradient id="linear-gradient" x1="1.1" y1="1080.5" x2="1.1" y2="1080.5" gradientTransform="translate(-959.8 833750.2) scale(1000.5 -771.1)" gradientUnits="userSpaceOnUse">
      <stop offset="0" stop-color="#b67c1c"/>
      <stop offset=".2" stop-color="#b67c1c"/>
      <stop offset=".4" stop-color="#f1d27e"/>
      <stop offset=".5" stop-color="#f2d480"/>
      <stop offset=".6" stop-color="#fff8c3"/>
      <stop offset=".6" stop-color="#fbeeb1"/>
      <stop offset=".7" stop-color="#f1d584"/>
      <stop offset=".7" stop-color="#eecb72"/>
      <stop offset=".8" stop-color="#e4b451"/>
      <stop offset=".9" stop-color="#e3b14c"/>
      <stop offset="1" stop-color="#e3b14c"/>
    </linearGradient>
    <clipPath id="clippath-2">
      <path class="st0" d="M606.9,350.7c-3.9,2.5-7.3,4.8-11.7,1.8.9,0,1.8.1,2.7.4,1.1.4,2.2.5,3.4.3.7-.1,1.5-1.3,1.6-1.3,1.3-.4,2.7-1.3,4-1.1M593.8,346c.2.3,3.6,3.4,3.8,3.6,1.6,1,4.2.8,5.2,2.2-4.5-.7-7-1.8-9-5.8M481.9,352.1l1.6-7.4c.4,3.6-.7,10-4.5,11.2l2.9-3.8ZM548.6,344.6l4.5,3.1c5.9,2.9,12.4,1.9,18.7,2.5-2.3.1-4.8.3-7.3.3-6.1,0-12.2-1-15.9-5.9M591.8,344.6c1.3,3.9,1.1,7.6,4,10.8-3.7-1.8-4.3-7.1-4-10.8M503.5,350.3c8.5-.3,17,.4,23.6-6.1l-2.7,3.1c-4.3,2.6-9,3.2-13.9,3.2s-4.7-.2-7-.3M490.6,341c6.9,8,14.4,12.8,25.4,11-1.8.5-3.7.8-5.6.8-8.2,0-15.8-4.6-19.8-11.8M584.2,341c1.1.5-.3,1.9-.7,2.5-5,6.9-15.6,11.2-23.8,8.5,1.3.2,2.7.3,4,.3,8.3,0,15.8-4.1,20.5-11.3M477.6,346c8-4.9,3.9-20.1,2.2-27.4,4,11.2,9.3,30.6-7.4,33.5.5.4,1,.8,1.6,1.1,1.1.2,2.3.1,3.4-.3.8-.3,1.7-.4,2.6-.4-3.9,3-8.6.8-11.7-2.2,8.7,4.2,16.2-6.2,15.3-14.4-1.5,2.3-1.1,5.1-2.7,7.6-5.7,9.1-20.7,2.5-20.7-7.2,1.4.7.8,2.9,1.8,4.5,2.1,3.5,6.7,6.4,11.1,6.4,1.6,0,3.1-.4,4.4-1.2M594.3,320.6c.2-.4.8-2.4,1.6-2-2.4,6.9-5.1,19.2-.2,25.4,6,7.7,18.5.6,19.1-7.9-.8,14.9-22.6,16.6-22.5-.9-1.2,3.3,0,7.7,1.6,10.8-4.1-5.3-1.8-19.3.5-25.4M534.3,314.5l1.1,2.5c3.5,35.8-42,42-49.5,7.2,0-.3-.8-3.8.4-3.6,2.6,17.7,14.2,26.1,25.4,26.1s25.2-11.2,22.5-32.2M539.9,317.4l1.1-2.9c-1.2,10.6,1.1,23.5,11.2,29.2,16.9,9.5,31.1-2.8,36.2-18.7.4-1.3,0-4.5,1.3-4.5-1.2,10.3-10.2,25.3-21.4,26.8-1.3.2-2.7.3-4,.3-16.2,0-25.7-14-24.6-30.2M619.2,329.4c-.3-4.1,2.2-14.1,7.2-14.8,6.9-1-2.2,4.4-2.5,4.7-.8,1-2.9,10.2-4.5,10.2,0,0-.2,0-.2,0M451.8,320.1c-1.4-2.1-6.7-3.2-4.3-6.1,7,1.8,8.5,9.4,8.5,15.7,0,0-.1,0-.2,0-1.3,0-3.8-9.2-4.1-9.7M476.7,300.1l7.4,8.3-5.2-1.6.7,4.3-2.5-3.4c-1.4,3.1-2.3,4.3-2.8,4.3-1.5,0-.1-9.5,2.4-12M591.1,308.5l7.4-8.3c1,0,5.3,11.9,1.8,12.6l-2.2-4.9-2.2,3.6c1.1-4.9.5-4.1-1.3-3.4-.7.4-1.5.6-2.4.6-.4,0-.7,0-1.1-.1M537.4,292.9c2.4-.2,7.4,10.1,5.4,12.6l-4.5-4.5-.4,4-.9-4-4.7,4.3c-1.5-2.4,3.1-12.2,5.2-12.4M526.4,304c0,3.8,5.8,8.3,6.3,12.6.5,4.4-1.9,11.7-4.5,15.3-1.9,2.5-8.7,8.2-11.9,7.4-2.8-.6-7.8-14.9-10.1-17.3,10-7.6-1.9-13.8-6.3-20.7-1.3,4.8-5.2,8.9-4.5,13.9.2,1.6,3.8,9.4,5.4,5.4l-.9,18.2c12.1,11.2,30.2.7,33-13.9-.6,13.9-18.3,24.1-30.6,17.1-1.3-.8-2.2-2.5-2.9-3.1-6.5-5.6-10.9-13.3-12.1-21.8l-2.2.9c8-9.9-2.6-15.9-9.2-21.8-1.6.2-4.3,13.4-3.8,15.5.3,1.4,4.8,6.2,5.8,8.5,3,7,3.7,18.2-1.1,24.5-.8-1.2-2.1-.9-2.9-.7-.2,0-.5.2-.7.2-1.9-.7-9.8-19.3-12.6-22-.4.2.5,8.8-1.1,7.9-2-3.9-2.1-11.5-4.9-14.8-2.2-2.6-8.9-4.2-11.5-7-1,.3-.4,4.4-.2,5.2,2.1,8.8,15.3,28,19.8,37.8,1.7,3.6,3.3,7.2,3.6,11.2,14.6-5.5,31.5-4.2,46.3-7.4,11.9-2.6,18.8-9,25.4-18.9,6,10.4,13.6,16.3,25.4,18.9,14.8,3.2,31.3,2.1,45.9,7.4.6-13.4,24.3-41.5,23.8-52.6,0-.8,0-1.1-.7-1.6-2.6,2.7-9.9,4.7-11.9,7.4-1.2,1.7-3.8,14.9-4.7,14.6l-.9-8.1c-2.6,2.4-10.8,21.1-12.1,21.6-.7.2-1.4.1-2-.2-.4-.1-.7-.3-.7-.3-.8.1,0,2.1-1.3,1.3-5.2-2.9-3.1-19.7-1.1-24.5,1.2-2.8,5.5-6.7,5.8-9,.3-2.1-2.2-14.9-3.8-15.1-6.6,6.1-16.6,11.2-9.7,21.4l-1.8-.4c-1.4,8.6-5.7,16.4-12.1,22.3-12.6,11.3-31.8,1.5-33.5-14.4,3.1,14.6,20.9,25.2,33.1,13.9.6-5.6-1.7-12.4-.9-18.2,1.6,2.5,3,.4,4-1.8,3.7-7.5-1.2-10.6-3.2-17.5-3,4.4-11.9,11.1-9.9,16.6.6,1.5,3.6,3.8,3.6,4,0,.3-1.6,1.4-1.8,1.8-1.1,2.6-5.7,14.9-8.3,15.5-.8.2-6.1-2-7.2-2.7-6.1-3.9-10-14.4-8.8-21.4.7-3.8,6.2-7.6,5.8-11.7-.3-3.7-8.3-11.8-11.5-14.2-3,3.1-10.9,10.2-11,14.6h0Z"/>
    </clipPath>
    <linearGradient id="linear-gradient1" x1=".1" y1="1079.7" x2=".1" y2="1079.7" gradientTransform="translate(141.7 109108.3) scale(264.1 -100.8)" gradientUnits="userSpaceOnUse">
      <stop offset="0" stop-color="#b67c1c"/>
      <stop offset=".2" stop-color="#b67c1c"/>
      <stop offset=".8" stop-color="#e4b451"/>
      <stop offset=".9" stop-color="#e3b14c"/>
      <stop offset="1" stop-color="#e3b14c"/>
    </linearGradient>
    <clipPath id="clippath-3">
      <path class="st0" d="M474.2,373c-1.4-.2-2.3-1.4-2.2-2.8.2-1.4,1.4-2.3,2.8-2.2,1.4.2,2.3,1.4,2.2,2.8-.2,1.3-1.2,2.2-2.5,2.2-.1,0-.2,0-.3,0M594.9,370.7c-.2-1.4.8-2.6,2.2-2.8,1.4-.2,2.6.8,2.8,2.2.2,1.4-.8,2.6-2.2,2.8,0,0,0,0,0,0-.1,0-.2,0-.3,0-1.3,0-2.3-1-2.5-2.2M482.2,372.3c-1.5-.2-2.6-1.6-2.4-3.2.2-1.5,1.6-2.6,3.2-2.4,1.5.2,2.6,1.6,2.4,3.2-.2,1.4-1.4,2.5-2.8,2.5-.1,0-.2,0-.3,0M586.5,369.7c-.2-1.6.9-3,2.5-3.2,1.6-.2,3,.9,3.2,2.5.2,1.6-.9,3-2.5,3.2-.1,0-.2,0-.3,0-1.4,0-2.7-1.1-2.8-2.5M492,371.4c-1.7-.2-3-1.8-2.8-3.5.2-1.7,1.8-3,3.5-2.8,1.7.2,3,1.8,2.8,3.5-.2,1.6-1.6,2.8-3.2,2.8-.1,0-.3,0-.4,0M576.4,368.5c-.2-1.7,1-3.3,2.8-3.5,1.7-.2,3.3,1,3.5,2.8.2,1.7-1,3.3-2.8,3.5,0,0,0,0,0,0-.1,0-.3,0-.4,0-1.6,0-3-1.2-3.2-2.8M502.2,370.8c-2.1-.3-3.6-2.2-3.3-4.3.3-2.1,2.2-3.6,4.3-3.3,2.1.3,3.6,2.2,3.3,4.3-.2,1.9-1.9,3.4-3.8,3.4-.2,0-.3,0-.5,0M565.4,367.3c-.3-2.1,1.3-4,3.4-4.3,2.1-.3,4,1.3,4.3,3.4.3,2.1-1.3,4-3.4,4.3-.2,0-.3,0-.5,0-2,0-3.6-1.5-3.8-3.4M513.1,369.8c-2.3-.3-3.9-2.4-3.7-4.7.3-2.3,2.4-3.9,4.7-3.7,2.3.3,3.9,2.4,3.7,4.7-.2,2.1-2,3.7-4.2,3.7-.2,0-.3,0-.5,0M554.1,366c-.3-2.3,1.4-4.4,3.7-4.7,2.3-.3,4.4,1.4,4.7,3.7.3,2.3-1.4,4.4-3.7,4.7-.2,0-.3,0-.5,0-2.1,0-3.9-1.6-4.2-3.7M524.8,369.5c-2.5-.3-4.2-2.6-3.9-5,.3-2.5,2.6-4.2,5-3.9,2.5.3,4.2,2.6,3.9,5-.3,2.3-2.2,4-4.5,4-.2,0-.4,0-.5,0M542.1,365.4c-.3-2.5,1.5-4.7,4-5s4.7,1.5,5,4c.3,2.5-1.5,4.7-4,5h0c-.2,0-.4,0-.5,0-2.3,0-4.2-1.7-4.5-4M515.1,356.8c-8.7.3-17.7.8-26.3,1.8-3.6.4-21.8,2.4-21.8,6.5,0,1.8,4.3,11.9,4.7,14.6,1.1-.2,2.3-.4,3.4-.6-1.7.4-3.3,1.1-4.8,2-1.1.7-1.8,1-.4,2.2,7.9-1.8,16-3.1,24.1-4,29.3-3.5,58.9-3.5,88.1,0,4.9.6,19.7,4.2,22.7,4,.8,0,1.1,0,1.6-.7.7-3.2-27.7-6.7-30.8-7-12.5-1.2-53-2.2-80.5.3,36.2-4.6,73-3.4,108.8,3.8.5-.4-.7-1-.7-1.1,1-2.1,5-11.9,4.9-13.5-.2-1-.8-1.9-1.6-2.5-5.1-3.6-39.7-5.6-47.4-5.8-7.1-.2-14.7-.4-22.3-.4s-14.8.1-21.7.4h0Z"/>
    </clipPath>
    <linearGradient id="linear-gradient2" x1="-.4" y1="1078.8" x2="-.3" y2="1078.8" gradientTransform="translate(245.6 40629.7) scale(194.8 -37.3)" xlink:href="#linear-gradient1"/>
    <clipPath id="clippath-4">
      <path class="st0" d="M713.5,477c42.3,18.6,84.5,41.9,113.4,78.9-22.9-42.2-68.1-67.3-112.4-81.7-6.5-1.9-13-3.7-19.5-5.2,6.2,2.8,12.4,5.2,18.5,8h0Z"/>
    </clipPath>
    <linearGradient id="linear-gradient3" x1="-2.2" y1="1080.4" x2="-2.2" y2="1080.4" gradientTransform="translate(572.8 129990.1) scale(181.9 -119.8)" xlink:href="#linear-gradient1"/>
    <clipPath id="clippath-5">
      <path class="st0" d="M767.1,711.6c-48,28.2-113,45.8-181.7,51.5l14.1-14.1.5.5v-1.5h-126.2v1.5l.5-.6,14.1,14.1c-88.8-7.6-173.3-36.3-225-89.6,49.8,56.2,133.9,86.7,222.8,95.1l-11.9,11.9-.5-.6v1.5h126.2v-1.5l-.5.5-11.7-11.7c68.7-6.2,133.6-24.9,180.9-54.6,21.6-13.8,41.7-30.8,55.9-52.2-15.4,20.5-35.6,36.8-57.5,49.6h0Z"/>
    </clipPath>
    <linearGradient id="linear-gradient4" x1="1" y1="1080.9" x2="1" y2="1080.9" gradientTransform="translate(-614.4 178834.2) scale(773.9 -164.8)" xlink:href="#linear-gradient1"/>
    <clipPath id="clippath-6">
      <path class="st0" d="M267.8,535.7c32.7-28,70.3-46.5,109.2-64.5-41.4,9.7-82.7,30.4-109.2,64.5Z"/>
    </clipPath>
    <linearGradient id="linear-gradient5" x1="1.1" y1="1080.4" x2="1.1" y2="1080.4" gradientTransform="translate(15.1 96534.1) scale(150.6 -88.9)" xlink:href="#linear-gradient1"/>
    <clipPath id="clippath-7">
      <rect class="st0" x="175.6" y="258.8" width="728.8" height="562.5"/>
    </clipPath>
    <clipPath id="clippath-8">
      <path class="st0" d="M620,555.5c-.7,7.3,4.4,11.5,14.1,11.5s15.6-4.3,16.4-11.5c.7-7.1-4.4-11.4-14-11.4s-15.8,4.3-16.5,11.4h0Z"/>
    </clipPath>
    <linearGradient id="linear-gradient6" x1="-9.8" y1="1080.7" x2="-9.7" y2="1080.7" gradientTransform="translate(606.2 34778.7) scale(44.1 -31.7)" xlink:href="#linear-gradient1"/>
    <clipPath id="clippath-9">
      <path class="st0" d="M536.6,552.2v.3c6.7,0,4.5,20.9,2.1,43.2-2.5,24.6-5.3,50.2-12,50.2v.3h40.6v-.3c-8.2,0-3-25.5-.3-50.1,2.3-22.3,3.9-43.4,15.2-43.4s8,6,7.5,11c-1.3,12.6-8.7,27.4-23.7,42,10.9,59.4,22.4,71.8,62,71.8s16.6-7.3,16.6-15.5-3.2-10.6-11-10.6-11,3.8-11.5,9.4c-.7,6.4,5,11.7,10.1,11.9,1.2,0,1.1,1,.8,1.9-.3,1.1-3.1,1.7-5,1.7-12.1,0-39.2-55.8-39.2-101.3s23.2-21.4,29.5-22.3v-.3h-81.5Z"/>
    </clipPath>
    <linearGradient id="linear-gradient7" x1="-1.1" y1="1080.7" x2="-1.1" y2="1080.7" gradientTransform="translate(360.3 187128.7) scale(162.4 -172.6)" xlink:href="#linear-gradient1"/>
    <clipPath id="clippath-10">
      <path class="st0" d="M614.2,571v.3c6.8,0,5.2,13.8,3.2,33.9-2.3,23-6.6,42.9,13.2,42.9s16.9-11,19.8-38.5c0-.3-.3-.7-.7-.7-.4,0-.6.3-.7.7-2.6,23-3.4,26.5-5.4,26.5s-1.5-9.2.8-31c1.5-14.6,2.6-24.2,3.6-29.6.5-2.8-.7-4.4-3.6-4.4h-30.1Z"/>
    </clipPath>
    <linearGradient id="linear-gradient8" x1="-7.5" y1="1080.8" x2="-7.4" y2="1080.8" gradientTransform="translate(584 115494) scale(54.6 -106.3)" xlink:href="#linear-gradient1"/>
    <clipPath id="clippath-11">
      <path class="st0" d="M687.1,587.1c-.2.4-1,.4-.9-.1.5-4.3.7-7.5,1.1-11.7.3-2.8-1-4.3-3.8-4.3h-30.1v.3c7.9,0,5.4,18.4,3.8,33.8-2.6,24.7-4.3,40.8-10.3,40.8v.3h35.3v-.3c-1.7-1,.7-29.5,2-40.7,1.5-12.8,3.6-20.6,7.5-20.6s5.5,4.2,2.2,20.4c-4.6,22.8-6.4,43,13.3,43s16.9-11,19.8-38.5c0-.3-.2-.6-.6-.7,0,0,0,0,0,0-.4,0-.6.3-.7.7-2.6,23-3.4,26.5-5.4,26.5s-3.8-8.5.2-27.6c5.2-25,5.6-39.1-10.7-39.1s-15.9,4.8-22.6,17.9h0Z"/>
    </clipPath>
    <linearGradient id="linear-gradient9" x1="-3.6" y1="1080.7" x2="-3.6" y2="1080.7" gradientTransform="translate(577.8 118094.7) scale(110.6 -108.7)" xlink:href="#linear-gradient1"/>
    <clipPath id="clippath-12">
      <path class="st0" d="M760.7,604.7c1.9-13.6,4.9-33.7,10.2-33.7s2.3,3.3-2,41.9c-1.9,16.8-5.8,18.4-7.1,18.4-3.9,0-3-13.2-1.1-26.6M730.6,611.8c-1.3,14.1,4,27.6,18.8,27.6s15.4-6,18.5-13.3c.3-.8.9-.5.8.1-.5,5.4-1.8,17.9-4.2,25.2-2.8,8.9-9.3,16.2-17.6,16.2s-5-1.5-4.8-3.1c.2-1.3,1.2-2.4,2.5-2.6,4.8-1,7.7-4.1,8.5-8.5,1.3-6.7-3.1-12.9-11.3-12.9s-9.5,1.7-11.9,7.7c-2.8,7-1.6,21.2,23.4,21.2s36.7-8.3,40.1-23.4c1.6-7.2,1.5-22.3,3.2-37.5,2.3-21.8,3.4-27.4,4.5-34.9.2-.6,0-1.3-.5-1.7-2.4-1.9-12.7-3.3-21.1-3.3-40.4,0-47.7,30.8-48.8,43.1h0Z"/>
    </clipPath>
    <linearGradient id="linear-gradient10" x1="-5.1" y1="1080.7" x2="-5.1" y2="1080.7" gradientTransform="translate(696.7 150723.9) scale(102.2 -138.9)" xlink:href="#linear-gradient1"/>
    <clipPath id="clippath-13">
      <path class="st0" d="M804.7,602.2c0,7.9,3.9,11.4,10.6,11.4,5,0,9-4.2,9-9.2,0-2.9-2.7-7-7.9-7s-4.5,1.1-6.7,4.3c-1.4,2.2-3.7-1-2.5-4,1.5-3.7,13.7-3.2,17.5-3.2h19.7c2.2,0,1.4,1.5.9,1.9-18.6,16.5-33,29.2-42,38.1-5.8,5.8-3.4,13.4.5,13.4s6.2-1.9,6.6-7.1c.3-4.8.5-8.5,1-10.1.5-1.4,1.7-2.8,2.9-2.8,4.6-.1,6.2,20.1,22.2,20.1s27.7-20.7,27.7-32.9-4.6-11.9-10.5-11.9c-5,0-9,4.1-9,9.1,0,3.4,2.8,7.9,7.5,7.9s4.3-.6,6.9-4.2c1.7-2.5,3.8.8,2.6,3.6-1.6,3.7-13.7,3.2-17.5,3.2h-22.6c-3,0-1.3-1.6-.7-2.2,8.5-8.2,29.6-26,43.2-38.4,7-6.4,3.2-12.8-.6-12.8-5.8,0-5.8,4.3-5.9,6.4-.2,3.2,0,6-.3,9.3,0,1.5-2.1,4.4-4.6,4.4-6.3.1-3.4-20.1-20.7-20.1s-27.1,21-27.1,32.9h0Z"/>
    </clipPath>
    <linearGradient id="linear-gradient11" x1="-6.1" y1="1080.7" x2="-6.1" y2="1080.7" gradientTransform="translate(794.5 117993.1) scale(101.5 -108.6)" xlink:href="#linear-gradient1"/>
    <clipPath id="clippath-14">
      <rect class="st0" x="175.6" y="258.8" width="728.8" height="562.5"/>
    </clipPath>
  </defs>
  <rect class="st30" width="1080" height="1080"/>
  <g class="st32">
    <g id="Web_1920_1">
      <g id="Group_29">
        <g id="Group_2">
          <g class="st20">
            <g id="Group_1">
              <path id="Path_1" class="st29" d="M678.5,348.2c0-46.7-63.9-84.6-142.7-84.6s-142.7,37.9-142.7,84.6v60.5c-125.3,33.3-212.7,107.8-212.7,194.5s161,213.1,359.5,213.1,359.5-95.4,359.5-213.1-91.1-164.5-220.8-196.7l-.3-58.3Z"/>
              <path id="Path_2" class="st14" d="M678.5,348.2h-3.3c-.1-43.4-61.4-81.2-139.4-81.3-78,0-139.3,37.9-139.4,81.3v63l-2.4.6c-124.7,33.1-210.4,107.1-210.2,191.4.4,114.4,158.5,209.7,356.3,209.9,197.8-.2,355.9-95.4,356.3-209.9.2-86.1-89.3-161.5-218.3-193.5l-2.5-.6-.3-60.9h0s3.3,0,3.3,0h3.3s.3,58.3.3,58.3h-3.3s.8-3.1.8-3.1c130.3,32.4,223,108.8,223.3,199.8-.5,121-163.5,216.3-362.8,216.4-199.3-.1-362.2-95.4-362.8-216.4h0c.2-89.1,89.1-164.2,215.1-197.7l.8,3.1h-3.3v-60.5c.5-50,66.4-87.7,145.9-87.8,79.6.1,145.4,37.8,145.9,87.8h0s-3.3,0-3.3,0Z"/>
              <path id="Path_3" class="st31" d="M531.2,461.6c1.3-.6,1-3.8-1.3-3.1-2,.6-1.2,4.4,1.3,3.1"/>
              <path id="Path_4" class="st31" d="M557.3,466.6c2.8.5,2.9-3.1,1.3-3.1-.4,0-2.9,2.9-1.3,3.1"/>
              <path id="Path_5" class="st31" d="M501.5,463.9c-1.1.9.7,2.9,1.8,2.7,1.6-.4-.4-3.7-1.8-2.7"/>
              <path id="Path_6" class="st31" d="M508.3,424.3c-.7.3-1.4.6-2,1.1-.7,2.8,7.8-1.5,2-1.1"/>
              <path id="Path_7" class="st31" d="M549.2,464.8c1.4-.6.7-3.3-.9-2.7-1.4.6-.7,3.3.9,2.7"/>
              <path id="Path_8" class="st31" d="M421,443.7c1.6-.3,1-2.9-.4-2.7-1.2.2-1.8,3.2.4,2.7"/>
              <path id="Path_9" class="st31" d="M640.9,443.2c1.5-.6.5-2.9-1.3-2.2-1.5.6.2,2.7,1.3,2.2"/>
              <path id="Path_10" class="st31" d="M547.1,480.3l-1.1-.7-2.5,1.6c1.3.9,3.5,1.1,3.6-.9"/>
              <path id="Path_11" class="st31" d="M611.7,458.1c1.3-.5.2-2.3-.9-2.2-1.9.2-1.2,3,.9,2.2"/>
              <path id="Path_12" class="st31" d="M512.3,464.8c1-.3,1-2.8-.4-2.7-1.6.1-.9,3.1.4,2.7"/>
              <path id="Path_13" class="st31" d="M595.5,413.5c1.1-.3.8-3-.4-2.7-.8.2-1.4,3.1.4,2.7"/>
              <path id="Path_14" class="st31" d="M466,414c1.5-.4.3-3.7-.9-2.7-.6.5-.3,3,.9,2.7"/>
              <path id="Path_15" class="st31" d="M432.7,455.4l1.8-1.3c.6-.4-.2-1.3-.5-1.3-.4,0-3.2,1.9-1.3,2.7"/>
              <path id="Path_16" class="st31" d="M515.9,415.8c-.2,0-3.1,1.1-2.5,2,.5.7,4.6-1.2,2.5-2"/>
              <path id="Path_17" class="st31" d="M450.2,458.5c1.3-.4.7-2.8-.9-2.2-1.5.5,0,2.5.9,2.2"/>
              <path id="Path_18" class="st31" d="M532.5,495.4c2.3,0,2.7-2.3.9-2.2-.1,0-2.2,1.6-.9,2.2"/>
              <path id="Path_19" class="st31" d="M445.3,442.8c1.1.3,2.4-2.4.4-2.2-1,0-1.7,1.8-.4,2.2"/>
              <path id="Path_20" class="st31" d="M628.3,454.9c1.5-.3,0-2.4-1.3-2.2-1.4.2.5,2.4,1.3,2.2"/>
              <path id="Path_21" class="st31" d="M506.9,487.7c-1.3.4-.4,2.3.9,1.8,1.1-.4,1.1-2.4-.9-1.8"/>
              <path id="Path_22" class="st31" d="M526,481.4c-.1-.3.3-2.6-1.1-2.2-2.9.7,1,2.1,1.1,2.2"/>
              <path id="Path_23" class="st31" d="M652.4,450.6l-2.5-.7c-1.8,2.5,2.6,1.1,2.5.7"/>
              <path id="Path_24" class="st31" d="M570.7,454c-1.2.4-.5,2.2.9,1.8,1.2-.4.5-2.2-.9-1.8"/>
              <path id="Path_25" class="st31" d="M553.2,489.5c1.3,0,1-2.6-.4-2.2-1.3.3,0,2.2.4,2.2"/>
              <path id="Path_26" class="st31" d="M458.8,423.9c.7-.2.9-2.7-.4-2.2-.7.2-.9,2.7.4,2.2"/>
              <path id="Path_27" class="st31" d="M471.8,408.1c1-.1.8-2.5-.4-2.2-1.4.3,0,2.3.4,2.2"/>
              <path id="Path_28" class="st31" d="M514.1,480.1c-.6.3-1.1.7-1.6,1.1,1.9,1.9,3.6-1,1.6-1.1"/>
              <path id="Path_29" class="st31" d="M589.2,405.4c-.6,0-1,1.8-.4,2.2,1,.7,2-2.5.4-2.2"/>
              <path id="Path_30" class="st31" d="M622.9,444.1c1.1-.2.6-2.1-.4-1.8-.8.2-1.3,2.2.4,1.8"/>
              <path id="Path_31" class="st31" d="M590.3,418.3l-2-1.1c-1.8,2,.8,1.9,2,1.1"/>
              <path id="Path_32" class="st31" d="M438.6,444.6c1.1-.2.7-2-.4-1.8-1.1.2-.7,2,.4,1.8"/>
              <path id="Path_33" class="st31" d="M459.7,435.6c1.2-.2.8-2.7-.9-1.8-.8.4.8,1.8.9,1.8"/>
              <path id="Path_34" class="st31" d="M466,444.1c-1.1.2-.7,2,.4,1.8,1.1-.2.7-2-.4-1.8"/>
              <path id="Path_35" class="st31" d="M489.4,454.5c-1.1.2-.7,2,.4,1.8,1.1-.2.7-2-.4-1.8"/>
              <path id="Path_36" class="st31" d="M603.6,415.3c.8,0,.8-2.3,0-2.2s-.9,2.2,0,2.2"/>
              <path id="Path_37" class="st31" d="M615.7,442.3c.6-.4,0-1.7-.4-1.8-1.1-.2-1.2,2.8.4,1.8"/>
              <path id="Path_38" class="st31" d="M471.4,417.6c-.7.1-.8.9,0,1.3l1.6-.2c0-.9-.8-1.3-1.6-1.1"/>
              <path id="Path_39" class="st31" d="M600.9,435.1c1.1,0,1.8-1.7.4-1.8-.4,0-1.7,1.7-.4,1.8"/>
              <path id="Path_40" class="st31" d="M556.4,470.2c-.3,0-1.7,1.7-.4,1.8,1.4.1,1.3-1.7.4-1.8"/>
              <path id="Path_41" class="st31" d="M476.8,465.2c.8,0,.9-1.9-.4-1.8-1.2.1.1,1.8.4,1.8"/>
              <path id="Path_42" class="st31" d="M594.6,445.9c.8,0,1.1-2.6-.4-1.8-.6.3,0,1.8.4,1.8"/>
              <path id="Path_43" class="st31" d="M522.6,432.4c.6-.3,0-1.8-.4-1.8-.8,0-1.1,2.6.4,1.8"/>
              <path id="Path_44" class="st31" d="M599.5,433.3c.7,0,1.6-2.1,0-1.8-.9.2-.7,1.8,0,1.8"/>
              <path id="Path_45" class="st31" d="M644.5,457.2c.7,0,1.6-2.1,0-1.8-.9.2-.7,1.8,0,1.8"/>
              <path id="Path_46" class="st31" d="M546.5,417.6c1.2-.1-.1-1.8-.4-1.8-.8,0-.9,1.9.4,1.8"/>
              <path id="Path_47" class="st31" d="M553.2,445.9c1,0,.5-2.3-.4-1.8-.6.4,0,1.8.4,1.8"/>
              <path id="Path_48" class="st31" d="M530.3,473.8c-.8,0-.7,1.8,0,1.8s1.3-1.9,0-1.8"/>
              <path id="Path_49" class="st31" d="M475.9,480.5c-.4,0-1.1,1.4-.4,1.8,1,.5,1.5-1.8.4-1.8"/>
              <path id="Path_50" class="st31" d="M444.4,435.1c.5,0,1.3-1.9,0-1.8-.8,0-.7,1.8,0,1.8"/>
              <path id="Path_51" class="st31" d="M520.8,410.8c.7-.6-.5-1.6-.9-1.3-.4.3-.4.8-.1,1.1.2.3.7.4,1,.2"/>
              <path id="Path_52" class="st31" d="M474.1,457.2c.7-.6-.5-1.6-.9-1.3-.4.3-.4.8-.1,1.1.2.3.7.4,1,.2"/>
              <path id="Path_53" class="st31" d="M638.2,458.1c.8,0,.8-1.8,0-1.8s-.8,1.8,0,1.8"/>
              <path id="Path_54" class="st31" d="M582,487.3c-.9.1-.6,1.5.4,1.3.9-.1.6-1.5-.4-1.3"/>
              <path id="Path_55" class="st31" d="M647.2,421.2c.8,0,.8-1.8,0-1.8s-.8,1.8,0,1.8"/>
              <path id="Path_56" class="st31" d="M522.2,436.9c-.8,0-.8,1.8,0,1.8s.8-1.8,0-1.8"/>
              <path id="Path_57" class="st31" d="M472.3,461.2c-.9.1-.6,1.5.4,1.3.9-.1.6-1.5-.4-1.3"/>
              <path id="Path_58" class="st31" d="M499.7,485.9c-.8,0-.8,1.8,0,1.8s.8-1.8,0-1.8"/>
              <path id="Path_59" class="st31" d="M649.9,438.7c-.8,0-.8,1.8,0,1.8s.8-1.8,0-1.8"/>
              <path id="Path_60" class="st31" d="M543.3,463.9c.9-.1.6-1.5-.4-1.3-.9.1-.6,1.5.4,1.3"/>
              <path id="Path_61" class="st31" d="M504.7,472c.8,0,.8-1.8,0-1.8s-.8,1.8,0,1.8"/>
              <path id="Path_62" class="st31" d="M493,474.2c-.8,0-.8,1.8,0,1.8s.8-1.8,0-1.8"/>
              <path id="Path_63" class="st31" d="M507.4,445.9c.8,0,.8-1.8,0-1.8s-.8,1.8,0,1.8"/>
              <path id="Path_64" class="st31" d="M439,479.2c-.7.6.5,1.6.9,1.3.4-.3.4-.8.1-1.1-.2-.3-.7-.4-1-.2"/>
              <path id="Path_65" class="st31" d="M529.4,487.3c-.7.6.5,1.6.9,1.3.4-.3.4-.8.1-1.1-.2-.3-.7-.4-1-.2"/>
              <path id="Path_66" class="st31" d="M459.2,483.2c-.9.1-.6,1.5.4,1.3.9-.1.6-1.5-.4-1.3"/>
              <path id="Path_67" class="st31" d="M521.3,454c.9,0,.4-1.8-.4-1.3-.3.2-.4.7-.2,1,.1.2.4.3.6.3"/>
              <path id="Path_68" class="st31" d="M554.6,402.3c.6-.3-.2-1.4-.4-1.3-.8,0-1,2,.4,1.3"/>
              <path id="Path_69" class="st31" d="M513.6,490.9c-.6.3.2,1.4.4,1.3.8,0,1-2-.4-1.3"/>
              <path id="Path_70" class="st31" d="M422.4,422.1c.6-.3-.2-1.4-.4-1.3-.8,0-1,2,.4,1.3"/>
              <path id="Path_71" class="st31" d="M433.6,425.2c.3-.2.4-.7.2-1-.1-.2-.4-.3-.6-.3-.9,0-.4,1.8.4,1.3"/>
              <path id="Path_72" class="st31" d="M648.1,446.8c.3-.2.4-.7.2-1-.1-.2-.4-.3-.6-.3-.9,0-.4,1.8.4,1.3"/>
              <path id="Path_73" class="st31" d="M653,448.2c-.3.2-.4.7-.2,1,.1.2.4.3.6.3.9,0,.4-1.8-.4-1.3"/>
              <path id="Path_74" class="st31" d="M480.8,487.7c.6-.3-.2-1.4-.4-1.3-.8,0-1,2,.4,1.3"/>
              <path id="Path_75" class="st31" d="M526.7,482.8l.7-1.1c-.2-.4-1.3-.1-1.3-.2,0,0,0,1.1.7,1.3"/>
              <path id="Path_76" class="st31" d="M553.7,426.1c.9,0,.4-1.8-.4-1.3-.3.2-.4.7-.2,1,.1.2.4.3.6.3"/>
              <path id="Path_77" class="st31" d="M567.1,426.1c.8,0,1-2-.4-1.3-.6.3.2,1.4.4,1.3"/>
              <path id="Path_78" class="st31" d="M640.9,426.1c.9,0,.4-1.8-.4-1.3-.3.2-.4.7-.2,1,.1.2.4.3.6.3"/>
              <path id="Path_79" class="st31" d="M449.8,479.2c-.6.3.2,1.4.4,1.3.8,0,1-2-.4-1.3"/>
              <path id="Path_80" class="st31" d="M453.4,427.5c.8,0,1-2-.4-1.3-.6.3.2,1.4.4,1.3"/>
              <path id="Path_81" class="st31" d="M642.7,418c.3-.2.4-.7.2-1-.1-.2-.4-.3-.6-.3-.9,0-.4,1.8.4,1.3"/>
              <path id="Path_82" class="st31" d="M511.8,476.5c-.6.3.2,1.4.4,1.3.8,0,1-2-.4-1.3"/>
              <path id="Path_83" class="st31" d="M481.3,430.6c.9,0,.4-1.8-.4-1.3-.3.2-.4.7-.2,1,.1.2.4.3.6.3"/>
              <path id="Path_84" class="st31" d="M507.4,456.7c.3-.2.4-.7.2-1-.1-.2-.4-.3-.6-.3-.9,0-.4,1.8.4,1.3"/>
              <path id="Path_85" class="st31" d="M516.8,405.4c.6-.3-.2-1.4-.4-1.3-.8,0-1,2,.4,1.3"/>
              <path id="Path_86" class="st31" d="M461.5,433.3c.3-.2.4-.7.2-1-.1-.2-.4-.3-.6-.3-.9,0-.4,1.8.4,1.3"/>
              <path id="Path_87" class="st31" d="M470,462.5c.8,0,1-2-.4-1.3-.6.3.2,1.4.4,1.3"/>
              <path id="Path_88" class="st31" d="M481.7,409c.9,0,.4-1.8-.4-1.3-.3.2-.4.7-.2,1,.1.2.4.3.6.3"/>
              <path id="Path_89" class="st31" d="M544.7,435.1c.3-.2.4-.7.2-1-.1-.2-.4-.3-.6-.3-.9,0-.4,1.8.4,1.3"/>
              <path id="Path_90" class="st31" d="M640.9,459c.8,0,1-2-.4-1.3-.6.3.2,1.4.4,1.3"/>
              <path id="Path_91" class="st31" d="M648.5,434.7c.6-.3-.2-1.4-.4-1.3-.8,0-1,2,.4,1.3"/>
              <path id="Path_92" class="st31" d="M575.2,441.9c-.9,0-.5,1.8.4,1.3.6-.3-.2-1.3-.4-1.3"/>
              <path id="Path_93" class="st31" d="M571.2,401.8c.5-.2.3-1.7-.4-1.3-.5.2-.3,1.7.4,1.3"/>
              <path id="Path_94" class="st31" d="M485.3,442.3c-.5.2-.3,1.7.4,1.3.5-.2.3-1.7-.4-1.3"/>
              <path id="Path_95" class="st31" d="M507.8,471.1c-1,.7.8,1.4,1.1.7.3-.6-.8-.9-1.1-.7"/>
              <path id="Path_96" class="st31" d="M629.2,413.5c.5-.2.3-1.7-.4-1.3-.5.2-.3,1.7.4,1.3"/>
              <path id="Path_97" class="st31" d="M606,413.3c.3-.6-.8-.9-1.1-.7-1,.7.8,1.4,1.1.7"/>
              <path id="Path_98" class="st31" d="M447.6,472c.5-.2.3-1.7-.4-1.3-.5.2-.3,1.7.4,1.3"/>
              <path id="Path_99" class="st31" d="M623.8,432.9c.5-.2.3-1.7-.4-1.3-.5.2-.3,1.7.4,1.3"/>
              <path id="Path_100" class="st31" d="M425.7,429.5c.3-.6-.8-.9-1.1-.7-1,.7.8,1.4,1.1.7"/>
              <path id="Path_101" class="st31" d="M514.1,469.3c.5-.2.3-1.7-.4-1.3-.5.2-.3,1.7.4,1.3"/>
              <path id="Path_102" class="st31" d="M440.8,466.1c.5-.2.3-1.7-.4-1.3-.5.2-.3,1.7.4,1.3"/>
              <path id="Path_103" class="st31" d="M501.5,405c.6-.3-.2-1.3-.4-1.3-.9,0-.5,1.8.4,1.3"/>
              <path id="Path_104" class="st31" d="M603.1,422.5c.7,1.1,1.5-.8.4-.9,0,0-.7.4-.4.9"/>
              <path id="Path_105" class="st31" d="M530.3,491.3c.7,1.1,1.5-.8.4-.9,0,0-.7.4-.4.9"/>
              <path id="Path_106" class="st31" d="M562.2,487.3s-.7.4-.4.9c.7,1.1,1.5-.8.4-.9"/>
              <path id="Path_107" class="st31" d="M532.1,429.7s-.7.4-.4.9c.7,1.1,1.5-.8.4-.9"/>
              <path id="Path_108" class="st31" d="M496.6,466.1c.7,1.1,1.5-.8.4-.9,0,0-.7.4-.4.9"/>
              <path id="Path_109" class="st31" d="M546.5,468.8c.7,1.1,1.5-.8.4-.9,0,0-.7.4-.4.9"/>
              <path id="Path_110" class="st31" d="M439,439.2s-.7.4-.4.9c.7,1.1,1.5-.8.4-.9"/>
              <path id="Path_111" class="st31" d="M538.4,436.9s-.7.4-.4.9c.7,1.1,1.5-.8.4-.9"/>
              <path id="Path_112" class="st31" d="M553.7,456.3c.7,1.1,1.5-.8.4-.9,0,0-.7.4-.4.9"/>
              <path id="Path_113" class="st31" d="M563.6,470.2s-.7.4-.4.9c.7,1.1,1.5-.8.4-.9"/>
              <path id="Path_114" class="st31" d="M546.5,491.8c.7,1.1,1.5-.8.4-.9,0,0-.7.4-.4.9"/>
              <path id="Path_115" class="st31" d="M456.1,471.1s-.7.4-.4.9c.7,1.1,1.5-.8.4-.9"/>
              <path id="Path_116" class="st31" d="M579.3,407.7s-.7.4-.4.9c.7,1.1,1.5-.8.4-.9"/>
              <path id="Path_117" class="st31" d="M502.9,450s-.7.4-.4.9c.7,1.1,1.5-.8.4-.9"/>
              <path id="Path_118" class="st31" d="M557.7,450s-.7.4-.4.9c.7,1.1,1.5-.8.4-.9"/>
              <path id="Path_119" class="st31" d="M446.7,437.8s-.7.4-.4.9c.7,1.1,1.5-.8.4-.9"/>
              <path id="Path_120" class="st31" d="M489.8,400.5s-.7.4-.4.9c.7,1.1,1.5-.8.4-.9"/>
              <path id="Path_121" class="st31" d="M607.2,426.1s-.7.4-.4.9c.7,1.1,1.5-.8.4-.9"/>
              <path id="Path_122" class="st31" d="M527.1,451.8s-.7.4-.4.9c.7,1.1,1.5-.8.4-.9"/>
              <path id="Path_123" class="st31" d="M494.3,457.6c.7,1.1,1.5-.8.4-.9,0,0-.7.4-.4.9"/>
              <path id="Path_124" class="st31" d="M463.7,477.8s-.7.4-.4.9c.7,1.1,1.5-.8.4-.9"/>
              <path id="Path_125" class="st31" d="M548.3,476.5c-.5.2-.2,1.2.4.9.2-.1.3-.4.2-.7s-.4-.3-.7-.2"/>
              <path id="Path_126" class="st31" d="M535.7,453.1c.5-.2-.4-.9-.4-.9-.8,0-.7,1.5.4.9"/>
              <path id="Path_127" class="st31" d="M530.3,479.2c-.5.2.4.9.4.9.8,0,.7-1.5-.4-.9"/>
              <path id="Path_128" class="st31" d="M537,427c-.4.4-.4,1,0,1.3.6.4.6-1.7,0-1.3"/>
              <path id="Path_129" class="st31" d="M514.1,399.1c-.3.4-.8.4-.4.9.6,1,1,0,.4-.9"/>
              <path id="Path_130" class="st31" d="M539.7,453.6c.2-.1.3-.4.2-.7-.1-.2-.4-.3-.7-.2-.5.2-.2,1.2.4.9"/>
              <path id="Path_131" class="st31" d="M549.6,438.7c.2-.1.3-.4.2-.7-.1-.2-.4-.3-.7-.2h0c-.5.2-.2,1.2.4.9"/>
              <path id="Path_132" class="st31" d="M470,457.6c.2-.1.3-.4.2-.7-.1-.2-.4-.3-.7-.2-.5.2-.2,1.2.4.9"/>
              <path id="Path_133" class="st31" d="M420.6,424.8c-.3.4-.8.4-.4.9.6,1,1,0,.4-.9"/>
              <path id="Path_134" class="st31" d="M613.9,471.5c.5-.2-.4-.9-.4-.9-.8,0-.7,1.5.4.9"/>
              <path id="Path_135" class="st31" d="M643.6,434.7c-.3.4-.8.4-.4.9.6,1,1,0,.4-.9"/>
              <path id="Path_136" class="st31" d="M640,422.5c.5-.2-.4-.9-.4-.9-.8,0-.7,1.5.4.9"/>
              <path id="Path_137" class="st31" d="M530.3,439.6c-.4.4-.4,1,0,1.3.6.4.6-1.7,0-1.3"/>
              <path id="Path_138" class="st31" d="M528.9,429.7c-.3.4-.8.4-.4.9.6,1,1,0,.4-.9"/>
              <path id="Path_139" class="st31" d="M509.6,455.8c-.4.4-.4,1,0,1.3.6.4.6-1.7,0-1.3"/>
              <path id="Path_140" class="st31" d="M426,417.6c-.4.4-.4,1,0,1.3.6.4.6-1.7,0-1.3"/>
              <path id="Path_141" class="st31" d="M566.7,476.5h.4v-.4l-.4-.4v.9Z"/>
              <path id="Path_142" class="st31" d="M609.2,451.1l-.7-.2-.2.7.2.2.7-.7Z"/>
              <path id="Path_143" class="st31" d="M611.7,472.9h.4v-.4l-.4-.4v.9Z"/>
              <path id="Path_144" class="st31" d="M591.7,456.5l-.7-.2-.2.7.2.2.7-.7Z"/>
              <path id="Path_145" class="st31" d="M464.9,461.4l-.7-.2-.2.7.2.2.7-.7Z"/>
              <path id="Path_146" class="st31" d="M614.6,438l-.2-.7-.7.7.2.2.7-.2Z"/>
              <path id="Path_147" class="st31" d="M657.6,465.2v6.7l18.4-18.3c1.4-26-27-34.6-27-34.6,33.2,36.5-15.1,65.2-15.1,65.2,10.2-2.2,23.7-18.9,23.7-18.9"/>
              <path id="Path_148" class="st31" d="M455.3,511.7c-24.3,2-39.6,5-39.6,8.3,0,6.2,54.3,11.2,121.2,11.2s121.2-5,121.2-11.2-15.3-6.2-39.6-8.3c39.8-12.9,66.2-35.1,66.2-60.1s-32.7-52.2-80.4-64.2c-14.6-5.6-39.3-9.3-67.3-9.3s-52.8,3.7-67.4,9.3c-47.6,12-80.3,36.2-80.3,64.2s26.3,47.2,66.2,60.1M414.4,489.4c8.1,5.8,16.8,10.6,25.9,14.5-9.2-3.8-17.9-8.7-25.9-14.5M647.8,496.8c4.9-2.8,9.6-6,14-9.4-4.4,3.5-9.1,6.7-14,9.4M615.4,392.6l.2.4c-.1-.1-.2-.3-.3-.4h.1M590.2,386.4c0,0,.2,0,.3.1-1.3-.3-2.6-.5-3.9-.8,1.2.2,2.4.5,3.7.7M391.2,451.6c0-8.7,3.4-17.1,9.4-24.8,8.7-6.9,33.4-25.4,51.7-28.6-4.6,7.5-9.9,20.6-1.9,34.2,0,0,5.7-32.6,28.9-44.7,46-10.4,57.2,34.6,57.2,34.6.8-3.8,2-7.5,3.6-11,.6,0,.9-.9.6-1.5,13-27.3,43.5-24.1,49.7-23.1,24.2,11.5,30.1,45.3,30.1,45.3,8-13.5,2.8-26.6-1.8-34,18.9,2.2,46,22.7,54.4,29.4,5.8,7.6,9.1,15.8,9.1,24.3s-2.4,14.4-6.7,21.1l1.2-14.7-23.6,21.6.4-4.5s-12.2,15.5-65.2,23.9c5.4-6,10.1-14.9,7.7-26.6,0,0-11.8,21-31.3,29.5-8.2.8-17.2,1.4-27,1.8-8.7-.3-16.8-.9-24.3-1.5-19.9-8.3-31.9-29.7-31.9-29.7-2.4,11.9,2.6,20.9,8.1,27-56-8.2-70.2-24.3-70.2-24.3l.4,4.5-23.6-21.6,1.2,14.5c-4.3-6.6-6.6-13.6-6.6-20.8"/>
              <path id="Path_149" class="st31" d="M446.4,479.3l-10.4-7.7c.1,0,.2,0,.3,0,.6-.3,0-1.8-.4-1.8-.4,0-.7.7-.6,1.3l-21.6-16s4.9,16.1,32.7,24.3"/>
            </g>
          </g>
        </g>
        <g id="Group_4">
          <g class="st23">
            <g id="Group_3">
              <rect id="Rectangle_2" class="st2" x="441.9" y="289.3" width="191.5" height="73.1"/>
            </g>
          </g>
        </g>
        <g id="Group_6">
          <g class="st21">
            <g id="Group_5">
              <rect id="Rectangle_3" class="st1" x="467" y="356.4" width="141.2" height="27.1"/>
            </g>
          </g>
        </g>
        <g id="Group_8">
          <g class="st22">
            <g id="Group_7">
              <rect id="Rectangle_4" class="st4" x="695" y="468.9" width="131.9" height="86.9"/>
            </g>
          </g>
        </g>
        <g id="Group_10">
          <g class="st28">
            <g id="Group_9">
              <rect id="Rectangle_5" class="st9" x="263.4" y="662" width="561.2" height="119.5"/>
            </g>
          </g>
        </g>
        <g id="Group_12">
          <g class="st25">
            <g id="Group_11">
              <rect id="Rectangle_6" class="st8" x="267.8" y="471.2" width="109.2" height="64.5"/>
            </g>
          </g>
        </g>
        <g id="Group_14">
          <g class="st24">
            <g id="Group_13">
              <path id="Path_155" class="st12" d="M279.6,622.4c2.1-19.7-26.7-40.4-24.4-62,.3-3.3,3-8.9,9.7-8.9,9.9,0,18.2,6.1,9.4,8-2.7.5-9.7,2.5-10.5,10.3-.8,8.1,3.7,13.4,10.6,13.4s12.3-4.9,13-12.1c.7-7.1-3-20.9-22.4-20.9s-37.4,4.7-40,28.9c-2.1,20.3,25.7,36.4,23.4,58.7-2.1,16.1-11.4,20.3-22,20.3s-19.3-5.3-20.7-19.1c-1-10.3,6.1-17,15.2-17s7.1,1.4,8,3.8c.2.5,0,.7-.5.3-1.5-1.1-3.2-1.6-5-1.5-5.6,0-9.7,4.4-9.7,10.1,0,6,4.8,10.8,10.7,10.9,7.5,0,11.4-5.3,11.4-11.7s-4.9-13.2-14.9-13.2-17.7,7.5-16.6,18.5c1.5,14.8,14,20.2,22.4,20.2,24.8,0,50-10.7,52.8-36.9"/>
              <path id="Path_156" class="st12" d="M314.5,647.9c25.1-1.2,40-20.1,42.8-46.5,1.9-18.1-5-32.2-17.7-32.2s-16.4,8.8-20.5,22.3c-.2.7-.5.4-.4,0,.7-7.2,1.1-12.6,1.4-16.3.2-2.7-1-4.2-3.8-4.2h-28.5v.3c5.8,0,4.3,16,1.9,38.3-2.1,19.7-6.2,57.6-12.1,57.6v.3h37.6v-.3c-3.1,0-2.4-11.1-2.1-17.9,0-.8.7-1.4,1.5-1.3M316,615.4c2.7-25.8,7.6-33.8,9.6-33.8,4.7,0,1.3,27.9.9,30.9-2.8,20.7-5.9,34.1-11.3,34.1s-1.9-6.3.7-31.2"/>
              <path id="Path_157" class="st12" d="M432.9,608.9c-.4,0-.6.3-.7.7-2.5,22.2-3,26.5-4.9,26.5-3.3,0-2.3-8.5-.1-28.9,2.4-22.4,2.6-32.5,3.8-35.9v-.3c0,0-31.9,0-31.9,0v.3c6,0,4.7,9.1.7,40.7-1.6,12.6-3.7,20.5-7.1,20.5s-3.2-5.8-1.6-20.4c2.6-24,3-37.5,4.3-40.8v-.3c0,0-32.6,0-32.6,0v.3c6.2,0,3.7,18.1-.1,54.5-1.3,12.6.6,22.4,12.2,22.4s21.6-15.3,23.6-22.8c.2-.7.4-.4.4,0,0,17.5,4,22.7,14.8,22.7,15.7,0,17-10.9,19.9-38.5,0-.3-.2-.6-.6-.7,0,0,0,0,0,0"/>
              <path id="Path_158" class="st12" d="M511,609.5c0-.3-.2-.6-.6-.7,0,0,0,0,0,0-.4,0-.7.3-.7.7-2.5,22.2-3,26.5-5,26.5-3.4,0-1.8-8.8,0-28.7,2-19.7,4-54.2,7.4-57.6v-.3h-34.9v.3c1.5,0,4.2,7.1,4.2,17.9,0,.8-.7,1.4-1.4,1.3,0,0,0,0,0,0-25.1,1.2-40,20.1-42.8,46.5-1.9,18.1,5,32.2,17.7,32.2s16.4-8.8,20.6-22.3c.2-.7.4-.4.4,0,0,17.5,4.4,22.7,15.3,22.7,15.7,0,17-10.9,19.9-38.5M478.3,601.5c-2.7,25.8-7.6,33.8-9.6,33.8-4.7,0-1.3-27.9-.9-30.9,2.7-20.7,5.9-34.1,11.3-34.1s1.9,6.3-.7,31.2"/>
            </g>
          </g>
        </g>
        <g id="Group_16">
          <g class="st27">
            <g id="Group_15">
              <rect id="Rectangle_8" class="st5" x="619.2" y="544.1" width="32" height="23"/>
            </g>
          </g>
        </g>
        <g id="Group_18">
          <g class="st26">
            <g id="Group_17">
              <rect id="Rectangle_9" class="st7" x="526.8" y="552.2" width="117.8" height="125.2"/>
            </g>
          </g>
        </g>
        <g id="Group_20">
          <g class="st16">
            <g id="Group_19">
              <rect id="Rectangle_10" class="st6" x="610.8" y="571" width="39.6" height="77.1"/>
            </g>
          </g>
        </g>
        <g id="Group_22">
          <g class="st15">
            <g id="Group_21">
              <rect id="Rectangle_11" class="st3" x="646.8" y="569.2" width="80.2" height="78.8"/>
            </g>
          </g>
        </g>
        <g id="Group_24">
          <g class="st19">
            <g id="Group_23">
              <rect id="Rectangle_12" class="st11" x="727" y="568.7" width="74.1" height="100.7"/>
            </g>
          </g>
        </g>
        <g id="Group_26">
          <g class="st17">
            <g id="Group_25">
              <rect id="Rectangle_13" class="st10" x="797.4" y="569.3" width="73.6" height="78.8"/>
            </g>
          </g>
        </g>
        <g id="Group_28">
          <g class="st18">
            <g id="Group_27">
              <path id="Path_165" class="st29" d="M493.1,771.4v-.4c.3,0,.7,0,1-.2.3-.2.5-.6.5-1v-8.1c0-.4-.1-.8-.5-1-.3-.1-.7-.2-1-.2v-.4h9.6v3.4h-.4c0-.8-.5-1.6-1.1-2.2-.8-.5-1.8-.7-2.8-.6-.3,0-.7,0-1,.2-.2.2-.2.4-.2.6v3.9c.7,0,1.4,0,1.9-.5.4-.6.7-1.2.8-1.9h.4v5.6h-.4c0-.7-.3-1.4-.7-2-.6-.4-1.3-.7-2-.6v4c0,.3,0,.5.3.7.3.2.7.2,1.1.2.9,0,1.8-.2,2.6-.6.8-.6,1.4-1.4,1.8-2.3h.5l-.7,3.5h-9.7Z"/>
              <path id="Path_166" class="st29" d="M511.3,767.5h.5c.2,1,.6,2,1.3,2.7.5.5,1.3.9,2,.9,1,.1,1.9-.6,2-1.6,0,0,0-.2,0-.3,0-.5-.2-.9-.5-1.2-.4-.3-.8-.6-1.3-.8l-1.1-.5c-.8-.4-1.6-.9-2.2-1.6-.4-.5-.7-1.2-.7-1.9,0-.8.3-1.6.9-2.3.7-.7,1.6-1.1,2.6-1.1.6,0,1.2,0,1.7.3.3.1.6.2,1,.3.1,0,.3,0,.4-.2,0-.1.1-.3.2-.4h.5v3.6h-.5c-.2-.8-.6-1.6-1.2-2.2-.5-.6-1.2-.9-2-.9-.5,0-1,.1-1.3.5-.6.6-.6,1.7,0,2.3.6.5,1.3.9,2,1.2l1.2.6c.5.2.9.5,1.3.9.6.6.9,1.4.9,2.3,0,.9-.4,1.7-1,2.4-.8.8-2,1.2-3.1,1.1-.3,0-.7,0-1,0-.3,0-.7-.2-1-.3h-.3c0-.1-.1-.2-.2-.2,0,0-.1,0-.2,0-.1,0-.3,0-.4.2,0,.1-.1.3-.2.4h-.5v-4.1Z"/>
              <path id="Path_167" class="st29" d="M527.2,760.1h10v3.4s-.5,0-.5,0c0-1-.5-1.9-1.3-2.4-.6-.3-1.2-.4-1.9-.4v8.8c0,.4,0,.9.3,1.2.4.2.9.4,1.3.3v.4h-5.9v-.4c.5,0,.9,0,1.3-.3.3-.4.4-.8.3-1.2v-8.8c-.6,0-1.3.1-1.9.4-.8.5-1.4,1.4-1.4,2.4h-.5v-3.4Z"/>
              <path id="Path_168" class="st29" d="M555.7,771c1.2-1.3,2.4-2.6,3.5-4,.7-.9,1.1-1.9,1.2-3,0-.5-.2-1-.5-1.5-.3-.5-.9-.7-1.5-.7-.6,0-1.1.2-1.5.6-.2.3-.4.6-.6.9h-.5c.3-1,.8-1.9,1.5-2.6.6-.5,1.4-.8,2.2-.8.8,0,1.5.3,2.1.8.7.6,1,1.5.9,2.4,0,.6-.2,1.2-.4,1.7-.4.7-.9,1.3-1.5,1.9l-2.5,2.4h0c0,.1,2.4.1,2.4.1.5,0,1.1,0,1.6-.2.4-.3.6-.7.8-1.1h.4l-.7,3.5h-6.9v-.4Z"/>
              <path id="Path_169" class="st29" d="M571,766.9c0,0,.2-.3.4-.6l1.7-2.5,2.2-3,.7-.9h1.3v7.2h1v1.9h-1v2.4h-2.4v-2.4h-4.2v-1.9c0,0,0-.2.1-.3M575,767.2v-4.6h0l-3.3,4.5v.2h3.3Z"/>
              <path id="Path_170" class="st13" d="M407.3,698.4c0-3.8,2.4-6.4,5.9-6.4,2.5-.1,4.7,1.6,5.2,4.1h-1.3c-.5-1.8-2.1-2.9-4-2.9-2.7,0-4.5,2.1-4.5,5.2s1.8,5.2,4.5,5.2c1.8,0,3.4-1,4-2.7h1.3c-.7,2.4-2.9,4-5.4,3.9-3.4,0-5.8-2.6-5.8-6.4"/>
              <path id="Path_171" class="st13" d="M424.1,704.6v-12.4h4.6c2.5,0,4,1.4,4,3.6.1,1.6-1,3.1-2.5,3.4l2.6,5.3h-1.4l-2.5-5.1h-3.6v5.1h-1.2ZM425.4,698.3h3.4c1.7,0,2.7-.9,2.7-2.5s-1.1-2.5-2.7-2.5h-3.4v5Z"/>
              <path id="Path_172" class="st13" d="M443.7,704.8c-3.5,0-5.9-2.6-5.9-6.4s2.4-6.4,5.9-6.4,5.9,2.6,5.9,6.4-2.4,6.4-5.9,6.4M443.7,693.2c-2.7,0-4.6,2.1-4.6,5.2s1.9,5.2,4.6,5.2,4.6-2.1,4.6-5.2-1.9-5.2-4.6-5.2"/>
              <path id="Path_173" class="st13" d="M453.7,692.2h1.3l2.5,8.5c.2.6.3,1.2.5,2,.2-.9.4-1.4.6-2l2.7-8.5h1.3l2.7,8.5c.2.6.4,1.2.6,2,.2-.9.3-1.6.5-2l2.6-8.5h1.3l-3.7,12.4h-1.2l-3.3-10.5-3.3,10.5h-1.2l-3.7-12.4Z"/>
              <path id="Path_174" class="st13" d="M475.2,704.6v-12.4h1.3l6.8,10.3v-10.3h1.2v12.4h-1.2l-6.8-10.3v10.3h-1.2Z"/>
              <path id="Path_175" class="st13" d="M491,704.6v-12.4h7.4v1.1h-6.1v4.5h5.6v1.1h-5.6v4.5h6.2v1.1h-7.4Z"/>
              <path id="Path_176" class="st13" d="M504.4,704.6v-12.4h3.7c3.7,0,6.2,2.5,6.2,6.2s-2.5,6.2-6.2,6.2h-3.8ZM505.6,693.4v10.1h2.5c3,0,5-2,5-5s-1.9-5-5-5h-2.4Z"/>
              <rect id="Rectangle_14" class="st13" x="528.3" y="692.2" width="1.2" height="12.4"/>
              <path id="Path_177" class="st13" d="M535.9,704.6v-12.4h1.3l6.8,10.3v-10.3h1.2v12.4h-1.2l-6.8-10.3v10.3h-1.2Z"/>
              <path id="Path_178" class="st13" d="M561.2,699.1v5.4h-1.2v-12.4h7.3v1.1h-6v4.7h5.1v1.1h-5.1Z"/>
              <path id="Path_179" class="st13" d="M574,703.4h5.7v1.1h-6.9v-12.3h1.2v11.2Z"/>
              <path id="Path_180" class="st13" d="M584.1,704.6l4.5-12.4h1.5l4.6,12.4h-1.3l-1.2-3.3h-5.7l-1.2,3.3h-1.3ZM586.9,700.2h4.9l-2.3-6.2c0-.2-.1-.4-.2-.5,0,.2,0,.3-.2.5l-2.3,6.2Z"/>
              <path id="Path_181" class="st13" d="M597,692.2h1.3l3.3,8.6c.3.7.5,1.3.8,2.2.2-.8.5-1.5.8-2.2l3.3-8.6h1.3l-4.7,12.4h-1.3l-4.7-12.4Z"/>
              <path id="Path_182" class="st13" d="M617.5,704.8c-3.5,0-5.9-2.6-5.9-6.4s2.4-6.4,5.9-6.4,5.9,2.6,5.9,6.4-2.4,6.4-5.9,6.4M617.5,693.2c-2.7,0-4.6,2.1-4.6,5.2s1.9,5.2,4.6,5.2,4.6-2.1,4.6-5.2-1.9-5.2-4.6-5.2"/>
              <path id="Path_183" class="st13" d="M629,692.2h1.2v8c0,2.2,1.2,3.3,3.3,3.3s3.3-1.2,3.3-3.3v-8h1.2v8.1c0,2.8-1.7,4.5-4.5,4.5s-4.6-1.7-4.6-4.5v-8.1Z"/>
              <path id="Path_184" class="st13" d="M644.5,704.6v-12.4h4.6c2.5,0,4,1.4,4,3.6.1,1.6-1,3.1-2.5,3.4l2.6,5.3h-1.4l-2.5-5.1h-3.6v5.1h-1.2ZM645.8,698.3h3.4c1.7,0,2.7-.9,2.7-2.5s-1.1-2.5-2.7-2.5h-3.4v5Z"/>
              <path id="Path_185" class="st13" d="M402.1,730.6v-12.4h4.6c2.5,0,4,1.4,4,3.6.1,1.6-1,3.1-2.5,3.4l2.6,5.3h-1.4l-2.5-5.1h-3.6v5.1h-1.2ZM403.3,724.4h3.4c1.7,0,2.7-.9,2.7-2.5s-1.1-2.5-2.7-2.5h-3.4v5Z"/>
              <path id="Path_186" class="st13" d="M421.6,730.8c-3.5,0-5.9-2.6-5.9-6.4s2.4-6.4,5.9-6.4,5.9,2.6,5.9,6.4-2.4,6.4-5.9,6.4M421.6,719.3c-2.7,0-4.6,2.1-4.6,5.2s1.9,5.2,4.6,5.2,4.6-2.1,4.6-5.2-1.9-5.2-4.6-5.2"/>
              <path id="Path_187" class="st13" d="M438.3,730.8c-3.5,0-5.9-2.6-5.9-6.4s2.4-6.4,5.9-6.4,5.9,2.6,5.9,6.4-2.4,6.4-5.9,6.4M438.3,719.3c-2.7,0-4.6,2.1-4.6,5.2s1.9,5.2,4.6,5.2,4.6-2.1,4.6-5.2-1.9-5.2-4.6-5.2"/>
              <path id="Path_188" class="st13" d="M448.2,718.3h8.8v1.1h-3.8v11.2h-1.2v-11.2h-3.8v-1.1Z"/>
              <path id="Path_189" class="st13" d="M462.2,730.6v-12.4h7.4v1.1h-6.1v4.5h5.6v1.1h-5.6v4.5h6.2v1.1h-7.4Z"/>
              <path id="Path_190" class="st13" d="M475.6,730.6v-12.4h3.7c3.7,0,6.2,2.5,6.2,6.2s-2.5,6.2-6.2,6.2h-3.8ZM476.8,719.4v10.1h2.5c3,0,5-2,5-5s-1.9-5-5-5h-2.4Z"/>
              <rect id="Rectangle_15" class="st13" x="499.5" y="718.3" width="1.2" height="12.4"/>
              <path id="Path_191" class="st13" d="M507.2,730.6v-12.4h1.3l6.8,10.3v-10.3h1.2v12.4h-1.2l-6.8-10.3v10.3h-1.2Z"/>
              <path id="Path_192" class="st13" d="M530.4,724.5c0-3.8,2.4-6.4,5.9-6.4,2.5-.1,4.7,1.6,5.2,4.1h-1.3c-.5-1.8-2.1-2.9-4-2.9-2.7,0-4.5,2.1-4.5,5.2s1.8,5.2,4.5,5.2c1.8,0,3.4-1,4-2.7h1.3c-.7,2.4-2.9,4-5.4,3.9-3.4,0-5.8-2.6-5.8-6.4"/>
              <path id="Path_193" class="st13" d="M552.3,730.8c-3.5,0-5.9-2.6-5.9-6.4s2.4-6.4,5.9-6.4,5.9,2.6,5.9,6.4-2.4,6.4-5.9,6.4M552.3,719.3c-2.7,0-4.6,2.1-4.6,5.2s1.9,5.2,4.6,5.2,4.6-2.1,4.6-5.2-1.9-5.2-4.6-5.2"/>
              <path id="Path_194" class="st13" d="M563.9,730.6v-12.4h1.2l4.5,10.9,4.5-10.9h1.2v12.4h-1.2v-5.9c0-2.2,0-3.1.1-4l-4,9.8h-1.2l-4-9.8c0,.5.1,1.8.1,3.7v6.1h-1.2Z"/>
              <path id="Path_195" class="st13" d="M581.8,730.6v-12.4h1.2l4.5,10.9,4.5-10.9h1.2v12.4h-1.2v-5.9c0-2.2,0-3.1.1-4l-4,9.8h-1.2l-4-9.8c0,.5.1,1.8.1,3.7v6.1h-1.2Z"/>
              <path id="Path_196" class="st13" d="M599.7,718.3h1.2v8c0,2.2,1.2,3.3,3.3,3.3s3.3-1.2,3.3-3.3v-8h1.2v8.1c0,2.8-1.7,4.5-4.5,4.5s-4.6-1.7-4.6-4.5v-8.1Z"/>
              <path id="Path_197" class="st13" d="M615.2,730.6v-12.4h1.3l6.8,10.3v-10.3h1.2v12.4h-1.2l-6.8-10.3v10.3h-1.2Z"/>
              <rect id="Rectangle_16" class="st13" x="631" y="718.3" width="1.2" height="12.4"/>
              <path id="Path_198" class="st13" d="M637.4,718.3h8.8v1.1h-3.8v11.2h-1.2v-11.2h-3.8v-1.1Z"/>
              <path id="Path_199" class="st13" d="M650.4,718.3h1.4l3.1,5.3c.1.3.2.5.4.7q.2-.3.4-.7l3-5.3h1.4l-4.1,7.2v5.2h-1.2v-5.2l-4.2-7.2Z"/>
            </g>
          </g>
        </g>
      </g>
    </g>
  </g>
</svg>