<?xml version="1.0" encoding="UTF-8"?>
<svg id="Layer_1" xmlns="http://www.w3.org/2000/svg" version="1.1" viewBox="0 0 1080 1080">
  <!-- Generator: Adobe Illustrator 29.3.0, SVG Export Plug-In . SVG Version: 2.1.0 Build 146)  -->
  <defs>
    <style>
      .st0 {
        fill: #001d1d;
      }

      .st1 {
        fill: #9ef01a;
      }
    </style>
  </defs>
  <rect class="st0" width="1080" height="1080"/>
  <g>
    <g>
      <path class="st1" d="M173.7,744.9l-25.3-76.4h22.2l14.2,48.8h.4l14.2-48.8h20.3l-25.3,76.4v56.6h-20.9v-56.6Z"/>
      <path class="st1" d="M229.3,668.5h57v19h-36.1v35.1h28.7v19h-28.7v40.8h36.1v19h-57v-133Z"/>
      <path class="st1" d="M293.3,668.5h20.1l9.3,102.2h.4l9.9-102.2h22.8l9.9,102.2h.4l9.3-102.2h18l-13.5,133h-26l-9.5-89.7h-.4l-9.5,89.7h-27.7l-13.5-133Z"/>
      <path class="st1" d="M450.8,687.5h-21.8v-19h64.6v19h-21.8v114h-20.9v-114Z"/>
      <path class="st1" d="M503.6,668.5h31c21.7,0,31,10.1,31,30.6v8.2c0,13.7-4.4,22.4-13.7,26.2v.4c10.4,3.2,13.9,13.1,13.9,28.1v23.4c0,6.5.2,11.2,2.3,16.1h-21.3c-1.1-3.4-1.9-5.5-1.9-16.3v-24.3c0-12.3-3.6-16.3-13.1-16.3h-7.2v57h-20.9v-133ZM532.1,725.5c7.8,0,12.5-3.4,12.5-14.1v-10.3c0-9.5-3.2-13.7-10.6-13.7h-9.5v38h7.6Z"/>
      <path class="st1" d="M580.2,668.5h57v19h-36.1v35.1h28.7v19h-28.7v40.8h36.1v19h-57v-133Z"/>
      <path class="st1" d="M649.1,668.5h57v19h-36.1v35.1h28.7v19h-28.7v40.8h36.1v19h-57v-133Z"/>
      <path class="st1" d="M748.5,668.5h20.9v133h-20.9v-133Z"/>
      <path class="st1" d="M784.9,668.5h26.2l20.3,79.6h.4v-79.6h18.6v133h-21.5l-25.1-97.1h-.4v97.1h-18.6v-133Z"/>
      <path class="st1" d="M866.1,668.5h26.2l20.3,79.6h.4v-79.6h18.6v133h-21.5l-25.1-97.1h-.4v97.1h-18.6v-133Z"/>
    </g>
    <g>
      <path class="st1" d="M257.6,878v-29.9h12.5c3.1,0,5.5.7,7.2,2.1s2.6,3.3,2.6,5.7-.5,3.3-1.6,4.6c-1.1,1.2-2.5,2.1-4.4,2.5v-.6c1.4.2,2.6.6,3.6,1.3,1,.6,1.8,1.5,2.3,2.5s.8,2.2.8,3.6-.4,3.2-1.2,4.5c-.8,1.2-1.9,2.2-3.4,2.8-1.5.6-3.3,1-5.4,1h-13ZM261.8,861.1h7.5c2,0,3.6-.4,4.6-1.2,1-.8,1.6-2,1.6-3.6s-.5-2.8-1.6-3.6c-1-.8-2.6-1.2-4.6-1.2h-7.5v9.7ZM261.8,874.6h8.2c.8,0,1.6,0,2.3-.2.7-.1,1.2-.3,1.7-.6.5-.3.9-.6,1.2-1,.3-.4.6-.9.7-1.4.2-.5.2-1.1.2-1.8s0-1.3-.2-1.8-.4-1-.7-1.4c-.3-.4-.8-.7-1.2-1-.5-.3-1.1-.5-1.7-.6-.7-.1-1.4-.2-2.3-.2h-8.2v10Z"/>
      <path class="st1" d="M291.7,878l13.3-29.9h3.6l13.3,29.9h-4.5l-3.6-8.5,2,1.2h-18l1.9-1.2-3.6,8.5h-4.4ZM306.8,853l-6.4,15.2-1.1-1h15l-1,1-6.4-15.2h0Z"/>
      <path class="st1" d="M334.3,878v-29.9h12.4c3.2,0,5.7.8,7.5,2.3,1.8,1.5,2.6,3.7,2.6,6.5s-.4,3.4-1.2,4.7-1.9,2.3-3.5,3c-1.5.7-3.3,1-5.4,1l.4-.6h1.1c1.1,0,2.1.3,2.9.8.8.6,1.6,1.5,2.3,2.7l5.2,9.5h-4.8l-5.2-9.5c-.4-.7-.8-1.3-1.3-1.7s-1-.7-1.6-.8c-.6-.2-1.3-.2-2.1-.2h-4.8v12.3h-4.4ZM338.7,862.3h7.2c2.1,0,3.8-.5,4.9-1.4,1.1-.9,1.7-2.2,1.7-4s-.6-3.1-1.7-4c-1.1-.9-2.7-1.4-4.9-1.4h-7.2v10.7Z"/>
      <path class="st1" d="M391.3,885.6v-37.5h4.3v37.5h-4.3Z"/>
      <path class="st1" d="M444.3,878.3c-3,0-5.6-.6-7.8-1.9-2.1-1.2-3.8-3-4.9-5.3-1.1-2.3-1.7-5-1.7-8.2s.6-5.8,1.7-8.1c1.1-2.3,2.8-4.1,4.9-5.3,2.1-1.2,4.7-1.9,7.8-1.9s3.9.3,5.7,1c1.8.6,3.2,1.5,4.4,2.7l-1.5,3.5c-1.3-1.2-2.6-2-4-2.5s-2.9-.8-4.5-.8c-3.2,0-5.7,1-7.4,3-1.7,2-2.5,4.8-2.5,8.4s.8,6.5,2.5,8.4c1.7,2,4.2,3,7.4,3s3.1-.3,4.5-.8c1.4-.5,2.7-1.4,4-2.5l1.5,3.5c-1.2,1.2-2.7,2.1-4.4,2.7-1.8.6-3.7,1-5.7,1Z"/>
      <path class="st1" d="M480,878.3c-4,0-7-1-9.1-3.1-2.1-2.1-3.2-5.2-3.2-9.3v-17.8h4.4v17.7c0,2.9.7,5.1,2,6.5,1.3,1.4,3.3,2.2,5.9,2.2s4.6-.7,5.9-2.2c1.3-1.4,2-3.6,2-6.5v-17.7h4.3v17.8c0,4.1-1,7.2-3.1,9.3-2.1,2.1-5.1,3.1-9.1,3.1Z"/>
      <path class="st1" d="M507.5,878v-29.9h12.4c3.2,0,5.7.8,7.5,2.3,1.8,1.5,2.6,3.7,2.6,6.5s-.4,3.4-1.2,4.7-1.9,2.3-3.5,3c-1.5.7-3.3,1-5.4,1l.4-.6h1.1c1.1,0,2.1.3,2.9.8.8.6,1.6,1.5,2.3,2.7l5.2,9.5h-4.8l-5.2-9.5c-.4-.7-.8-1.3-1.3-1.7s-1-.7-1.6-.8c-.6-.2-1.3-.2-2.1-.2h-4.8v12.3h-4.4ZM511.9,862.3h7.2c2.1,0,3.8-.5,4.9-1.4,1.1-.9,1.7-2.2,1.7-4s-.6-3.1-1.7-4c-1.1-.9-2.7-1.4-4.9-1.4h-7.2v10.7Z"/>
      <path class="st1" d="M544.6,878v-29.9h12.4c3.2,0,5.7.8,7.5,2.3,1.8,1.5,2.6,3.7,2.6,6.5s-.4,3.4-1.2,4.7-1.9,2.3-3.5,3c-1.5.7-3.3,1-5.4,1l.4-.6h1.1c1.1,0,2.1.3,2.9.8.8.6,1.6,1.5,2.3,2.7l5.2,9.5h-4.8l-5.2-9.5c-.4-.7-.8-1.3-1.3-1.7s-1-.7-1.6-.8c-.6-.2-1.3-.2-2.1-.2h-4.8v12.3h-4.4ZM549,862.3h7.2c2.1,0,3.8-.5,4.9-1.4,1.1-.9,1.7-2.2,1.7-4s-.6-3.1-1.7-4c-1.1-.9-2.7-1.4-4.9-1.4h-7.2v10.7Z"/>
      <path class="st1" d="M588.6,878v-15.4l1,2.8-12.4-17.2h5.1l9.1,12.7h-1l9.1-12.7h4.9l-12.3,17.2.9-2.8v15.4h-4.4Z"/>
      <path class="st1" d="M635.5,885.6v-37.5h4.3v37.5h-4.3Z"/>
      <path class="st1" d="M689,878.3c-3.2,0-6-.6-8.2-1.8-2.2-1.2-3.9-3-5.1-5.3-1.1-2.3-1.7-5-1.7-8.2s.6-5.9,1.8-8.2c1.2-2.3,2.9-4.1,5-5.3,2.2-1.2,4.8-1.9,7.9-1.9s2.8.1,4,.4c1.3.3,2.4.7,3.5,1.2s2,1.2,2.9,2l-1.6,3.4c-1.3-1.1-2.7-1.9-4.1-2.4-1.4-.5-3-.7-4.7-.7-3.3,0-5.8,1-7.5,3-1.7,2-2.6,4.8-2.6,8.5s.9,6.6,2.7,8.6c1.8,1.9,4.4,2.9,7.9,2.9s2.5-.1,3.7-.4,2.4-.6,3.5-1l-.9,2.2v-9.9h-7.3v-3.3h11v14.1c-.8.4-1.8.8-2.9,1.1-1.1.3-2.3.6-3.6.7-1.3.2-2.5.3-3.7.3Z"/>
      <path class="st1" d="M714.4,878v-29.9h12.4c3.2,0,5.7.8,7.5,2.3,1.8,1.5,2.6,3.7,2.6,6.5s-.4,3.4-1.2,4.7-1.9,2.3-3.5,3c-1.5.7-3.3,1-5.4,1l.4-.6h1.1c1.1,0,2.1.3,2.9.8.8.6,1.6,1.5,2.3,2.7l5.2,9.5h-4.8l-5.2-9.5c-.4-.7-.8-1.3-1.3-1.7s-1-.7-1.6-.8c-.6-.2-1.3-.2-2.1-.2h-4.8v12.3h-4.4ZM718.9,862.3h7.2c2.1,0,3.8-.5,4.9-1.4,1.1-.9,1.7-2.2,1.7-4s-.6-3.1-1.7-4c-1.1-.9-2.7-1.4-4.9-1.4h-7.2v10.7Z"/>
      <path class="st1" d="M751.6,878v-29.9h4.4v29.9h-4.4Z"/>
      <path class="st1" d="M771.4,878v-29.9h4.4v26.1h14.8v3.8h-19.2Z"/>
      <path class="st1" d="M803.2,878v-29.9h4.4v26.1h14.8v3.8h-19.2Z"/>
    </g>
    <g>
      <path class="st1" d="M514.9,462.6c0-2.4-1.9-4.3-4.3-4.3s-4.3,1.9-4.3,4.3,1.9,4.3,4.3,4.3,4.3-1.9,4.3-4.3Z"/>
      <path class="st1" d="M493.6,434.7c-4,1.4-2.7,8.9,2.6,9.3,8.3.5,6.5-12.5-2.6-9.3Z"/>
      <path class="st1" d="M472.6,444.6c2.7,4.3,11.6-2.6,4.8-7.2-4.2-2.9-6.5,4.5-4.8,7.2Z"/>
      <path class="st1" d="M447.9,308.2c-.4-.5-3.8-3.1-4.3-2.7-.8,1.9-3.5,3.7-3.7,5.7-1.5,10.1,15.9,6.3,8.1-3Z"/>
      <path class="st1" d="M475.6,423.4c3.8,2.4,5.2-.3,7-3.3h-3.7s2.8-1.4,2.8-1.4c-4.1-8.1-12.3.7-6.1,4.7Z"/>
      <path class="st1" d="M496.2,387.1c10.1.5,3.3-13-2.1-8.3-1.9,1.7-2.5,8,2.1,8.3Z"/>
      <circle class="st1" cx="420.5" cy="328.7" r="5.4"/>
      <circle class="st1" cx="456.1" cy="419.7" r="4.7"/>
      <path class="st1" d="M407.9,416.1c-3.3-3.4-8.4,3.4-3.4,7.6,5.6,4.7,5.7-5.2,3.4-7.6Z"/>
      <path class="st1" d="M596.4,490.3c5.4,2.2,12.3,4.4,15.3,5.3-2.2-.7-7-2.4-15.3-5.3Z"/>
      <path class="st1" d="M395,349.3s0,0,.1.1c0,0-.1-.1-.1-.1Z"/>
      <path class="st1" d="M725.8,424.3c-13.5-4.3-28.7-9.7-39.1,3.3-4.2,5.2-1.3,6-9.1,8.6-12,4-21.3,5.6-34.2,4-8.3-1-8.7-1.4-8.7-1.7-.1-1.1,3.8-1.8,9.7-4.5,10.3-4.7,10.1-7.8,17.5-9.9,5.7-1.6,6.9-.1,12.8-2.1,15.9-5.4,17.1-18.9,20.5-33-3.2-.4-11.3-1-20,3.5-3.9,2-12,6.2-14.2,14-1.2,4.1-.7,7.3-3.1,12.6-.7,1.7-2,3.4-4.1,5.3-9.7,8.9-25.9,12.9-38.6,14.9,8.3-6.4,15.5-14,21.8-22.4,5-6.8,21-35.5,27.3-37,3.3-.8,7.9-.5,11.7-1.4,13.3-3.1,21.1-16.3,20.3-29.6-3.1-.4-8.2-.7-14.1.8-3.3.9-8.6,2.2-12.8,6.2-7.4,7-3.4,11.7-9.5,22.2-2.1,3.6-8.4,9.9-11.4,13.7-.4.5-.9,3.3-2.4,1.8-.1-.1,1.4-2.6,1.6-3.5,1.2-4.9,2.4-17,4.5-20.7,1-1.7,5.8-4.2,7.6-6,10.5-10.8,8.9-26.3,5-39.7-7.5,3-16.9,12-20,19.6-6,14.7,2,20,1.4,33.1-2.6,52.2-46.2,55.3-75,86.1-2.5,2.7-5.5,6.9-7.7,10-5.8,7.9-10.3,16.6-16,24.5-.4-4-.8-10,0-17.2,2.2-20,11.7-34.5,22.2-50.1,11.9-17.7,12.8-13.6,19.8-26.3,6-10.9,9.6-20.6,17.4-22.6,7-1.8,13.3,4.5,15.1-9.5-3.7.3-9.2-.8-12.4,1.1-1.9,1.1-4.9,7.8-8.6,9.1-1-5-1.5-11.9,2.1-17.9,2.8-4.7,6.8-6.4,9.4-8.3,5.7-4.2,10.9-13.9,8.6-38.1-13.5,5-28.4,15-27,31.2.4,4.9,3.1,10.2,3.6,15,1.6,14.6-5,28-13.9,39-1.7,1.3-.7-1.8-.7-2.5.4-2.8.2-7.5.8-9.4.4-1.3,3.9-3,5.2-5.9,3.4-7.1,2.2-13.2-3.5-18.5-2.2-2-8.8-6.7-11.2-4.7-7.1,6-8.6,20.3-1.8,27.1,3.3,3.3,5.9,3,6.9,4.4,1.8,2.5-.4,8.2-.9,9.1-6.6,14.8-20.4,30.8-29.4,48.2-1.3,2.6-2.3,4.8-2.8,5.8-1.3,2.6-2.9,5.5-3.9,5.3-2.1-.6,4-16.3,3-35.6-1.3-24.4-8.4-35.2-5.4-48.2.7-2.9,3.6-4.6,6.3-5.3-.6-2.7-3.6.6-4.6.9-.9-1.1,4-10.5,5.5-11.7,2.7-2.1,4.3-.8,6.8-1.5,15.2-4.4,18-17.1,18.4-31.4-14.9,3.4-31.8,11.9-27.2,30.1l-7.3,10v-17.2c0-2.6,3.8-14.3,5.1-17.2,1-2.1,6.8-11.7,8.2-12.8,1.3-1,3.8-2.8,20.9-5.6,11.1-1.8,15.2-1.9,20.4-5.3,3.3-2.2,5.5-4.7,6.9-6.5,4.6-5.4,5.8-13.3,7.4-20-3.1-.5-10-1.3-17.6,1.9-2.5,1-12.2,5.1-15.3,14.1-2.1,6.1.4,8.7-2.4,12.5-1.1,1.5-11.2,3.9-13.6,4.1-3.8.4,2.6-2.6,3.3-3.2,10-9,14.4-21.6,13-35-9.3,3.2-17.4,10.2-20.9,19.6-2.5,6.6-2,13.6-4.4,19.8-1.5,3.7-5.1,7-6.3,10.9-2.4-.1,0-3.6,0-4.2.3-5.7,0-11.9,0-17.7s2.2-4.1,4.5-7.6c9-13.8,7.9-29-3.1-41.3-2.4-2.7-5.1-6.9-7.9-4.2-12,11.3-13.6,31.1-4.5,44.6,1.8,2.6,5.4,4.7,6.2,7.8,2.4,10.3.2,20.7-.7,31-13.1-16.9-7.4-41.9-24.2-56.4l-10.3-7c.7,4.1,1.7,8.6,3.1,13.3,4.5,14.4,11.8,25.2,17.8,32.3-2.6-1.8-12.5-3.9-13.9-5.6-1.8-2.1-1.3-11.1-3-15.6-4.8-12.8-18.2-14.5-30.1-17-.1,11,6.7,27.9,16.5,33.3,11.9,6.5,29.1.3,35.8,16.4,7.1,17.3,1.9,37.2,1.6,55.2,0,2.3.7,3.9,1,6-1.4,1.7-13.9-16.7-14.5-18.6-1.4-4.6,2-7.8,3.1-11.9,1.8-7.2-1.8-16.3-7.6-21.7-5.3-4.9-14.1-7.7-14.1-7.7,0,0-2.4,6.9-3.1,9.2-2.6,9.2.4,22.3,8.6,28.6,3.2,2.5,3.8.7,7.9,3.8,1,.7,12.8,17.7,14.1,19.9,3,5.2,6.7,14.4,6.7,20.3v35.9l-5.7-13.4c-7.4-15.9-25-22.3-36.2-35.5-7.2-8.5-14.3-24.8-16.3-35.8-.4-2.2-.4-4.1,0-5.8,2.2-9.7,8-11.6,9.6-18.3,3-12.4-14.7-28.7-14.7-28.7,0,0,0,0,0,0,0,0-11.1,14.9-11.4,25.3-.1,5.3,2.5,9.8,7.8,18.8,2.3,3.9,2.6,3.2,4.3,6.5,4.2,8.4,3.9,12.9,8.6,25.9,2.1,6,4.3,10.7,5.6,13.5-8.2-.2-26.9-11.9-27.7-20.1-.2-1.9,1.3-4.4,1.5-6.5.3-3.7.3-6.6-.4-9.6,0,0-.7-2.7-2.1-5.4-3.1-5.9-14.2-19.8-20.5-17.2-5.7,2.3-5.6,17.8-1.3,27.8.9,2.1,2.3,4.7,4.8,7.4,4.3,4.6,11.2,4.5,14.5,6.9,2.7,2,6.8,8.7,10.7,11.6,7.8,5.9,19.1,9,27.8,14.1,13.4,8,24,18.5,30.7,32.6,8.7,18.6,7.9,38.2,8.5,58.1l-9.3-14.4c-29-29.9-69.9-30.3-92.4-68.8-6.2-10.7-12.2-33.7-11.8-45.8,0-1.9,1.4-3.7,1.6-5.6,2.2-21.5-16.5-28-34.4-26.9,3.7,21.6,10.3,28.6,16,30.6,3,1.1,8.3,1.7,11.9,6.2,2,2.5,2.5,5,3.5,9.3.8,3.7,1.6,9.1,1.3,15.8-2.7-.3-6.2-1.2-8.2-3.9-.6-.8-.8-4.8-1.4-6.5-5-13.9-21.6-11-32.3-5.9,4.9,7.7,10.7,16.9,20.9,17.3,7.4.3,9.3-4.7,16.8.9,6,4.5,16.1,27.3,23.4,35.3,2.6,2.9,6.2,3.4,6.9,6.6-5.7-4.2-12-2.1-18.1-2.8-4.7-.6-24.9-5.7-27-9.3-2.4-3.9-.3-7.5-6.5-12.1-13.2-9.9-24.2-1.4-36.8,3.7,4.7,10.2,18.2,20.4,30.1,18.4,3.7-.6,8.8-4.9,10.4-5,5.3-.2,19.4,9.3,26.6,7.1l-11.2,5.1c-1.7,1.1-3.5,2.3-5.4,3.4-1.6,1-3.2,1.8-4.8,2.6-16-1.9-25.9,10.1-29.8,24.2,22.3-.2,29.8-5.4,32.3-10.6,2-4.3,0-7.3,3.3-12.5,5.2-8.2,16.1-10.1,18.1-10.3,16-2,22.4,5.3,36.5,10.9,4.4,1.7,10.1,2.6,14.2,4.4,1.2.5,1.6,1.6-.5,1.4-4.5-.5-9.3-2.2-13.9-1.9-1.6.1-.8.2-16.9,3.7-2.5.5-3.6.8-5.1,1-6.7,1.1-8.8.7-11.6,1.2-11,1.9-16.8,15.8-17.5,17.5-1.7,4.1-2.6,6.3-1.6,7.9,3.3,4.8,23.6,1.6,29-9.1,2.5-4.8,1.9-10.1,6.7-14.7,1.2-1.1,2.8-2,5-2.5,18.6-4.6,42.3,5.2,56.1,17.5-4.1-1.9-9.2,0-12.5-.3-1.5-.2-3.2-1.8-5-2.3-17.3-4.1-30.2,13.2-32.8,28.6,12.8,3.7,19.7,1.4,23.6-1.1,9.2-6,8.2-18.1,17-21.2,6.6-2.4,14,2,15.4,3.2,20.5,16.9,16.8,56.3,10.3,79.2-2.1,7.5-3,15-8.8,21-6.8,7.1-15.5,8.5-27.8,10.1-49.2,6.7-90.8,8.8-94.4,9-1.7,0-6.6.4-6.6.4,0,0,.2,0,.3,0,2.4,0,4.8,0,7.2,0,4.6,0,110.7,0,149.3,0,124.2,0,129.7-.1,144.4,0,2.4,0,13.5.1,13.5,0,0-.1-10.1-.3-13.6-.4-47.2-1.1-74.6-5.4-92.2-9-15.2-3.1-20.9-5.2-26-10-7.7-7.2-10.8-18.2-13.3-33.6-4.3-26.3-5.9-73.6,31.7-72.9,7.3,19,21.9,22.5,39.7,14-6.5-11.5-13.9-20-28.4-19.6-4,.1-7.9,2.2-11.3,2.8-6.2,1-13.3-.2-19,3.8.3-.7.8-1.6,1.4-2.8,5.4-9.6,14.5-13.7,17.9-15.6,8.1-4.4,16-4.3,20.2-4.2,11.3.1,19,4.3,25,7.4,5.1,2.7,8.1,5.2,9.8,8.7,1.4,2.7,1.1,4.7,1.8,6.2,4.9,10.7,17.9,11,28.1,10.5-2-8-4.7-15.4-10.9-19.4-2.5-1.6-7-2.4-9.2-3-4.9-1.2-7.6-1.4-10.3-1.9-7.3-1.4-9-4.4-16.1-7.7-1.4-.7-15.6-7-31.8-3.1-4.9,1.1-8.6,2.9-11.2,4.3-1-1.1,5.9-6.5,7-7.4,19.7-15.6,57.9-22.5,78.7-6.1,6,4.8,4.4,6.9,6.7,12.9,6.4,16.2,23.1,17,38,13.7-4.2-8.7-3.8-20.3-12.7-25.9-7.5-4.8-17.9-3.5-25.7-.3l-15.6-9.2c7.6,2,22.5-5.2,28.4-4.7,1.7.2,3.5,2.3,5.4,3,12.1,4.3,21.2,1,29.5-8.1,1-1.1,7.1-9.1,6.5-9.7ZM671.5,399.1c8-6.6,16.9-6.6,19-6.5-2.6,15.7-10.5,26.8-19.3,27.7-1.7.2-4,0-6.8-1.2,0-1.8,13.3-14.7,15.4-17.2.3-.3,1.6-2,1.5-2.1-.3-.2-5.7,5.7-13.9,12.3-2.3,1.9-4.3,3.4-5.6,4.3.3-2.1,1.9-10.7,9.8-17.3ZM669.5,362.9c6-7.8,13.5-9.1,22.8-10.3-2.4,13.1-14,22.3-27,23.3l8.4-8.8c-3.6-.4-6.1,5.2-8.9,7-.8-2.8,2.8-8.7,4.7-11.1ZM657.4,333c.7-.8,4.3-4.7,5.1-3.7.9,3.1,2.1,8.8.7,15.7-2.2,11.2-9.5,17.7-11.9,19.7,1.6-7.4,3.1-14.9,4.7-22.3-2.1,7.4-5.1,14.7-6.1,22.3-6.2-11.3-.3-23.1,7.4-31.7ZM613.1,373.5c1.6-.5,5.3-1.9,6.5,0l-10.2,3.3c-.7-2.2,2.3-2.8,3.7-3.2ZM599.6,338c4.4-10.6,15.3-13.2,16.3-13.4,3.1,12.2.9,18.6-1.8,22.2-3.2,4.2-10.9,9.6-10.9,9.6,0,0,3.3-7.9,6.8-16.2,2.9-6.9,3.7-8.8,3.6-8.8-.2-.1-3.1,5.6-8.3,15.1-2.3,4.1-4.1,7.5-5.4,9.7-.6-1.3-4.1-9.3-.4-18.2ZM575.4,364.7c.7,3.4,1.4,7,1.9,10.8.6,4,1,7.9,1.3,11.5-7.7-4.1-8.2-16.1-3.2-22.4ZM577.7,370.3c-.3-1.9-.6-3.7-.9-5.6,8.9,5.3,12.2,16.1,3.7,23.3-.9-5.9-1.9-11.8-2.8-17.7ZM567.5,334.9c-2.5,9.8-4.8,20.2-16.8,21.4-.5-6.9,11.8-12.4,14-17.2.2-.4.2-1.5-.5-1.4l-15.8,15.8c.5-9.8,10.2-16.5,19.1-18.6ZM584.9,293.4c6.7-6,14.7-5.6,16.2-5.5,0,1-1.6,15.6-13,20.8-3.7,1.7-7.2,1.9-9.7,1.7,2.4-3.7,5.8-8.2,10.4-12.7,3.3-3.1,6.5-5.6,9.4-7.5-3.3,1.9-7.1,4.3-11.1,7.6-3.8,3.1-6.9,6.3-9.4,9.1.3-1.8,1.4-8.3,7.2-13.5ZM557.9,296.9c3.9-7.9,10.3-11.6,12.6-12.8.1,3,0,9.5-3.7,16.5-3.2,6.1-7.5,9.7-9.9,11.5,2.6-5.8,5.2-11.5,7.8-17.3-1.6,3-3.3,6-5,9-1.5,2.7-3.1,5.4-4.6,8-.2-2.6-.3-8.5,2.8-14.9ZM537.6,299.5c-9.7-10.8-9.7-29.5-.4-41,.5-.6.7-.9.9-.9.5,0,.9.6,1,.8,1.1,1.9,4,3.9,5.9,7,8.2,13.2,2.5,25.3,2.5,25.3-.9,1.9-2.9,5.4-7.1,8.7-.6-11.2-1.1-22.4-1.7-33.6-.4,11.2-.8,22.4-1.1,33.6ZM521.1,308.1c-.5.3-4.2-4.3-7-9-3.7-6.3-5.4-12.2-6.3-16.4,2.3,1.6,5.7,4.5,8.7,9.1,3.5,5.5,4.6,10.7,5,13.6-4.6-8.3-6.6-11.8-6.7-11.7-.3.1,7.2,13.8,6.3,14.4ZM504.5,308.7c0,1.7-.4,3-.7,3.9-6.9-8.1-13.7-16.3-20.6-24.4,6.3,8.4,12.7,16.8,19,25.2-2.9-.2-5.3-.9-7.1-1.7-14.1-6.2-16-26.1-16.1-28.1,3.6.6,10.2,2.2,16.2,7.5,2.4,2.1,9.8,8.7,9.4,17.5ZM514.4,364.2c-.5,1-1,1.9-1.3,2.4-7.6-18-11.5-27-11.6-26.9-.2,0,3.4,9.2,10.8,27.5-.9.2-2.1.3-3.6,0-6-1.1-8.9-8.3-9.9-10.7-3.7-9-.5-17.9.7-20.8,2.4.7,9.4,3.1,13.5,9.9,3.4,5.6,3.9,12.8,1.4,18.5ZM469.5,326.8c-.7,6.7-1,13.9-.9,21.6,0,2.5.1,4.9.3,7.2-7.6-9.4-8.6-16.2-7.9-20.9,1.1-7.6,7.7-17.4,7.7-17.4,0,0,7,8.3,9.1,14.2,1.7,4.8,1.6,12.3-6,24-.8-9.6-1.5-19.2-2.3-28.8ZM453.8,378.6c-2.5.5-1.6-.5-2.3-1.9-2.6-5.4-4.5-11.1-8.4-15.8-1.4.7.3,2.2.6,3.1,1,2.3,7.7,14.2,6.4,15.5-4-1.1-6.6-2.9-8.1-4.3-6.7-6-8.5-16.9-5.1-27.9,2.7,1.4,8.1,4.8,12.2,11.4,5.3,8.5,5,16.9,4.8,19.9ZM412.8,367c-1.2.4-2.8-1.1-5.4-4.1-8.6-9.7-11.7-12.9-12.3-13.5.6.8,4.4,5.6,15.5,20-2.5-.3-7.9-1.2-12.9-5.4-9-7.4-8.9-18.8-8.9-20.4,2.4.2,21.2,1.6,25,12.4,1.4,4.1,1,10.2-1,10.9ZM402.2,398.3c-9.3,3.5-17.8-3.3-22.9-10.3,2.7.2,5.4,1,8,1.8,2,.6,15.7,5.9,16.3,6.6,1.4,1.5-.3,1.6-1.3,2ZM403.1,395.3l-22-9.2c5.3-.8,10.7-1.8,15.8.5,3.5,1.5,3.9,3.9,6,6.7.1.1,4.2,1.5.2,2.1ZM421.2,408.5l10.2,17.7c-5-4.4-8.6-11.3-10.2-17.7ZM380.6,429.9c1.3.4,9.4,4.1,9.8,4.6,1.4,1.7-.5,1.5-1.3,1.9-10.7,5-22.7.1-29.4-8.9,11.2-7.4,29-10,34.5,5.1-10.8-2.1-20.1-7.3-31.7-5.6l18.1,2.8ZM397.2,471.8c-2.9,3-6.2,4-10.7,5.5-3,.9-7.2,1.9-12.5,2.2.4-1.6,3.3-13.2,14.2-18.3,5.5-2.6,10.6-2.4,13.3-2.1-2.1,1.8-5.1,4.2-8.8,6.9-5.7,4.3-10.4,7.4-10.2,7.7.1.2,1.9-.8,2.6-1.2,3.1-1.7,8.7-5.1,17-11.9-.3,2.7-1.3,7.4-4.9,11.2ZM436.5,477.4c-4.4,10.8-13.4,14.4-24.6,14,1.9-11.8,12.3-23.5,25.1-22.3.6,2.4-.7,1.6-1.8,2.4-7.1,5.3-14.7,9.9-20.6,16.7,2.6.8,5-3.5,7-5.1,2.5-2,12.5-9.8,14.9-10.3,2.8-.6.5,3.4,0,4.6ZM483.9,497.7c-6.8,10-14.4,11.2-26.3,10.5,2.4-9.7,11.3-22.1,22-23.2,1.3-.1,7.4.4,7.8.9.4.4.5.7.5,1-.1.7-1.4,1-1.7,1.1-3.6,1-18.8,12.8-21.1,14.6.4-.3,1.2-.9,1.8-1.3,6.5-4.5,13.3-11,21.4-11.6.3.3-3.8,7.3-4.4,8.1ZM588.9,485.3c.4-2.1,9.1-3.3,16.4-.5,8.5,3.3,11.8,11,12.5,12.6-2,1.3-5.8,3.3-10.6,3.4-7.9,0-15.4-5.3-19.5-13.5,3.3,1.1,6.2,2.2,8.8,3.1-4.3-1.8-7.8-3.6-7.5-5ZM665.3,495.1c-9.6-.7-21.9-3.6-23.3-14.9,1.3-1.3,21.6,12.1,23.3,14.9ZM664.3,492.3l-22.3-14.9c10.5-.6,19.3,4.7,22.3,14.9ZM676.5,455c2.5.9,4.8-1.4,6.6-1.4,14.2-.4,18.4,14.3,23.2,24.7-12.8-1.6-30.4-3.8-29.8-20.5l21.4,11.6c-6-6.4-14.8-9-21.4-14.4ZM687.6,435.5c.4-1.1,3.3-8.8,11.7-11.8,10.1-3.6,18.6,3.1,19,3.4-5,1.4-10,2.8-15.1,4.2-5.2,1.4-10.4,2.8-15.6,4.2ZM717.9,429.9c-8.6,15.3-19.6,11.2-19.6,11.2-3.6-1-7.9-4.5-7.9-4.5,0,0,10.9-3.4,27.9-8.7.2.9,0,1.2-.4,1.9Z"/>
      <path class="st1" d="M611.7,495.6c1,.3,1.4.5,1.4.5,0,0-.5-.2-1.4-.5Z"/>
      <path class="st1" d="M465.1,502.4c-.2.1-.3.2-.3.2s.1,0,.3-.2Z"/>
      <path class="st1" d="M517.6,400.6c0-2.1-1.7-3.8-3.8-3.8s-3.8,1.7-3.8,3.8,1.7,3.8,3.8,3.8,3.8-1.7,3.8-3.8Z"/>
      <path class="st1" d="M441,406.4c7.9-1.2,3.5-11.7-1.4-10.9-.5,0-5,2.6-5.1,2.9-2,3.4,3,8.6,6.6,8.1Z"/>
      <path class="st1" d="M522.8,289.2c2.3,4.8,3,10.8,6.5,14.9-1.2-5-2.4-11.3-6.5-14.9Z"/>
      <path class="st1" d="M638,319c3,0,5.5-2.4,5.5-5.5s-2.4-5.5-5.5-5.5-5.5,2.4-5.5,5.5,2.4,5.5,5.5,5.5Z"/>
      <path class="st1" d="M637.6,463.2c4,3.9,13.1-.7,8.2-6.8-5.2-6.3-12,3-8.2,6.8Z"/>
      <path class="st1" d="M586.3,422.7c-2.8,2.8,1.5,8.2,4.7,7.9,7.4-.7,5.3-15.8-2.9-12.2-5,2.2,1.7,1.6,2.3,1.9,1.1.4,2.7,1.9,3.1,3-2.6-.5-4.5-3.3-7.2-.7Z"/>
      <circle class="st1" cx="602" cy="406.3" r="4.4"/>
      <path class="st1" d="M560.8,386.2c-2.2-3.6-11.9-1.1-8.7,5.4,3.2,6.6,11.8-.4,8.7-5.4Z"/>
      <path class="st1" d="M616.7,397.2c0,2,1.6,3.7,3.7,3.7s3.7-1.6,3.7-3.7-1.6-3.7-3.7-3.7-3.7,1.6-3.7,3.7Z"/>
      <path class="st1" d="M563.4,413.1c-2-7.4-13.3-2.9-8.7,3.5,2.4,3.4,10.1,1.5,8.7-3.5Z"/>
    </g>
    <path class="st1" d="M249.2,611.4h9.2c-59-148.1,14.5-320.4,159.4-383.1,218.1-94.3,456,84.2,420.5,320.5-3.2,21.3-8.9,42.2-16.5,62.2,0,.7,8.5.8,9.1.3,1.5-.9,9.1-29.1,10.1-33,48.9-200-101.7-388-307-383.9-195.8,4-340,185.1-296.5,377.2,3.1,13.5,7.3,26.6,11.7,39.7ZM250.9,404.9c-.5-.5-3.6,1.2-2.8-1.9,6.8,1.8,5.2,4.7,1.3,8.8-.5.5-.4,2.4-1.3,1-.5-4.8.4-1.7,2.8-3.7-4.4-2.8,1.9-2.2,0-4.2Z"/>
  </g>
</svg>