<svg xmlns="http://www.w3.org/2000/svg" xmlns:xlink="http://www.w3.org/1999/xlink" width="40" height="41" viewBox="0 0 40 41" id="alarm-clock">
  <defs>
    <linearGradient id="a" x1="50%" x2="50%" y1="0%" y2="100%">
      <stop offset="0%" stop-color="#FF9501"></stop>
      <stop offset="100%" stop-color="#FF752F"></stop>
    </linearGradient>
    <circle id="b" cx="20" cy="20.5" r="11"></circle>
  </defs>
  <g fill="none" fill-rule="evenodd">
    <circle cx="20" cy="20.5" r="20" fill="url(#a)"></circle>
    <g fill="#FFF" transform="translate(5 5)">
      <path d="M6.85918489,0.326137366 C4.76029053,0.818104014 3.31518312,2.64381647 3.31518312,4.89273108 C3.31518312,7.17389761 4.75869264,8.98883234 6.90306754,9.44714435 C7.78090818,9.71303098 7.77847939,7.22653282 7.73889714,4.79919593 C7.70062474,2.45218439 7.73904241,0.163195953 6.85918489,0.326137366 Z" transform="rotate(50 5.533 4.892)"></path>
      <path d="M25.7922537,0.326137366 C23.6933593,0.818104014 22.2482519,2.64381647 22.2482519,4.89273108 C22.2482519,7.17389761 23.6917614,8.98883234 25.8361363,9.44714435 C26.713977,9.71303098 26.7115482,7.22653282 26.6719659,4.79919593 C26.6336935,2.45218439 26.6721112,0.163195953 25.7922537,0.326137366 Z" transform="scale(-1 1)rotate(50 0 -47.576)"></path>
    </g>
    <g stroke="#FFF" stroke-linecap="round" stroke-linejoin="round" stroke-width="1.5" transform="translate(10 27)">
      <path d="M3.33107045,0.920642921 L0.328827523,4.04667562"></path>
      <path d="M19.6810689,0.920642921 L16.678826,4.04667562" transform="matrix(-1 0 0 1 36.36 0)"></path>
    </g>
    <mask id="c" fill="#fff">
      <use xlink:href="#b"></use>
    </mask>
    <circle cx="20" cy="20.5" r="10.25" stroke="#FFF" stroke-width="1.5"></circle>
    <path fill="#FFF" d="M20.75,21.5 L16,21.5 C15.5857864,21.5 15.25,21.1642136 15.25,20.75 C15.25,20.3357864 15.5857864,20 16,20 L20,20 L20,13.5 C20,13.0857864 20.3357864,12.75 20.75,12.75 C21.1642136,12.75 21.5,13.0857864 21.5,13.5 L21.5,20.75 C21.5,21.1642136 21.1642136,21.5 20.75,21.5 Z" mask="url(#c)"></path>
  </g>
</svg>
