<svg xmlns="http://www.w3.org/2000/svg" xmlns:xlink="http://www.w3.org/1999/xlink" width="40" height="40" viewBox="0 0 40 40" id="clock">
  <defs>
    <circle id="a" cx="20" cy="20" r="20"></circle>
  </defs>
  <g fill="none" fill-rule="evenodd">
    <mask id="b" fill="#fff">
      <use xlink:href="#a"></use>
    </mask>
    <use xlink:href="#a" fill="#FFF"></use>
    <g fill="#000" mask="url(#b)">
      <path d="M1.5,-1.0658141e-13 L1.5,-1.0658141e-13 C2.05228475,-1.06682863e-13 2.5,0.44771525 2.5,1 L2.5,15.145898 C2.5,15.3787657 2.44578236,15.6084353 2.34164079,15.8167184 L1.5,17.5 L0.658359214,15.8167184 C0.554217638,15.6084353 0.5,15.3787657 0.5,15.145898 L0.5,1 C0.5,0.44771525 0.94771525,-1.06479957e-13 1.5,-1.0658141e-13 Z" transform="rotate(60 8.585 34.771)"></path>
    </g>
    <g fill="#000" mask="url(#b)">
      <path d="M1.5,8.8817842e-14 L1.5,8.8817842e-14 C2.05228475,8.87163889e-14 2.5,0.44771525 2.5,1 L2.5,9.14589803 C2.5,9.37876568 2.44578236,9.60843528 2.34164079,9.81671843 L1.5,11.5 L0.658359214,9.81671843 C0.554217638,9.60843528 0.5,9.37876568 0.5,9.14589803 L0.5,1 C0.5,0.44771525 0.94771525,8.8919295e-14 1.5,8.8817842e-14 Z" transform="rotate(-60 18.111 -.271)"></path>
    </g>
    <rect width="1" height="20" x="19.5" y="17" fill="#ED9702" mask="url(#b)"></rect>
    <circle cx="20" cy="20" r="1" fill="#ED9702" mask="url(#b)"></circle>
  </g>
</svg>
