<svg xmlns="http://www.w3.org/2000/svg" xmlns:xlink="http://www.w3.org/1999/xlink" width="40" height="40" viewBox="0 0 40 40" id="itunes">
  <defs>
    <radialGradient id="b" cx="21.31%" cy="89.237%" r="82.425%" fx="21.31%" fy="89.237%" gradientTransform="matrix(0 .76735 -1 0 1.105 .729)">
      <stop offset="0%" stop-color="#7470F9"></stop>
      <stop offset="100%" stop-color="#7A70FE" stop-opacity="0"></stop>
    </radialGradient>
    <radialGradient id="c" cx="83.336%" cy="74.881%" r="66.375%" fx="83.336%" fy="74.881%" gradientTransform="scale(-1 -.76735)rotate(75.067 1.122 -1.198)">
      <stop offset="0%" stop-color="#4CA3F8"></stop>
      <stop offset="36.224%" stop-color="#4CA4F7"></stop>
      <stop offset="100%" stop-color="#4AA2F9" stop-opacity="0"></stop>
    </radialGradient>
    <linearGradient id="d" x1="47.327%" x2="77.402%" y1="14.686%" y2="58.338%">
      <stop offset="0%" stop-color="#FF6380"></stop>
      <stop offset="100%" stop-color="#F65E79" stop-opacity="0"></stop>
    </linearGradient>
    <path id="a" d="M28.6000004,23.3939532 L28.6000004,24.4780035 C28.600399,25.161539 28.5374265,25.8435154 28.4119607,26.5144256 C28.28053,27.2051544 27.9051644,27.8193186 27.3601138,28.235432 L27.3454232,28.235432 C26.7513631,28.6896194 26.044638,28.9564083 25.3093061,29.0040665 L24.7569395,29.040814 C23.867321,29.1021619 23.0040039,28.7121336 22.4387629,27.9935112 C21.8463854,27.2392729 21.6871676,26.2120401 22.0215498,25.3017592 L22.0215498,25.2741986 C22.3414376,24.3923917 23.0526174,23.7276784 23.9283897,23.4919465 L26.1378559,22.8794887 C26.707655,22.7434983 27.1135446,22.217861 27.1191879,21.6086388 L27.1191879,20.0438091 L27.1191879,13.4568257 C27.1198609,13.3035962 27.0537827,13.1583269 26.9395405,13.0618799 C26.8252982,12.965433 26.6752359,12.9282297 26.531564,12.9607348 L17.1413326,14.9389735 C16.8018452,15.0013288 16.5541752,15.3085116 16.5537086,15.6677983 L16.5537086,26.1530755 L16.5537086,26.9308969 C16.5540889,27.6144315 16.4911165,28.296406 16.3656689,28.9673191 C16.2337655,29.6586294 15.8572501,30.2729587 15.3108838,30.6883255 L15.2961932,30.6883255 C14.7021331,31.1425129 13.995408,31.4093017 13.2600761,31.45696 L12.7077096,31.4937074 C11.8180911,31.5550553 10.954774,31.1650271 10.3895329,30.4464046 C9.79715549,29.6921664 9.63793765,28.6649335 9.97231988,27.7546527 L9.97231988,27.7270921 C10.2922076,26.8452851 11.0033875,26.1805718 11.8791597,25.9448399 L14.0886259,25.3323821 C14.658425,25.1963918 15.0643146,24.6707544 15.069958,24.0615322 L15.069958,22.4967026 L15.069958,10.3424778 C15.0707667,9.80951095 15.4343987,9.35214194 15.9367034,9.25230296 L27.7215025,7.01376975 C27.9352535,6.97076877 28.1562554,7.02963227 28.3240059,7.17424557 C28.4917564,7.31885887 28.588682,7.53407229 28.5882479,7.76096825 L28.5882479,23.3939532 L28.6000004,23.3939532 Z"></path>
  </defs>
  <g fill="none" fill-rule="evenodd">
    <circle cx="20" cy="20" r="20" fill="#FFF"></circle>
    <use xlink:href="#a" fill="#BB58BB"></use>
    <use xlink:href="#a" fill="url(#b)"></use>
    <use xlink:href="#a" fill="url(#c)" fill-opacity=".8"></use>
    <use xlink:href="#a" fill="url(#d)" fill-opacity=".8"></use>
  </g>
</svg>
