<svg xmlns="http://www.w3.org/2000/svg" xmlns:xlink="http://www.w3.org/1999/xlink" width="40" height="40" viewBox="0 0 40 40" id="reminders">
  <defs>
    <circle id="a" cx="20" cy="20" r="20"></circle>
    <path id="c" d="M60,41.3159959 C60,42.0292836 60,42.7425714 59.9958172,43.4568929 C59.9926801,44.0575018 59.9853603,44.6581108 59.9686291,45.2587198 C59.9330755,46.566414 59.8546484,47.887547 59.6193669,49.1807687 C59.3809484,50.4946654 58.9919498,51.7175921 58.3760353,52.9115737 C57.7726692,54.0838467 56.984215,55.1568795 56.0430893,56.0872549 C55.1019636,57.0176302 54.0154862,57.7981117 52.8296678,58.3945857 C51.6229356,59.0024309 50.3869238,59.3880198 49.0578452,59.6237149 C47.7486348,59.8563087 46.413282,59.93384 45.0894318,59.9689875 C42.5442096,60 41.8226799,60 41.1011502,60 L27.1880758,60 L18.8998955,60 C16.1267117,59.99173 15.5191628,59.9855275 14.9116139,59.9689875 C13.5877637,59.93384 12.2524109,59.8563087 10.9432005,59.6237149 C9.61412189,59.3880198 8.37811013,59.0024309 7.17137785,58.3945857 C5.98451377,57.7981117 4.89908212,57.0176302 3.95795642,56.0872549 C3.01683072,55.1568795 2.22837652,54.0838467 1.62396468,52.9115737 C1.00909589,51.7175921 0.620097268,50.4946654 0.380633062,49.1807687 C0.145351636,47.887547 0.0679701896,46.566414 0.0324165519,45.2587198 C0.0156854284,44.6581108 0.00836556179,44.0575018 0.00522847612,43.4568929 C-9.40559449e-14,42.7425714 0,42.0292836 0,41.3159959 L0,33.1224905 L0,26.8775095 L0,18.6840041 C0,17.9707164 0,17.2563949 0.00522847612,16.5441409 C0.00836556179,15.9424982 0.0156854284,15.3418892 0.0324165519,14.7412802 C0.0679701896,13.4325523 0.145351636,12.112453 0.380633062,10.8181976 C0.620097268,9.50430087 1.00909589,8.28240794 1.62396468,7.08842627 C2.22837652,5.9151196 3.01683072,4.84208672 3.95795642,3.91274514 C4.89908212,2.98133606 5.98451377,2.20188828 7.17137785,1.60541432 C8.37811013,0.997569104 9.61412189,0.611980217 10.9432005,0.376285134 C12.2524109,0.143691301 13.5877637,0.0661600235 14.9116139,0.031012511 C17.4568361,0 18.1783658,0 18.8998955,0 L27.1880758,0 L40.5092867,0 L32.8119242,0.0031012511 L41.1011502,0 C43.8732883,0.00827000293 44.4808372,0.0144725051 45.0894318,0.031012511 C46.413282,0.0661600235 47.7486348,0.143691301 49.0578452,0.376285134 C50.3869238,0.611980217 51.6229356,0.997569104 52.8296678,1.60541432 C54.0154862,2.20188828 55.1019636,2.98133606 56.0430893,3.91274514 C56.984215,4.84208672 57.7726692,5.9151196 58.3760353,7.08842627 C58.9919498,8.28240794 59.3809484,9.50430087 59.6193669,10.8181976 C59.8546484,12.112453 59.9330755,13.4325523 59.9686291,14.7412802 C59.9853603,15.3418892 59.9926801,15.9424982 59.9958172,16.5441409 C60,17.2563949 60,17.9707164 60,18.6840041 L60,26.8775095 L60,33.1224905 L60,41.3159959 Z"></path>
  </defs>
  <g fill="none" fill-rule="evenodd">
    <mask id="b" fill="#fff">
      <use xlink:href="#a"></use>
    </mask>
    <use xlink:href="#a" fill="#FFF"></use>
    <g mask="url(#b)">
      <g transform="translate(10 -10)">
        <mask id="d" fill="#fff">
          <use xlink:href="#c"></use>
        </mask>
        <use xlink:href="#c" fill="#FFF"></use>
        <g mask="url(#d)">
          <g transform="translate(4.5 12.5)">
            <circle cx="5.5" cy="5" r="4.5" stroke="#FF9500"></circle>
            <circle cx="5.5" cy="5" r="3" fill="#FF9500"></circle>
          </g>
        </g>
        <g mask="url(#d)">
          <g transform="translate(4.5 25)">
            <circle cx="5.5" cy="5" r="4.5" stroke="#2094FA"></circle>
            <circle cx="5.5" cy="5" r="3" fill="#2094FA"></circle>
          </g>
        </g>
        <g mask="url(#d)">
          <g transform="translate(4.5 37.5)">
            <circle cx="5.5" cy="5" r="4.5" stroke="#04DE71"></circle>
            <circle cx="5.5" cy="5" r="3" fill="#04DE71"></circle>
          </g>
        </g>
        <rect width="41" height="1" x="5" y="23.5" fill="#C7C7CC" mask="url(#d)"></rect>
        <rect width="41" height="1" x="5" y="36" fill="#C7C7CC" mask="url(#d)"></rect>
      </g>
    </g>
  </g>
</svg>
