<svg width="141" height="191" viewBox="0 0 141 191" fill="none" xmlns="http://www.w3.org/2000/svg">
<path d="M9.37047 83.8956C9.30716 83.7611 9.25549 83.6919 9.21987 83.6753C9.2135 83.6731 9.20415 83.6713 9.19817 83.6721L9.19519 83.6725C9.23504 83.6521 9.27412 83.6256 9.31358 83.6022C9.40588 83.5414 9.49259 83.4844 9.57372 83.4312C9.7021 83.3443 9.81413 83.2718 9.91201 83.2073C9.99534 83.1477 10.0615 83.0964 10.114 83.0561C10.2699 82.9474 10.2683 82.9354 10.285 82.9241C10.2906 82.9203 10.3092 82.8996 10.3337 82.8782C10.3449 82.8706 10.3616 82.8593 10.3772 82.839C10.385 82.8289 10.3923 82.8157 10.3997 82.8026C10.4057 82.8018 10.4105 82.7921 10.4063 82.7835C10.3957 82.8639 9.95006 83.1962 9.48701 83.4882C9.36382 83.5682 9.24063 83.6483 9.11665 83.7224L9.02356 83.7772C9.00084 83.7893 9.00643 83.7855 9.00643 83.7855L9.01657 83.7933C9.03843 83.8208 9.06029 83.8483 9.07838 83.8703C9.1221 83.9253 9.16464 83.9714 9.19885 84.0003C9.26804 84.0641 9.31443 84.0702 9.34494 84.0479C9.40335 84.0068 9.39043 83.8626 9.36669 83.89L9.37047 83.8956Z" fill="white"/>
<path d="M14.3897 93.4106L14.2173 93.2784L15.0945 94.6309L14.3897 93.4106Z" fill="white"/>
<path d="M18.4192 102.679C18.4452 101.63 16.9185 99.3389 16.3375 97.6282L16.3085 97.3159L15.6665 96.7105C16.5991 98.691 17.9341 101.211 18.4218 102.676L18.4192 102.679Z" fill="white"/>
<path d="M19.5032 107.907C19.541 107.756 19.6478 107.967 19.6558 107.981C19.6463 107.955 19.5852 107.814 19.1572 106.804C19.1815 106.919 19.1833 106.955 19.1953 107.024C19.2687 107.212 19.3797 107.501 19.5036 107.91L19.5032 107.907Z" fill="white"/>
<path d="M19.1945 107.021C19.3018 107.697 18.8167 106.067 19.1945 107.021Z" fill="white"/>
<path d="M21.0728 104.226C21.335 104.602 21.6025 104.971 21.8717 105.331C21.8127 105.044 21.2438 103.979 21.5246 104.334C20.782 103.149 20.8329 103.443 21.0724 104.223L21.0728 104.226Z" fill="white"/>
<path d="M20.1777 103.226L20.5701 103.827C20.5468 103.697 20.4694 103.525 20.1777 103.226Z" fill="white"/>
<path d="M21.4158 105.078C21.1309 104.668 20.8478 104.25 20.5703 103.827C20.6038 104.036 20.4908 104.124 20.9453 104.413C20.775 104.366 21.0242 104.573 21.4162 105.081L21.4158 105.078Z" fill="white"/>
<path d="M21.7831 105.835C21.9352 106.183 22.1264 106.549 22.1718 106.686C22.213 106.815 22.1391 106.83 21.7242 106.311C21.8952 106.571 22.0585 106.795 22.1609 106.904C22.1752 106.92 22.1782 106.92 22.1887 106.93L22.1534 106.962L22.0583 107.048C21.9472 107.151 21.8392 107.253 21.7307 107.352C21.6393 107.443 21.5444 107.553 21.4879 107.609C21.456 107.644 21.4304 107.681 21.4053 107.72C21.3823 107.754 21.366 107.768 21.3546 107.797C21.3266 107.861 21.3561 107.855 21.3239 107.841C21.301 107.828 21.2793 107.825 21.252 107.826C21.2146 107.818 21.1749 107.818 21.1387 107.819C20.972 107.823 20.7569 107.851 20.4952 107.895C20.3619 107.922 20.2283 107.945 20.098 107.972L20.0711 107.975C20.0711 107.975 20.0548 107.944 20.0427 107.921C19.9502 107.727 19.8624 107.614 19.8463 107.677C19.8346 107.702 19.8368 107.766 19.8483 107.853C19.853 107.888 19.8589 107.933 19.8656 107.984C19.8671 107.996 19.8683 108.005 19.8687 108.008L19.8699 108.017C19.8699 108.017 19.8579 108.018 19.8789 108.016L19.9296 108.009C20.0625 107.979 20.1988 107.952 20.335 107.925C20.4504 107.901 20.5661 107.88 20.6856 107.864C20.8174 107.85 20.888 107.831 20.9903 107.824C21.0995 107.821 21.1584 107.808 21.2329 107.819C21.2767 107.829 21.2878 107.821 21.3103 107.83C21.3362 107.842 21.3422 107.841 21.3463 107.85C21.3471 107.856 21.3406 107.829 21.3496 107.828C21.3554 107.803 21.3668 107.774 21.3823 107.754C21.3957 107.74 21.4235 107.697 21.449 107.66C21.4745 107.623 21.5039 107.592 21.5362 107.56C21.6004 107.494 21.6954 107.384 21.7823 107.306C21.8882 107.21 21.9937 107.111 22.1022 107.012L22.2821 106.854L22.3754 106.778C22.3973 106.76 22.3947 106.763 22.3947 106.763L22.3826 106.741C22.3373 106.674 22.2882 106.601 22.2384 106.523C22.1085 106.321 21.9597 106.091 21.7946 105.83L21.7831 105.835Z" fill="white"/>
<path d="M19.0302 102.982L18.7379 101.962L18.249 101.182C18.4949 101.572 18.9322 103.092 19.0302 102.982Z" fill="white"/>
<path d="M17.5066 96.4195C17.3885 96.3773 17.4689 96.9412 17.4055 97.0833L17.9209 97.9728C17.7602 97.4682 17.4098 96.5387 17.5095 96.4191L17.5066 96.4195Z" fill="white"/>
<path d="M17.4056 97.0833L16.6514 95.7419C17.1737 97.0074 17.348 97.2003 17.4056 97.0833Z" fill="white"/>
<path d="M19.6408 103.23C20.1272 103.922 20.6247 104.607 21.1319 105.273C20.5431 104.472 19.9717 103.642 19.4141 102.8L19.6438 103.229L19.6408 103.23Z" fill="white"/>
<path d="M15.3527 91.0285L15.8502 91.7594C15.5699 91.316 15.2976 90.8869 15.0239 90.4244C15.1337 90.6349 15.2445 90.83 15.3527 91.0285Z" fill="white"/>
<path d="M14.0148 87.3112C14.3953 87.8689 13.9954 86.3563 14.3258 86.9723C13.9409 85.9653 13.4989 85.1481 13.0986 84.4167C13.4598 85.2202 13.7509 86.1149 14.0148 87.3112Z" fill="white"/>
<path d="M12.458 83.1759C12.6412 83.5742 12.8614 83.9768 13.0986 84.4167C12.9056 83.9892 12.7025 83.5783 12.458 83.1759Z" fill="white"/>
<path d="M15.7059 93.3163C15.7158 93.1843 15.7634 92.9227 15.5158 92.1043L15.4891 92.7552C15.5541 92.926 15.6283 93.1199 15.7029 93.3167L15.7059 93.3163Z" fill="white"/>
<path d="M15.4889 92.7766L15.4861 92.7556C15.2597 92.1441 15.1096 91.7202 15.043 91.5374C15.1001 91.6941 15.2345 92.0684 15.4893 92.7796L15.4889 92.7766Z" fill="white"/>
<path d="M15.7605 93.458C15.7415 93.4058 15.7244 93.3686 15.7054 93.3164C15.7047 93.3803 15.7094 93.4161 15.7605 93.458Z" fill="white"/>
<path d="M18.058 99.5231C17.5394 98.7708 16.6221 97.1135 17.1812 98.8666C17.6137 99.381 17.2879 98.3844 18.058 99.5231Z" fill="white"/>
<path d="M15.7372 94.2727L16.3061 95.7995C16.3566 95.7443 16.334 95.4342 16.5727 95.8161C16.2894 95.3033 16.009 94.7901 15.7368 94.2697L15.7372 94.2727Z" fill="white"/>
<path d="M15.3672 93.5616L15.7374 94.2727L15.5348 93.7036L15.3672 93.5616Z" fill="white"/>
<path d="M13.17 85.9513C12.8309 85.3152 12.5636 84.5783 12.2539 83.7498C12.5201 84.6631 12.8167 85.5997 13.1242 86.4802C13.2429 86.5739 13.5124 86.9123 13.1704 85.9543L13.17 85.9513Z" fill="white"/>
<path d="M14.2626 89.3059C14.2414 89.2601 14.2156 89.2027 14.1978 89.1594C14.2107 89.258 14.2299 89.3345 14.2626 89.3059Z" fill="white"/>
<path d="M14.3719 77.629C14.3312 77.6435 14.2961 77.6542 14.2551 77.6657C14.2575 77.6836 14.2594 77.6985 14.2618 77.7165L14.3715 77.626L14.3719 77.629Z" fill="white"/>
<path d="M13.1304 86.6435C13.3185 87.333 13.5177 87.714 13.7256 88.0696C13.5268 87.576 13.3234 87.0466 13.1233 86.4742C13.0692 86.4327 13.0446 86.4299 13.13 86.6405L13.1304 86.6435Z" fill="white"/>
<path d="M10.6697 83.2595C10.3556 83.5288 10.06 83.823 9.80122 84.1428C9.89619 84.0331 10.0651 83.8619 10.2434 83.6925C10.4217 83.5231 10.609 83.3526 10.67 83.2624L10.6697 83.2595Z" fill="white"/>
<path d="M14.1828 88.9091C14.1991 88.9404 14.2124 88.9721 14.2291 89.0064C14.2036 88.7666 14.187 88.8022 14.1828 88.9091Z" fill="white"/>
<path d="M14.1831 88.9091C14.0266 88.5741 13.872 88.3239 13.7261 88.0696C13.8887 88.4737 14.0467 88.842 14.1979 89.1594C14.1861 89.0698 14.1828 88.976 14.1861 88.9087L14.1831 88.9091Z" fill="white"/>
<path d="M15.552 74.8687C15.5574 75.0018 15.1874 75.3544 14.6429 75.7666C14.1026 76.1873 13.3955 76.6573 12.7495 77.1527C12.5178 77.4933 12.5059 77.7259 12.5624 77.8552C12.6206 77.9965 12.746 78.0255 12.9223 77.9567C13.0052 77.9397 13.0938 77.9433 13.1719 77.936C13.1898 77.9336 13.2107 77.9309 13.232 77.9311C13.2589 77.9276 13.2858 77.924 13.3127 77.9205C13.3635 77.9138 13.4135 77.9011 13.4698 77.8907C13.6919 77.8462 13.9579 77.7656 14.2552 77.6687C14.2391 77.6161 14.2089 77.5714 14.3189 77.4141C14.4382 77.2586 14.688 76.9856 15.3023 76.5034C15.1684 76.5484 14.9181 76.6787 14.6249 76.8297C14.3449 76.9882 14.022 77.1675 13.776 77.3306C13.6434 77.4089 13.5404 77.4802 13.4537 77.5372C13.367 77.5942 13.2868 77.6321 13.2462 77.6466C13.1679 77.6751 13.1342 77.6036 13.3227 77.3508C13.6493 76.9917 13.9476 76.7639 14.17 76.607C14.3887 76.4444 14.5579 76.3674 14.6924 76.3041C14.9649 76.1801 15.1453 76.1654 15.6126 75.9519C15.1674 76.0562 15.6701 75.6039 16.2493 75.1325C16.8222 74.6589 17.4529 74.1624 17.1439 74.0785L16.3498 74.6026L15.5699 75.143C15.5038 75.103 16.0448 74.664 15.5558 74.8743L15.552 74.8687Z" fill="white"/>
<path d="M12.7748 80.1585C12.6301 80.445 12.4702 80.7305 12.2941 81.009C12.6122 80.5629 12.8705 80.1702 13.1369 79.7461C13.267 79.5344 13.3994 79.3163 13.5469 79.075C13.6164 78.9565 13.6911 78.8311 13.768 78.6994C13.8049 78.6338 13.8449 78.5677 13.8844 78.4987L13.9435 78.3936L13.9583 78.3674L13.9635 78.3606C13.6906 78.2506 14.5724 78.5995 13.3537 78.1157L13.3635 78.1205L13.3983 78.1311C13.4429 78.1465 13.4904 78.1615 13.5354 78.1799C13.6347 78.2185 13.7288 78.2638 13.8144 78.3134C13.8572 78.3381 13.8999 78.3629 13.9401 78.391C13.957 78.404 13.9409 78.397 13.9413 78.4C13.9272 78.4079 13.9319 78.3982 13.9393 78.385L13.9537 78.3558C13.9633 78.3363 13.9699 78.3172 13.9731 78.2955C13.9767 78.2768 13.983 78.2547 14.0037 78.2276C14.0696 78.1278 14.1135 78.046 14.1505 77.9803C14.2475 77.8399 14.2683 77.7673 14.2676 77.7157C14.1858 77.7872 14.0828 77.8586 14.0159 77.9282L13.8139 78.125C13.7961 78.1516 13.775 78.1757 13.7538 78.1998L13.7219 78.2344L13.706 78.2517L13.6216 78.2111C13.5732 78.1901 13.5249 78.1691 13.4739 78.1515L13.3975 78.1251L13.3593 78.1119L13.3533 78.1127L13.3529 78.1097C13.0453 77.9891 13.7667 78.2741 13.6928 78.2443L13.6914 78.2566L13.666 78.3177L13.6153 78.4399C13.3482 79.089 13.0414 79.7829 12.6363 80.4685L12.7714 80.1559L12.7748 80.1585Z" fill="white"/>
<path d="M9.92347 83.917C10.1317 83.5826 10.5015 83.0445 10.7489 82.6381C11.0056 82.2335 11.0765 81.987 10.7927 82.301C10.395 82.9279 10.2067 83.2749 10.0655 83.5184L11.1556 82.4721C11.3778 82.8896 11.4871 82.8661 11.8068 83.5625C11.4906 82.7076 11.3903 82.4077 11.3979 82.3733L9.95977 83.7542C9.95977 83.7542 9.96496 83.7474 9.95498 83.7639L11.4069 82.3721C11.4862 82.4437 11.9966 83.5497 11.6552 82.2725L9.84447 84.0095C9.85964 83.9862 9.88817 83.949 9.9197 83.9114C9.88896 83.955 9.86082 83.9952 9.83786 84.0286L11.6757 82.2668C11.9012 82.8024 12.0839 83.289 12.254 83.7498C12.0983 83.2141 11.957 82.6948 11.8345 82.2033L9.76453 84.1872C9.76453 84.1872 9.78827 84.1597 9.79865 84.1462L9.76673 84.1808L11.8259 82.2075L11.8279 82.2224L11.8328 82.237C11.8328 82.237 11.8328 82.237 11.8269 82.2377C11.8424 82.3786 11.8401 82.4305 11.8047 82.2771L11.7827 82.2253L9.78292 84.1422L9.7907 84.1321C9.81767 84.0829 9.86797 84.0033 9.91828 83.9238C10.4963 83.2124 9.98109 83.8699 9.7907 84.1321C9.7885 84.1384 9.78332 84.1452 9.77813 84.152L11.7913 82.2212C11.7913 82.2212 11.8149 82.2393 11.8269 82.2377C11.8265 82.2348 11.8257 82.2288 11.8253 82.2258L11.8233 82.2109L9.76673 84.1808C10.1024 83.7293 10.49 83.2801 10.9367 82.7714C11.3782 82.2695 11.8777 81.6779 12.292 81.0154C12.012 81.4049 11.6736 81.8354 11.2618 82.3091C10.8504 82.7858 10.3855 83.2939 9.92127 83.9234L9.92347 83.917Z" fill="white"/>
<path d="M15.9752 97.5543C15.9558 97.4536 15.9737 97.4512 15.9901 97.4369C15.8791 97.2631 15.8282 97.1999 15.9752 97.5543Z" fill="white"/>
<path d="M15.5996 96.2938C15.7232 96.4934 15.893 96.6291 16.1701 97.3251C16.3619 97.9503 16.0549 97.3737 15.9903 97.4369C16.2358 97.824 16.8056 98.8037 16.3429 97.4604L16.2206 97.2698C15.7824 96.0661 15.4666 94.4299 15.5863 94.6239C15.5126 95.0561 15.4787 95.4222 15.6026 96.2935L15.5996 96.2938Z" fill="white"/>
<path d="M13.4372 89.2018L12.4438 86.737L12.6771 88.0922L12.781 87.9813C13.2264 89.4241 13.2755 89.059 13.4372 89.2018Z" fill="white"/>
<path d="M14.6624 77.5726C14.6375 77.7065 14.6032 77.8387 14.5959 77.9673C14.7094 77.7913 14.8615 77.6071 14.9982 77.422L15.4726 76.8701C15.1934 77.1044 14.9045 77.334 14.6594 77.573L14.6624 77.5726Z" fill="white"/>
<path d="M17.3794 75.8408L17.3872 76.1072L18.09 75.5588L17.3794 75.8408Z" fill="white"/>
<path d="M116.181 151.415C115.919 151.48 115.655 151.554 115.39 151.614C115.769 151.536 116.006 151.469 116.181 151.415Z" fill="white"/>
<path d="M121.863 149.949L121.957 149.788C121.726 149.943 121.632 150.019 121.863 149.949Z" fill="white"/>
<path d="M87.2119 58.7003C87.4108 59.8413 87.541 61.1524 87.745 60.9249L87.863 60.5051C87.5368 59.7821 87.3449 59.2026 87.2149 58.6999L87.2119 58.7003Z" fill="white"/>
<path d="M111.647 111.247C111.623 111.138 111.599 111.025 111.572 110.913C111.372 110.706 111.182 110.509 111.013 110.334C111.204 110.609 111.418 110.918 111.644 111.247L111.647 111.247Z" fill="white"/>
<path d="M112.971 111.495L113.471 112.912C113.379 112.584 113.219 112.128 112.971 111.495Z" fill="white"/>
<path d="M91.5733 166.231L90.8869 166.88C92.1512 166.234 91.5344 166.397 91.5733 166.231Z" fill="white"/>
<path d="M49.5476 62.005C50.4957 61.7494 51.2364 61.512 51.8808 61.2813C50.7258 61.558 49.7611 61.6881 49.5476 62.005Z" fill="white"/>
<path d="M117.788 148.249C117.355 148.4 117.176 148.497 117.202 148.551C117.653 148.398 117.9 148.289 117.788 148.249Z" fill="white"/>
<path d="M54.5175 60.2804C54.3458 60.3152 54.1851 60.3637 54.0141 60.4045C53.3631 60.6999 52.7019 60.9876 51.8804 61.2813C52.732 61.0779 53.6877 60.7879 54.5171 60.2774L54.5175 60.2804Z" fill="white"/>
<path d="M24.6451 122.278C24.6255 122.199 24.592 122.106 24.5791 122.032C24.5383 122.022 24.5764 122.126 24.6451 122.278Z" fill="white"/>
<path d="M14.834 91.1759C14.9663 91.4654 15.1609 91.9504 15.3486 92.4059C15.2757 92.1754 15.1233 91.8034 14.834 91.1759Z" fill="white"/>
<path d="M29.8135 70.1392C29.7194 70.2093 29.1509 70.4392 29.8135 70.1392Z" fill="white"/>
<path d="M26.1591 70.5932C26.2901 70.503 26.3796 70.4213 26.3743 70.3582C26.3457 70.441 26.2677 70.5181 26.1591 70.5932Z" fill="white"/>
<path d="M60.7496 56.2043C60.7701 56.1985 60.7872 56.1902 60.8078 56.1844C60.5867 56.2136 60.6255 56.2084 60.7496 56.2043Z" fill="white"/>
<path d="M28.7611 70.4571C29.0245 70.3799 29.3247 70.2826 29.6465 70.1642C29.4999 70.2048 29.2317 70.2918 28.7611 70.4571Z" fill="white"/>
<path d="M28.9455 70.515C28.7113 70.6066 28.529 70.6762 28.3523 70.742C28.2863 70.8176 28.3703 70.8096 28.9455 70.515Z" fill="white"/>
<path d="M30.7416 69.7313C30.3622 69.8967 30.001 70.0385 29.6501 70.1668C29.7877 70.1274 29.8501 70.1162 29.817 70.1418C30.0123 70.0553 30.2881 69.9338 30.7416 69.7313Z" fill="white"/>
<path d="M48.0737 177.295C48.0644 177.247 48.0454 177.195 48.0383 177.141C47.6562 176.502 47.7949 176.794 48.0737 177.295Z" fill="white"/>
<path d="M96.7946 75.3315C96.7783 75.3002 96.7644 75.2868 96.7515 75.2581C96.7618 75.2902 96.7762 75.3309 96.7832 75.3604L96.7942 75.3285L96.7946 75.3315Z" fill="white"/>
<path d="M97.9785 77.674C97.2515 76.7698 97.045 76.1708 96.7836 75.3633L96.4196 76.4538L97.9785 77.674Z" fill="white"/>
<path d="M106.877 158.2L108.624 157.572C106.821 158.925 105.327 159.538 107.016 159.048C106.945 158.626 108.532 157.793 110.115 156.962C110.51 156.752 110.905 156.542 111.277 156.344C111.662 156.132 111.941 155.983 112.381 155.7C113.118 155.18 113.484 154.682 113.405 154.477C113.813 154.18 114.209 153.845 114.578 153.389C114.293 153.785 114.28 153.872 113.971 154.205C114.867 153.439 115.207 152.65 115.232 151.85C115.237 151.448 115.174 151.037 114.978 150.616C114.928 150.51 114.875 150.405 114.818 150.297C114.75 150.196 114.676 150.1 114.596 149.998C114.556 149.948 114.516 149.899 114.473 149.847C114.43 149.798 114.383 149.762 114.334 149.716C114.237 149.629 114.138 149.541 114.032 149.452L113.316 151.589C113.727 151.474 114.264 151.397 115.034 151.314C116.128 151.222 116.908 151.189 116.181 151.418C116.978 151.216 117.767 150.975 118.542 150.718C119.235 150.554 119.105 150.744 118.41 150.897C119.621 150.579 120.811 150.2 121.978 149.761L121.961 149.794C122.19 149.639 122.571 149.415 122.954 149.183C123.333 148.944 123.722 148.717 123.968 148.554C124.877 148.279 123.572 148.825 123.83 148.821L124.729 148.311L125.61 147.775C126.454 147.579 125.03 148.563 123.691 149.083C124.742 149.078 125.124 148.842 125.723 148.444C126.026 148.252 126.374 147.991 126.898 147.703C127.028 147.625 127.166 147.546 127.32 147.462C127.493 147.369 127.677 147.272 127.879 147.163C128.412 146.85 129.039 146.512 129.801 146.089C129.385 146.387 128.948 146.67 128.515 146.964C128.297 147.108 128.075 147.265 127.858 147.4L127.412 147.681C127.496 147.67 127.578 147.65 127.664 147.629L127.79 147.597L127.852 147.58L127.945 147.547C128.199 147.449 128.475 147.303 128.754 147.163C129.315 146.874 129.915 146.539 130.551 146.149C130.872 145.954 131.204 145.753 131.55 145.54C131.62 145.521 131.574 145.47 131.556 145.43L131.493 145.298C131.451 145.209 131.409 145.121 131.364 145.032C131.277 144.852 131.191 144.666 131.1 144.481C130.752 143.727 130.338 142.891 129.902 141.939C129.988 142.174 130.237 142.771 130.506 143.428C130.772 144.086 131.029 144.797 131.207 145.336L131.222 145.385L131.231 145.408C131.231 145.408 131.233 145.423 131.222 145.428C131.182 145.448 131.142 145.466 131.101 145.483C131.024 145.521 130.95 145.555 130.875 145.589C130.732 145.654 130.599 145.711 130.484 145.759C130.254 145.853 130.088 145.909 130.003 145.914C129.919 145.919 129.915 145.871 130.017 145.763C130.068 145.711 130.14 145.64 130.242 145.557C130.294 145.514 130.352 145.47 130.415 145.416C130.448 145.39 130.481 145.364 130.517 145.335L130.572 145.292L130.599 145.27L130.613 145.259C130.613 145.259 130.605 145.248 130.605 145.242C130.426 144.834 130.192 144.345 129.877 143.754C129.713 143.46 129.528 143.14 129.319 142.8C129.216 142.635 129.108 142.46 128.992 142.278C128.906 142.15 128.831 142.047 128.739 141.925C128.99 141.777 128.383 140.811 127.687 139.568L128.072 139.469C127.239 138.172 127.122 138.372 126.545 137.655C125.771 136.122 125.869 135.668 125.901 135.193C124.666 132.739 126.37 137.092 124.778 134.256C123.829 132.174 122.96 130.817 121.491 128.5C120.87 127.02 121.828 128.641 121.663 128.079L120.735 126.962C120.581 126.65 120.716 126.706 120.787 126.736C120.135 125.728 120.398 126.827 119.454 125.197C118.851 124.936 118.25 121.483 116.785 119.616C116.629 119.053 117.12 119.757 117.176 119.534C115.475 116.819 115.754 117.186 114.209 115.028L113.461 112.908C113.916 114.51 112.696 112.774 111.64 111.242C111.769 111.827 111.874 112.329 111.969 112.654L110.502 110.103C110.405 109.757 110.654 109.964 111.009 110.328C110.893 110.161 110.781 110.005 110.692 109.883C110.362 108.878 110.8 109.27 111.324 109.855C111.407 110.212 111.49 110.566 111.569 110.908C112.094 111.459 112.624 111.954 112.761 111.72C112.638 111.569 112.444 111.254 112.249 110.9C112.389 111.043 112.491 111.127 112.488 111.033C112.48 110.925 112.272 110.687 111.975 110.298L112.072 109.513L111.847 109.443C111.368 108.256 110.913 107.058 110.446 105.867C109.666 104.721 108.871 103.677 108.033 102.431C107.2 101.182 106.307 99.7378 105.316 97.7954C106.054 98.6465 105.88 97.7909 106.244 97.6913C106.384 98.9344 107.805 100.683 108.681 102.762C108.225 101.677 108.495 101.836 108.677 102.082L106.665 98.5811C106.982 98.5364 106.517 97.7101 106.19 96.7046C105.963 97.6798 104.594 94.1368 103.753 92.7186C103.897 92.5416 104.247 92.8178 105.021 94.658C104.534 92.4637 103.204 92.3533 102.676 90.2191C102.875 90.6641 102.957 90.9148 103.129 91.0501C102.498 90.0846 101.518 87.4721 101.941 88.003L102.139 88.448C100.886 85.4642 98.2366 79.4029 97.5748 79.1557C97.6223 79.1008 98.3118 79.3049 98.4824 79.4465C97.1909 77.9024 95.9392 76.3378 94.6611 74.7797C95.263 75.0804 95.4835 72.8781 96.7425 75.2593C96.5059 74.5246 96.2068 73.6156 95.4396 72.1757C95.5828 72.6857 95.3543 73.6276 95.0409 72.9789C94.7428 70.9696 94.7665 71.6109 94.2392 69.2001C94.4465 69.9661 93.48 69.4126 93.032 68.2497C93.1996 68.3918 93.624 67.8982 93.8617 68.2954L92.0752 65.6706C92.471 66.3449 92.6596 65.5845 92.5835 64.8681C92.5776 65.2154 91.6131 62.3698 91.2509 61.6273L91.5868 62.9082C90.9928 61.26 90.4546 60.5437 89.9109 59.8311C89.3728 59.1148 88.8295 58.4052 88.2259 56.7765C88.5082 57.1193 89.4014 57.4393 88.8516 55.758C88.5457 55.4426 87.8351 54.7551 87.0307 53.7942C86.2383 52.8317 85.3555 51.5985 84.694 50.1993L84.6888 50.045L84.6876 49.9661L84.6924 49.9108L84.7099 49.6744C84.4961 49.274 84.2975 48.9202 84.1172 48.6127L83.8412 48.7554C83.9066 48.6982 83.9776 48.6372 84.15 48.5385C84.319 48.5983 84.5616 48.7791 84.89 49.1492C85.2104 49.5051 85.6497 50.1403 86.0602 50.7184C86.8967 51.9 87.7255 53.1617 88.2955 54.0744C87.975 52.7944 88.3828 53.6526 87.6826 51.8208C87.6158 51.1062 88.3184 52.7249 88.5316 53.2591L87.0166 48.8417C86.9417 48.9883 86.6861 48.5479 86.383 47.9313C86.0791 47.3087 85.7198 46.4958 85.4126 45.8251C84.3575 46.2832 83.5675 46.6547 83.655 46.7648L85.2991 46.071L86.4301 48.6576L86.5785 48.9997C86.6263 49.1089 86.6844 49.2502 86.7124 49.3012L86.9152 49.7335L87.3205 50.595C87.2032 50.7198 86.8787 50.4252 86.4648 49.8445C86.4128 49.7723 86.3599 49.6942 86.3037 49.6134C86.2769 49.5714 86.2505 49.5323 86.2203 49.4876L86.1784 49.4232L86.1273 49.3357C85.9889 49.0926 85.8489 48.8375 85.7111 48.576C85.4326 48.0534 85.1572 47.5091 84.8941 46.942C84.032 47.32 83.1888 47.656 82.3127 47.9507C81.8986 48.0144 81.982 47.7936 82.1556 47.5428C82.396 47.268 82.8691 46.9139 82.8135 46.8604C82.7405 46.9065 82.615 46.9686 82.4577 47.0441C82.3802 47.0786 82.2915 47.1207 82.1969 47.1635C82.151 47.1848 82.1022 47.2064 82.0504 47.2284C82.0161 47.2451 81.9818 47.2618 81.9476 47.2784C81.6644 47.413 81.3137 47.5656 80.9651 47.7118C80.2677 48.0012 79.5749 48.2566 79.4176 48.2621L80.6396 47.5936C78.8892 48.0582 78.0506 49.0987 75.881 49.4726C75.1698 49.7031 73.6005 49.7426 73.5631 50.012C74.8692 50.0284 75.5799 51.2934 74.9327 51.8954C74.6763 51.9565 71.0915 52.8238 70.2114 52.9033C68.9303 52.9839 71.6533 51.4581 70.5619 51.5258C70.5563 51.6451 69.9655 52.0056 69.7134 52.1452C68.9443 52.3286 69.9023 51.71 68.3146 52.3477C68.1899 52.8322 65.0423 53.5112 67.6768 52.9514C66.1503 53.6388 65.9807 53.4818 64.1456 54.1795C64.8246 54.2116 62.8059 55.6386 61.2798 56.329C61.3354 56.197 60.9377 56.2008 60.7437 56.205C57.5227 57.3649 55.7369 57.8372 52.7489 58.9663C52.4372 58.977 50.9566 59.4121 51.506 59.0145C51.102 59.2471 50.7589 59.5263 49.8399 59.8875C47.9314 60.2361 51.8726 59.0513 50.3625 59.1712C50.3307 59.4368 48.1006 60.3901 46.8449 61.0327C47.3806 61.2235 49.8944 59.932 51.1573 59.2975C51.3439 59.7684 49.2475 61.1357 46.2251 62.5581C43.802 63.6372 45.0361 62.6691 44.6321 62.9017C39.9639 64.6351 41.0113 65.2722 37.0444 66.4695C35.4049 66.7827 36.7353 65.8993 36.3083 65.8187C38.2622 64.8927 39.4628 64.7771 40.8152 64.2221L39.0847 64.7448C39.6823 64.3895 40.9909 63.7795 41.7581 63.5811C40.3684 63.8068 33.9174 66.6352 30.2776 67.8927C29.6905 68.2588 28.6496 68.8245 29.2141 68.7258L30.3159 68.2068C31.4453 68.0125 28.3531 69.4349 29.8143 68.9446C28.3854 69.7498 26.8284 70.7361 24.6815 71.5356L24.1377 71.3762C24.2264 71.4496 25.5942 70.9655 26.1361 70.6023C25.3311 71.1369 22.7206 71.5781 21.9812 72.4718L23.5429 72.029C22.1382 72.8797 20.4885 74.0848 18.6657 74.8994C19.638 74.8047 19.0584 74.6501 20.5171 74.3941C19.8467 74.4277 20.9976 73.8658 22.0797 73.3585C23.1584 72.8486 24.1654 72.3938 23.1382 72.5565C24.6853 72.3952 25.5467 71.6891 27.4841 71.3062C27.3815 71.2194 26.7653 71.3644 28.346 70.7428C28.4017 70.6808 28.5508 70.5669 28.6449 70.4968C28.6945 70.4811 28.7117 70.4728 28.7523 70.4583C28.7198 70.4656 28.6934 70.4722 28.6613 70.4825C28.7219 70.435 28.7275 70.4312 28.6262 70.4932C28.2337 70.6057 27.9086 70.6758 27.7587 70.6682C28.4186 70.0707 30.9152 69.0184 31.7059 68.5374C32.6617 68.2018 31.3707 68.8308 31.9297 68.7359L33.1105 68.0089C33.3402 68.2066 35.7663 67.4038 33.6251 68.4548L35.6106 67.6523C36.8374 67.3204 38.4668 66.7228 39.4193 66.2235C40.38 65.9025 41.6804 64.9987 40.9408 65.5216L44.0101 64.1325L44.0624 64.1834C47.1659 63.0086 50.2775 61.2949 54.0024 60.406C55.0238 59.9463 56.0754 59.4613 57.8552 58.8742L58.2775 58.9645C59.5935 58.3869 62.3992 57.6739 62.8945 57.2348C64.5638 57.2854 69.4808 54.9478 71.8915 54.1896L71.8767 53.8693C73.5178 53.2915 75.0516 52.6365 77.0431 51.7876L76.8272 51.579C77.6654 51.1585 78.806 50.7955 80.0837 50.4114C80.7208 50.2181 81.3934 50.017 82.0806 49.811C82.3812 49.7167 82.6844 49.619 82.9881 49.5243C83.1403 49.48 83.2887 49.43 83.436 49.3711C83.3849 49.4447 83.2944 49.4961 83.19 49.5342C83.1378 49.5532 83.0818 49.5667 83.0224 49.5775C82.9545 49.5926 82.9354 49.586 82.7704 49.6259C82.8182 49.6196 82.8772 49.6058 82.9131 49.6011L82.977 49.6018L83.0985 49.601C83.1743 49.6001 83.2464 49.5936 83.3155 49.5876C83.45 49.5699 83.5739 49.5414 83.7048 49.4968C83.7867 49.7261 83.8907 49.9161 84.0208 50.1421C84.0373 50.1521 84.1296 50.3679 84.1982 50.5199L84.4167 51.0018C84.5624 51.323 84.7076 51.6413 84.8525 51.9565C85.4238 53.2247 85.937 54.4671 86.2246 55.6815C86.6008 56.3918 86.7768 56.9431 86.9123 57.4875C86.8849 57.4182 86.8558 57.3582 86.8278 57.3072C86.8533 57.3859 86.8956 57.4989 86.9412 57.6144C87.0231 57.9593 87.1036 58.3165 87.2029 58.7015C87.1435 58.3659 87.0805 58.049 87.0055 57.7792C87.2298 58.3515 87.595 59.2092 87.984 60.0394L87.851 60.5067C87.8814 60.5757 87.9038 60.6305 87.9342 60.6994C88.1616 61.5722 88.3259 61.3195 88.3542 60.7961C88.5662 61.2058 88.7735 61.5797 88.9589 61.8562C88.788 62.7055 89.9835 64.0282 89.8802 65.136C90.3215 65.625 91.7552 69.3328 92.4155 69.5923C92.365 69.6476 92.4359 69.9087 92.2483 69.4532C92.5761 70.4191 92.9039 71.3851 93.379 72.1766L93.2009 72.7168L94.5103 74.5807C94.8196 75.9138 94.9157 76.4817 94.1375 75.3502C95.7888 78.1722 95.2853 77.7187 96.7639 80.0832L96.4923 80.0521C96.8878 80.9544 97.7973 82.2753 97.8489 82.8977C98.2743 85.1121 102.131 92.911 104.096 98.2266C104.276 96.9385 104.911 100.745 105.497 100.72C105.485 101.089 105.73 101.844 105.216 101.073C106.564 103.628 106.806 105.119 108.072 106.724C108.063 107.093 107.587 106.271 107.624 106.576C107.756 106.772 108.148 107.343 108.186 107.657C108.224 107.965 107.879 107.336 107.619 106.954C108.905 109.608 109.492 109.658 110.022 109.643C110.468 111.086 110.821 111.742 111.576 112.576C111.661 113.111 111.889 113.966 111.043 112.342C111.257 112.809 111.891 114.251 112.52 115.567C113.16 116.874 113.796 118.058 113.995 118.02C114.051 118.353 114.61 119.322 114.77 119.544C115.773 121.624 115.839 121.819 116.899 123.826L116.67 123.236C117.489 123.824 117.618 124.871 118.495 126.476L118.427 126.451C120.045 130.335 119.402 127.985 120.966 131.834L121.12 131.5C121.485 131.528 121.823 132.384 122.244 133.483C122.668 134.579 123.17 135.92 123.841 136.926L123.578 136.082C124.382 137.138 124.549 139.72 125.12 140.913C125.208 141.19 124.826 140.556 124.6 140.221C125.928 143.429 125.148 140.435 126.455 142.649C126.479 142.907 126.291 142.834 126.198 142.889C126.149 142.917 126.127 142.978 126.165 143.128C126.184 143.201 126.218 143.3 126.271 143.427C126.301 143.49 126.331 143.559 126.369 143.639L126.382 143.667L126.384 143.679L126.392 143.699C126.397 143.711 126.402 143.726 126.41 143.74C126.401 143.811 126.469 143.89 126.601 144.034C126.636 144.072 126.675 144.112 126.714 144.156C126.744 144.197 126.837 144.258 126.78 144.287C126.731 144.357 126.667 144.447 126.582 144.541C126.491 144.635 126.407 144.731 126.258 144.845C125.958 145.039 125.66 145.246 125.348 145.414C124.734 145.766 124.117 146.042 123.562 146.188C124.076 146.12 124.605 146.05 123.604 146.644C122.809 147.047 121.636 147.35 120.497 147.634C119.355 147.918 118.25 148.182 117.527 148.597C117.297 148.606 117.206 148.584 117.189 148.55C116.714 148.701 116.012 148.884 115.268 149.052C114.895 149.129 114.513 149.209 114.147 149.285C113.778 149.352 113.429 149.419 113.115 149.485L111.387 149.861L112.603 151.017C112.637 151.049 112.689 151.076 112.726 151.101C112.745 151.129 112.79 151.148 112.812 151.172C112.827 151.197 112.857 151.218 112.882 151.245C112.895 151.274 112.917 151.301 112.938 151.326C112.888 151.36 112.81 151.415 112.77 151.46C112.746 151.485 112.708 151.517 112.682 151.551C112.659 151.581 112.63 151.615 112.593 151.657C112.47 151.813 112.3 152.039 112.062 152.292C111.828 152.545 111.537 152.823 111.211 153.076C111.049 153.204 110.879 153.32 110.704 153.428C110.487 153.557 110.27 153.686 110.053 153.815C108.325 154.842 106.75 155.803 106.555 155.388L102.752 157.385L102.81 157.249C100.335 158.442 99.5707 159.08 98.8094 159.715C98.214 159.949 98.5896 159.662 98.6142 159.595C94.9543 161.254 94.6178 161.468 91.8277 163.407L91.3788 163.299C90.6451 163.867 85.9965 165.519 82.6497 167.616C82.6677 167.568 82.7138 167.48 82.9757 167.299C79.1909 169.625 73.1544 171.377 72.2028 173.083L69.7223 174.65C73.1289 173.007 69.4344 175.326 70.9035 174.78C69.608 175.513 67.3293 176.236 68.9334 175.353L69.2113 175.27C69.5513 174.46 64.934 177.226 64.8492 176.836C61.5416 178.539 58.2364 180.145 54.9815 181.716C54.5757 181.912 54.17 182.109 53.7642 182.305C53.5377 182.408 53.3145 182.513 53.0879 182.616C52.8922 182.7 52.6911 182.811 52.5158 182.865L52.2882 182.244L52.1789 181.946L52.123 181.798L52.0351 181.569C51.8717 181.159 51.7083 180.749 51.5478 180.339C51.2184 179.522 50.8897 178.711 50.5644 177.903L50.4624 178.813L49.5575 176.558C49.4079 175.931 49.5484 175.636 50.1948 177.243C50.0772 176.305 48.891 174.637 48.7833 174.627C47.6528 171.42 49.7638 175.656 49.378 174.688L48.8062 173.393L48.8812 173.708C48.2766 172.718 48.0611 172.698 47.2866 170.763C46.8634 169.512 47.2788 170.035 47.0962 169.548C47.1252 169.538 47.0729 169.372 46.8042 168.809L45.6697 165.964L45.8148 167.228C45.1383 166.037 44.7338 164.559 44.9075 166.016C44.6761 163.867 40.7487 155.372 40.4385 154.125C39.4781 152.464 38.7691 150.728 37.9101 148.567C38.063 149.128 37.8332 149.599 37.1125 147.727C38.1369 148.097 36.037 144.2 35.9561 142.478C36.1517 143.963 33.6983 137.244 34.057 139.552C33.4792 137.981 34.2971 139.344 33.9898 138.096C32.1863 134.534 30.8378 129.903 28.8725 125.39C28.7437 125.358 28.9073 126.185 28.3607 125.266L27.8654 122.66C27.4489 121.781 26.9603 122.065 26.6252 120.282C26.6389 120.548 26.655 120.947 26.3764 120.354C23.1999 111.238 18.5155 102.28 15.7641 92.8376C16.067 94.1442 15.72 93.3327 15.3351 92.3956C15.5336 93.026 15.0879 92.4798 15.0012 92.6523L13.8515 88.7005C13.2019 88.1538 12.221 84.6296 11.7218 84.3701L12.2484 85.553C11.2039 84.107 12.1913 88.1654 11.5681 88.1411C12.7531 89.754 12.7495 93.1647 14.6178 95.8335C14.77 96.5277 14.2225 95.3476 14.2385 95.7467C14.7684 96.4003 15.1794 97.2823 15.754 98.9908L15.6198 98.8261C17.5745 103.49 18.167 105.588 20.1626 110.908L20.2674 110.411C20.6947 111.556 20.7092 111.827 20.8583 112.382C21.7886 113.515 19.5851 109.2 20.5101 110.2C20.5846 111.92 23.7604 118.17 23.5651 119.433C24.2744 121.172 23.6607 118.797 24.37 120.536L24.3941 121.065L24.787 121.418C25.2185 122.571 25.2475 123.229 25.1241 123.331C25.0262 123.049 24.7613 122.561 24.6289 122.271C25.0407 123.828 26.4048 126.408 26.5481 126.942L25.9642 125.232C28.0636 129.91 30.2263 135.783 32.4464 140.223L32.4273 139.824C34.097 143.224 33.4419 142.682 35.1299 146.474L35.0431 146.346C35.4841 147.063 35.9684 148.063 36.3869 149.117C35.8415 148.207 36.8553 151.059 36.1708 149.854C37.9819 153.542 37.1366 151.648 38.6328 153.961L38.6652 154.623C39.2052 155.399 39.3306 155.429 40.1759 157.323C39.3493 155.824 40.3661 158.675 39.4054 157.011C40.6128 161.217 42.3251 162.794 42.4276 164.911C43.7611 166.52 41.3079 161.302 41.8567 162.284C41.6867 161.34 42.9126 163.631 43.3767 164.917C43.8932 166.207 43.546 167.402 44.892 170.629C44.7613 170.306 44.7093 170.303 44.5786 169.98C44.9313 171.25 45.7551 172.266 46.1307 173.849C46.82 174.536 46.9053 175.783 47.4476 175.839L46.1208 172.92C46.9315 174.552 48.0959 175.915 48.9906 178.785C48.8119 178.605 48.3545 177.832 48.0553 177.291C48.2602 178.155 48.7849 178.815 48.9997 179.708C48.4603 179.651 47.4153 176.148 46.3364 174.487C46.5097 175.434 48.0621 177.758 47.2123 177.053C48.3567 178.103 48.4502 180.266 49.8195 182.262L49.4955 182.226C49.5428 182.308 49.6022 182.413 49.6725 182.531C49.7114 182.596 49.7382 182.638 49.7875 182.735C49.8405 182.837 49.8976 182.948 49.9548 183.059C50.1809 183.507 50.4147 183.989 50.6119 184.471C50.2859 184.003 49.9336 183.475 49.5548 182.884C49.9303 183.588 50.2349 184.262 50.5195 184.97C50.6601 185.322 50.796 185.684 50.9326 186.052L51.134 186.612C51.284 186.574 51.4568 186.478 51.6212 186.411C52.2824 186.123 52.9641 185.83 53.6654 185.5C54.0145 185.336 54.3689 185.165 54.719 184.985L54.9552 184.862L55.1053 184.779C55.2043 184.723 55.303 184.665 55.4009 184.6C54.8134 184.893 54.357 185.121 54.0034 185.298C53.5608 185.514 53.2482 185.656 53.0353 185.748C52.6063 185.929 52.5594 185.895 52.6111 185.803C52.6628 185.712 52.811 185.567 52.8023 185.502C52.7937 185.436 52.6342 185.448 52.1145 185.656C52.9054 185.199 53.5228 184.857 54.0462 184.584C54.1773 184.518 54.3025 184.453 54.4221 184.392C54.5279 184.341 54.6277 184.292 54.722 184.246C54.8736 184.174 55.0145 184.113 55.1472 184.059C55.6695 183.847 56.0368 183.775 56.4225 183.703C57.1933 183.556 58.0393 183.402 60.3768 182.133C59.7527 182.495 57.8923 183.208 58.8338 182.58C59.7618 182.172 61.0016 181.662 61.6237 181.516C64.7342 179.863 61.0076 181.5 62.2651 180.663C63.4925 180.428 63.7407 179.751 65.0639 178.95L65.2068 179.205C68.8672 177.55 65.8807 178.183 69.1986 176.743L68.021 177.795L69.6501 176.848L69.454 177.321C71.1687 176.171 71.7641 175.937 73.5943 175.11C73.0847 175.14 73.5897 174.521 75.1661 173.705C76.3237 173.309 74.6861 174.261 76.9131 173.077C76.4883 173.497 76.0385 173.982 74.939 174.242C74.8809 174.378 74.5228 174.659 74.4616 174.795C75.7136 174.378 77.4045 173.346 78.2159 172.929C77.8984 173.081 77.5172 173.255 77.3064 173.317L80.3749 171.299C80.9367 171.133 80.57 171.419 80.206 171.701C80.851 171.336 81.2456 170.986 82.2017 170.468C82.0578 170.806 82.2283 170.994 80.9078 171.791L83.8875 169.976C84.1408 169.961 85.6069 169.415 85.2433 169.7C87.0257 168.948 89.2497 167.142 91.6106 166.144C91.7068 166.043 91.9259 165.883 92.3939 165.606C94.5601 164.561 96.5885 163.853 98.9788 162.271L100.609 161.913C102.553 160.815 98.4166 162.433 101.656 160.602C103.938 159.286 102.694 160.477 103.571 160.164C104.637 159.379 106.465 157.959 108.775 157.169C108.1 157.604 107.513 157.833 106.859 158.199L106.877 158.2ZM130.562 145.287C130.255 145.522 129.8 145.898 129.312 146.251C128.822 146.595 128.315 146.92 128.002 147.013C128.312 146.623 128.604 146.39 129.007 146.151C129.404 145.911 129.905 145.656 130.562 145.287ZM110.404 107.353C110.662 107.669 110.877 108.245 111.075 108.915C110.838 108.472 110.605 107.953 110.404 107.353ZM37.0912 66.8706C37.1109 66.8589 37.1247 66.848 37.1384 66.837C38.2792 66.4983 37.8748 66.6124 37.0912 66.8706ZM34.7634 67.6818C34.5497 67.8133 34.5813 67.8456 34.6935 67.843C34.8249 67.7101 35.3344 67.4941 35.9258 67.2764C35.7336 67.2713 35.4209 67.3429 34.7634 67.6818ZM46.9079 169.342L47.0221 169.816C46.5293 168.845 46.7175 169.097 46.9079 169.342Z" fill="white"/>
<path d="M112.811 111.452C112.831 111.611 112.803 111.669 112.768 111.725C112.902 111.893 112.954 111.871 112.811 111.452Z" fill="white"/>
<path d="M91.7035 166.11L91.6259 166.145C91.5944 166.182 91.5796 166.209 91.5734 166.231L91.7005 166.111L91.7035 166.11Z" fill="white"/>
<path d="M69.5932 51.7172C70.0861 51.5824 70.3717 51.5357 70.5675 51.522C70.5696 51.4458 70.3324 51.4679 69.5932 51.7172Z" fill="white"/>
<path d="M23.0106 73.2966C23.4706 73.0506 23.9381 72.8158 24.4019 72.5754C23.7185 72.9025 23.4426 72.954 23.079 73.0779C23.1399 73.1246 23.451 73.0866 23.011 73.2996L23.0106 73.2966Z" fill="white"/>
<path d="M11.6231 79.6051C11.5608 79.8473 11.4493 80.0626 11.3814 80.3086L11.457 80.3747C11.6621 79.9008 11.8121 79.4708 11.849 79.2896C11.8885 79.1051 11.8227 79.1593 11.6235 79.6081L11.6231 79.6051Z" fill="white"/>
<path d="M21.2868 73.0404C21.0708 72.8774 20.2118 73.3705 19.2525 73.9102C19.3125 73.881 19.3661 73.8496 19.4265 73.8234C19.2911 74.2729 20.2816 73.647 21.2868 73.0404Z" fill="white"/>
<path d="M19.0286 74.0309C18.7307 74.1917 18.4309 74.3619 18.1302 74.5018C18.0813 74.6845 18.5032 74.3341 19.0286 74.0309Z" fill="white"/>
<path d="M31.9377 69.0266C31.4307 69.1694 31.7554 69.4427 31.445 69.4623C31.0264 69.9764 34.5197 67.7686 31.9377 69.0266Z" fill="white"/>
<path d="M20.1304 72.7034L20.6207 72.803L21.0731 72.3148L20.1304 72.7034Z" fill="white"/>
<path d="M28.1854 69.2929L26.5296 69.9213C26.574 69.958 26.3792 70.0718 26.1353 70.2043C27.1368 69.7775 28.2576 69.3563 28.1854 69.2929Z" fill="white"/>
<path d="M26.1353 70.2043C25.615 70.4308 25.1246 70.6535 24.8559 70.8287C25.1339 70.7009 25.7357 70.4241 26.1353 70.2043Z" fill="white"/>
<path d="M22.2801 71.5813L22.7814 71.418L23.9286 70.9204L22.2801 71.5813Z" fill="white"/>
<path d="M45.838 62.2048L47.608 61.4276C47.753 61.2596 47.2414 61.3908 46.5844 61.6871C46.1808 61.9226 45.5268 62.2185 45.838 62.2048Z" fill="white"/>
<path d="M40.0936 63.5664C40.6014 63.4296 40.6601 63.4826 40.971 63.466L40.8889 63.0969L40.0936 63.5664Z" fill="white"/>
<path d="M45.3128 61.426C45.4549 61.2583 47.8232 60.1318 45.5447 61.0398C45.3996 61.2079 43.6241 61.9888 45.3128 61.426Z" fill="white"/>
<path d="M72.7529 51.6597L72.2924 51.8329L72.5689 52.3861L72.7529 51.6597Z" fill="white"/>
<path d="M90.7597 59.2148C90.0795 57.0278 90.2123 58.8431 89.6459 56.8509C89.3192 56.4015 90.1097 58.4797 89.796 58.0134C90.4325 59.2457 90.611 59.9547 90.7601 59.2177L90.7597 59.2148Z" fill="white"/>
<path d="M89.796 58.0134C89.6942 57.8171 89.5844 57.6067 89.4585 57.3892C89.6365 57.7487 89.7315 57.9156 89.796 58.0134Z" fill="white"/>
<path d="M13.1588 86.0501L12.748 84.6392L12.8979 85.5921L13.1588 86.0501Z" fill="white"/>
<path d="M11.732 83.5937L11.9858 83.1439L11.6839 82.8128C11.6346 82.7616 11.5878 82.7069 11.5431 82.6672C11.5186 82.6431 11.5017 82.6301 11.4856 82.6231C11.4856 82.6231 11.4789 82.6179 11.4797 82.6239C11.4767 82.6243 11.4856 82.6231 11.4711 82.6281L11.4181 82.6411L11.3151 82.6669C11.1766 82.7003 11.0344 82.7282 10.8944 82.7496C10.7267 82.7687 10.682 82.7989 10.5849 82.7995C10.543 82.805 10.4937 82.7994 10.4566 82.7951C10.4403 82.8095 10.4118 82.8011 10.4091 82.7801C10.419 82.8092 10.4391 82.8005 10.4746 82.7928C10.5269 82.798 10.5785 82.7973 10.6297 82.7936C10.6864 82.7862 10.7211 82.7725 10.7984 82.7592C10.885 82.7478 10.9717 82.7364 11.0601 82.7157C11.1486 82.6949 11.2378 82.6801 11.3263 82.6593L11.4498 82.6279L11.4517 82.6428C11.468 82.6741 11.4787 82.7091 11.4924 82.7438C11.5263 82.8397 11.564 82.9411 11.5983 83.0399C11.6714 83.2491 11.733 83.4629 11.735 83.5933L11.732 83.5937Z" fill="white"/>
<path d="M128.806 140.242L128.669 140.19C128.69 140.439 128.845 140.744 129.16 141.356L128.803 140.242L128.806 140.242Z" fill="white"/>
<path d="M114.31 152.075C114.431 152.065 114.55 152.052 114.67 152.04C114.431 151.956 114.193 151.856 113.959 151.766L114.311 152.078L114.31 152.075Z" fill="white"/>
<path d="M102.656 161.206C103.274 160.909 103.952 160.473 104.572 160.172C103.273 160.906 102.29 160.895 102.656 161.206Z" fill="white"/>
<path d="M116.377 118.22C116.141 118.457 116.409 118.531 116.412 118.601C116.738 118.145 116.321 118.187 116.377 118.22Z" fill="white"/>
<path d="M119.572 113.696L119.587 113.836L119.931 113.058L119.572 113.696Z" fill="white"/>
<path d="M122.967 109.82C122.321 109.905 121.79 111.27 121.071 111.86L120.899 111.91L120.888 112.449C121.581 111.574 122.362 110.331 122.97 109.819L122.967 109.82Z" fill="white"/>
<path d="M125.477 108.364C125.239 108.381 125.758 107.823 125.016 108.811C125.069 108.777 125.09 108.771 125.124 108.751C125.194 108.666 125.295 108.553 125.477 108.364Z" fill="white"/>
<path d="M125.124 108.754C125.463 108.579 124.775 109.171 125.124 108.754Z" fill="white"/>
<path d="M126.7 106.805L126.343 107.442C126.517 107.395 126.951 106.93 126.85 107.156C127.272 106.551 127.099 106.601 126.7 106.805Z" fill="white"/>
<path d="M126.91 106.088L126.715 106.408C126.788 106.386 126.865 106.322 126.91 106.088Z" fill="white"/>
<path d="M126.3 107.086L126.715 106.408C126.594 106.439 126.483 106.357 126.515 106.711C126.461 106.578 126.45 106.777 126.3 107.086Z" fill="white"/>
<path d="M125.955 107.378C125.622 107.619 125.236 107.968 125.596 107.331C124.74 108.398 125.102 108.447 125.955 107.378Z" fill="white"/>
<path d="M122.805 109.33L122.358 109.651L122.161 110.096C122.259 109.873 122.929 109.396 122.805 109.33Z" fill="white"/>
<path d="M130.514 102.507C130.439 102.465 130.429 102.557 130.394 102.659C130.233 102.747 130.06 102.843 129.962 102.865L129.484 103.572C129.668 103.402 129.937 103.157 130.167 102.944C130.287 102.837 130.402 102.74 130.501 102.663C130.483 102.574 130.485 102.517 130.52 102.503L130.514 102.507Z" fill="white"/>
<path d="M129.962 102.865C130.012 102.779 130.095 102.695 130.117 102.608L129.92 102.314L129.535 101.742C129.659 101.996 129.765 102.195 129.855 102.353C129.902 102.432 129.942 102.503 129.977 102.562C129.985 102.576 129.996 102.59 130.004 102.604C129.996 102.617 129.989 102.627 129.981 102.638C129.966 102.661 129.953 102.681 129.943 102.697C129.853 102.843 129.879 102.879 129.965 102.862L129.962 102.865Z" fill="white"/>
<path d="M126.634 105.677L126.031 106.869L126.797 105.486L126.634 105.677Z" fill="white"/>
<path d="M128.551 98.7014L128.946 99.0019L128.294 98.4403L128.551 98.7014Z" fill="white"/>
<path d="M127.588 96.9286C127.895 97.1404 127.637 96.3781 127.893 96.6421C127.612 96.1715 127.263 95.8285 126.952 95.5199C127.224 95.8792 127.428 96.3144 127.588 96.9316L127.588 96.9286Z" fill="white"/>
<path d="M126.457 94.9864C126.596 95.1657 126.77 95.3342 126.955 95.5165C126.811 95.3257 126.651 95.1462 126.457 94.9864Z" fill="white"/>
<path d="M128.671 99.9804C128.69 99.8988 128.765 99.7279 128.611 99.3013L128.527 99.7014C128.569 99.7871 128.618 99.884 128.668 99.9808L128.671 99.9804Z" fill="white"/>
<path d="M128.526 99.7138L128.524 99.7018C128.377 99.3959 128.274 99.1847 128.229 99.0964C128.266 99.1735 128.355 99.3625 128.526 99.7168L128.526 99.7138Z" fill="white"/>
<path d="M128.704 100.049C128.691 100.023 128.682 100.003 128.667 99.9779C128.66 100.015 128.659 100.037 128.704 100.049Z" fill="white"/>
<path d="M128.212 104.229C128.387 103.92 128.662 103.492 128.746 103.271C128.831 103.044 128.723 103.028 128.223 103.432C128.161 103.634 128.269 103.626 128.347 103.658C128.421 103.694 128.471 103.77 128.212 104.229Z" fill="white"/>
<path d="M128.624 100.591L129.143 101.718C129.206 101.694 129.201 101.467 129.443 101.781L128.624 100.594L128.624 100.591Z" fill="white"/>
<path d="M128.337 100.216L128.468 100.381L128.534 100.464L128.623 100.592L128.473 100.256L128.337 100.216Z" fill="white"/>
<path d="M126.912 96.3884C126.645 96.1196 126.454 95.771 126.229 95.3781C126.407 95.8319 126.613 96.288 126.832 96.7089C126.935 96.7288 127.157 96.8454 126.912 96.3884Z" fill="white"/>
<path d="M127.676 98.0142C127.661 97.9949 127.639 97.9673 127.625 97.948C127.629 98.0022 127.64 98.0402 127.676 98.0142Z" fill="white"/>
<path d="M124.187 91.4404C124.185 91.4711 124.182 91.4958 124.18 91.5265C124.195 91.5245 124.21 91.5225 124.225 91.5206L124.187 91.4404Z" fill="white"/>
<path d="M126.829 96.8005C126.954 97.1458 127.109 97.3078 127.274 97.4532C127.125 97.2236 126.98 96.9782 126.835 96.7056C126.788 96.6965 126.765 96.7027 126.829 96.8005Z" fill="white"/>
<path d="M125.778 93.9451C125.819 94.1403 125.877 94.3515 125.946 94.5734C125.931 94.3687 125.867 93.9729 125.778 93.9451Z" fill="white"/>
<path d="M127.633 97.807C127.644 97.8208 127.658 97.8341 127.669 97.8509C127.664 97.7179 127.646 97.7445 127.633 97.807Z" fill="white"/>
<path d="M127.634 97.807C127.514 97.6587 127.391 97.5593 127.274 97.4562C127.393 97.6412 127.513 97.8108 127.628 97.9506C127.622 97.9028 127.627 97.8474 127.634 97.807Z" fill="white"/>
<path d="M122.144 91.0895C122.379 91.0251 123.007 91.754 123.162 92.6119C123.688 93.2356 124.125 92.3786 124.177 91.5268C124.075 91.5585 123.993 91.6058 123.486 90.9371C123.507 91.2625 124.074 92.7288 123.563 92.2157C122.95 91.2995 123.221 91.3732 123.083 90.8321C123.037 91.3852 122.064 89.8113 121.799 90.2474L122.375 91.0226C122.324 91.0719 122.072 90.8194 122.141 91.0869L122.144 91.0895Z" fill="white"/>
<path d="M124.89 92.9496L125.074 93.2384C124.932 92.8712 124.883 92.5736 124.808 92.0213C124.445 91.5736 124.312 91.5121 124.225 91.5175L124.974 93.0328L124.89 92.9466L124.89 92.9496Z" fill="white"/>
<path d="M125.786 94.6066C125.437 94.4945 124.963 93.8215 124.948 94.4069C125.426 95.2893 125.461 94.9261 125.836 95.4024C125.031 93.9949 126.177 95.7467 125.765 94.6307C125.952 94.8918 126.094 95.1406 126.231 95.3748C126.125 95.1 126.028 94.83 125.946 94.5704C125.948 94.5854 125.949 94.5973 125.951 94.6122L125.952 94.6182C125.956 94.6967 125.951 94.7277 125.929 94.6486C125.922 94.6464 125.914 94.6293 125.91 94.6207C125.874 94.6284 125.833 94.6186 125.792 94.6028C125.621 94.1603 125.816 94.5055 125.91 94.6207C125.925 94.6188 125.941 94.6258 125.952 94.6182L125.951 94.6122L125.077 93.238C125.205 93.5616 125.41 93.9419 125.789 94.6062L125.786 94.6066Z" fill="white"/>
<path d="M128.294 102.498C128.356 102.463 128.375 102.466 128.4 102.469C128.406 102.447 128.419 102.43 128.414 102.415C128.399 102.399 128.386 102.392 128.38 102.393C128.371 102.394 128.382 102.401 128.372 102.421C128.353 102.439 128.326 102.464 128.291 102.501L128.294 102.498Z" fill="white"/>
<path d="M128.278 101.889C128.328 101.947 128.395 101.998 128.471 102.086C128.51 102.129 128.55 102.182 128.593 102.249C128.612 102.283 128.635 102.319 128.656 102.359C128.667 102.4 128.728 102.447 128.663 102.486C128.322 102.756 128.52 102.459 128.402 102.466C128.363 102.562 128.271 102.738 128.267 102.824C128.266 102.909 128.348 102.904 128.708 102.593L128.757 102.483C128.757 102.483 128.776 102.465 128.784 102.455L128.773 102.423L128.753 102.359L128.711 102.227C128.684 102.137 128.66 102.046 128.636 101.955C128.59 101.769 128.547 101.583 128.513 101.412C128.447 101.074 128.412 100.811 128.463 100.877C128.362 101.191 128.304 101.442 128.281 101.889L128.278 101.889Z" fill="white"/>
<path d="M126.931 98.1974L126.198 97.06L126.317 97.7799L126.42 97.6842C126.729 98.3913 126.796 98.1635 126.932 98.2004L126.931 98.1974Z" fill="white"/>
<path d="M124.227 91.2376L124.546 91.2594L123.851 90.7583L124.227 91.2376Z" fill="white"/>
<path d="M123.385 89.689L123.62 89.6246L123.283 89.286L123.385 89.689Z" fill="white"/>
<path d="M78.1853 12.2517L77.9584 12.5825C78.0755 12.4333 78.141 12.3304 78.1853 12.2517Z" fill="white"/>
<path d="M80.0319 10.3732L79.9829 10.255C79.9801 10.3496 80.0017 10.3984 80.0319 10.3732Z" fill="white"/>
<path d="M103.592 51.6128C103.529 50.998 103.545 50.2693 103.338 50.4516L103.186 50.727C103.41 51.0653 103.524 51.3512 103.591 51.6098L103.592 51.6128Z" fill="white"/>
<path d="M89.6553 25.6738C89.6542 25.7347 89.6535 25.7986 89.6524 25.8596C89.7921 25.9506 89.925 26.0364 90.0413 26.1123C89.9268 25.9815 89.7946 25.8317 89.6553 25.6738Z" fill="white"/>
<path d="M88.5009 25.7498L88.3396 24.9869C88.3573 25.1669 88.4049 25.4129 88.5009 25.7498Z" fill="white"/>
<path d="M67.394 23.6183L67.2584 24.1346C67.7682 23.6206 67.448 23.751 67.394 23.6183Z" fill="white"/>
<path d="M115.079 73.8926C114.939 73.4035 114.796 73.0333 114.648 72.7184C114.791 73.3197 114.816 73.8544 115.079 73.8926Z" fill="white"/>
<path d="M76.9819 9.50747C76.848 9.71356 76.814 9.82442 76.8613 9.86074C77.0038 9.65048 77.065 9.51477 76.9819 9.50747Z" fill="white"/>
<path d="M113.984 71.4411C114.002 71.53 114.028 71.6147 114.052 71.7027C114.259 72.0067 114.458 72.3149 114.651 72.7151C114.546 72.2698 114.373 71.7881 113.987 71.4378L113.984 71.4411Z" fill="white"/>
<path d="M26.5976 63.189C26.5607 63.2091 26.5191 63.2389 26.4818 63.256C26.4985 63.2902 26.5389 63.2515 26.5976 63.189Z" fill="white"/>
<path d="M12.7264 72.5875C12.8347 72.4638 13.0297 72.2831 13.2106 72.1103C13.1105 72.1813 12.9586 72.3198 12.7264 72.5875Z" fill="white"/>
<path d="M120.21 83.3351C120.399 83.6568 120.261 83.3711 120.21 83.3351Z" fill="white"/>
<path d="M120.173 85.4981C120.111 85.4424 120.052 85.4107 119.997 85.4331C120.063 85.4244 120.122 85.4532 120.173 85.4981Z" fill="white"/>
<path d="M110.833 68.9079C110.833 68.9079 110.825 68.8908 110.82 68.8792C110.827 68.9999 110.824 68.979 110.833 68.9079Z" fill="white"/>
<path d="M120.37 83.8978C120.333 83.7567 120.279 83.5997 120.214 83.4319C120.234 83.5114 120.28 83.6543 120.37 83.8978Z" fill="white"/>
<path d="M120.438 83.7642C120.49 83.885 120.529 83.977 120.565 84.0665C120.623 84.0863 120.628 84.034 120.438 83.7642Z" fill="white"/>
<path d="M119.956 82.8793C120.057 83.0666 120.139 83.2504 120.211 83.4323C120.192 83.3588 120.191 83.3226 120.208 83.3355C120.155 83.2391 120.08 83.1061 119.956 82.8793Z" fill="white"/>
<path d="M48.0406 41.5624C48.0179 41.5745 47.9926 41.59 47.9665 41.5995C47.7744 41.9409 47.8789 41.8117 48.0406 41.5624Z" fill="white"/>
<path d="M96.8515 44.1724C96.8625 44.1862 96.8722 44.191 96.8802 44.2051C96.8778 44.1872 96.8691 44.1671 96.8641 44.1525L96.8486 44.1728L96.8515 44.1724Z" fill="white"/>
<path d="M96.0956 43.0471C96.6345 43.4229 96.7389 43.7313 96.8639 44.1495L97.3517 43.4227L96.0952 43.0441L96.0956 43.0471Z" fill="white"/>
<path d="M73.4348 17.2147L74.2591 16.711C73.7448 17.7909 73.0707 18.2809 73.9274 17.8854C73.4386 17.2203 76.4182 15.2199 75.9235 14.5556L76.4797 14.2331C76.3497 14.3536 76.3662 14.4092 76.2357 14.5267C77.3562 13.9414 76.4377 13.4758 77.6035 12.4499C78.0266 12.1084 78.3726 11.92 78.1853 12.2517L78.8799 11.2483C79.1339 11.0082 79.1765 11.1697 78.922 11.4069L79.5376 10.727L79.8452 10.3856L79.9735 10.2289L79.9827 10.252C79.9824 10.1578 80.0091 10.0145 80.0582 9.85606C80.1042 9.69802 80.173 9.52787 80.2246 9.41166C80.4395 9.35903 80.1507 9.61287 80.2293 9.67851C80.3334 9.47635 80.4586 9.25013 80.6057 9.00583C80.6877 9.07407 80.6274 9.28565 80.5486 9.47231C80.4647 9.66574 80.3597 9.83762 80.2474 9.93144C80.4649 10.1976 80.468 10.2215 80.531 10.0765C80.5802 9.94232 80.678 9.64676 80.8361 9.53171C80.8674 9.63093 80.898 9.79407 80.9102 10.0022C80.8595 9.96327 80.813 9.93293 80.771 9.91415L80.741 9.96368C80.7402 10.0033 80.7393 10.0429 80.7388 10.0855C80.7129 10.4659 80.7048 10.5885 80.7036 10.695C80.6987 10.796 80.7023 10.8928 80.6135 11.0261C80.6695 10.967 80.7762 10.7615 80.8402 10.44C80.9096 10.136 80.9451 9.7362 81.0963 9.82266C81.1239 10.0318 81.1509 10.168 81.3849 10.2831C81.275 10.3949 81.2566 10.4854 81.2773 10.5739C81.2892 10.6179 81.3104 10.6637 81.3384 10.7148C81.4047 10.8489 81.4756 10.9946 81.5536 11.1484L81.1824 11.2611C81.6081 11.9315 81.7601 11.793 82.11 12.142C82.4361 12.9562 82.2399 13.2434 82.0957 13.5329C82.6167 14.8351 82.133 12.4551 82.884 13.9336C83.2293 15.0553 83.7111 15.7365 84.4948 16.9099C84.7094 17.7083 84.2199 16.8762 84.2399 17.1896L84.8175 17.7214C84.8848 17.8858 84.7737 17.8731 84.7179 17.8653C85.0764 18.3712 85.0891 17.7525 85.5813 18.5813C86.0754 18.6409 85.8265 20.628 86.7541 21.5089C86.7737 21.8193 86.4795 21.4782 86.3829 21.6216C87.342 22.9724 87.167 22.7979 88.1065 23.8383L88.3451 24.9801C88.2656 24.1 89.0164 24.9312 89.6574 25.6674C89.6627 25.3384 89.6684 25.0581 89.6541 24.8806L90.4572 26.1548C90.473 26.3442 90.2919 26.2616 90.0435 26.1059C90.1146 26.1847 90.1824 26.2609 90.2415 26.3169C90.3314 26.8613 90.0156 26.7023 89.6622 26.4418C89.6575 26.2449 89.6559 26.0476 89.6576 25.8528C89.2915 25.6123 88.9149 25.4066 88.7388 25.5696C88.8181 25.6412 88.9324 25.7933 89.0349 25.9713C88.9384 25.908 88.8612 25.8756 88.8444 25.9326C88.8283 25.9955 88.9699 26.1014 89.161 26.2829L88.9089 26.769L89.0981 26.7745L89.6571 28.6644C90.6279 29.7584 91.7089 30.6038 92.7859 32.5501C92.2721 32.1801 92.2678 32.6548 91.9165 32.7801C92.0262 32.0666 91.054 31.2858 90.6533 30.2049C90.8641 30.7668 90.6455 30.7226 90.527 30.6075L91.6986 32.3255C91.4027 32.4101 91.6689 32.8157 91.7764 33.3548C92.1599 32.7359 92.7739 34.582 93.2864 35.2653C93.1243 35.396 92.853 35.298 92.476 34.3507C92.5258 35.56 93.7211 35.3812 93.8226 36.5442C93.7172 36.321 93.6902 36.1847 93.5534 36.1389C93.9568 36.5934 94.4112 37.9438 94.1133 37.7125L94.0079 37.4893C94.3124 38.2547 94.8406 39.4039 95.3583 40.357C95.8849 41.3089 96.3982 42.068 96.6842 42.0699C96.6321 42.1132 96.0335 42.1374 95.8968 42.0915L98.7262 44.0045C98.2161 43.9623 97.7078 45.318 96.8877 44.192C97.002 44.5751 97.152 45.0447 97.6547 45.7232C97.592 45.4548 97.9337 44.8414 98.1298 45.153C98.1316 46.2743 98.1975 45.8979 98.3747 47.1967C98.2789 46.7929 99.097 46.8888 99.3617 47.4679C99.2254 47.4251 98.7757 47.8186 98.6067 47.6433L99.9205 48.756C99.6352 48.4592 99.3745 48.9495 99.3637 49.3521C99.4095 49.1455 99.9665 50.5827 100.218 50.9264L100.057 50.2577C100.775 51.8987 101.703 51.3995 102.479 52.9934C102.255 52.8678 101.468 52.9138 101.804 53.754C102.303 53.9649 104.121 54.619 105.078 55.882L105.04 56.2396L105.793 57.2012C104.986 56.7786 103.044 55.4204 102.139 54.5913C102.306 55.2563 102.014 54.8661 102.489 55.7459C102.486 56.1443 101.986 55.3896 101.842 55.1319L102.803 57.2576C103.116 56.9793 103.984 58.6522 104.242 58.4176L102.707 56.3645C103.02 56.0892 104.398 57.1357 105.097 58.6333C105.146 59.0796 104.311 58.6882 104.207 58.7808C104.431 58.9064 105.164 60.0468 105.149 60.2282L104.633 59.7065C104.92 60.5927 105.8 60.7898 105.968 61.9471C106.121 62.2978 106.029 63.1973 106.275 63.1437C106.399 62.3797 107.611 61.6121 108.109 61.817C108.142 61.9495 108.64 63.7927 108.641 64.2849C108.608 65.0095 107.441 63.8503 107.409 64.4684C107.518 64.4389 107.799 64.6815 107.905 64.7892C108.006 65.1862 107.523 64.7999 107.971 65.5494C108.404 65.4893 108.757 67.1328 108.469 65.7543C108.966 66.4548 108.811 66.5938 109.288 67.4701C109.378 67.0662 110.505 67.8478 111.002 68.5484C110.886 68.5514 110.853 68.7837 110.841 68.8948C111.611 70.4559 111.878 71.3721 112.624 72.8148C112.605 72.9936 112.859 73.7443 112.548 73.53C112.72 73.7049 112.944 73.8305 113.184 74.27C113.316 75.2951 112.619 73.3049 112.582 74.1577C112.825 74.1045 113.474 75.1558 113.934 75.7213C114.16 75.3572 113.239 74.2263 112.775 73.6612C113.224 73.4227 114.273 74.2815 115.263 75.6829C115.997 76.8234 115.24 76.3548 115.414 76.5293C115.898 77.5447 116.302 77.9565 116.66 78.2771L116.613 78.1981C117.049 78.5814 117.413 78.8253 117.787 79.9797C117.902 80.9036 117.267 80.3703 117.157 80.6645C116.567 79.7848 116.549 79.0971 116.228 78.4586L116.248 78.4925C116.236 78.4728 116.227 78.4526 116.215 78.4299L116.236 78.497L116.217 78.4662L116.49 79.2964C116.346 79.1512 116.151 78.8912 115.99 78.6175L115.991 78.6235C115.873 78.4202 115.776 78.2112 115.732 78.0406C115.744 78.1759 115.814 78.3885 115.926 78.6565C116.436 79.878 117.776 82.203 118.328 83.7442C118.58 83.9937 118.952 84.4644 118.931 84.142L118.606 83.6164C118.564 82.9685 119.449 84.4567 119.188 83.6948C119.725 84.3352 120.401 85.0092 120.818 86.1274L120.605 86.5171C120.686 86.4396 120.44 85.7213 120.193 85.4894C120.558 85.8364 120.596 87.3451 121.254 87.5654L121.095 86.7019C121.638 87.3446 122.45 88.0614 122.832 89.0475C122.925 88.4395 122.686 88.8571 122.71 87.9785C122.55 88.8232 121.5 85.5999 121.498 86.8069C121.569 85.8735 121.071 85.5318 120.971 84.4234C120.883 84.5141 120.937 84.8595 120.585 84.0518C120.537 84.0368 120.456 83.9775 120.406 83.9386C120.396 83.9125 120.395 83.9036 120.386 83.8805C120.388 83.8984 120.39 83.9133 120.395 83.9308C120.362 83.9079 120.359 83.9053 120.398 83.9488C120.45 84.1607 120.471 84.3464 120.448 84.4437C120.01 84.2096 119.378 82.9706 119.039 82.6323C118.85 82.1406 119.255 82.7498 119.234 82.4273L118.73 81.9223C118.924 81.7143 118.47 80.4551 119.166 81.4515L118.669 80.4684C118.497 79.8101 118.136 78.9854 117.785 78.5604C117.651 78.2133 117.283 77.8607 117.212 77.7819L117.302 77.9342C117.284 77.9123 117.283 77.9093 117.31 77.93L117.22 77.7748C117.237 77.7877 117.27 77.8107 117.317 77.844L117.256 77.7517L117.35 77.9096L116.473 76.5571L116.524 76.5108C115.777 74.9922 114.524 73.6223 114.064 71.6798C113.741 71.2058 113.394 70.7225 113.023 69.8414L113.145 69.567C112.733 68.9556 112.339 67.509 111.977 67.344C112.171 66.3518 110.456 64.1309 109.962 62.9407L109.668 63.0402C109.275 62.247 108.804 61.534 108.188 60.6152L107.978 60.8008C107.343 60.0638 107.025 58.5525 106.311 57.2333C106.45 57.2757 106.599 57.6268 106.668 57.8944C106.386 56.0259 104.536 54.7467 104.192 53.0991C103.919 52.7854 103.816 52.5073 103.748 52.2244C103.765 52.2587 103.787 52.2862 103.808 52.3077C103.791 52.2705 103.765 52.2131 103.733 52.1595C103.695 51.9792 103.658 51.7925 103.605 51.5959C103.622 51.7759 103.651 51.9454 103.69 52.0831C103.541 51.8079 103.299 51.4021 103.027 51.0215L103.196 50.7135C103.177 50.6826 103.161 50.6543 103.142 50.6204C103.03 50.167 102.855 50.3573 102.768 50.6696C102.619 50.4826 102.473 50.3194 102.333 50.2041C102.581 49.6639 101.643 49.1916 101.864 48.5151C101.505 48.3467 100.659 46.5159 100.091 46.5237C100.144 46.4804 100.113 46.3446 100.228 46.5666C100.051 46.0762 99.8715 45.5923 99.5421 45.2375L99.7775 44.8782L98.837 44.0842C98.74 43.3705 98.7353 43.0581 99.2857 43.5448C98.1828 42.2555 98.5599 42.4186 97.5705 41.3453L97.8143 41.304C97.5942 40.8558 96.9668 40.2698 97.0172 39.9136C96.9539 38.7183 94.7799 34.8588 93.9807 32.0675C93.5692 32.8663 93.7183 30.7221 93.1749 30.8423C93.2583 30.6216 93.1779 30.2188 93.5025 30.5834C92.7488 29.3149 92.8348 28.4677 91.9998 27.7357C92.0832 27.515 92.3523 27.9203 92.3807 27.7433C92.2986 27.6508 92.0561 27.3788 92.0841 27.1988C92.1124 27.0218 92.2999 27.3376 92.4603 27.517C91.8171 26.1641 91.2886 26.2367 90.8064 26.3367C90.7029 25.551 90.5164 25.2199 90.0026 24.8499C90.0354 24.5447 90.0039 24.0747 90.4407 24.8986C90.2461 24.4136 89.3331 21.8895 88.9585 21.9996C88.9793 21.8115 88.6838 21.3216 88.5844 21.2131C88.1201 20.1344 88.109 20.0265 87.6016 18.99L87.677 19.3083C87.067 19.0847 87.1874 18.4761 86.754 17.6548L86.8094 17.6597C86.2346 15.5804 86.2821 16.8872 85.7657 14.8124L85.5488 15.0355C84.9027 15.1145 85.1139 13.187 84.3936 12.1725L84.4251 12.6425C83.9556 12.1238 84.4262 10.5968 84.2231 9.95487C84.2116 9.79833 84.3981 10.1294 84.5177 10.299C84.3231 9.42194 84.2162 9.41779 84.0707 9.46734C83.9336 9.53403 83.7701 9.67715 83.3391 8.82816C83.3451 8.59637 83.4962 8.61294 83.5839 8.5406C83.6683 8.46566 83.6839 8.28427 83.3839 7.57607C83.3216 7.31073 83.0569 6.84712 82.7365 6.33006C82.4124 5.80741 82.0397 5.23949 81.7039 4.65151C81.0842 5.3927 80.5271 5.98584 80.0302 6.29749C80.3561 6.18769 80.5993 6.16477 80.0168 6.9345C79.5719 7.43382 78.9045 7.90471 78.1852 8.51312C78.051 8.62502 77.9194 8.73354 77.7878 8.84206C77.6734 8.94224 77.5679 9.04124 77.4721 9.14504C77.2836 9.35223 77.1427 9.57444 77.0856 9.80993C76.9712 9.86451 76.911 9.86939 76.8802 9.84306C76.479 10.443 75.4217 11.6461 75.3132 12.1376C74.1402 11.9091 72.5703 15.6356 71.9246 14.979L70.4261 16.5715L70.4 16.4655C69.3766 17.418 69.1878 17.9231 68.999 18.4282C68.7285 18.6127 68.8324 18.3863 68.8163 18.3337C67.2522 19.6583 67.1379 19.8283 66.2584 21.3666L65.9222 21.2833C65.717 21.7328 63.5137 23.0504 62.3465 24.7117C62.3354 24.6736 62.3234 24.6053 62.4076 24.4605C61.0634 26.3001 58.0154 27.6894 58.1963 29.0394L57.332 30.2779C58.7539 28.9812 57.4634 30.8138 58.1517 30.3857C57.6595 30.9642 56.5337 31.532 57.1533 30.8364L57.2938 30.7723C57.1363 30.1304 55.4575 32.315 55.2223 32.0056C52.5544 34.6883 49.7114 37.0567 47.1605 39.5203L47.7603 39.5507L46.8598 40.3988C46.5547 40.5515 46.3082 40.4563 46.9489 39.8521C46.4423 39.9979 46.038 41.0359 46.089 41.1234C44.73 42.2052 46.2124 40.2835 45.8258 40.6475L45.3358 41.174L45.4867 41.0964C45.1957 41.6332 45.2914 41.806 44.5176 42.531C43.9754 42.9368 44.0799 42.5765 43.8807 42.7486C43.8592 42.7241 43.787 42.7762 43.5823 43.022L42.4392 44.0814L43.1291 43.8963C42.753 44.502 42.0675 44.9054 42.8562 44.686C41.6805 44.9898 38.5326 48.5746 37.9359 48.8903C37.4164 49.7459 36.7286 50.408 35.8547 51.2039C36.1176 51.0538 36.5152 51.2111 35.7467 51.8838C35.4567 51.0436 34.1575 52.9259 33.159 53.0757C33.9581 52.8428 31.1349 55.1538 32.3459 54.7481C31.6845 55.2881 32.0999 54.5647 31.5024 54.8744C30.2512 56.4982 28.1353 57.8103 26.3905 59.6085C26.4345 59.7121 26.8498 59.5419 26.57 60.0256L25.2469 60.5494C24.9227 60.9264 25.3375 61.3064 24.4297 61.66C24.5851 61.6396 24.8143 61.6033 24.5955 61.8571C20.6801 64.853 17.5901 69.0381 13.2847 71.7267C13.9189 71.4183 13.6025 71.7396 13.23 72.0956C13.5087 71.9039 13.4017 72.2919 13.5494 72.3514L11.7496 73.4791C11.7432 74.0301 10.129 75.0208 10.2279 75.4485L10.6668 74.9499C10.3302 75.8788 12.2461 74.8483 12.5474 75.3588C12.9202 74.3127 14.9686 74.1493 15.6496 72.5125C15.9906 72.3551 15.5551 72.8562 15.7847 72.8229C15.9155 72.362 16.2401 71.9879 16.9859 71.4429L16.9527 71.5597C18.7913 69.7583 19.7676 69.1859 21.9837 67.3195L21.6324 67.2594C22.1119 66.8619 22.2669 66.8385 22.5298 66.6884C22.7521 65.884 21.2413 67.8672 21.3889 67.0727C22.3852 66.9293 24.587 64.077 25.4413 64.1711C26.1393 63.5169 25.0097 64.1247 25.7077 63.4704L26.0154 63.4299L26.0319 63.0934C26.5136 62.6895 26.8956 62.6361 27.0174 62.7295C26.8957 62.8215 26.7325 63.0588 26.6238 63.1795C27.3574 62.7729 28.2389 61.5504 28.4877 61.4082L27.7456 61.9588C29.5271 60.0464 31.9885 58.0109 33.5608 56.0105L33.3286 56.0472C34.5427 54.5347 34.5422 55.0849 35.986 53.5392L35.9536 53.6164C36.1667 53.2266 36.5253 52.7873 36.954 52.3965C36.6772 52.8797 37.8913 51.9204 37.507 52.5334C38.8261 50.8946 38.1038 51.6645 38.7481 50.3486L39.1323 50.2889C39.3284 49.8163 39.2844 49.7126 40.0029 48.9372C39.5136 49.6764 40.7243 48.7145 40.2048 49.5701C42.1365 48.3826 42.2248 46.9302 43.451 46.7322C43.7487 45.5775 41.8379 47.8231 42.1531 47.3318C41.6703 47.52 42.4337 46.4164 42.9743 45.9744C43.491 45.4899 44.3883 45.703 45.655 44.4511C45.525 44.5715 45.5488 44.614 45.4222 44.7371C46.0082 44.3863 46.2091 43.6729 46.9728 43.2866C47.038 42.6975 47.7462 42.5586 47.5067 42.1251L46.4181 43.3445C46.993 42.6092 47.2218 41.6004 48.4988 40.727C48.4822 40.8781 48.2472 41.286 48.0729 41.5551C48.4887 41.3423 48.6202 40.8873 49.0501 40.6665C49.2896 41.1 47.7078 42.129 47.2533 43.0855C47.7357 42.8943 48.3516 41.5245 48.3552 42.2444C48.4067 41.2741 49.6662 41.0747 50.1737 39.8742L50.3174 40.1349C50.4232 39.9689 50.608 39.5951 50.8651 39.3545L50.6728 40.0637C51.149 39.156 52.2091 38.9434 52.7534 38.1605C51.3642 39.5441 52.1995 38.2244 51.4634 38.6587C52.9148 36.6864 52.9765 38.2162 54.8072 36.2152C54.5743 36.5012 53.7086 37.059 54.023 36.5617C54.4306 36.2405 54.992 35.8414 55.3231 35.7248C56.5558 34.4226 54.9197 35.708 55.3403 35.0478C56.0186 34.8672 55.8656 34.3281 56.3443 33.6937L56.5535 33.8971C58.1349 32.5885 56.5103 33.0852 57.9744 31.947L57.7074 32.7816L58.314 32.033L58.4058 32.4069C58.9728 31.4964 59.2467 31.3144 60.0385 30.6569C59.7254 30.6799 59.761 30.1889 60.3933 29.5434C60.9508 29.2298 60.345 29.9844 61.2213 29.0452C61.1465 29.3773 61.0821 29.7657 60.4982 29.9703C60.5247 30.0792 60.4263 30.3019 60.4495 30.4083C61.0596 30.0787 61.6626 29.2576 61.9901 28.9288C61.8567 29.0466 61.6928 29.1868 61.587 29.2372L62.6163 27.6366C62.9002 27.508 62.7993 27.734 62.698 27.9571C62.9428 27.6696 63.0307 27.3905 63.4051 26.9795C63.4708 27.2474 63.6695 27.3945 63.1937 28.0286L64.2596 26.5903C64.4161 26.5788 65.1006 26.1452 65.0027 26.3709C65.796 25.771 66.376 24.3359 67.4233 23.5414C67.437 23.4606 67.5023 23.3335 67.6739 23.1133C68.5733 22.2806 69.5448 21.7179 70.3326 20.4531L71.2124 20.164C71.9418 19.2867 70.052 20.5843 71.2638 19.1238C72.1072 18.0735 71.8735 19.0222 72.2871 18.7701C72.603 18.145 73.108 17.0177 74.2124 16.3798C73.9844 16.7259 73.7173 16.9131 73.4729 17.2036L73.4348 17.2147ZM81.0913 9.80812C81.0498 9.79232 80.987 9.80058 80.9424 9.78518C80.8975 9.76679 80.8699 9.71875 80.8859 9.54035C81.0576 9.11348 81.0651 9.51674 81.0917 9.8111L81.0913 9.80812ZM89.9966 27.7808C89.8256 27.6361 89.7402 27.3343 89.6948 26.9664C89.8215 27.1899 89.9328 27.4579 89.9966 27.7808ZM118.122 79.8261C118.122 79.8261 118.105 79.8131 118.096 79.8083C117.91 79.2066 117.972 79.4204 118.122 79.8261ZM118.601 81.0153C118.695 81.1062 118.724 81.075 118.734 81.0069C118.631 80.9687 118.495 80.7192 118.365 80.4233C118.342 80.5449 118.374 80.72 118.601 81.0183L118.601 81.0153ZM43.8356 42.937L44.0635 42.8218C43.7271 43.2673 43.7847 43.1047 43.8356 42.937Z" fill="white"/>
<path d="M88.6378 25.747C88.6503 25.6572 88.6904 25.6155 88.7339 25.5763C88.6448 25.4999 88.593 25.5219 88.6378 25.747Z" fill="white"/>
<path d="M67.4209 23.5235L67.3882 23.5521C67.3828 23.5802 67.3889 23.6037 67.3969 23.6179L67.4209 23.5235Z" fill="white"/>
<path d="M107.497 64.9948C107.416 64.7472 107.396 64.5948 107.399 64.4819C107.329 64.5033 107.331 64.6337 107.497 64.9948Z" fill="white"/>
<path d="M122.107 86.7023L121.668 86.0216C121.862 86.3608 121.87 86.5207 121.924 86.7203C121.975 86.6681 121.987 86.4811 122.107 86.7023Z" fill="white"/>
<path d="M123.795 93.8416C123.879 93.9277 123.912 94.0602 123.999 94.146L124.102 94.0503C123.865 93.6105 123.606 93.3528 123.795 93.8416Z" fill="white"/>
<path d="M121.629 87.8717C121.449 88.0564 121.755 88.4629 122.052 88.9405C122.036 88.9122 122.02 88.8839 122.007 88.8522C122.377 88.8247 122.001 88.3454 121.629 87.8717Z" fill="white"/>
<path d="M122.122 89.0499C122.211 89.1992 122.299 89.3549 122.368 89.5099C122.515 89.4996 122.295 89.3067 122.122 89.0499Z" fill="white"/>
<path d="M119.474 82.3532C119.546 82.6263 119.814 82.3327 119.8 82.523C120.199 82.6194 118.657 81.1356 119.474 82.3532Z" fill="white"/>
<path d="M121.15 88.6945L121.316 88.3596L120.964 88.2054L121.15 88.6945Z" fill="white"/>
<path d="M119.286 84.6241L119.632 85.4691C119.669 85.4308 119.747 85.5147 119.829 85.6286C119.581 85.1293 119.35 84.5579 119.286 84.6241Z" fill="white"/>
<path d="M119.832 85.6282C119.96 85.8878 120.092 86.1288 120.208 86.2473C120.132 86.1113 119.969 85.8168 119.832 85.6282Z" fill="white"/>
<path d="M120.508 87.6484L120.439 87.3809L120.163 86.8034L120.508 87.6484Z" fill="white"/>
<path d="M114.888 76.0181L114.359 75.1851C114.219 75.1426 114.288 75.4102 114.493 75.7176C114.665 75.8925 114.869 76.1999 114.888 76.0181Z" fill="white"/>
<path d="M115.555 79.0944C115.535 79.0149 115.524 78.9555 115.533 78.93L115.505 78.879C115.486 78.7356 115.515 78.6741 115.528 78.5477L115.183 78.6935L115.414 78.9275L115.449 78.9867L115.558 79.094L115.555 79.0944Z" fill="white"/>
<path d="M114.127 76.5348C113.991 76.495 113.206 75.4039 113.8 76.5018C113.936 76.5417 114.466 77.3777 114.127 76.5348Z" fill="white"/>
<path d="M107.707 63.1739L107.827 63.3921L108.354 63.0765L107.707 63.1739Z" fill="white"/>
<path d="M100.397 52.2372C100.795 53.3458 100.86 52.313 101.177 53.3351C101.431 53.5143 100.918 52.4999 101.156 52.6934C100.699 52.1335 100.608 51.7656 100.397 52.2372Z" fill="white"/>
<path d="M101.16 52.693C101.232 52.7837 101.312 52.8767 101.406 52.9706C101.278 52.8081 101.211 52.7349 101.16 52.693Z" fill="white"/>
<path d="M10.4931 74.2099L9.85784 74.6249L10.3512 74.4474L10.4931 74.2099Z" fill="white"/>
<path d="M9.74855 75.5238L9.35274 75.3571L9.26303 75.9221C9.37395 75.795 9.59359 75.5472 9.74855 75.5238Z" fill="white"/>
<path d="M80.76 10.9855L80.8465 10.9498C80.9328 10.8897 80.9251 10.8543 80.9101 10.7864C80.8666 10.8711 80.8173 10.9354 80.76 10.9855Z" fill="white"/>
<path d="M77.7992 13.1961L77.9262 13.076L77.4443 13.0635L77.7992 13.1961Z" fill="white"/>
<path d="M72.142 19.6068C72.3965 19.3697 72.6275 19.0232 72.8845 18.7826C72.3965 19.3697 71.7607 19.3653 72.142 19.6068Z" fill="white"/>
</svg>
