<svg width="168" height="148" viewBox="0 0 168 148" fill="none" xmlns="http://www.w3.org/2000/svg">
<path d="M19.8892 96.4805C20.6031 96.6437 20.4195 96.2643 20.5419 96.2235C19.2976 96.0684 19.9055 96.5743 19.8892 96.4805Z" fill="white"/>
<path d="M8.4376 98.447L8.57631 98.243C8.33152 98.3899 8.09489 98.5571 7.86234 98.7326L7.17285 99.2425C7.58899 98.9773 8.00106 98.6918 8.4376 98.4429V98.447Z" fill="white"/>
<path d="M0 104.942C0.277428 104.828 0.558937 104.579 0.848605 104.249C1.13011 103.91 1.48506 103.543 1.82368 103.118C1.99096 102.902 2.18271 102.702 2.37446 102.502C2.57029 102.302 2.76613 102.098 2.96196 101.903C3.36178 101.519 3.8024 101.201 4.20631 100.944C4.31238 100.911 4.42662 100.891 4.53677 100.87L4.99371 100.005C4.75708 100.177 4.50821 100.356 4.25526 100.54C4.00639 100.728 3.77384 100.948 3.52905 101.156C3.03131 101.564 2.58661 102.045 2.14599 102.494C1.70129 102.939 1.33002 103.428 0.95468 103.828C0.607895 104.257 0.293748 104.644 0.00407983 104.946L0 104.942Z" fill="white"/>
<path d="M3.84765 104.424C3.50903 104.64 4.11692 103.273 3.29688 105.554C3.36623 105.452 3.39479 105.424 3.43967 105.366C3.52127 105.162 3.6355 104.889 3.85173 104.424H3.84765Z" fill="white"/>
<path d="M3.43936 105.366C3.88406 104.799 3.04361 106.354 3.43936 105.366Z" fill="white"/>
<path d="M5.23469 100.797L4.87158 102.164C5.10821 101.947 5.62635 100.813 5.53251 101.278C5.99354 99.9157 5.75691 100.132 5.23469 100.797Z" fill="white"/>
<path d="M5.36464 99.4058L5.16064 100.107C5.26264 100.014 5.35648 99.8423 5.36464 99.4058Z" fill="white"/>
<path d="M4.71973 101.597L5.15627 100.112C4.989 100.263 4.80948 100.205 4.94004 100.789C4.82988 100.605 4.86252 100.952 4.71973 101.601V101.597Z" fill="white"/>
<path d="M4.2963 102.36C3.87199 103.033 3.39873 103.934 3.76592 102.564C2.79492 105.064 3.3253 104.856 4.2963 102.36Z" fill="white"/>
<path d="M0.175419 105.738C0.412049 105.46 0.693557 105.215 0.958746 104.971C1.10562 104.689 1.23617 104.391 1.40345 104.118C1.16274 104.526 -0.0367325 105.668 0.175419 105.738Z" fill="white"/>
<path d="M8.97944 92.9148C8.90192 92.7842 8.48986 93.2126 8.30219 93.2452L8.0166 94.2489C8.30627 93.796 8.78361 92.9066 8.97944 92.9148Z" fill="white"/>
<path d="M8.30277 93.2452L8.73115 91.7438C8.15182 93.0004 8.14366 93.2738 8.30277 93.2452Z" fill="white"/>
<path d="M4.86728 98.9203L4.27979 101.438L5.05903 98.4674L4.86728 98.9203Z" fill="white"/>
<path d="M11.3868 87.5212L11.293 88.4392L11.5337 86.8358L11.3868 87.5212Z" fill="white"/>
<path d="M12.9534 83.9309C12.9044 84.6204 13.6837 83.2863 13.5368 83.9717C13.9325 82.9844 14.1325 82.0746 14.3038 81.2546C14.0345 82.0869 13.6225 82.9151 12.9534 83.9309Z" fill="white"/>
<path d="M14.6347 79.896C14.5041 80.3162 14.4103 80.765 14.3042 81.2587C14.447 80.8181 14.5653 80.3693 14.6347 79.896Z" fill="white"/>
<path d="M9.85254 89.3571C9.97085 89.2796 10.2442 89.149 10.6726 88.3902L10.1055 88.8023C10.028 88.9695 9.9423 89.1613 9.85254 89.3571Z" fill="white"/>
<path d="M10.0854 88.8186L10.1058 88.8023C10.3833 88.2026 10.575 87.7864 10.6607 87.6069C10.5873 87.7579 10.4159 88.1251 10.0895 88.8146L10.0854 88.8186Z" fill="white"/>
<path d="M9.78768 89.4959C9.81216 89.4428 9.82848 89.4061 9.85296 89.3571C9.79584 89.3979 9.77136 89.4224 9.78768 89.4959Z" fill="white"/>
<path d="M6.76863 95.3218C6.95222 94.412 7.52748 92.5883 6.51568 94.1509C6.4708 94.8445 7.05014 93.951 6.76863 95.3218Z" fill="white"/>
<path d="M9.08122 90.0099L8.34277 91.4827C8.44069 91.4909 8.6814 91.2746 8.58756 91.7234L9.08122 90.0099Z" fill="white"/>
<path d="M9.31001 89.2307L9.08154 90.0099L9.35897 89.4673L9.31001 89.2307Z" fill="white"/>
<path d="M13.1653 82.3194C13.3244 81.6095 13.6345 80.8996 13.9772 80.0918C13.5243 80.92 13.0837 81.785 12.7002 82.6254C12.7451 82.7886 12.7573 83.2415 13.1653 82.3194Z" fill="white"/>
<path d="M11.6361 85.4609C11.6524 85.4119 11.6687 85.3548 11.6809 85.3099C11.6157 85.3875 11.5749 85.4527 11.6361 85.4609Z" fill="white"/>
<path d="M17.6291 72.2586C17.5883 72.2912 17.5515 72.3238 17.5107 72.3565C17.523 72.3769 17.5393 72.3891 17.5515 72.4095L17.6291 72.2545V72.2586Z" fill="white"/>
<path d="M12.5782 82.7397C12.2273 83.3557 12.1294 83.7759 12.0601 84.188C12.2477 83.6903 12.4558 83.1721 12.7006 82.6213C12.6802 82.5479 12.6557 82.5234 12.5741 82.7397H12.5782Z" fill="white"/>
<path d="M15.4986 77.6399C15.2783 77.9418 15.0457 78.2967 14.8091 78.668C15.062 78.3865 15.5271 77.7949 15.4986 77.6399Z" fill="white"/>
<path d="M11.8684 85.1304C11.8602 85.1631 11.848 85.1957 11.8398 85.2324C12.003 85.0529 11.9582 85.0651 11.8684 85.1304Z" fill="white"/>
<path d="M11.8683 85.1305C11.9744 84.7796 12.0111 84.4818 12.0601 84.188C11.9091 84.5919 11.7786 84.9713 11.6807 85.3059C11.7378 85.2365 11.8112 85.1713 11.8683 85.1305Z" fill="white"/>
<path d="M16.727 68.9335C16.9636 69.1824 16.4373 70.9979 15.4377 72.3034C14.9808 73.8375 16.3843 73.352 17.5103 72.3606C17.4042 72.2545 17.2859 72.2015 17.8081 70.647C17.4042 71.0877 15.8947 73.7355 16.217 72.3687C16.9881 70.3492 17.0738 70.8184 17.6776 69.9453C16.931 70.5777 18.3303 67.22 17.596 67.3873L16.9677 69.1824C16.8698 69.1742 17.033 68.4929 16.731 68.9294L16.727 68.9335Z" fill="white"/>
<path d="M16.1642 75.1471L15.9194 75.7713C16.2907 75.1022 16.6375 74.6616 17.2943 73.8619C17.6248 72.789 17.6166 72.5278 17.5514 72.4136L16.1112 75.3756L16.1642 75.1471Z" fill="white"/>
<path d="M14.6551 78.4925C14.5572 77.8724 15.0998 76.3506 14.3369 77.085C13.5291 78.876 14.0227 78.4558 13.6719 79.5859C14.9121 76.6689 13.4679 80.4957 14.6062 78.4966C14.3981 79.0882 14.1859 79.6023 13.9779 80.0878C14.2553 79.5859 14.5327 79.1086 14.8061 78.668C14.7857 78.6925 14.7734 78.7047 14.7571 78.7251V78.7373L14.749 78.7333C14.651 78.8393 14.6102 78.8679 14.6959 78.7373C14.6959 78.7251 14.7122 78.6925 14.7163 78.6761C14.6796 78.6353 14.6674 78.566 14.6551 78.4925C15.108 77.6929 14.7979 78.3987 14.7163 78.6761C14.7286 78.6925 14.7326 78.721 14.749 78.7333C14.749 78.7333 14.753 78.7292 14.7571 78.7251L15.9199 75.7672C15.5935 76.3547 15.2467 77.1217 14.6551 78.4885V78.4925Z" fill="white"/>
<path d="M6.50342 92.2946C6.57278 92.2171 6.59317 92.2293 6.61765 92.2334C6.66253 92.0294 6.66661 91.9437 6.50342 92.2946Z" fill="white"/>
<path d="M7.22488 91.1849C7.17593 91.4174 7.22488 91.65 6.89442 92.3232C6.53539 92.878 6.73938 92.2538 6.62107 92.2375C6.52315 92.6903 6.21717 93.7878 6.94338 92.5598L6.98825 92.3354C7.61247 91.2134 8.6773 89.8875 8.63243 90.1119C8.1918 90.324 7.8491 90.5321 7.22488 91.189V91.1849Z" fill="white"/>
<path d="M10.8728 84.698L11.8071 82.2174L10.9748 83.319L11.1706 83.3312C10.4852 84.6735 10.8238 84.4695 10.8769 84.698H10.8728Z" fill="white"/>
<path d="M17.9146 72.0587L18.1022 72.536L18.2777 70.9326L17.9146 72.0587Z" fill="white"/>
<path d="M19.3467 68.9417L19.5874 69.1946L19.7995 68.293L19.3467 68.9417Z" fill="white"/>
<path d="M162.194 97.1986L161.884 97.9166C162.043 97.5821 162.137 97.3618 162.194 97.1986Z" fill="white"/>
<path d="M165.625 91.3155L165.547 91.1319C165.445 91.4828 165.429 91.6419 165.625 91.3155Z" fill="white"/>
<path d="M80.0459 36.4907C81.0047 37.1231 82.0165 37.939 82.0083 37.5555L81.8043 37.1149C81.0495 36.9354 80.4988 36.7151 80.0459 36.4866V36.4907Z" fill="white"/>
<path d="M126.813 68.1706C126.76 68.0686 126.707 67.9625 126.654 67.8605C126.372 67.7503 126.111 67.6484 125.875 67.5586C126.156 67.7422 126.474 67.9543 126.813 68.1746V68.1706Z" fill="white"/>
<path d="M128.409 67.6851L129.306 68.8804C129.123 68.5949 128.837 68.2032 128.409 67.6851Z" fill="white"/>
<path d="M147.115 124.007L146.972 124.974C147.682 123.742 147.213 124.195 147.115 124.007Z" fill="white"/>
<path d="M35.1153 37.8737C35.7435 37.2618 36.225 36.8252 36.6411 36.454C35.8047 36.9599 35.0418 37.478 35.1153 37.8737Z" fill="white"/>
<path d="M160.051 93.4003C159.868 93.845 159.831 94.0571 159.905 94.0857C160.096 93.6328 160.178 93.3595 160.051 93.4003Z" fill="white"/>
<path d="M38.465 35.1321C38.3263 35.1729 38.1916 35.2137 38.057 35.2667C37.5878 35.6176 37.1717 35.9807 36.6372 36.454C37.2614 36.0664 37.8938 35.7196 38.4609 35.1321H38.465Z" fill="white"/>
<path d="M57.5011 106.072C57.444 106.015 57.3705 105.958 57.3216 105.905C57.2767 105.933 57.3624 105.995 57.5011 106.072Z" fill="white"/>
<path d="M27.8774 94C28.0447 93.9674 28.2609 93.9347 28.5017 93.9021C28.7424 93.8654 29.0076 93.8368 29.2646 93.8286C29.0116 93.8042 28.5914 93.8572 27.8774 93.9959V94Z" fill="white"/>
<path d="M25.5397 56.6002C25.5234 56.7226 25.2378 57.2611 25.5397 56.6002Z" fill="white"/>
<path d="M22.7125 59.1542C22.7451 58.9991 22.7533 58.8686 22.688 58.8155C22.7369 58.9053 22.741 59.0236 22.7125 59.1542Z" fill="white"/>
<path d="M44.3965 31.2318C44.4169 31.2318 44.4333 31.2277 44.4577 31.2236C44.2334 31.1828 44.2701 31.1951 44.3965 31.2318Z" fill="white"/>
<path d="M24.9072 57.51C25.0663 57.2856 25.2418 57.0204 25.4172 56.7226C25.3274 56.845 25.1683 57.0816 24.9072 57.51Z" fill="white"/>
<path d="M25.1242 57.4529C25.0018 57.6732 24.9039 57.8445 24.8101 58.0077C24.8223 58.1179 24.8917 58.0608 25.1242 57.4529Z" fill="white"/>
<path d="M25.972 55.6863C25.7925 56.0616 25.6048 56.4002 25.4131 56.7226C25.4988 56.6042 25.5436 56.5594 25.5355 56.6002C25.6252 56.4084 25.7558 56.1351 25.972 55.6863Z" fill="white"/>
<path d="M103.962 143.452C103.922 143.419 103.873 143.39 103.832 143.35C103.089 143.15 103.399 143.276 103.962 143.452Z" fill="white"/>
<path d="M98.7764 40.9581C98.7438 40.9418 98.7234 40.9418 98.6948 40.9296C98.7234 40.95 98.7601 40.9785 98.7846 40.9948L98.7764 40.9581Z" fill="white"/>
<path d="M101.184 42.1535C99.9884 41.9005 99.4907 41.4926 98.7808 40.9948L99.0092 42.3085C99.7273 42.2514 100.449 42.2024 101.18 42.1576L101.184 42.1535Z" fill="white"/>
<path d="M155.527 108.924L156.722 107.492C156.061 109.675 155.103 110.976 156.355 109.707C155.527 108.928 159.839 103.461 159.011 102.682L159.819 101.748C159.635 102.041 159.664 102.123 159.484 102.417C161.125 100.642 159.668 100.499 161.329 97.9452C161.932 97.0721 162.442 96.5131 162.193 97.2026L163.14 95.024C163.503 94.4406 163.585 94.6813 163.226 95.2647L164.164 93.5512L165.531 91.0992L165.547 91.1319C165.645 90.7851 165.833 90.2465 166.004 89.7406C166.09 89.4958 166.175 89.247 166.253 89.0185C166.29 88.9083 166.326 88.8064 166.363 88.7084C166.379 88.6595 166.396 88.6146 166.412 88.5738C166.379 88.5493 166.294 88.5534 166.241 88.5452C165.739 88.3412 165.927 88.3576 166.245 88.4065C166.322 88.4188 166.412 88.4351 166.494 88.4473C166.538 88.4555 166.579 88.4596 166.616 88.4677C166.649 88.4677 166.628 88.484 166.628 88.4963L166.616 88.533C166.583 88.6228 166.587 88.6636 166.685 88.5697C166.702 88.5208 166.738 88.4677 166.742 88.4269L166.538 88.3943L166.139 88.329L165.351 88.2066L163.842 87.9781C163.43 87.7293 163.817 87.6762 164.633 87.7742C165.037 87.8231 165.547 87.9047 166.082 88.0108C166.351 88.0638 166.624 88.1209 166.893 88.1821L167.093 88.2311L167.142 88.2433C167.142 88.2433 167.159 88.2433 167.167 88.2515L167.155 88.2719L167.101 88.3616C167.032 88.48 166.963 88.5983 166.893 88.7166C167.085 88.5208 167.261 88.3372 167.424 88.1617C167.432 88.1536 167.448 88.1373 167.448 88.1291L167.432 88.1169L167.399 88.0924L167.334 88.0434C167.289 88.0108 167.244 87.9781 167.199 87.9496C167.012 87.8313 166.804 87.7415 166.575 87.6681C166.122 87.5212 165.604 87.4437 164.992 87.358C164.694 87.3131 164.364 87.2642 163.985 87.2111C163.634 87.154 163.25 87.0806 162.818 86.9827C162.385 86.8848 161.904 86.7583 161.345 86.5869C161.206 86.542 161.059 86.4972 160.908 86.4523C160.839 86.4278 160.741 86.3992 160.696 86.3789C160.647 86.3585 160.598 86.3381 160.549 86.3177C160.353 86.232 160.141 86.1341 159.921 86.028L160.843 86.2279L162.336 86.5339C161.945 86.2728 161.463 86.0402 160.916 85.8281C160.586 85.6567 160.288 85.518 159.929 85.3752C159.578 85.2324 159.195 85.0937 158.791 84.9183C158.387 84.7388 157.959 84.5307 157.506 84.2777C157.702 84.445 158.591 85.0203 159.195 85.465C159.795 85.9138 160.096 86.2769 159.044 86.1055C158.493 85.8648 157.775 85.5588 156.616 85.416C156.735 85.0447 155.662 84.7592 154.352 84.29L154.629 83.8371C153.193 83.421 153.197 83.7188 152.292 83.5923C150.774 82.8743 150.623 82.3684 150.415 81.891C148.041 80.6793 151.81 83.2659 148.905 82.0053C148.42 81.7278 147.979 81.4586 147.531 81.2301C147.086 81.0016 146.641 80.7976 146.188 80.5814C145.731 80.3693 145.254 80.1653 144.736 79.9531C144.222 79.7246 143.667 79.4839 143.051 79.2106C141.802 78.2478 143.447 79.0841 143.043 78.6639L141.647 78.2845C141.366 78.0968 141.525 78.0478 141.607 78.0193C140.53 77.5297 141.239 78.4191 139.62 77.5134C139.436 77.5623 139.175 77.4114 138.853 77.1462C138.535 76.8729 138.163 76.4771 137.743 76.0569C137.319 75.6407 136.87 75.1716 136.384 74.7595C135.895 74.3515 135.373 73.9925 134.834 73.7559C134.491 73.2867 135.246 73.6783 135.238 73.4132C133.888 72.6094 133.337 72.2178 132.815 71.8995C132.292 71.5854 131.823 71.312 130.669 70.6552C130.199 70.0759 129.751 69.4802 129.29 68.8927C130.199 70.2921 128.368 69.2109 126.793 68.1828C127.074 68.7254 127.315 69.1905 127.499 69.4843C126.727 68.8682 125.969 68.244 125.214 67.6076C125.026 67.2934 125.361 67.3791 125.854 67.5668C125.683 67.4566 125.52 67.3505 125.385 67.273C124.785 66.3877 125.385 66.5713 126.12 66.8977C126.299 67.224 126.47 67.5504 126.634 67.8727C127.368 68.1624 128.098 68.3746 128.204 68.0563C128.029 67.9666 127.731 67.7503 127.425 67.4892C127.617 67.5627 127.76 67.5912 127.735 67.4892C127.703 67.3832 127.409 67.2485 126.98 67.0037L126.927 66.1266L126.65 66.1755C125.846 65.1882 125.051 64.1887 124.263 63.185C121.95 61.6184 119.702 60.4434 116.503 57.4733C117.564 57.9547 117.168 57.155 117.572 56.845C118.013 58.073 120.081 59.1337 121.55 60.8554C120.783 59.962 121.134 59.9824 121.403 60.1415L118.27 57.5508C118.629 57.3305 117.903 56.7144 117.283 55.8372C117.258 56.9796 114.79 54.0462 113.407 53.0956C113.517 52.8304 114.015 52.8916 115.398 54.3644C114.243 52.349 112.677 53.0385 111.44 51.1699C111.808 51.5004 111.971 51.7125 112.207 51.7452C111.216 51.125 109.213 49.1341 109.866 49.387C109.996 49.489 110.123 49.5951 110.245 49.7053C109.637 49.1504 108.833 48.4895 107.981 47.7877C107.548 47.445 107.108 47.0901 106.667 46.7351C106.206 46.4128 105.741 46.0946 105.292 45.7927C104.394 45.197 103.558 44.6626 102.889 44.3117C102.204 43.9894 101.702 43.8221 101.502 43.8997C101.522 43.8058 102.326 43.4386 102.575 43.4346L99.4865 42.8103C99.2294 42.7614 98.9806 42.7083 98.7235 42.6635L97.9484 42.5492L96.4062 42.333C97.1528 42.076 96.141 39.8484 98.6787 40.9295C98.0422 40.4644 97.2466 39.8851 95.7085 39.2405C96.1369 39.5832 96.4429 40.6603 95.786 40.3461C95.4393 39.9463 95.1904 39.6974 94.9905 39.5179C94.7906 39.3343 94.6437 39.2119 94.4805 39.0855C94.1541 38.8325 93.7747 38.5673 92.7955 37.7473C93.4524 38.2287 92.2448 38.6489 91.135 38.0737C91.3717 38.0288 91.4369 37.1883 91.898 37.3067C90.8087 37.1394 89.7193 37.0007 88.6463 36.8538C89.4256 37.0211 89.087 36.1969 88.5403 35.6706C88.5974 35.7441 88.4709 35.7114 88.2343 35.6176C87.9977 35.5197 87.655 35.3606 87.2674 35.2096C86.5004 34.8955 85.5946 34.5201 85.1867 34.4141L86.3616 35.0913C84.7175 34.3977 83.7954 34.3488 82.8571 34.3977C81.9187 34.4426 80.9926 34.5038 79.3484 33.9408C79.7972 33.8959 80.6988 33.1371 79.0098 32.5006C78.5447 32.6189 77.5084 32.9249 76.2314 33.1493C75.5909 33.2717 74.8932 33.337 74.1589 33.4145C73.4204 33.4879 72.6575 33.5083 71.8986 33.439L71.3846 33.0555L70.2137 32.9616L69.0387 32.929C69.4263 32.8188 69.9893 32.6556 70.6461 32.5455C71.303 32.4313 72.0618 32.317 72.8533 32.215C73.6407 32.1171 74.4689 32.0029 75.2319 31.9662C75.9948 31.9335 76.7169 31.9172 77.3085 31.9254C76.0723 31.3746 77.0311 31.5215 75.085 31.0278C74.7668 30.836 75.0605 30.783 75.4971 30.8401C75.9336 30.8891 76.5252 31.0115 76.8148 31.0808C75.3257 30.5872 73.7998 30.2404 72.2781 29.8528C72.3229 30.1506 71.4213 30.0772 70.5197 30.0405C69.6099 30.0201 68.7041 29.9915 68.7572 30.2322L70.0301 30.2934C70.4544 30.3097 70.8787 30.3342 71.2989 30.3832L73.8366 30.6361C73.8978 31.2318 70.6747 31.4725 67.4761 30.9299C66.6846 30.5831 68.235 30.0609 68.1982 29.8732C67.9698 29.9344 67.1864 29.8977 66.4235 29.8283C65.6565 29.7875 64.9099 29.7222 64.7671 29.6366L66.195 29.4938C65.2934 29.2939 64.5223 29.3918 63.7186 29.4489C62.9108 29.5183 62.0744 29.4897 60.9892 29.1919C60.2344 29.1144 58.7494 28.3637 58.5984 28.6819C59.8264 29.3755 59.9366 31.3175 59.1165 31.7458C59.0513 31.7336 58.782 31.6724 58.3944 31.5908C58.0068 31.5133 57.5091 31.3827 56.9869 31.3011C55.9465 31.1176 54.8205 30.9054 54.3921 30.7504C53.1437 30.2608 56.2443 29.5795 55.1877 29.1592C55.1428 29.3102 54.4533 29.4938 54.1677 29.555C53.3681 29.4367 54.49 29.0736 52.7561 29.1755C52.4868 29.7467 49.2352 29.3224 51.9564 29.6896C51.116 29.8161 50.6672 29.812 50.1817 29.7916C49.9369 29.7834 49.684 29.7712 49.3698 29.7671C49.0516 29.7671 48.6722 29.7671 48.1826 29.8365C48.8354 30.1261 46.5343 31.2522 44.9106 31.5908C44.9881 31.4399 44.5923 31.2971 44.4006 31.2359C42.7034 31.4521 41.3897 31.6275 40.1208 31.9254C38.8602 32.2354 37.6077 32.6352 36.2328 33.5614C36.0655 33.5858 35.6371 33.8102 35.3066 33.9734C34.9803 34.1407 34.7314 34.2223 34.9191 33.9C34.609 34.3039 34.405 34.7364 33.7481 35.5197C32.9363 36.1398 33.2708 35.6788 33.6666 35.1688C34.0664 34.667 34.5519 34.1244 33.793 34.4916C33.8624 34.6507 33.4666 35.23 33.0342 35.9521C32.5976 36.6743 32.1285 37.5474 31.851 38.2165C32.1774 38.1553 32.614 37.4658 33.1199 36.658C33.6176 35.8461 34.2296 34.9281 34.711 34.3447C34.9517 34.6017 34.711 35.2708 34.3071 36.2418C33.9032 37.1802 33.3442 38.4898 32.6956 39.9993C31.6103 42.3738 31.7654 40.7908 31.6389 41.2355C29.2399 45.5928 30.7495 45.5438 28.428 48.9913C27.2898 50.252 27.6162 48.6608 27.1674 48.8403C28.0037 46.8453 28.9217 46.013 29.5786 44.7115L28.5708 46.217C28.7504 45.5398 29.3175 44.2097 29.7907 43.5692C28.7952 44.6014 25.8782 51.0149 23.8382 54.291C23.6669 54.9682 23.2752 56.0902 23.6832 55.67L24.1687 54.5562C24.9847 53.7157 23.5853 56.8205 24.4217 55.519C23.9158 57.0857 23.4547 58.8971 22.2675 60.8636L21.627 61.0309C21.782 61.0513 22.5572 59.8192 22.704 59.1705C22.4797 60.1251 20.5417 62.0263 20.6805 63.2585L21.6922 61.9651C21.2067 63.5481 20.7947 65.5921 19.7788 67.3546C20.6233 66.7345 19.9257 66.9058 21.0762 65.8614C19.8849 66.6733 23.3691 61.2022 21.8106 62.6791C23.059 61.6428 23.1936 60.5046 24.5604 59.0195C24.389 58.9991 23.9729 59.4928 24.8011 58.0036C24.7929 57.9139 24.8174 57.7221 24.8378 57.6038C24.8664 57.5589 24.8745 57.5426 24.899 57.5059C24.8786 57.5345 24.8623 57.5549 24.8378 57.5793C24.85 57.5018 24.846 57.4937 24.8174 57.6079C24.5726 57.9384 24.3482 58.1954 24.2054 58.2729C24.2421 57.3468 25.462 54.9274 25.6946 54.0176C26.2168 53.1486 25.6742 54.4787 26.0781 54.0666L26.433 52.7121C26.8206 52.757 28.1873 50.5906 27.3061 52.81L28.2853 50.9047C29.0359 49.8725 29.9049 48.3671 30.2517 47.343C30.778 46.4781 31.0595 44.887 30.9086 45.8009L32.2549 42.7124L32.3488 42.7287C33.1403 41.26 33.7563 39.726 34.6008 38.347C35.4372 36.9762 36.551 35.7563 38.0442 35.2627C38.7786 34.7282 39.6353 34.1856 41.3081 33.8592L41.7038 34.0877C42.3199 33.8796 43.3154 33.7735 44.2456 33.6878C45.1798 33.6022 46.0325 33.5573 46.3099 33.3533C46.7098 33.5246 47.3258 33.5736 48.0684 33.5491C48.4396 33.545 48.8394 33.492 49.2637 33.4839C49.688 33.4675 50.1287 33.439 50.5774 33.4023C51.475 33.3247 52.4052 33.2431 53.262 33.1656C54.1187 33.1371 54.9061 33.1248 55.5181 33.1656L55.612 32.7536C57.3051 32.7372 58.9248 32.7454 61.0422 32.6842L60.9402 32.3129C61.1728 32.2885 61.4176 32.2762 61.6787 32.2762C61.9357 32.2885 62.209 32.317 62.4946 32.3497C63.0617 32.419 63.6737 32.5251 64.3183 32.6434C64.9629 32.7699 65.6402 32.8678 66.3256 33.031C67.0151 33.186 67.7168 33.3247 68.4308 33.4308C68.2146 33.5369 67.5006 33.3859 67.0028 33.2227C67.8229 33.5654 68.6797 33.7694 69.5568 33.9C69.9974 33.9653 70.4381 34.0305 70.8787 34.0958C71.3193 34.157 71.764 34.2101 72.2087 34.259C72.6534 34.308 73.094 34.361 73.5306 34.41C73.9671 34.4589 74.3996 34.516 74.8117 34.618C75.6439 34.8057 76.4354 35.0423 77.1494 35.3891C77.9368 35.4626 78.4753 35.6462 78.9608 35.9154C78.8915 35.895 78.8262 35.8787 78.7732 35.8746C78.8466 35.9032 78.9608 35.9399 79.0751 35.9766C79.3811 36.1439 79.6952 36.3234 80.042 36.4988C79.7605 36.3153 79.4871 36.148 79.2383 36.0297C79.8094 36.2092 80.6907 36.4458 81.5678 36.6376L81.8004 37.1271C81.8697 37.1475 81.9269 37.1598 82.0003 37.1802C82.392 37.3801 82.5674 37.4086 82.6123 37.3148C82.6531 37.2251 82.5592 37.0129 82.3879 36.8008C82.8326 36.8905 83.2447 36.9721 83.5751 36.9966C84.0157 37.8493 85.8517 37.6371 86.5004 38.6244C86.839 38.5959 87.8875 38.9957 88.9442 39.3506C89.4746 39.5261 90.0049 39.6934 90.4496 39.7872C90.8903 39.8933 91.237 39.9422 91.4247 39.8361C91.4125 39.93 91.6287 40.0891 91.1962 39.8729C92.0571 40.3992 92.9098 40.9255 93.8033 41.1621L93.9461 41.7945C94.6967 41.9291 95.427 42.1209 96.1736 42.2881C97.1773 43.2224 97.5526 43.6426 96.2226 43.3162C96.9814 43.5855 97.5118 43.7895 97.9157 43.9568C98.3155 44.1363 98.5807 44.2872 98.8419 44.4219C99.3641 44.6952 99.8292 44.9359 101.131 45.4378L100.841 45.6336C101.673 46.1232 103.154 46.7229 103.477 47.2778C103.648 47.5021 103.913 47.7673 104.252 48.0692C104.582 48.3793 105.011 48.6975 105.447 49.1055C106.332 49.9052 107.454 50.8109 108.625 51.8227C110.943 53.8789 113.456 56.3799 115.198 58.5911C115.129 57.1469 116.699 60.7616 117.381 60.4189C117.442 60.8106 117.891 61.4674 117.124 60.9411C119.257 62.8709 119.828 64.3274 121.66 65.3473C121.726 65.7431 120.995 65.127 121.101 65.433C121.297 65.5676 121.877 65.9634 121.991 66.2734C122.097 66.5794 121.562 66.098 121.175 65.8328C123.247 67.9503 123.97 67.6728 124.582 67.375C125.418 68.6561 125.977 69.162 127.054 69.6108C127.278 70.1289 127.752 70.9 126.377 69.6638C126.556 69.8515 126.919 70.235 127.364 70.7041C127.817 71.1652 128.359 71.7078 128.894 72.2137C129.441 72.7114 129.975 73.1765 130.399 73.4988C130.832 73.813 131.154 73.9802 131.256 73.9027C131.419 74.2128 132.333 74.886 132.59 75.0043C133.492 75.7509 133.965 76.1752 134.471 76.5587C134.973 76.9422 135.454 77.3461 136.409 77.9866L135.94 77.546C137.049 77.5583 137.555 78.5578 139.147 79.5084L139.069 79.5329C140.721 80.8792 141.154 81.0628 141.558 81.2627C141.766 81.3566 141.966 81.4504 142.329 81.683C142.692 81.9114 143.202 82.2949 144.063 82.9028L144.05 82.45C144.43 82.1685 145.16 82.7437 146.127 83.4373C146.609 83.7841 147.135 84.1921 147.702 84.5307C148.269 84.8734 148.856 85.1794 149.44 85.363L148.742 84.7877C149.395 84.9468 150.121 85.571 150.843 86.2524C151.561 86.9378 152.3 87.6232 152.904 87.9292C153.148 88.1087 152.43 87.8639 152.027 87.7619C153.577 88.6595 153.748 88.5452 153.818 88.3657C153.891 88.174 153.887 87.8721 155.135 88.2678C155.503 88.684 154.303 88.737 155.972 89.3531C156.163 89.4754 156.584 89.5856 157.139 89.7039C157.693 89.8182 158.391 89.9079 159.121 90.0344C159.301 90.0629 159.484 90.0956 159.668 90.1282C159.762 90.1282 159.86 90.1364 159.958 90.1445C160.158 90.1609 160.366 90.1894 160.562 90.2261C160.659 90.2465 160.757 90.2669 160.847 90.2914C160.925 90.3118 160.994 90.3322 161.059 90.3567C161.186 90.4056 161.276 90.4709 161.304 90.5403C161.402 90.3485 161.28 90.1037 162.161 90.1527C162.234 90.1649 162.304 90.1813 162.369 90.1976L162.467 90.2261C162.467 90.2506 162.426 90.2914 162.406 90.324C162.304 90.4668 162.189 90.6178 162.067 90.7688C161.822 91.0707 161.557 91.3603 161.341 91.6133C161.231 91.7397 161.133 91.8581 161.047 91.9682C161.002 92.0253 160.965 92.0825 160.929 92.1355C160.876 92.2212 160.79 92.368 160.729 92.4823C160.464 92.9678 160.272 93.437 160.211 93.8776C160.043 94.0489 159.954 94.0979 159.901 94.0775C159.35 95.3749 157.877 98.1492 157.771 99.059C155.955 99.4996 153.993 106.9 152.928 106.252L150.835 110.001L150.782 109.842C149.334 112.176 149.109 113.167 148.885 114.15C148.493 114.656 148.624 114.199 148.595 114.118C146.368 117.463 146.213 117.834 145.066 121.057L144.54 121.159C144.287 122.057 141.088 125.88 139.522 129.486C139.501 129.429 139.477 129.323 139.583 129.025C138.681 131.037 137.066 133.101 135.626 134.753C134.185 136.418 132.941 137.67 132.884 138.719C132.602 139.09 132.28 139.425 131.978 139.784C131.652 140.11 131.342 140.469 130.995 140.779C132.46 139.731 132.443 139.894 132.248 140.302C132.044 140.69 131.619 141.277 132.296 140.889C132.023 141.142 131.68 141.391 131.325 141.583C131.15 141.685 130.983 141.775 130.82 141.856C130.652 141.926 130.501 141.987 130.367 142.028C129.84 142.203 129.657 142.138 130.387 141.636C130.477 141.608 130.571 141.583 130.66 141.546C130.685 141.293 130.456 141.322 130.089 141.465C129.722 141.612 129.228 141.905 128.69 142.154C127.637 142.697 126.458 143.133 126.413 142.868C123.158 144.153 119.588 144.459 116.189 144.121C112.77 143.786 109.531 142.803 106.475 141.481L106.965 142.321C106.239 142.024 105.525 141.693 104.815 141.355C104.566 141.155 104.431 140.959 104.545 140.91C104.66 140.857 105.015 140.959 105.773 141.302C105.113 140.665 103.134 140.339 103.024 140.42C101.628 139.531 102.012 139.519 102.603 139.694C103.203 139.857 104.04 140.159 103.599 139.918C103.195 139.723 102.787 139.527 102.387 139.311L102.62 139.523C101.543 139.188 101.31 139.38 99.6089 138.27C98.593 137.475 99.2621 137.601 98.85 137.303C98.8745 137.271 98.748 137.156 98.2176 136.859C97.4139 136.275 96.6183 135.68 95.835 135.063C96.0553 135.435 96.2838 135.79 96.5123 136.157C95.2965 135.561 94.2765 134.419 95.0517 135.7C94.4805 134.757 92.3304 132.954 90.2987 131.131C89.2665 130.241 88.2792 129.331 87.4754 128.609C86.688 127.871 86.1005 127.3 85.9129 127.038C84.3054 125.986 82.9632 124.68 81.3394 123.024C81.6821 123.497 81.5556 124.121 80.1766 122.669C81.4618 122.404 77.9001 119.756 77.2881 118.059C77.9694 119.442 73.094 114.163 74.216 116.288C73.0655 115.064 74.4281 115.921 73.6815 114.856C70.4911 112.416 67.3904 108.61 63.2943 105.676C63.1474 105.746 63.6737 106.423 62.6945 105.946C62.1478 105.215 61.5726 104.514 60.9892 103.804C60.5649 103.543 60.2589 103.579 59.9121 103.502C59.5572 103.428 59.1614 103.249 58.5372 102.539C58.6882 102.78 58.9044 103.143 58.325 102.816C57.3581 102.045 56.3015 101.405 55.2529 100.728C54.7185 100.409 54.1677 100.112 53.621 99.8097L52.7969 99.3609L51.9483 98.9529C51.3812 98.6877 50.81 98.4184 50.2388 98.1532C49.6554 97.9166 49.0679 97.6841 48.4804 97.4474L47.5992 97.1006L46.7016 96.7947C46.1019 96.5947 45.5062 96.3826 44.8983 96.1908C43.6744 95.8563 42.4667 95.4646 41.2183 95.2035C40.5982 95.0689 39.9862 94.8894 39.3579 94.7792L37.4812 94.4202L37.012 94.3264L36.5388 94.2611L35.5922 94.1224C34.9599 94.0326 34.3275 93.9061 33.6869 93.8572C33.0505 93.7919 32.41 93.7144 31.7653 93.6328C31.1207 93.5716 30.4761 93.543 29.8274 93.4859C31.235 93.7062 30.3048 93.7715 29.2481 93.8286C29.9417 93.8653 29.2563 94.1836 29.4031 94.3712C29.2277 94.359 29.0482 94.3386 28.8687 94.3304H28.3342L27.2612 94.3223H26.1801L25.103 94.408C24.7766 94.767 23.6465 94.9465 22.598 95.3137C22.0717 95.4769 21.5495 95.636 21.1496 95.7951C20.7498 95.9583 20.4805 96.1623 20.4234 96.3173L21.0313 96.0236L21.6596 95.7829C20.9008 96.3336 21.6188 96.4683 22.4797 96.5825C23.3446 96.6927 24.3482 96.7947 24.3278 97.223C24.744 96.9619 25.2743 96.8273 25.87 96.7498C26.1678 96.7212 26.4779 96.6682 26.8124 96.6886C27.1429 96.7008 27.4815 96.7131 27.8324 96.7253C28.1792 96.7375 28.5341 96.7457 28.8972 96.7416C29.2563 96.7294 29.6275 96.7702 29.9947 96.7498C30.366 96.7416 30.7372 96.7049 31.1167 96.6396C31.3043 96.6111 31.4961 96.5621 31.6838 96.5213C31.8755 96.4846 32.0673 96.4397 32.259 96.3867C32.9322 96.5662 31.6797 96.6192 32.0387 96.811C32.4263 96.6559 32.8547 96.5703 33.4054 96.5458C33.6788 96.5417 33.9848 96.5254 34.3316 96.5743C34.6743 96.6192 35.0578 96.6845 35.4862 96.7661L35.2822 96.8273C35.8901 96.8885 36.4572 96.9089 36.9835 97.0109C37.5098 97.1088 38.0075 97.1986 38.4848 97.2842C38.7215 97.3332 38.954 97.3781 39.1866 97.423C39.415 97.4842 39.6353 97.5453 39.8597 97.6065C40.3004 97.733 40.7369 97.8554 41.1734 97.9819C41.6141 98.1002 42.0465 98.2634 42.4953 98.4266C42.9441 98.5898 43.4092 98.7571 43.9028 98.9325C44.3924 99.112 44.8983 99.3446 45.4491 99.5649C45.9958 99.7933 46.5874 100.018 47.2034 100.32L46.9709 99.8056C48.048 100.307 48.2315 100.515 48.7048 100.817C50.198 100.801 45.6409 99.5118 47.028 99.3854C47.3217 99.7199 47.9541 100.091 48.7415 100.475C49.5289 100.858 50.4469 101.336 51.3689 101.768C52.2665 102.245 53.1437 102.731 53.825 103.171C54.49 103.645 54.9673 104.065 55.0775 104.391C56.636 105.33 54.8613 103.718 56.4075 104.689L56.6809 105.158L57.2357 105.15C58.219 105.844 58.5331 106.452 58.4515 106.647C58.2312 106.456 57.7457 106.215 57.4764 106.064C58.0435 106.594 58.9329 107.239 59.753 107.753C60.5608 108.288 61.2666 108.753 61.4543 108.953L60.1447 107.761C62.2172 109.169 64.3754 110.952 66.4765 112.775C68.5777 114.599 70.6217 116.472 72.5718 117.998L72.429 117.606C75.3706 119.98 74.4526 119.846 77.5166 122.64L77.3779 122.567C78.0959 123.02 78.9527 123.734 79.7482 124.546C78.8466 123.962 80.8661 126.227 79.7197 125.431C82.9142 128.042 81.3761 126.651 83.7995 128.046L84.0443 128.699C84.9092 129.131 85.0561 129.087 86.6391 130.441C85.1989 129.482 87.3122 131.677 85.6599 130.637C86.3576 131.498 87.0348 132.175 87.6794 132.73C88.3281 133.277 88.936 133.713 89.4827 134.105C90.5802 134.88 91.4329 135.467 91.9224 136.483C92.9832 136.785 92.2937 136.108 91.4982 135.406C90.6944 134.709 89.7805 133.978 90.266 134.276C89.7234 133.46 91.9306 134.88 92.9546 135.79C93.4932 136.234 93.7992 136.806 94.3296 137.544C94.8681 138.266 95.6229 139.172 97.1242 140.159C96.8305 139.955 96.7734 139.996 96.4837 139.792C97.4751 140.73 98.8296 141.004 100.078 142.138C101.127 142.166 101.955 143.203 102.489 142.754C101.498 142.293 100.51 141.807 99.5517 141.281C99.9679 141.489 100.404 141.648 100.861 141.803C101.314 141.962 101.787 142.105 102.289 142.277C103.289 142.623 104.394 143.048 105.725 143.807C105.451 143.847 104.554 143.627 103.942 143.456C104.313 143.725 104.721 143.876 105.133 144.023C105.549 144.166 105.969 144.3 106.365 144.565C106.128 144.81 105.166 144.488 104.044 143.986C102.918 143.488 101.641 142.827 100.645 142.542C100.996 142.909 101.906 143.248 102.563 143.513C103.228 143.766 103.644 143.958 103.036 144.051C103.46 144.015 103.872 144.092 104.297 144.231C104.717 144.378 105.145 144.59 105.61 144.802C105.843 144.908 106.084 145.022 106.328 145.137C106.581 145.239 106.842 145.336 107.112 145.43C107.65 145.618 108.246 145.732 108.882 145.757L108.613 146.079C109.001 146.152 109.849 146.181 110.543 146.381L109.135 146.52C109.662 146.548 110.147 146.662 110.624 146.785C111.106 146.899 111.567 147.07 112.036 147.217C112.505 147.356 112.974 147.515 113.452 147.621C113.933 147.719 114.419 147.793 114.916 147.788C112.86 147.556 112.66 147.348 112.75 147.221C112.844 147.083 113.223 146.956 112.407 146.667C114.896 146.842 115.573 147.07 116.357 147.442C117.136 147.74 118.029 148.225 120.914 147.882C120.526 147.948 119.788 147.935 119.306 147.882C118.821 147.805 118.592 147.691 119.192 147.593C119.739 147.605 120.371 147.621 120.95 147.638C121.534 147.638 122.072 147.666 122.423 147.715C124.316 147.344 124.137 147.234 123.704 147.221C123.264 147.181 122.566 147.164 123.333 146.907C124.692 147.107 125.116 146.324 126.609 145.675L126.748 146.042C127.266 145.883 127.67 145.744 127.98 145.618C128.286 145.475 128.502 145.357 128.661 145.251C128.975 145.043 129.049 144.9 129.114 144.761C129.175 144.627 129.22 144.484 129.473 144.292C129.718 144.088 130.191 143.872 131.036 143.411L130.485 144.076L129.889 144.704C130.179 144.521 130.473 144.349 130.75 144.149L131.578 143.55L131.46 144.153C131.676 143.97 131.876 143.802 132.06 143.647C132.239 143.488 132.403 143.341 132.562 143.203C132.88 142.938 133.157 142.701 133.435 142.468C133.716 142.244 134.006 142.024 134.316 141.767C134.475 141.64 134.642 141.51 134.826 141.363C135.001 141.212 135.189 141.053 135.393 140.877C134.83 141.016 135.132 140.196 136.348 138.813C136.85 138.413 136.809 138.609 136.845 138.65C136.886 138.69 137.017 138.584 137.821 137.54C137.645 138.152 137.466 138.874 136.421 139.502C136.437 139.678 136.193 140.106 136.197 140.286C136.784 139.87 137.384 139.217 137.886 138.568C138.4 137.923 138.808 137.279 139.093 136.891C138.865 137.181 138.571 137.52 138.392 137.666C139.04 136.54 139.608 135.398 140.138 134.256C140.587 133.844 140.428 134.296 140.268 134.753C140.652 134.092 140.787 133.554 141.341 132.591C141.464 133.003 141.79 133.117 141.056 134.545C141.611 133.468 142.133 132.391 142.627 131.318C142.867 131.188 143.871 129.951 143.74 130.408C144.879 128.821 145.576 126.002 147.07 123.909C147.082 123.762 147.163 123.501 147.396 123.008C148.661 120.964 150.068 119.319 151.113 116.635L152.418 115.525C153.422 113.53 150.697 117.055 152.369 113.734C153.528 111.368 153.283 113.13 153.883 112.412C154.287 111.135 154.915 108.875 156.531 107.019C156.225 107.765 155.837 108.263 155.498 108.932L155.527 108.924ZM159.101 86.1177C159.362 86.1545 159.758 86.183 160.125 86.2483C160.309 86.2809 160.484 86.3217 160.635 86.3707C160.692 86.3952 160.819 86.4319 160.912 86.4727C161.006 86.5135 161.088 86.5543 161.149 86.5992C160.57 86.6889 160.386 86.6848 160.088 86.5828C159.807 86.4849 159.505 86.3054 159.101 86.1137V86.1177ZM124.524 64.7639C124.892 64.9557 125.271 65.4371 125.646 66.0368C125.275 65.7023 124.892 65.2821 124.524 64.7639ZM28.8401 49.334C28.8442 49.3095 28.8483 49.2932 28.8483 49.2728C29.5255 48.2855 29.2807 48.6323 28.8401 49.334ZM27.5713 51.4514C27.5101 51.6962 27.5631 51.7085 27.661 51.6391C27.6488 51.4392 27.8936 50.9455 28.2037 50.3947C28.0323 50.5049 27.8242 50.7579 27.5713 51.4514ZM98.5522 137.291L98.8827 137.638C97.9402 137.14 98.2462 137.222 98.5522 137.291Z" fill="white"/>
<path d="M128.212 67.734C128.274 67.885 128.249 67.9666 128.225 68.0441C128.42 68.142 128.478 68.089 128.212 67.734Z" fill="white"/>
<path d="M147.139 123.832L147.094 123.901C147.094 123.954 147.098 123.987 147.115 124.011L147.139 123.832Z" fill="white"/>
<path d="M54.1885 28.9511C54.7066 29.0083 54.9963 29.0776 55.188 29.1551C55.2166 29.0572 54.98 28.9756 54.1885 28.9511Z" fill="white"/>
<path d="M22.3697 63.4339L22.9694 61.9733C22.6512 62.6669 22.4553 62.875 22.231 63.1932C22.3289 63.2013 22.5818 62.9892 22.3697 63.4339Z" fill="white"/>
<path d="M14.2749 74.7595C14.2219 74.988 14.075 75.2042 14.022 75.4327L14.2137 75.4531C14.6176 74.5555 14.7727 73.8701 14.2749 74.7595Z" fill="white"/>
<path d="M20.5589 64.1805C20.2081 64.1478 19.8735 65.0903 19.4492 66.1102C19.4778 66.049 19.5023 65.9919 19.5349 65.9348C19.8082 66.4285 20.1877 65.3024 20.5589 64.1805Z" fill="white"/>
<path d="M19.346 66.3469C19.2114 66.661 19.0686 66.9793 18.9136 67.273C19.0237 67.4688 19.1257 66.914 19.346 66.3469Z" fill="white"/>
<path d="M26.3639 54.34C26.0538 54.7724 26.5964 54.8255 26.3435 55.0295C26.4536 55.7393 27.4573 51.6799 26.3639 54.34Z" fill="white"/>
<path d="M19.1836 64.511L19.7262 64.3314L19.7017 63.6297L19.1836 64.511Z" fill="white"/>
<path d="M23.3001 56.7879L22.4148 58.3219C22.4882 58.33 22.4229 58.5463 22.3291 58.8074C22.8187 57.8323 23.4266 56.8001 23.3001 56.7838V56.7879Z" fill="white"/>
<path d="M22.3288 58.8114C22.0718 59.3173 21.8392 59.8069 21.7617 60.1211C21.8923 59.8436 22.1738 59.2439 22.3288 58.8114Z" fill="white"/>
<path d="M20.1299 62.2793L20.4359 61.8468L21.0111 60.7371L20.1299 62.2793Z" fill="white"/>
<path d="M32.0184 39.8973C32.2917 39.318 32.5773 38.7468 32.8792 38.1838C32.867 37.9431 32.5079 38.3388 32.1979 38.9916C32.051 39.4404 31.7572 40.0891 32.0184 39.8973Z" fill="white"/>
<path d="M28.3223 44.5524C28.6364 44.1281 28.7343 44.1363 28.9914 43.9364L28.5671 43.6508L28.3223 44.5483V44.5524Z" fill="white"/>
<path d="M30.8309 39.4894C30.786 39.2528 31.8998 36.7804 30.68 38.9916C30.6963 39.2364 29.8803 41.0193 30.8309 39.4894Z" fill="white"/>
<path d="M57.2031 30.3383L56.7095 30.3465L56.7666 31.1747L57.2031 30.3383Z" fill="white"/>
<path d="M83.0573 33.0187C80.8868 32.1008 82.3678 33.3329 80.4299 32.4394C79.8505 32.4557 82.0087 33.1656 81.4213 33.1534C82.8247 33.3941 83.4938 33.7368 83.0532 33.0146L83.0573 33.0187Z" fill="white"/>
<path d="M81.4248 33.1574C81.2004 33.1166 80.9597 33.084 80.7026 33.0555C81.1065 33.133 81.2983 33.1534 81.4248 33.1574Z" fill="white"/>
<path d="M22.2066 94.6976C21.6885 94.7955 21.1663 94.8894 20.644 94.9955C20.999 94.9751 21.3539 94.971 21.7048 94.9587L22.2066 94.6976Z" fill="white"/>
<path d="M19.5913 96.2765L19.0487 95.9257L18.3755 96.7171C18.6896 96.5621 19.3016 96.2643 19.5913 96.2765Z" fill="white"/>
<path d="M155.694 83.8331L155.547 83.9147C155.706 84.1187 156.012 84.2451 156.633 84.494L155.694 83.8331Z" fill="white"/>
<path d="M161.712 99.063L161.892 98.7734L161.157 99.0875L161.712 99.063Z" fill="white"/>
<path d="M153.851 113.873C154.21 113.289 154.52 112.543 154.883 111.959C154.21 113.293 153.243 113.734 153.851 113.873Z" fill="white"/>
<path d="M19.8892 67.8768C20.6031 68.04 20.4195 67.6606 20.5419 67.6198C19.2976 67.4648 19.9055 67.9707 19.8892 67.8768Z" fill="white"/>
<path d="M8.4376 69.8474L8.57631 69.6434C8.33152 69.7903 8.09489 69.9575 7.86234 70.133L7.17285 70.643C7.58899 70.3778 8.00106 70.0922 8.4376 69.8433V69.8474Z" fill="white"/>
<path d="M0 76.3384C0.277428 76.2242 0.558937 75.9753 0.848605 75.6448C1.13011 75.3062 1.48506 74.939 1.82368 74.5147C1.99096 74.2985 2.18271 74.0986 2.37446 73.8987C2.57029 73.6988 2.76613 73.4948 2.96196 73.2989C3.36178 72.9154 3.8024 72.5972 4.20631 72.3402C4.31238 72.3075 4.42662 72.2871 4.53677 72.2667L4.99371 71.4018C4.75708 71.5732 4.50821 71.7527 4.25526 71.9363C4.00639 72.124 3.77384 72.3443 3.52905 72.5523C3.03131 72.9603 2.58661 73.4417 2.14599 73.8905C1.70129 74.3352 1.33002 74.8248 0.95468 75.2246C0.607895 75.653 0.293748 76.0406 0.00407983 76.3425L0 76.3384Z" fill="white"/>
<path d="M3.84765 75.8203C3.50903 76.0365 4.11692 74.6698 3.29688 76.9504C3.36623 76.8484 3.39479 76.8198 3.43967 76.7627C3.52127 76.5587 3.6355 76.2854 3.85173 75.8203H3.84765Z" fill="white"/>
<path d="M3.43936 76.7627C3.88406 76.1956 3.04361 77.7501 3.43936 76.7627Z" fill="white"/>
<path d="M5.23469 72.1933L4.87158 73.5601C5.10821 73.3438 5.62635 72.2096 5.53251 72.6747C5.99354 71.3121 5.75691 71.5283 5.23469 72.1933Z" fill="white"/>
<path d="M5.36464 70.8062L5.16064 71.5079C5.26264 71.414 5.35648 71.2427 5.36464 70.8062Z" fill="white"/>
<path d="M4.71973 72.9929L5.15627 71.5079C4.989 71.6588 4.80948 71.6017 4.94004 72.1851C4.82988 72.0015 4.86252 72.3483 4.71973 72.997V72.9929Z" fill="white"/>
<path d="M4.2963 73.7599C3.87199 74.4331 3.39873 75.3348 3.76592 73.9639C2.79492 76.4649 3.3253 76.2568 4.2963 73.7599Z" fill="white"/>
<path d="M0.175419 77.134C0.412049 76.8565 0.693557 76.6118 0.958746 76.367C1.10562 76.0855 1.23617 75.7876 1.40345 75.5143C1.16274 75.9223 -0.0367325 77.0646 0.175419 77.134Z" fill="white"/>
<path d="M8.97944 64.3151C8.90192 64.1846 8.48986 64.613 8.30219 64.6456L8.0166 65.6493C8.30627 65.1964 8.78361 64.307 8.97944 64.3151Z" fill="white"/>
<path d="M8.30277 64.6456L8.73115 63.1442C8.15182 64.4008 8.14366 64.6742 8.30277 64.6456Z" fill="white"/>
<path d="M4.86728 70.3207L4.27979 72.8379L5.05903 69.8678L4.86728 70.3207Z" fill="white"/>
<path d="M11.3868 58.9216L11.293 59.8396L11.5337 58.2362L11.3868 58.9216Z" fill="white"/>
<path d="M12.9534 55.3273C12.9044 56.0168 13.6837 54.6827 13.5368 55.3681C13.9325 54.3808 14.1325 53.471 14.3038 52.6509C14.0345 53.4832 13.6225 54.3114 12.9534 55.3273Z" fill="white"/>
<path d="M14.6347 51.2923C14.5041 51.7126 14.4103 52.1613 14.3042 52.655C14.447 52.2144 14.5653 51.7656 14.6347 51.2923Z" fill="white"/>
<path d="M9.85254 60.7535C9.97085 60.6759 10.2442 60.5454 10.6726 59.7865L10.1055 60.1986C10.028 60.3659 9.9423 60.5576 9.85254 60.7535Z" fill="white"/>
<path d="M10.0854 60.2149L10.1058 60.1986C10.3833 59.5989 10.575 59.1827 10.6607 59.0032C10.5873 59.1542 10.4159 59.5214 10.0895 60.2109L10.0854 60.2149Z" fill="white"/>
<path d="M9.78768 60.8963C9.81216 60.8432 9.82848 60.8065 9.85296 60.7576C9.79584 60.7984 9.77136 60.8228 9.78768 60.8963Z" fill="white"/>
<path d="M6.76863 66.7182C6.95222 65.8084 7.52748 63.9847 6.51568 65.5473C6.4708 66.2408 7.05014 65.3473 6.76863 66.7182Z" fill="white"/>
<path d="M9.08122 61.4103L8.34277 62.8831C8.44069 62.8913 8.6814 62.6751 8.58756 63.1239L9.08122 61.4103Z" fill="white"/>
<path d="M9.31001 60.627L9.08154 61.4103L9.35897 60.8636L9.31001 60.627Z" fill="white"/>
<path d="M13.1653 53.7157C13.3244 53.0059 13.6345 52.296 13.9772 51.4882C13.5243 52.3164 13.0837 53.1813 12.7002 54.0217C12.7451 54.1849 12.7573 54.6378 13.1653 53.7157Z" fill="white"/>
<path d="M11.6361 56.8572C11.6524 56.8083 11.6687 56.7511 11.6809 56.7063C11.6157 56.7838 11.5749 56.8491 11.6361 56.8572Z" fill="white"/>
<path d="M17.6291 43.659C17.5883 43.6916 17.5515 43.7242 17.5107 43.7569C17.523 43.7773 17.5393 43.7895 17.5515 43.8099L17.6291 43.6549V43.659Z" fill="white"/>
<path d="M12.5782 54.1401C12.2273 54.7561 12.1294 55.1763 12.0601 55.5884C12.2477 55.0907 12.4558 54.5725 12.7006 54.0217C12.6802 53.9483 12.6557 53.9238 12.5741 54.1401H12.5782Z" fill="white"/>
<path d="M15.4986 49.0362C15.2783 49.3381 15.0457 49.693 14.8091 50.0643C15.062 49.7828 15.5271 49.1912 15.4986 49.0362Z" fill="white"/>
<path d="M11.8684 56.5308C11.8602 56.5635 11.848 56.5961 11.8398 56.6328C12.003 56.4533 11.9582 56.4656 11.8684 56.5308Z" fill="white"/>
<path d="M11.8683 56.5308C11.9744 56.18 12.0111 55.8821 12.0601 55.5884C11.9091 55.9923 11.7786 56.3717 11.6807 56.7063C11.7378 56.6369 11.8112 56.5716 11.8683 56.5308Z" fill="white"/>
<path d="M16.727 40.3298C16.9636 40.5787 16.4373 42.3942 15.4377 43.6998C14.9808 45.2338 16.3843 44.7483 17.5103 43.7569C17.4042 43.6508 17.2859 43.5978 17.8081 42.0434C17.4042 42.484 15.8947 45.1318 16.217 43.7651C16.9881 41.7455 17.0738 42.2147 17.6776 41.3416C16.931 41.974 18.3303 38.6163 17.596 38.7836L16.9677 40.5787C16.8698 40.5706 17.033 39.8892 16.731 40.3258L16.727 40.3298Z" fill="white"/>
<path d="M16.1642 46.5434L15.9194 47.1676C16.2907 46.4985 16.6375 46.0579 17.2943 45.2582C17.6248 44.1853 17.6166 43.9241 17.5514 43.8099L16.1112 46.7719L16.1642 46.5434Z" fill="white"/>
<path d="M14.6551 49.8889C14.5572 49.2687 15.0998 47.747 14.3369 48.4813C13.5291 50.2724 14.0227 49.8522 13.6719 50.9823C14.9121 48.0652 13.4679 51.8921 14.6062 49.893C14.3981 50.4845 14.1859 50.9986 13.9779 51.4841C14.2553 50.9823 14.5327 50.5049 14.8061 50.0643C14.7857 50.0888 14.7734 50.101 14.7571 50.1214V50.1337L14.749 50.1296C14.651 50.2357 14.6102 50.2642 14.6959 50.1337C14.6959 50.1214 14.7122 50.0888 14.7163 50.0725C14.6796 50.0317 14.6674 49.9623 14.6551 49.8889C15.108 49.0892 14.7979 49.795 14.7163 50.0725C14.7286 50.0888 14.7326 50.1173 14.749 50.1296C14.749 50.1296 14.753 50.1255 14.7571 50.1214L15.9199 47.1635C15.5935 47.751 15.2467 48.518 14.6551 49.8848V49.8889Z" fill="white"/>
<path d="M6.50342 63.695C6.57278 63.6175 6.59317 63.6297 6.61765 63.6338C6.66253 63.4298 6.66661 63.3441 6.50342 63.695Z" fill="white"/>
<path d="M7.22488 62.5812C7.17593 62.8138 7.22488 63.0463 6.89442 63.7195C6.53539 64.2744 6.73938 63.6502 6.62107 63.6338C6.52315 64.0867 6.21717 65.1842 6.94338 63.9562L6.98825 63.7318C7.61247 62.6098 8.6773 61.2839 8.63243 61.5083C8.1918 61.7204 7.8491 61.9285 7.22488 62.5853V62.5812Z" fill="white"/>
<path d="M10.8728 56.0984L11.8071 53.6179L10.9748 54.7194L11.1706 54.7317C10.4852 56.0739 10.8238 55.8699 10.8769 56.0984H10.8728Z" fill="white"/>
<path d="M17.9146 43.4591L18.1022 43.9323L18.2777 42.3289L17.9146 43.4591Z" fill="white"/>
<path d="M19.3467 40.3421L19.5874 40.595L19.7995 39.6934L19.3467 40.3421Z" fill="white"/>
<path d="M162.194 68.599L161.884 69.317C162.043 68.9825 162.137 68.7622 162.194 68.599Z" fill="white"/>
<path d="M165.625 62.7118L165.547 62.5282C165.445 62.8791 165.429 63.0382 165.625 62.7118Z" fill="white"/>
<path d="M80.0459 7.8911C81.0047 8.52348 82.0165 9.33944 82.0083 8.95594L81.8043 8.51532C81.0495 8.3358 80.4988 8.11549 80.0459 7.88702V7.8911Z" fill="white"/>
<path d="M126.813 39.571C126.76 39.469 126.707 39.3629 126.654 39.2609C126.372 39.1508 126.111 39.0488 125.875 38.959C126.156 39.1426 126.474 39.3548 126.813 39.5751V39.571Z" fill="white"/>
<path d="M128.409 39.0855L129.306 40.2809C129.123 39.9953 128.837 39.6036 128.409 39.0855Z" fill="white"/>
<path d="M147.115 95.4076L146.972 96.3745C147.682 95.1424 147.213 95.5952 147.115 95.4076Z" fill="white"/>
<path d="M35.1153 9.27008C35.7435 8.6581 36.225 8.22156 36.6411 7.8503C35.8047 8.3562 35.0418 8.87433 35.1153 9.27008Z" fill="white"/>
<path d="M160.051 64.8006C159.868 65.2453 159.831 65.4575 159.905 65.4861C160.096 65.0332 160.178 64.7598 160.051 64.8006Z" fill="white"/>
<path d="M38.465 6.52843C38.3263 6.56923 38.1916 6.61002 38.057 6.66306C37.5878 7.01393 37.1717 7.37703 36.6372 7.85029C37.2614 7.46271 37.8938 7.11592 38.4609 6.52843H38.465Z" fill="white"/>
<path d="M57.5011 77.4685C57.444 77.4114 57.3705 77.3543 57.3216 77.3012C57.2767 77.3298 57.3624 77.391 57.5011 77.4685Z" fill="white"/>
<path d="M27.8774 65.3963C28.0447 65.3637 28.2609 65.331 28.5017 65.2984C28.7424 65.2617 29.0076 65.2331 29.2646 65.2249C29.0116 65.2005 28.5914 65.2535 27.8774 65.3922V65.3963Z" fill="white"/>
<path d="M25.5397 28.0006C25.5234 28.123 25.2378 28.6615 25.5397 28.0006Z" fill="white"/>
<path d="M22.7125 30.5505C22.7451 30.3955 22.7533 30.2649 22.688 30.2119C22.7369 30.3016 22.741 30.4199 22.7125 30.5505Z" fill="white"/>
<path d="M44.3965 2.63219C44.4169 2.63219 44.4333 2.62811 44.4577 2.62403C44.2334 2.58323 44.2701 2.59547 44.3965 2.63219Z" fill="white"/>
<path d="M24.9072 28.9063C25.0663 28.6819 25.2418 28.4167 25.4172 28.1189C25.3274 28.2413 25.1683 28.4779 24.9072 28.9063Z" fill="white"/>
<path d="M25.1242 28.8492C25.0018 29.0695 24.9039 29.2408 24.8101 29.404C24.8223 29.5142 24.8917 29.4571 25.1242 28.8492Z" fill="white"/>
<path d="M25.972 27.0826C25.7925 27.458 25.6048 27.7966 25.4131 28.1189C25.4988 28.0006 25.5436 27.9557 25.5355 27.9965C25.6252 27.8047 25.7558 27.5314 25.972 27.0826Z" fill="white"/>
<path d="M103.962 114.852C103.922 114.819 103.873 114.791 103.832 114.75C103.089 114.55 103.399 114.677 103.962 114.852Z" fill="white"/>
<path d="M98.7764 12.3544C98.7438 12.3381 98.7234 12.3381 98.6948 12.3259C98.7234 12.3463 98.7601 12.3748 98.7846 12.3911L98.7764 12.3544Z" fill="white"/>
<path d="M101.184 13.5539C99.9884 13.301 99.4907 12.893 98.7808 12.3952L99.0092 13.7089C99.7273 13.6518 100.449 13.6029 101.18 13.558L101.184 13.5539Z" fill="white"/>
<path d="M155.527 80.3203L156.722 78.8883C156.061 81.071 155.103 82.3725 156.355 81.1037C155.527 80.3244 159.839 74.8574 159.011 74.0782L159.819 73.1439C159.635 73.4377 159.664 73.5192 159.484 73.813C161.125 72.0383 159.668 71.8955 161.329 69.3415C161.932 68.4684 162.442 67.9095 162.193 68.599L163.14 66.4203C163.503 65.8369 163.585 66.0776 163.226 66.6611L164.164 64.9475L165.531 62.4955L165.547 62.5282C165.645 62.1814 165.833 61.6429 166.004 61.137C166.09 60.8922 166.175 60.6433 166.253 60.4148C166.29 60.3047 166.326 60.2027 166.363 60.1048C166.379 60.0558 166.396 60.0109 166.412 59.9701C166.379 59.9457 166.294 59.9497 166.241 59.9416C165.739 59.7376 165.927 59.7539 166.245 59.8029C166.322 59.8151 166.412 59.8314 166.494 59.8437C166.538 59.8518 166.579 59.8559 166.616 59.8641C166.649 59.8641 166.628 59.8804 166.628 59.8926L166.616 59.9293C166.583 60.0191 166.587 60.0599 166.685 59.9661C166.702 59.9171 166.738 59.8641 166.742 59.8233L166.538 59.7906L166.139 59.7253L165.351 59.603L163.842 59.3745C163.43 59.1256 163.817 59.0726 164.633 59.1705C165.037 59.2194 165.547 59.301 166.082 59.4071C166.351 59.4602 166.624 59.5173 166.893 59.5785L167.093 59.6274L167.142 59.6397C167.142 59.6397 167.159 59.6397 167.167 59.6478L167.155 59.6682L167.101 59.758C167.032 59.8763 166.963 59.9946 166.893 60.1129C167.085 59.9171 167.261 59.7335 167.424 59.5581C167.432 59.5499 167.448 59.5336 167.448 59.5254L167.432 59.5132L167.399 59.4887L167.334 59.4398C167.289 59.4071 167.244 59.3745 167.199 59.3459C167.012 59.2276 166.804 59.1378 166.575 59.0644C166.122 58.9175 165.604 58.84 164.992 58.7543C164.694 58.7095 164.364 58.6605 163.985 58.6075C163.634 58.5504 163.25 58.4769 162.818 58.379C162.385 58.2811 161.904 58.1546 161.345 57.9833C161.206 57.9384 161.059 57.8935 160.908 57.8486C160.839 57.8241 160.741 57.7956 160.696 57.7752C160.647 57.7548 160.598 57.7344 160.549 57.714C160.353 57.6283 160.141 57.5304 159.921 57.4243L160.843 57.6242L162.336 57.9302C161.945 57.6691 161.463 57.4366 160.916 57.2244C160.586 57.0531 160.288 56.9143 159.929 56.7715C159.578 56.6288 159.195 56.49 158.791 56.3146C158.387 56.1351 157.959 55.927 157.506 55.6741C157.702 55.8413 158.591 56.4166 159.195 56.8613C159.795 57.3101 160.096 57.6732 159.044 57.5018C158.493 57.2611 157.775 56.9551 156.616 56.8123C156.735 56.4411 155.662 56.1555 154.352 55.6863L154.629 55.2334C153.193 54.8173 153.197 55.1151 152.292 54.9887C150.774 54.2706 150.623 53.7647 150.415 53.2874C148.041 52.0757 151.81 54.6623 148.905 53.4016C148.42 53.1242 147.979 52.8549 147.531 52.6264C147.086 52.398 146.641 52.194 146.188 51.9777C145.731 51.7656 145.254 51.5616 144.736 51.3495C144.222 51.121 143.667 50.8803 143.051 50.6069C141.802 49.6441 143.447 50.4804 143.043 50.0602L141.647 49.6808C141.366 49.4931 141.525 49.4442 141.607 49.4156C140.53 48.926 141.239 49.8154 139.62 48.9097C139.436 48.9587 139.175 48.8077 138.853 48.5425C138.535 48.2692 138.163 47.8734 137.743 47.4532C137.319 47.0371 136.87 46.5679 136.384 46.1558C135.895 45.7478 135.373 45.3888 134.834 45.1522C134.491 44.683 135.246 45.0747 135.238 44.8095C133.888 44.0058 133.337 43.6141 132.815 43.2959C132.292 42.9817 131.823 42.7084 130.669 42.0515C130.199 41.4722 129.751 40.8765 129.29 40.289C130.199 41.6884 128.368 40.6073 126.793 39.5791C127.074 40.1218 127.315 40.5869 127.499 40.8806C126.727 40.2646 125.969 39.6403 125.214 39.0039C125.026 38.6897 125.361 38.7754 125.854 38.9631C125.683 38.8529 125.52 38.7469 125.385 38.6693C124.785 37.784 125.385 37.9676 126.12 38.294C126.299 38.6204 126.47 38.9468 126.634 39.2691C127.368 39.5587 128.098 39.7709 128.204 39.4527C128.029 39.3629 127.731 39.1467 127.425 38.8856C127.617 38.959 127.76 38.9876 127.735 38.8856C127.703 38.7795 127.409 38.6449 126.98 38.4001L126.927 37.5229L126.65 37.5719C125.846 36.5845 125.051 35.585 124.263 34.5813C121.95 33.0147 119.702 31.8397 116.503 28.8696C117.564 29.351 117.168 28.5514 117.572 28.2413C118.013 29.4693 120.081 30.5301 121.55 32.2518C120.783 31.3583 121.134 31.3787 121.403 31.5378L118.27 28.9471C118.629 28.7268 117.903 28.1107 117.283 27.2336C117.258 28.3759 114.79 25.4425 113.407 24.4919C113.517 24.2267 114.015 24.2879 115.398 25.7608C114.243 23.7453 112.677 24.4348 111.44 22.5662C111.808 22.8967 111.971 23.1089 112.207 23.1415C111.216 22.5214 109.213 20.5304 109.866 20.7834C109.996 20.8854 110.123 20.9914 110.245 21.1016C109.637 20.5467 108.833 19.8858 107.981 19.1841C107.548 18.8414 107.108 18.4864 106.667 18.1315C106.206 17.8092 105.741 17.4909 105.292 17.189C104.394 16.5893 103.558 16.0589 102.889 15.7081C102.204 15.3857 101.702 15.2185 101.502 15.296C101.522 15.2022 102.326 14.835 102.575 14.8309L99.4865 14.2067C99.2294 14.1577 98.9806 14.1047 98.7235 14.0598L97.9484 13.9456L96.4062 13.7293C97.1528 13.4723 96.141 11.2447 98.6787 12.3259C98.0422 11.8608 97.2466 11.2814 95.7085 10.6368C96.1369 10.9795 96.4429 12.0566 95.786 11.7425C95.4393 11.3426 95.1904 11.0938 94.9905 10.9143C94.7906 10.7307 94.6437 10.6083 94.4805 10.4818C94.1541 10.2288 93.7747 9.96365 92.7955 9.1436C93.4524 9.62502 92.2448 10.0452 91.135 9.46999C91.3717 9.42511 91.4369 8.58467 91.898 8.70298C90.8087 8.53571 89.7193 8.397 88.6463 8.25012C89.4256 8.41739 89.087 7.59327 88.5403 7.06697C88.5974 7.14041 88.4709 7.10777 88.2343 7.01393C87.9977 6.91602 87.655 6.7569 87.2674 6.60595C86.5004 6.2918 85.5946 5.91646 85.1867 5.81038L86.3616 6.48763C84.7175 5.79406 83.7954 5.74511 82.8571 5.79406C81.9187 5.83894 80.9926 5.90014 79.3484 5.33712C79.7972 5.29224 80.6988 4.5334 79.0098 3.89694C78.5447 4.01526 77.5084 4.32124 76.2314 4.54564C75.5909 4.66803 74.8932 4.73331 74.1589 4.81082C73.4204 4.88426 72.6575 4.90466 71.8986 4.8353L71.3846 4.4518L70.2137 4.35796L69.0387 4.32532C69.4263 4.21517 69.9893 4.05198 70.6461 3.94182C71.303 3.82759 72.0618 3.71335 72.8533 3.61135C73.6407 3.51344 74.4689 3.3992 75.2319 3.36248C75.9948 3.32985 76.7169 3.31353 77.3085 3.32169C76.0723 2.77091 77.0311 2.91778 75.085 2.42412C74.7668 2.23237 75.0605 2.17933 75.4971 2.23645C75.9336 2.28541 76.5252 2.4078 76.8148 2.47716C75.3257 1.9835 73.7998 1.63672 72.2781 1.24913C72.3229 1.54696 71.4213 1.47352 70.5197 1.4368C69.6099 1.4164 68.7041 1.38785 68.7572 1.62856L70.0301 1.68975C70.4544 1.70607 70.8787 1.73055 71.2989 1.77951L73.8366 2.03246C73.8978 2.62811 70.6747 2.86882 67.4761 2.32621C66.6846 1.97942 68.235 1.4572 68.1982 1.26953C67.9698 1.33073 67.1864 1.29401 66.4235 1.22465C65.6565 1.18385 64.9099 1.11858 64.7671 1.0329L66.195 0.890107C65.2934 0.690195 64.5223 0.788111 63.7186 0.845229C62.9108 0.914586 62.0744 0.886027 60.9892 0.588199C60.2344 0.510683 58.7494 -0.240006 58.5984 0.0782205C59.8264 0.771792 59.9366 2.71379 59.1165 3.14217C59.0513 3.12993 58.782 3.06874 58.3944 2.98714C58.0068 2.90962 57.5091 2.77907 56.9869 2.69747C55.9465 2.51388 54.8205 2.30173 54.3921 2.14669C53.1437 1.65712 56.2443 0.975783 55.1877 0.555561C55.1428 0.706514 54.4533 0.890107 54.1677 0.951304C53.3681 0.832989 54.49 0.469884 52.7561 0.57188C52.4868 1.14306 49.2352 0.718754 51.9564 1.08594C51.116 1.21241 50.6672 1.20833 50.1817 1.18793C49.9369 1.17977 49.684 1.16754 49.3698 1.16346C49.0516 1.16346 48.6722 1.16346 48.1826 1.23281C48.8354 1.52248 46.5343 2.64851 44.9106 2.98714C44.9881 2.83619 44.5923 2.69339 44.4006 2.63219C42.7034 2.84843 41.3897 3.02386 40.1208 3.32169C38.8602 3.63175 37.6077 4.03158 36.2328 4.9577C36.0655 4.98218 35.6371 5.20657 35.3066 5.36976C34.9803 5.53703 34.7314 5.61863 34.9191 5.29632C34.609 5.70023 34.405 6.13269 33.7481 6.91602C32.9363 7.53615 33.2708 7.07513 33.6666 6.56515C34.0664 6.06333 34.5519 5.52071 33.793 5.8879C33.8624 6.04701 33.4666 6.62635 33.0342 7.34848C32.5976 8.07061 32.1285 8.94369 31.851 9.61278C32.1774 9.55159 32.614 8.8621 33.1199 8.05429C33.6176 7.2424 34.2296 6.32444 34.711 5.74103C34.9517 5.99805 34.711 6.66715 34.3071 7.63815C33.9032 8.57651 33.3442 9.88613 32.6956 11.3957C31.6103 13.7701 31.7654 12.1872 31.6389 12.6319C29.2399 16.9891 30.7495 16.9402 28.428 20.3876C27.2898 21.6483 27.6162 20.0572 27.1674 20.2367C28.0037 18.2416 28.9217 17.4093 29.5786 16.1079L28.5708 17.6133C28.7504 16.9361 29.3175 15.6061 29.7907 14.9655C28.7952 15.9977 25.8782 22.4112 23.8382 25.6873C23.6669 26.3646 23.2752 27.4865 23.6832 27.0663L24.1687 25.9525C24.9847 25.1121 23.5853 28.2168 24.4217 26.9153C23.9158 28.482 23.4547 30.2934 22.2675 32.2599L21.627 32.4272C21.782 32.4476 22.5572 31.2155 22.704 30.5668C22.4797 31.5215 20.5417 33.4227 20.6805 34.6548L21.6922 33.3615C21.2067 34.9445 20.7947 36.9884 19.7788 38.7509C20.6233 38.1308 19.9257 38.3022 21.0762 37.2577C19.8849 38.0696 23.3691 32.5985 21.8106 34.0754C23.059 33.0392 23.1936 31.9009 24.5604 30.4158C24.389 30.3954 23.9729 30.8891 24.8011 29.4C24.7929 29.3102 24.8174 29.1185 24.8378 29.0001C24.8664 28.9553 24.8745 28.9389 24.899 28.9022C24.8786 28.9308 24.8623 28.9512 24.8378 28.9757C24.85 28.8981 24.846 28.89 24.8174 29.0042C24.5726 29.3347 24.3482 29.5917 24.2054 29.6692C24.2421 28.7431 25.462 26.3238 25.6946 25.414C26.2168 24.545 25.6742 25.875 26.0781 25.4629L26.433 24.1084C26.8206 24.1533 28.1873 21.9869 27.3061 24.2063L28.2853 22.3011C29.0359 21.2689 29.9049 19.7634 30.2517 18.7394C30.778 17.8744 31.0595 16.2833 30.9086 17.1972L32.2549 14.1088L32.3488 14.1251C33.1403 12.6563 33.7563 11.1223 34.6008 9.74334C35.4372 8.37252 36.551 7.15265 38.0442 6.65899C38.7786 6.12453 39.6353 5.58191 41.3081 5.25553L41.7038 5.484C42.3199 5.27592 43.3154 5.16985 44.2456 5.08417C45.1798 4.9985 46.0325 4.95362 46.3099 4.74963C46.7098 4.92098 47.3258 4.96994 48.0684 4.94546C48.4396 4.94138 48.8394 4.88834 49.2637 4.88018C49.688 4.86386 50.1287 4.8353 50.5774 4.79858C51.475 4.72107 52.4052 4.63947 53.262 4.56195C54.1187 4.5334 54.9061 4.52116 55.5181 4.56195L55.612 4.14989C57.3051 4.13357 58.9248 4.14173 61.0422 4.08053L60.9402 3.70927C61.1728 3.68479 61.4176 3.67255 61.6787 3.67255C61.9357 3.68479 62.209 3.71335 62.4946 3.74599C63.0617 3.81535 63.6737 3.92142 64.3183 4.03974C64.9629 4.16621 65.6402 4.26413 66.3256 4.42732C67.0151 4.58235 67.7168 4.72107 68.4308 4.82714C68.2146 4.93322 67.5006 4.78227 67.0028 4.61907C67.8229 4.96178 68.6797 5.16577 69.5568 5.29632C69.9974 5.3616 70.4381 5.42688 70.8787 5.49216C71.3193 5.55335 71.764 5.60639 72.2087 5.65535C72.6534 5.70431 73.094 5.75734 73.5306 5.8063C73.9671 5.85526 74.3996 5.91238 74.8117 6.01437C75.6439 6.20205 76.4354 6.43868 77.1494 6.78546C77.9368 6.8589 78.4753 7.04249 78.9608 7.31176C78.8915 7.29136 78.8262 7.27504 78.7732 7.27096C78.8466 7.29952 78.9608 7.33624 79.0751 7.37296C79.3811 7.54023 79.6952 7.71974 80.042 7.89518C79.7605 7.71158 79.4871 7.54431 79.2383 7.426C79.8094 7.60551 80.6907 7.84214 81.5678 8.03389L81.8004 8.52347C81.8697 8.54387 81.9269 8.55611 82.0003 8.57651C82.392 8.77642 82.5674 8.80498 82.6123 8.71114C82.6531 8.62139 82.5592 8.40923 82.3879 8.19708C82.8326 8.28684 83.2447 8.36844 83.5751 8.39292C84.0157 9.2456 85.8517 9.03345 86.5004 10.0208C86.839 9.99221 87.8875 10.392 88.9442 10.747C89.4746 10.9224 90.0049 11.0897 90.4496 11.1835C90.8903 11.2896 91.237 11.3386 91.4247 11.2325C91.4125 11.3263 91.6287 11.4854 91.1962 11.2692C92.0571 11.7955 92.9098 12.3218 93.8033 12.5584L93.9461 13.1908C94.6967 13.3254 95.427 13.5172 96.1736 13.6845C97.1773 14.6187 97.5526 15.039 96.2226 14.7126C96.9814 14.9818 97.5118 15.1858 97.9157 15.3531C98.3155 15.5326 98.5807 15.6836 98.8419 15.8182C99.3641 16.0916 99.8292 16.3323 101.131 16.8341L100.841 17.0299C101.673 17.5195 103.154 18.1192 103.477 18.6741C103.648 18.8985 103.913 19.1637 104.252 19.4656C104.582 19.7756 105.011 20.0939 105.447 20.5019C106.332 21.3015 107.454 22.2072 108.625 23.219C110.943 25.2753 113.456 27.7762 115.198 29.9875C115.129 28.5432 116.699 32.1579 117.381 31.8152C117.442 32.2069 117.891 32.8637 117.124 32.3374C119.257 34.2672 119.828 35.7237 121.66 36.7437C121.726 37.1394 120.995 36.5233 121.101 36.8293C121.297 36.964 121.877 37.3597 121.991 37.6698C122.097 37.9758 121.562 37.4943 121.175 37.2292C123.247 39.3466 123.97 39.0692 124.582 38.7713C125.418 40.0524 125.977 40.5583 127.054 41.0071C127.278 41.5252 127.752 42.2963 126.377 41.0601C126.556 41.2478 126.919 41.6313 127.364 42.1005C127.817 42.5615 128.359 43.1041 128.894 43.61C129.441 44.1078 129.975 44.5729 130.399 44.8952C130.832 45.2093 131.154 45.3766 131.256 45.2991C131.419 45.6091 132.333 46.2823 132.59 46.4006C133.492 47.1472 133.965 47.5715 134.471 47.955C134.973 48.3385 135.454 48.7424 136.409 49.383L135.94 48.9424C137.049 48.9546 137.555 49.9541 139.147 50.9047L139.069 50.9292C140.721 52.2756 141.154 52.4592 141.558 52.6591C141.766 52.7529 141.966 52.8467 142.329 53.0793C142.692 53.3078 143.202 53.6913 144.063 54.2992L144.05 53.8463C144.43 53.5648 145.16 54.1401 146.127 54.8336C146.609 55.1804 147.135 55.5884 147.702 55.927C148.269 56.2697 148.856 56.5757 149.44 56.7593L148.742 56.1841C149.395 56.3432 150.121 56.9674 150.843 57.6487C151.561 58.3341 152.3 59.0195 152.904 59.3255C153.148 59.505 152.43 59.2602 152.027 59.1582C153.577 60.0558 153.748 59.9416 153.818 59.7621C153.891 59.5703 153.887 59.2684 155.135 59.6641C155.503 60.0803 154.303 60.1333 155.972 60.7494C156.163 60.8718 156.584 60.9819 157.139 61.1002C157.693 61.2145 158.391 61.3042 159.121 61.4307C159.301 61.4593 159.484 61.4919 159.668 61.5245C159.762 61.5245 159.86 61.5327 159.958 61.5409C160.158 61.5572 160.366 61.5857 160.562 61.6225C160.659 61.6429 160.757 61.6633 160.847 61.6877C160.925 61.7081 160.994 61.7285 161.059 61.753C161.186 61.802 161.276 61.8673 161.304 61.9366C161.402 61.7449 161.28 61.5001 162.161 61.549C162.234 61.5613 162.304 61.5776 162.369 61.5939L162.467 61.6225C162.467 61.6469 162.426 61.6877 162.406 61.7204C162.304 61.8632 162.189 62.0141 162.067 62.1651C161.822 62.467 161.557 62.7567 161.341 63.0096C161.231 63.1361 161.133 63.2544 161.047 63.3646C161.002 63.4217 160.965 63.4788 160.929 63.5318C160.876 63.6175 160.79 63.7644 160.729 63.8786C160.464 64.3641 160.272 64.8333 160.211 65.2739C160.043 65.4453 159.954 65.4942 159.901 65.4738C159.35 66.7712 157.877 69.5455 157.771 70.4553C155.955 70.8959 153.993 78.2967 152.928 77.648L150.835 81.3974L150.782 81.2383C149.334 83.572 149.109 84.5634 148.885 85.5466C148.493 86.0525 148.624 85.5955 148.595 85.514C146.368 88.8594 146.213 89.2307 145.066 92.4537L144.54 92.5557C144.287 93.4533 141.088 97.2761 139.522 100.883C139.501 100.826 139.477 100.719 139.583 100.422C138.681 102.433 137.066 104.497 135.626 106.15C134.185 107.814 132.941 109.067 132.884 110.115C132.602 110.487 132.28 110.821 131.978 111.18C131.652 111.507 131.342 111.866 130.995 112.176C132.46 111.127 132.443 111.29 132.248 111.698C132.044 112.086 131.619 112.673 132.296 112.286C132.023 112.539 131.68 112.788 131.325 112.979C131.15 113.081 130.983 113.171 130.82 113.253C130.652 113.322 130.501 113.383 130.367 113.424C129.84 113.6 129.657 113.534 130.387 113.032C130.477 113.004 130.571 112.979 130.66 112.943C130.685 112.69 130.456 112.718 130.089 112.861C129.722 113.008 129.228 113.302 128.69 113.551C127.637 114.093 126.458 114.53 126.413 114.265C123.158 115.55 119.588 115.856 116.189 115.517C112.77 115.182 109.531 114.199 106.475 112.877L106.965 113.718C106.239 113.42 105.525 113.09 104.815 112.751C104.566 112.551 104.431 112.355 104.545 112.306C104.66 112.253 105.015 112.355 105.773 112.698C105.113 112.061 103.134 111.735 103.024 111.817C101.628 110.927 102.012 110.915 102.603 111.09C103.203 111.254 104.04 111.556 103.599 111.315C103.195 111.119 102.787 110.923 102.387 110.707L102.62 110.919C101.543 110.585 101.31 110.776 99.6089 109.667C98.593 108.871 99.2621 108.997 98.85 108.7C98.8745 108.667 98.748 108.553 98.2176 108.255C97.4139 107.672 96.6183 107.076 95.835 106.46C96.0553 106.831 96.2838 107.186 96.5123 107.553C95.2965 106.958 94.2765 105.815 95.0517 107.096C94.4805 106.154 92.3304 104.351 90.2987 102.527C89.2665 101.637 88.2792 100.728 87.4754 100.006C86.688 99.2671 86.1005 98.6959 85.9129 98.4348C84.3054 97.3822 82.9632 96.0766 81.3394 94.4202C81.6821 94.8935 81.5556 95.5177 80.1766 94.0653C81.4618 93.8001 77.9001 91.1523 77.2881 89.4551C77.9694 90.8381 73.094 85.5588 74.216 87.6844C73.0655 86.4605 74.4281 87.3172 73.6815 86.2524C70.4911 83.8127 67.3904 80.0062 63.2943 77.0728C63.1474 77.1421 63.6737 77.8194 62.6945 77.3421C62.1478 76.6118 61.5726 75.91 60.9892 75.2001C60.5649 74.939 60.2589 74.9757 59.9121 74.8982C59.5572 74.8248 59.1614 74.6453 58.5372 73.9354C58.6882 74.1761 58.9044 74.5392 58.325 74.2128C57.3581 73.4417 56.3015 72.8012 55.2529 72.1239C54.7185 71.8057 54.1677 71.5079 53.621 71.206L52.7969 70.7572L51.9483 70.3492C51.3812 70.084 50.81 69.8148 50.2388 69.5496C49.6554 69.3129 49.0679 69.0804 48.4804 68.8438L47.5992 68.497L46.7016 68.191C46.1019 67.9911 45.5062 67.7789 44.8983 67.5872C43.6744 67.2526 42.4667 66.861 41.2183 66.5999C40.5982 66.4652 39.9862 66.2857 39.3579 66.1756L37.4812 65.8165L37.012 65.7227L36.5388 65.6574L35.5922 65.5187C34.9599 65.4289 34.3275 65.3025 33.6869 65.2535C33.0505 65.1882 32.41 65.1107 31.7653 65.0291C31.1207 64.9679 30.4761 64.9394 29.8274 64.8822C31.235 65.1026 30.3048 65.1678 29.2481 65.225C29.9417 65.2617 29.2563 65.5799 29.4031 65.7676C29.2277 65.7553 29.0482 65.7349 28.8687 65.7268H28.3342L27.2612 65.7186H26.1801L25.103 65.8043C24.7766 66.1633 23.6465 66.3428 22.598 66.71C22.0717 66.8732 21.5495 67.0323 21.1496 67.1914C20.7498 67.3546 20.4805 67.5586 20.4234 67.7136L21.0313 67.4199L21.6596 67.1792C20.9008 67.73 21.6188 67.8646 22.4797 67.9788C23.3446 68.089 24.3482 68.191 24.3278 68.6194C24.744 68.3583 25.2743 68.2236 25.87 68.1461C26.1678 68.1176 26.4779 68.0645 26.8124 68.0849C27.1429 68.0972 27.4815 68.1094 27.8324 68.1216C28.1792 68.1339 28.5341 68.142 28.8972 68.138C29.2563 68.1257 29.6275 68.1665 29.9947 68.1461C30.366 68.138 30.7372 68.1012 31.1167 68.036C31.3043 68.0074 31.4961 67.9584 31.6838 67.9176C31.8755 67.8809 32.0673 67.836 32.259 67.783C32.9322 67.9625 31.6797 68.0156 32.0387 68.2073C32.4263 68.0523 32.8547 67.9666 33.4054 67.9421C33.6788 67.938 33.9848 67.9217 34.3316 67.9707C34.6743 68.0156 35.0578 68.0808 35.4862 68.1624L35.2822 68.2236C35.8901 68.2848 36.4572 68.3052 36.9835 68.4072C37.5098 68.5051 38.0075 68.5949 38.4848 68.6806C38.7215 68.7295 38.954 68.7744 39.1866 68.8193C39.415 68.8805 39.6353 68.9417 39.8597 69.0029C40.3004 69.1294 40.7369 69.2517 41.1734 69.3782C41.6141 69.4965 42.0465 69.6597 42.4953 69.8229C42.9441 69.9861 43.4092 70.1534 43.9028 70.3288C44.3924 70.5083 44.8983 70.7409 45.4491 70.9612C45.9958 71.1897 46.5874 71.4141 47.2034 71.716L46.9709 71.2019C48.048 71.7037 48.2315 71.9118 48.7048 72.2137C50.198 72.1974 45.6409 70.9082 47.028 70.7817C47.3217 71.1162 47.9541 71.4875 48.7415 71.871C49.5289 72.2545 50.4469 72.7318 51.3689 73.1643C52.2665 73.6416 53.1437 74.1271 53.825 74.5678C54.49 75.041 54.9673 75.4613 55.0775 75.7876C56.636 76.726 54.8613 75.1145 56.4075 76.0855L56.6809 76.5546L57.2357 76.5465C58.219 77.2401 58.5331 77.848 58.4515 78.0438C58.2312 77.852 57.7457 77.6113 57.4764 77.4604C58.0435 77.9907 58.9329 78.6354 59.753 79.1494C60.5608 79.6839 61.2666 80.149 61.4543 80.3489L60.1447 79.1576C62.2172 80.5651 64.3754 82.348 66.4765 84.1717C68.5777 85.9954 70.6217 87.868 72.5718 89.3939L72.429 89.0022C75.3706 91.3767 74.4526 91.242 77.5166 94.0367L77.3779 93.9633C78.0959 94.4161 78.9527 95.1301 79.7482 95.942C78.8466 95.3586 80.8661 97.6229 79.7197 96.8273C82.9142 99.4384 81.3761 98.0472 83.7995 99.4425L84.0443 100.095C84.9092 100.528 85.0561 100.483 86.6391 101.837C85.1989 100.879 87.3122 103.074 85.6599 102.033C86.3576 102.894 87.0348 103.571 87.6794 104.126C88.3281 104.673 88.936 105.109 89.4827 105.501C90.5802 106.276 91.4329 106.864 91.9224 107.88C92.9832 108.181 92.2937 107.504 91.4982 106.803C90.6944 106.105 89.7805 105.375 90.266 105.672C89.7234 104.856 91.9306 106.276 92.9546 107.186C93.4932 107.631 93.7992 108.202 94.3296 108.94C94.8681 109.662 95.6229 110.568 97.1242 111.556C96.8305 111.352 96.7734 111.392 96.4837 111.188C97.4751 112.127 98.8296 112.4 100.078 113.534C101.127 113.563 101.955 114.599 102.489 114.15C101.498 113.689 100.51 113.204 99.5517 112.677C99.9679 112.886 100.404 113.045 100.861 113.2C101.314 113.359 101.787 113.502 102.289 113.673C103.289 114.02 104.394 114.444 105.725 115.203C105.451 115.244 104.554 115.023 103.942 114.852C104.313 115.121 104.721 115.272 105.133 115.419C105.549 115.562 105.969 115.697 106.365 115.962C106.128 116.207 105.166 115.884 104.044 115.382C102.918 114.885 101.641 114.224 100.645 113.938C100.996 114.305 101.906 114.644 102.563 114.909C103.228 115.162 103.644 115.354 103.036 115.448C103.46 115.411 103.872 115.488 104.297 115.627C104.717 115.774 105.145 115.986 105.61 116.198C105.843 116.304 106.084 116.419 106.328 116.533C106.581 116.635 106.842 116.733 107.112 116.827C107.65 117.014 108.246 117.129 108.882 117.153L108.613 117.475C109.001 117.549 109.849 117.577 110.543 117.777L109.135 117.916C109.662 117.945 110.147 118.059 110.624 118.181C111.106 118.295 111.567 118.467 112.036 118.614C112.505 118.752 112.974 118.911 113.452 119.018C113.933 119.115 114.419 119.189 114.916 119.185C112.86 118.952 112.66 118.744 112.75 118.618C112.844 118.479 113.223 118.353 112.407 118.063C114.896 118.238 115.573 118.467 116.357 118.838C117.136 119.136 118.029 119.621 120.914 119.279C120.526 119.344 119.788 119.332 119.306 119.279C118.821 119.201 118.592 119.087 119.192 118.989C119.739 119.001 120.371 119.018 120.95 119.034C121.534 119.034 122.072 119.062 122.423 119.111C124.316 118.74 124.137 118.63 123.704 118.618C123.264 118.577 122.566 118.561 123.333 118.304C124.692 118.503 125.116 117.72 126.609 117.071L126.748 117.439C127.266 117.28 127.67 117.141 127.98 117.014C128.286 116.872 128.502 116.753 128.661 116.647C128.975 116.439 129.049 116.296 129.114 116.158C129.175 116.023 129.22 115.88 129.473 115.688C129.718 115.484 130.191 115.268 131.036 114.807L130.485 115.472L129.889 116.1C130.179 115.917 130.473 115.746 130.75 115.546L131.578 114.946L131.46 115.55C131.676 115.366 131.876 115.199 132.06 115.044C132.239 114.885 132.403 114.738 132.562 114.599C132.88 114.334 133.157 114.097 133.435 113.865C133.716 113.64 134.006 113.42 134.316 113.163C134.475 113.036 134.642 112.906 134.826 112.759C135.001 112.608 135.189 112.449 135.393 112.274C134.83 112.412 135.132 111.592 136.348 110.209C136.85 109.809 136.809 110.005 136.845 110.046C136.886 110.087 137.017 109.981 137.821 108.936C137.645 109.548 137.466 110.27 136.421 110.899C136.437 111.074 136.193 111.502 136.197 111.682C136.784 111.266 137.384 110.613 137.886 109.964C138.4 109.32 138.808 108.675 139.093 108.288C138.865 108.577 138.571 108.916 138.392 109.063C139.04 107.937 139.608 106.794 140.138 105.652C140.587 105.24 140.428 105.693 140.268 106.15C140.652 105.489 140.787 104.95 141.341 103.987C141.464 104.399 141.79 104.514 141.056 105.942C141.611 104.865 142.133 103.788 142.627 102.715C142.867 102.584 143.871 101.348 143.74 101.805C144.879 100.218 145.576 97.3985 147.07 95.3055C147.082 95.1587 147.163 94.8976 147.396 94.4039C148.661 92.3599 150.068 90.7157 151.113 88.0312L152.418 86.9215C153.422 84.9265 150.697 88.4514 152.369 85.1304C153.528 82.7641 153.283 84.5266 153.883 83.8086C154.287 82.5316 154.915 80.2714 156.531 78.4151C156.225 79.1617 155.837 79.6594 155.498 80.3285L155.527 80.3203ZM159.101 57.5141C159.362 57.5508 159.758 57.5794 160.125 57.6446C160.309 57.6773 160.484 57.7181 160.635 57.767C160.692 57.7915 160.819 57.8282 160.912 57.869C161.006 57.9098 161.088 57.9506 161.149 57.9955C160.57 58.0853 160.386 58.0812 160.088 57.9792C159.807 57.8813 159.505 57.7017 159.101 57.51V57.5141ZM124.524 36.1602C124.892 36.352 125.271 36.8334 125.646 37.4331C125.275 37.0986 124.892 36.6784 124.524 36.1602ZM28.8401 20.7303C28.8442 20.7058 28.8483 20.6895 28.8483 20.6691C29.5255 19.6818 29.2807 20.0286 28.8401 20.7303ZM27.5713 22.8478C27.5101 23.0925 27.5631 23.1048 27.661 23.0354C27.6488 22.8355 27.8936 22.3419 28.2037 21.7911C28.0323 21.9012 27.8242 22.1542 27.5713 22.8478ZM98.5522 108.687L98.8827 109.034C97.9402 108.536 98.2462 108.618 98.5522 108.687Z" fill="white"/>
<path d="M128.212 39.1304C128.274 39.2813 128.249 39.3629 128.225 39.4404C128.42 39.5383 128.478 39.4853 128.212 39.1304Z" fill="white"/>
<path d="M147.139 95.228L147.094 95.2974C147.094 95.3504 147.098 95.3831 147.115 95.4075L147.139 95.228Z" fill="white"/>
<path d="M54.1885 0.347504C54.7066 0.404621 54.9963 0.473978 55.188 0.551495C55.2166 0.453579 54.98 0.371983 54.1885 0.347504Z" fill="white"/>
<path d="M22.3697 34.8343L22.9694 33.3737C22.6512 34.0673 22.4553 34.2754 22.231 34.5936C22.3289 34.6018 22.5818 34.3896 22.3697 34.8343Z" fill="white"/>
<path d="M14.2749 46.1558C14.2219 46.3843 14.075 46.6005 14.022 46.829L14.2137 46.8494C14.6176 45.9518 14.7727 45.2664 14.2749 46.1558Z" fill="white"/>
<path d="M20.5589 35.5768C20.2081 35.5442 19.8735 36.4866 19.4492 37.5066C19.4778 37.4454 19.5023 37.3883 19.5349 37.3311C19.8082 37.8248 20.1877 36.6988 20.5589 35.5768Z" fill="white"/>
<path d="M19.346 37.7432C19.2114 38.0574 19.0686 38.3756 18.9136 38.6693C19.0237 38.8652 19.1257 38.3103 19.346 37.7432Z" fill="white"/>
<path d="M26.3639 25.7363C26.0538 26.1687 26.5964 26.2218 26.3435 26.4258C26.4536 27.1357 27.4573 23.0762 26.3639 25.7363Z" fill="white"/>
<path d="M19.1836 35.9073L19.7262 35.7278L19.7017 35.0261L19.1836 35.9073Z" fill="white"/>
<path d="M23.3001 28.1883L22.4148 29.7223C22.4882 29.7304 22.4229 29.9467 22.3291 30.2078C22.8187 29.2327 23.4266 28.2005 23.3001 28.1842V28.1883Z" fill="white"/>
<path d="M22.3288 30.2078C22.0718 30.7137 21.8392 31.2033 21.7617 31.5174C21.8923 31.24 22.1738 30.6402 22.3288 30.2078Z" fill="white"/>
<path d="M20.1299 33.6756L20.4359 33.2432L21.0111 32.1335L20.1299 33.6756Z" fill="white"/>
<path d="M32.0184 11.2937C32.2917 10.7143 32.5773 10.1432 32.8792 9.58015C32.867 9.33944 32.5079 9.73519 32.1979 10.388C32.051 10.8367 31.7572 11.4854 32.0184 11.2937Z" fill="white"/>
<path d="M28.3223 15.9488C28.6364 15.5245 28.7343 15.5326 28.9914 15.3327L28.5671 15.0471L28.3223 15.9447V15.9488Z" fill="white"/>
<path d="M30.8309 10.8857C30.786 10.6491 31.8998 8.17671 30.68 10.388C30.6963 10.6328 29.8803 12.4157 30.8309 10.8857Z" fill="white"/>
<path d="M57.2031 1.73872L56.7095 1.7428L56.7666 2.57509L57.2031 1.73872Z" fill="white"/>
<path d="M83.0573 4.41509C80.8868 3.49713 82.3678 4.72924 80.4299 3.83575C79.8505 3.85207 82.0087 4.56196 81.4213 4.54972C82.8247 4.79043 83.4938 5.13314 83.0532 4.41101L83.0573 4.41509Z" fill="white"/>
<path d="M81.4248 4.55378C81.2004 4.51298 80.9597 4.48034 80.7026 4.45178C81.1065 4.5293 81.2983 4.5497 81.4248 4.55378Z" fill="white"/>
<path d="M22.2066 66.098C21.6885 66.1959 21.1663 66.2898 20.644 66.3958C20.999 66.3754 21.3539 66.3714 21.7048 66.3591L22.2066 66.098Z" fill="white"/>
<path d="M19.5913 67.6729L19.0487 67.322L18.3755 68.1135C18.6896 67.9584 19.3016 67.6606 19.5913 67.6729Z" fill="white"/>
<path d="M155.694 55.2294L155.547 55.311C155.706 55.515 156.012 55.6414 156.633 55.8903L155.694 55.2294Z" fill="white"/>
<path d="M161.712 70.4635L161.892 70.1697L161.157 70.4879L161.712 70.4635Z" fill="white"/>
<path d="M153.851 85.2691C154.21 84.6857 154.52 83.9391 154.883 83.3557C154.21 84.6898 153.243 85.1304 153.851 85.2691Z" fill="white"/>
</svg>
